M48
;GenerationSoftware,Autodesk,EAGLE,9.6.2*%
;CreationDate,2022-05-28T20:40:23Z*%
FMAT,2
ICI,OFF
METRIC,TZ,000.000
T5C0.350
T4C0.813
T3C0.914
T2C1.016
T1C1.100
%
G90
M71
T1
X40640Y20170
X40640Y23170
X40640Y31670
X31115Y20170
X31115Y23170
X31115Y31670
X21590Y20170
X21590Y23170
X21590Y31670
X12065Y20170
X12065Y23170
X12065Y31670
T2
X5080Y25400
X2540Y25400
X5080Y27940
X2540Y27940
X5080Y30480
X2540Y30480
X50165Y25400
X47625Y25400
X36195Y12065
X36195Y14605
X36195Y17145
X36195Y19685
X47625Y20320
X47625Y17780
X5080Y20320
X5080Y17780
X16510Y12065
X50165Y27940
X16510Y17145
X16510Y19685
X47625Y27940
X50165Y30480
X47625Y30480
X27940Y15875
X25400Y15875
X16510Y14605
T3
X24130Y3175
X21590Y3175
X21590Y5715
X24130Y5715
X26670Y3175
X26670Y5715
X29210Y3175
X31750Y5715
X31750Y3175
X29210Y5715
T4
X9525Y6985
X43180Y4445
X43180Y6985
X9525Y4445
X13970Y9525
X13970Y1905
X39370Y1905
X39370Y9525
T5
X19050Y17145
X30480Y14605
M30