G04 EAGLE Gerber RS-274X export*
G75*
%MOMM*%
%FSLAX34Y34*%
%LPD*%
%INTop Copper*%
%IPPOS*%
%AMOC8*
5,1,8,0,0,1.08239X$1,22.5*%
G01*
%ADD10P,1.429621X8X292.500000*%
%ADD11P,1.539592X8X22.500000*%
%ADD12P,1.429621X8X112.500000*%
%ADD13C,1.524000*%
%ADD14C,1.650000*%
%ADD15C,0.609600*%
%ADD16C,0.756400*%

G36*
X144898Y10162D02*
X144898Y10162D01*
X144907Y10161D01*
X145099Y10182D01*
X145290Y10201D01*
X145299Y10203D01*
X145308Y10204D01*
X145490Y10262D01*
X145675Y10319D01*
X145683Y10323D01*
X145692Y10326D01*
X145860Y10419D01*
X146029Y10511D01*
X146036Y10516D01*
X146044Y10521D01*
X146191Y10645D01*
X146338Y10768D01*
X146344Y10775D01*
X146351Y10781D01*
X146470Y10932D01*
X146591Y11082D01*
X146595Y11090D01*
X146600Y11097D01*
X146688Y11270D01*
X146776Y11439D01*
X146779Y11448D01*
X146783Y11456D01*
X146835Y11642D01*
X146888Y11826D01*
X146888Y11835D01*
X146891Y11844D01*
X146905Y12037D01*
X146921Y12228D01*
X146920Y12236D01*
X146920Y12245D01*
X146896Y12438D01*
X146874Y12627D01*
X146871Y12636D01*
X146870Y12645D01*
X146808Y12828D01*
X146749Y13010D01*
X146744Y13018D01*
X146742Y13026D01*
X146646Y13192D01*
X146551Y13361D01*
X146545Y13368D01*
X146541Y13375D01*
X146326Y13628D01*
X144271Y15683D01*
X144271Y22417D01*
X149033Y27179D01*
X155767Y27179D01*
X160529Y22417D01*
X160529Y15683D01*
X158474Y13628D01*
X158468Y13621D01*
X158462Y13616D01*
X158341Y13466D01*
X158219Y13317D01*
X158215Y13309D01*
X158209Y13302D01*
X158121Y13132D01*
X158030Y12961D01*
X158028Y12952D01*
X158024Y12945D01*
X157971Y12760D01*
X157916Y12575D01*
X157915Y12566D01*
X157912Y12558D01*
X157897Y12367D01*
X157879Y12174D01*
X157880Y12165D01*
X157879Y12156D01*
X157902Y11967D01*
X157923Y11774D01*
X157925Y11765D01*
X157926Y11757D01*
X157986Y11575D01*
X158044Y11390D01*
X158048Y11382D01*
X158051Y11374D01*
X158146Y11205D01*
X158239Y11038D01*
X158245Y11031D01*
X158249Y11023D01*
X158375Y10877D01*
X158499Y10731D01*
X158506Y10725D01*
X158512Y10718D01*
X158664Y10601D01*
X158815Y10481D01*
X158823Y10477D01*
X158830Y10472D01*
X159002Y10386D01*
X159174Y10299D01*
X159183Y10296D01*
X159191Y10292D01*
X159377Y10242D01*
X159562Y10191D01*
X159571Y10190D01*
X159580Y10188D01*
X159910Y10161D01*
X398890Y10161D01*
X398898Y10162D01*
X398907Y10161D01*
X399099Y10182D01*
X399290Y10201D01*
X399299Y10203D01*
X399308Y10204D01*
X399490Y10262D01*
X399675Y10319D01*
X399683Y10323D01*
X399692Y10326D01*
X399860Y10419D01*
X400029Y10511D01*
X400036Y10516D01*
X400044Y10521D01*
X400191Y10645D01*
X400338Y10768D01*
X400344Y10775D01*
X400351Y10781D01*
X400470Y10932D01*
X400591Y11082D01*
X400595Y11090D01*
X400600Y11097D01*
X400688Y11270D01*
X400776Y11439D01*
X400779Y11448D01*
X400783Y11456D01*
X400835Y11642D01*
X400888Y11826D01*
X400888Y11835D01*
X400891Y11844D01*
X400905Y12037D01*
X400921Y12228D01*
X400920Y12236D01*
X400920Y12245D01*
X400896Y12438D01*
X400874Y12627D01*
X400871Y12636D01*
X400870Y12645D01*
X400808Y12828D01*
X400749Y13010D01*
X400744Y13018D01*
X400742Y13026D01*
X400646Y13192D01*
X400551Y13361D01*
X400545Y13368D01*
X400541Y13375D01*
X400326Y13628D01*
X398271Y15683D01*
X398271Y22417D01*
X403033Y27179D01*
X409767Y27179D01*
X414529Y22417D01*
X414529Y15683D01*
X412474Y13628D01*
X412468Y13621D01*
X412462Y13616D01*
X412341Y13466D01*
X412219Y13317D01*
X412215Y13309D01*
X412209Y13302D01*
X412121Y13132D01*
X412030Y12961D01*
X412028Y12952D01*
X412024Y12945D01*
X411971Y12760D01*
X411916Y12575D01*
X411915Y12566D01*
X411912Y12558D01*
X411897Y12367D01*
X411879Y12174D01*
X411880Y12165D01*
X411879Y12156D01*
X411902Y11967D01*
X411923Y11774D01*
X411925Y11765D01*
X411926Y11757D01*
X411986Y11575D01*
X412044Y11390D01*
X412048Y11382D01*
X412051Y11374D01*
X412146Y11205D01*
X412239Y11038D01*
X412245Y11031D01*
X412249Y11023D01*
X412375Y10877D01*
X412499Y10731D01*
X412506Y10725D01*
X412512Y10718D01*
X412664Y10601D01*
X412815Y10481D01*
X412823Y10477D01*
X412830Y10472D01*
X413002Y10386D01*
X413174Y10299D01*
X413183Y10296D01*
X413191Y10292D01*
X413377Y10242D01*
X413562Y10191D01*
X413571Y10190D01*
X413580Y10188D01*
X413910Y10161D01*
X450125Y10161D01*
X450220Y10170D01*
X450315Y10170D01*
X450420Y10190D01*
X450525Y10201D01*
X450617Y10229D01*
X450710Y10247D01*
X450809Y10288D01*
X450910Y10319D01*
X450994Y10364D01*
X451083Y10401D01*
X451171Y10460D01*
X451264Y10511D01*
X451338Y10572D01*
X451417Y10625D01*
X451492Y10700D01*
X451574Y10768D01*
X451633Y10843D01*
X451701Y10911D01*
X451775Y11018D01*
X451826Y11082D01*
X451850Y11128D01*
X451888Y11184D01*
X532279Y151869D01*
X532334Y151990D01*
X532396Y152107D01*
X532415Y152173D01*
X532444Y152236D01*
X532473Y152366D01*
X532511Y152493D01*
X532517Y152562D01*
X532532Y152629D01*
X532535Y152762D01*
X532547Y152894D01*
X532540Y152963D01*
X532541Y153032D01*
X532518Y153162D01*
X532504Y153294D01*
X532483Y153360D01*
X532471Y153428D01*
X532422Y153552D01*
X532382Y153678D01*
X532349Y153739D01*
X532324Y153803D01*
X532252Y153914D01*
X532187Y154031D01*
X532143Y154083D01*
X532105Y154141D01*
X532013Y154236D01*
X531927Y154338D01*
X531873Y154380D01*
X531825Y154430D01*
X531715Y154505D01*
X531611Y154587D01*
X531549Y154618D01*
X531493Y154657D01*
X531370Y154709D01*
X531252Y154770D01*
X531186Y154788D01*
X531122Y154815D01*
X530992Y154842D01*
X530864Y154878D01*
X530795Y154883D01*
X530728Y154897D01*
X530595Y154897D01*
X530463Y154907D01*
X530394Y154898D01*
X530325Y154899D01*
X530195Y154873D01*
X530063Y154857D01*
X529998Y154835D01*
X529930Y154821D01*
X529807Y154771D01*
X529681Y154728D01*
X529622Y154694D01*
X529558Y154668D01*
X529448Y154594D01*
X529333Y154527D01*
X529272Y154476D01*
X529224Y154444D01*
X529169Y154389D01*
X529080Y154313D01*
X456018Y81251D01*
X456001Y81230D01*
X455980Y81213D01*
X455873Y81075D01*
X455763Y80939D01*
X455750Y80916D01*
X455734Y80895D01*
X455656Y80738D01*
X455574Y80584D01*
X455566Y80558D01*
X455554Y80534D01*
X455509Y80365D01*
X455459Y80198D01*
X455457Y80171D01*
X455450Y80145D01*
X455423Y79815D01*
X455423Y77614D01*
X455425Y77588D01*
X455423Y77561D01*
X455445Y77387D01*
X455463Y77214D01*
X455470Y77188D01*
X455474Y77162D01*
X455530Y76996D01*
X455581Y76829D01*
X455594Y76805D01*
X455602Y76780D01*
X455689Y76628D01*
X455773Y76475D01*
X455790Y76454D01*
X455803Y76431D01*
X456018Y76178D01*
X458979Y73217D01*
X458979Y66483D01*
X454217Y61721D01*
X447483Y61721D01*
X444522Y64682D01*
X444501Y64699D01*
X444484Y64720D01*
X444346Y64827D01*
X444210Y64937D01*
X444187Y64950D01*
X444166Y64966D01*
X444009Y65044D01*
X443855Y65126D01*
X443829Y65134D01*
X443805Y65146D01*
X443636Y65191D01*
X443469Y65241D01*
X443442Y65243D01*
X443416Y65250D01*
X443086Y65277D01*
X402785Y65277D01*
X402759Y65275D01*
X402732Y65277D01*
X402558Y65255D01*
X402385Y65237D01*
X402359Y65230D01*
X402333Y65226D01*
X402167Y65171D01*
X402000Y65119D01*
X401976Y65106D01*
X401951Y65098D01*
X401799Y65011D01*
X401646Y64927D01*
X401625Y64910D01*
X401602Y64897D01*
X401349Y64682D01*
X377240Y40573D01*
X375560Y39877D01*
X339191Y39877D01*
X339182Y39876D01*
X339173Y39877D01*
X338981Y39856D01*
X338790Y39837D01*
X338782Y39835D01*
X338773Y39834D01*
X338590Y39776D01*
X338405Y39719D01*
X338397Y39715D01*
X338389Y39712D01*
X338220Y39619D01*
X338051Y39527D01*
X338044Y39522D01*
X338037Y39517D01*
X337889Y39392D01*
X337742Y39270D01*
X337736Y39263D01*
X337730Y39257D01*
X337610Y39105D01*
X337490Y38956D01*
X337486Y38948D01*
X337480Y38941D01*
X337393Y38769D01*
X337304Y38599D01*
X337302Y38590D01*
X337298Y38582D01*
X337246Y38396D01*
X337193Y38212D01*
X337192Y38203D01*
X337190Y38194D01*
X337175Y38002D01*
X337160Y37810D01*
X337161Y37802D01*
X337160Y37793D01*
X337185Y37600D01*
X337207Y37411D01*
X337209Y37402D01*
X337211Y37393D01*
X337272Y37210D01*
X337332Y37028D01*
X337336Y37020D01*
X337339Y37012D01*
X337434Y36846D01*
X337529Y36677D01*
X337535Y36670D01*
X337540Y36663D01*
X337754Y36410D01*
X338837Y35327D01*
X338837Y28173D01*
X333777Y23113D01*
X326623Y23113D01*
X321563Y28173D01*
X321563Y35327D01*
X325032Y38796D01*
X325049Y38817D01*
X325070Y38835D01*
X325177Y38973D01*
X325287Y39108D01*
X325300Y39132D01*
X325316Y39153D01*
X325394Y39309D01*
X325476Y39464D01*
X325484Y39489D01*
X325496Y39513D01*
X325541Y39683D01*
X325591Y39850D01*
X325593Y39876D01*
X325600Y39902D01*
X325627Y40233D01*
X325627Y48667D01*
X325625Y48694D01*
X325627Y48721D01*
X325605Y48894D01*
X325587Y49068D01*
X325580Y49093D01*
X325576Y49120D01*
X325520Y49286D01*
X325469Y49453D01*
X325456Y49476D01*
X325448Y49502D01*
X325361Y49653D01*
X325277Y49807D01*
X325260Y49827D01*
X325247Y49851D01*
X325032Y50104D01*
X321563Y53573D01*
X321563Y60727D01*
X326623Y65787D01*
X333777Y65787D01*
X338837Y60727D01*
X338837Y53573D01*
X337754Y52490D01*
X337749Y52483D01*
X337742Y52478D01*
X337622Y52328D01*
X337499Y52179D01*
X337495Y52171D01*
X337490Y52164D01*
X337401Y51994D01*
X337311Y51823D01*
X337308Y51814D01*
X337304Y51807D01*
X337251Y51622D01*
X337196Y51437D01*
X337195Y51428D01*
X337193Y51420D01*
X337177Y51229D01*
X337160Y51036D01*
X337161Y51027D01*
X337160Y51018D01*
X337182Y50829D01*
X337203Y50636D01*
X337206Y50627D01*
X337207Y50619D01*
X337266Y50436D01*
X337324Y50252D01*
X337329Y50244D01*
X337332Y50236D01*
X337426Y50069D01*
X337519Y49900D01*
X337525Y49893D01*
X337529Y49885D01*
X337655Y49740D01*
X337780Y49593D01*
X337787Y49587D01*
X337793Y49580D01*
X337943Y49464D01*
X338096Y49343D01*
X338104Y49339D01*
X338111Y49334D01*
X338282Y49248D01*
X338455Y49161D01*
X338463Y49158D01*
X338471Y49154D01*
X338657Y49104D01*
X338843Y49053D01*
X338851Y49052D01*
X338860Y49050D01*
X339191Y49023D01*
X371915Y49023D01*
X371941Y49025D01*
X371968Y49023D01*
X372142Y49045D01*
X372315Y49063D01*
X372341Y49070D01*
X372367Y49074D01*
X372533Y49129D01*
X372700Y49181D01*
X372724Y49194D01*
X372749Y49202D01*
X372901Y49289D01*
X373054Y49373D01*
X373075Y49390D01*
X373098Y49403D01*
X373351Y49618D01*
X397460Y73727D01*
X399140Y74423D01*
X443086Y74423D01*
X443112Y74425D01*
X443139Y74423D01*
X443313Y74445D01*
X443486Y74463D01*
X443512Y74470D01*
X443538Y74474D01*
X443704Y74529D01*
X443871Y74581D01*
X443895Y74594D01*
X443920Y74602D01*
X444072Y74689D01*
X444225Y74773D01*
X444246Y74790D01*
X444269Y74803D01*
X444522Y75018D01*
X445682Y76178D01*
X445699Y76199D01*
X445720Y76216D01*
X445827Y76354D01*
X445937Y76490D01*
X445950Y76513D01*
X445966Y76534D01*
X446044Y76691D01*
X446126Y76845D01*
X446134Y76871D01*
X446146Y76895D01*
X446191Y77064D01*
X446241Y77231D01*
X446243Y77258D01*
X446250Y77284D01*
X446277Y77614D01*
X446277Y83460D01*
X446973Y85140D01*
X528232Y166399D01*
X528249Y166420D01*
X528270Y166437D01*
X528377Y166575D01*
X528487Y166711D01*
X528500Y166734D01*
X528516Y166755D01*
X528594Y166912D01*
X528676Y167066D01*
X528684Y167092D01*
X528696Y167116D01*
X528741Y167285D01*
X528791Y167452D01*
X528793Y167479D01*
X528800Y167505D01*
X528827Y167835D01*
X528827Y230124D01*
X528825Y230142D01*
X528827Y230160D01*
X528806Y230342D01*
X528787Y230525D01*
X528782Y230542D01*
X528780Y230559D01*
X528723Y230734D01*
X528669Y230910D01*
X528661Y230925D01*
X528655Y230942D01*
X528565Y231102D01*
X528477Y231264D01*
X528466Y231277D01*
X528457Y231293D01*
X528337Y231432D01*
X528220Y231573D01*
X528206Y231584D01*
X528194Y231598D01*
X528049Y231710D01*
X527906Y231825D01*
X527890Y231833D01*
X527876Y231844D01*
X527711Y231926D01*
X527549Y232011D01*
X527532Y232016D01*
X527516Y232024D01*
X527337Y232071D01*
X527162Y232122D01*
X527144Y232124D01*
X527127Y232128D01*
X526796Y232155D01*
X523961Y232155D01*
X520600Y233547D01*
X518027Y236120D01*
X516635Y239481D01*
X516635Y243119D01*
X518027Y246480D01*
X520600Y249053D01*
X522902Y250006D01*
X523961Y250445D01*
X526796Y250445D01*
X526814Y250447D01*
X526832Y250445D01*
X527014Y250466D01*
X527197Y250485D01*
X527214Y250490D01*
X527231Y250492D01*
X527406Y250549D01*
X527582Y250603D01*
X527597Y250611D01*
X527614Y250617D01*
X527774Y250707D01*
X527936Y250795D01*
X527949Y250806D01*
X527965Y250815D01*
X528104Y250935D01*
X528245Y251052D01*
X528256Y251066D01*
X528270Y251078D01*
X528382Y251223D01*
X528497Y251366D01*
X528505Y251382D01*
X528516Y251396D01*
X528598Y251561D01*
X528683Y251723D01*
X528688Y251740D01*
X528696Y251756D01*
X528743Y251935D01*
X528794Y252110D01*
X528796Y252128D01*
X528800Y252145D01*
X528827Y252476D01*
X528827Y255524D01*
X528825Y255542D01*
X528827Y255560D01*
X528806Y255742D01*
X528787Y255925D01*
X528782Y255942D01*
X528780Y255959D01*
X528723Y256134D01*
X528669Y256310D01*
X528661Y256325D01*
X528655Y256342D01*
X528565Y256502D01*
X528477Y256664D01*
X528466Y256677D01*
X528457Y256693D01*
X528337Y256832D01*
X528220Y256973D01*
X528206Y256984D01*
X528194Y256998D01*
X528049Y257110D01*
X527906Y257225D01*
X527890Y257233D01*
X527876Y257244D01*
X527711Y257326D01*
X527549Y257411D01*
X527532Y257416D01*
X527516Y257424D01*
X527337Y257471D01*
X527162Y257522D01*
X527144Y257524D01*
X527127Y257528D01*
X526796Y257555D01*
X523961Y257555D01*
X520600Y258947D01*
X518027Y261520D01*
X516635Y264881D01*
X516635Y268519D01*
X518027Y271880D01*
X520600Y274453D01*
X523961Y275845D01*
X526796Y275845D01*
X526814Y275847D01*
X526832Y275845D01*
X527014Y275866D01*
X527197Y275885D01*
X527214Y275890D01*
X527231Y275892D01*
X527406Y275949D01*
X527582Y276003D01*
X527597Y276011D01*
X527614Y276017D01*
X527774Y276107D01*
X527936Y276195D01*
X527949Y276206D01*
X527965Y276215D01*
X528104Y276335D01*
X528245Y276452D01*
X528256Y276466D01*
X528270Y276478D01*
X528382Y276623D01*
X528497Y276766D01*
X528505Y276782D01*
X528516Y276796D01*
X528598Y276961D01*
X528683Y277123D01*
X528688Y277140D01*
X528696Y277156D01*
X528743Y277335D01*
X528794Y277510D01*
X528796Y277528D01*
X528800Y277545D01*
X528827Y277876D01*
X528827Y280924D01*
X528825Y280942D01*
X528827Y280960D01*
X528806Y281142D01*
X528787Y281325D01*
X528782Y281342D01*
X528780Y281359D01*
X528723Y281534D01*
X528669Y281710D01*
X528661Y281725D01*
X528655Y281742D01*
X528565Y281902D01*
X528477Y282064D01*
X528466Y282077D01*
X528457Y282093D01*
X528337Y282232D01*
X528220Y282373D01*
X528206Y282384D01*
X528194Y282398D01*
X528049Y282510D01*
X527906Y282625D01*
X527890Y282633D01*
X527876Y282644D01*
X527711Y282726D01*
X527549Y282811D01*
X527532Y282816D01*
X527516Y282824D01*
X527337Y282871D01*
X527162Y282922D01*
X527144Y282924D01*
X527127Y282928D01*
X526796Y282955D01*
X523961Y282955D01*
X520600Y284347D01*
X518027Y286920D01*
X516635Y290281D01*
X516635Y293919D01*
X518027Y297280D01*
X520600Y299853D01*
X523961Y301245D01*
X543082Y301245D01*
X543091Y301246D01*
X543100Y301245D01*
X543293Y301266D01*
X543483Y301285D01*
X543491Y301287D01*
X543500Y301288D01*
X543685Y301347D01*
X543868Y301403D01*
X543875Y301407D01*
X543884Y301410D01*
X544053Y301503D01*
X544222Y301595D01*
X544228Y301600D01*
X544236Y301605D01*
X544383Y301729D01*
X544531Y301852D01*
X544536Y301859D01*
X544543Y301865D01*
X544663Y302017D01*
X544783Y302166D01*
X544787Y302174D01*
X544793Y302181D01*
X544881Y302354D01*
X544969Y302523D01*
X544971Y302532D01*
X544975Y302540D01*
X545027Y302726D01*
X545080Y302910D01*
X545081Y302919D01*
X545083Y302928D01*
X545097Y303121D01*
X545113Y303312D01*
X545112Y303320D01*
X545113Y303329D01*
X545088Y303522D01*
X545066Y303711D01*
X545063Y303720D01*
X545062Y303729D01*
X545001Y303912D01*
X544941Y304094D01*
X544937Y304102D01*
X544934Y304110D01*
X544838Y304277D01*
X544743Y304445D01*
X544737Y304452D01*
X544733Y304459D01*
X544518Y304712D01*
X523436Y325794D01*
X523416Y325811D01*
X523398Y325832D01*
X523260Y325939D01*
X523125Y326049D01*
X523101Y326062D01*
X523080Y326078D01*
X522923Y326156D01*
X522769Y326238D01*
X522744Y326246D01*
X522719Y326258D01*
X522550Y326303D01*
X522383Y326353D01*
X522357Y326355D01*
X522331Y326362D01*
X522000Y326389D01*
X440838Y326389D01*
X440829Y326388D01*
X440820Y326389D01*
X440628Y326368D01*
X440438Y326349D01*
X440429Y326347D01*
X440420Y326346D01*
X440238Y326288D01*
X440053Y326231D01*
X440045Y326227D01*
X440036Y326224D01*
X439868Y326131D01*
X439699Y326039D01*
X439692Y326034D01*
X439684Y326029D01*
X439536Y325904D01*
X439389Y325782D01*
X439384Y325775D01*
X439377Y325769D01*
X439257Y325617D01*
X439137Y325468D01*
X439133Y325460D01*
X439127Y325453D01*
X439040Y325280D01*
X438951Y325111D01*
X438949Y325102D01*
X438945Y325094D01*
X438893Y324909D01*
X438840Y324724D01*
X438839Y324715D01*
X438837Y324706D01*
X438823Y324512D01*
X438807Y324322D01*
X438808Y324314D01*
X438808Y324305D01*
X438832Y324114D01*
X438854Y323923D01*
X438857Y323914D01*
X438858Y323905D01*
X438919Y323724D01*
X438979Y323540D01*
X438983Y323532D01*
X438986Y323524D01*
X439082Y323356D01*
X439177Y323189D01*
X439183Y323182D01*
X439187Y323175D01*
X439402Y322922D01*
X440087Y322237D01*
X441575Y318644D01*
X441575Y314756D01*
X440087Y311163D01*
X437337Y308413D01*
X433744Y306925D01*
X429856Y306925D01*
X426263Y308413D01*
X423513Y311163D01*
X422025Y314756D01*
X422025Y318644D01*
X423513Y322237D01*
X424198Y322922D01*
X424204Y322929D01*
X424211Y322934D01*
X424330Y323083D01*
X424453Y323233D01*
X424457Y323241D01*
X424463Y323248D01*
X424551Y323418D01*
X424642Y323589D01*
X424644Y323598D01*
X424649Y323605D01*
X424702Y323790D01*
X424757Y323975D01*
X424757Y323984D01*
X424760Y323992D01*
X424775Y324181D01*
X424793Y324376D01*
X424792Y324385D01*
X424793Y324394D01*
X424771Y324583D01*
X424750Y324776D01*
X424747Y324785D01*
X424746Y324793D01*
X424686Y324976D01*
X424628Y325160D01*
X424624Y325168D01*
X424621Y325176D01*
X424526Y325344D01*
X424433Y325512D01*
X424428Y325519D01*
X424423Y325527D01*
X424297Y325673D01*
X424173Y325819D01*
X424166Y325825D01*
X424160Y325832D01*
X424007Y325950D01*
X423857Y326069D01*
X423849Y326073D01*
X423842Y326078D01*
X423670Y326164D01*
X423498Y326251D01*
X423489Y326254D01*
X423481Y326258D01*
X423296Y326307D01*
X423110Y326359D01*
X423101Y326360D01*
X423093Y326362D01*
X422762Y326389D01*
X339238Y326389D01*
X339229Y326388D01*
X339220Y326389D01*
X339028Y326368D01*
X338838Y326349D01*
X338829Y326347D01*
X338820Y326346D01*
X338638Y326288D01*
X338453Y326231D01*
X338445Y326227D01*
X338436Y326224D01*
X338268Y326131D01*
X338099Y326039D01*
X338092Y326034D01*
X338084Y326029D01*
X337936Y325904D01*
X337789Y325782D01*
X337784Y325775D01*
X337777Y325769D01*
X337657Y325617D01*
X337537Y325468D01*
X337533Y325460D01*
X337527Y325453D01*
X337440Y325280D01*
X337351Y325111D01*
X337349Y325102D01*
X337345Y325094D01*
X337293Y324909D01*
X337240Y324724D01*
X337239Y324715D01*
X337237Y324706D01*
X337223Y324512D01*
X337207Y324322D01*
X337208Y324314D01*
X337208Y324305D01*
X337232Y324114D01*
X337254Y323923D01*
X337257Y323914D01*
X337258Y323905D01*
X337319Y323724D01*
X337379Y323540D01*
X337383Y323532D01*
X337386Y323524D01*
X337482Y323356D01*
X337577Y323189D01*
X337583Y323182D01*
X337587Y323175D01*
X337802Y322922D01*
X338487Y322237D01*
X339975Y318644D01*
X339975Y314756D01*
X338487Y311163D01*
X335737Y308413D01*
X332144Y306925D01*
X328256Y306925D01*
X324663Y308413D01*
X321913Y311163D01*
X320425Y314756D01*
X320425Y318644D01*
X321913Y322237D01*
X322598Y322922D01*
X322604Y322929D01*
X322611Y322934D01*
X322730Y323083D01*
X322853Y323233D01*
X322857Y323241D01*
X322863Y323248D01*
X322951Y323418D01*
X323042Y323589D01*
X323044Y323598D01*
X323049Y323605D01*
X323102Y323790D01*
X323157Y323975D01*
X323157Y323984D01*
X323160Y323992D01*
X323175Y324181D01*
X323193Y324376D01*
X323192Y324385D01*
X323193Y324394D01*
X323171Y324583D01*
X323150Y324776D01*
X323147Y324785D01*
X323146Y324793D01*
X323086Y324976D01*
X323028Y325160D01*
X323024Y325168D01*
X323021Y325176D01*
X322926Y325344D01*
X322833Y325512D01*
X322828Y325519D01*
X322823Y325527D01*
X322697Y325673D01*
X322573Y325819D01*
X322566Y325825D01*
X322560Y325832D01*
X322407Y325950D01*
X322257Y326069D01*
X322249Y326073D01*
X322242Y326078D01*
X322070Y326164D01*
X321898Y326251D01*
X321889Y326254D01*
X321881Y326258D01*
X321696Y326307D01*
X321510Y326359D01*
X321501Y326360D01*
X321493Y326362D01*
X321162Y326389D01*
X237638Y326389D01*
X237629Y326388D01*
X237620Y326389D01*
X237428Y326368D01*
X237238Y326349D01*
X237229Y326347D01*
X237220Y326346D01*
X237038Y326288D01*
X236853Y326231D01*
X236845Y326227D01*
X236836Y326224D01*
X236668Y326131D01*
X236499Y326039D01*
X236492Y326034D01*
X236484Y326029D01*
X236336Y325904D01*
X236189Y325782D01*
X236184Y325775D01*
X236177Y325769D01*
X236057Y325617D01*
X235937Y325468D01*
X235933Y325460D01*
X235927Y325453D01*
X235840Y325280D01*
X235751Y325111D01*
X235749Y325102D01*
X235745Y325094D01*
X235693Y324909D01*
X235640Y324724D01*
X235639Y324715D01*
X235637Y324706D01*
X235623Y324512D01*
X235607Y324322D01*
X235608Y324314D01*
X235608Y324305D01*
X235632Y324114D01*
X235654Y323923D01*
X235657Y323914D01*
X235658Y323905D01*
X235719Y323724D01*
X235779Y323540D01*
X235783Y323532D01*
X235786Y323524D01*
X235882Y323356D01*
X235977Y323189D01*
X235983Y323182D01*
X235987Y323175D01*
X236202Y322922D01*
X236887Y322237D01*
X238375Y318644D01*
X238375Y314756D01*
X236887Y311163D01*
X234137Y308413D01*
X230544Y306925D01*
X226656Y306925D01*
X223063Y308413D01*
X220313Y311163D01*
X218825Y314756D01*
X218825Y318644D01*
X220313Y322237D01*
X220998Y322922D01*
X221004Y322929D01*
X221011Y322934D01*
X221130Y323083D01*
X221253Y323233D01*
X221257Y323241D01*
X221263Y323248D01*
X221351Y323418D01*
X221442Y323589D01*
X221444Y323598D01*
X221449Y323605D01*
X221502Y323790D01*
X221557Y323975D01*
X221557Y323984D01*
X221560Y323992D01*
X221575Y324181D01*
X221593Y324376D01*
X221592Y324385D01*
X221593Y324394D01*
X221571Y324583D01*
X221550Y324776D01*
X221547Y324785D01*
X221546Y324793D01*
X221486Y324976D01*
X221428Y325160D01*
X221424Y325168D01*
X221421Y325176D01*
X221326Y325344D01*
X221233Y325512D01*
X221228Y325519D01*
X221223Y325527D01*
X221097Y325673D01*
X220973Y325819D01*
X220966Y325825D01*
X220960Y325832D01*
X220807Y325950D01*
X220657Y326069D01*
X220649Y326073D01*
X220642Y326078D01*
X220470Y326164D01*
X220298Y326251D01*
X220289Y326254D01*
X220281Y326258D01*
X220096Y326307D01*
X219910Y326359D01*
X219901Y326360D01*
X219893Y326362D01*
X219562Y326389D01*
X136038Y326389D01*
X136029Y326388D01*
X136020Y326389D01*
X135828Y326368D01*
X135638Y326349D01*
X135629Y326347D01*
X135620Y326346D01*
X135438Y326288D01*
X135253Y326231D01*
X135245Y326227D01*
X135236Y326224D01*
X135068Y326131D01*
X134899Y326039D01*
X134892Y326034D01*
X134884Y326029D01*
X134736Y325904D01*
X134589Y325782D01*
X134584Y325775D01*
X134577Y325769D01*
X134457Y325617D01*
X134337Y325468D01*
X134333Y325460D01*
X134327Y325453D01*
X134240Y325280D01*
X134151Y325111D01*
X134149Y325102D01*
X134145Y325094D01*
X134093Y324909D01*
X134040Y324724D01*
X134039Y324715D01*
X134037Y324706D01*
X134023Y324512D01*
X134007Y324322D01*
X134008Y324314D01*
X134008Y324305D01*
X134032Y324114D01*
X134054Y323923D01*
X134057Y323914D01*
X134058Y323905D01*
X134119Y323724D01*
X134179Y323540D01*
X134183Y323532D01*
X134186Y323524D01*
X134282Y323356D01*
X134377Y323189D01*
X134383Y323182D01*
X134387Y323175D01*
X134602Y322922D01*
X135287Y322237D01*
X136775Y318644D01*
X136775Y314756D01*
X135287Y311163D01*
X132537Y308413D01*
X128944Y306925D01*
X125056Y306925D01*
X121463Y308413D01*
X118713Y311163D01*
X117225Y314756D01*
X117225Y318644D01*
X118713Y322237D01*
X119398Y322922D01*
X119404Y322929D01*
X119411Y322934D01*
X119530Y323083D01*
X119653Y323233D01*
X119657Y323241D01*
X119663Y323248D01*
X119751Y323418D01*
X119842Y323589D01*
X119844Y323598D01*
X119849Y323605D01*
X119902Y323790D01*
X119957Y323975D01*
X119957Y323984D01*
X119960Y323992D01*
X119975Y324181D01*
X119993Y324376D01*
X119992Y324385D01*
X119993Y324394D01*
X119971Y324583D01*
X119950Y324776D01*
X119947Y324785D01*
X119946Y324793D01*
X119886Y324976D01*
X119828Y325160D01*
X119824Y325168D01*
X119821Y325176D01*
X119726Y325344D01*
X119633Y325512D01*
X119628Y325519D01*
X119623Y325527D01*
X119497Y325673D01*
X119373Y325819D01*
X119366Y325825D01*
X119360Y325832D01*
X119207Y325950D01*
X119057Y326069D01*
X119049Y326073D01*
X119042Y326078D01*
X118870Y326164D01*
X118698Y326251D01*
X118689Y326254D01*
X118681Y326258D01*
X118496Y326307D01*
X118310Y326359D01*
X118301Y326360D01*
X118293Y326362D01*
X117962Y326389D01*
X36811Y326389D01*
X36783Y326386D01*
X36754Y326388D01*
X36582Y326366D01*
X36410Y326349D01*
X36383Y326341D01*
X36355Y326337D01*
X36191Y326282D01*
X36025Y326231D01*
X36000Y326218D01*
X35974Y326209D01*
X35824Y326122D01*
X35671Y326039D01*
X35650Y326021D01*
X35625Y326007D01*
X35372Y325792D01*
X14357Y304710D01*
X14352Y304704D01*
X14347Y304700D01*
X14224Y304548D01*
X14102Y304398D01*
X14099Y304392D01*
X14094Y304386D01*
X14005Y304215D01*
X13914Y304042D01*
X13912Y304035D01*
X13909Y304029D01*
X13855Y303843D01*
X13800Y303656D01*
X13799Y303649D01*
X13797Y303642D01*
X13782Y303449D01*
X13764Y303255D01*
X13765Y303248D01*
X13764Y303240D01*
X13787Y303048D01*
X13808Y302855D01*
X13811Y302848D01*
X13811Y302841D01*
X13872Y302656D01*
X13930Y302471D01*
X13934Y302465D01*
X13936Y302458D01*
X14031Y302289D01*
X14126Y302119D01*
X14131Y302114D01*
X14134Y302107D01*
X14261Y301961D01*
X14387Y301813D01*
X14392Y301808D01*
X14397Y301802D01*
X14550Y301684D01*
X14703Y301563D01*
X14710Y301560D01*
X14715Y301556D01*
X14889Y301469D01*
X15062Y301382D01*
X15069Y301380D01*
X15076Y301376D01*
X15265Y301325D01*
X15450Y301274D01*
X15458Y301274D01*
X15465Y301272D01*
X15795Y301245D01*
X34839Y301245D01*
X38200Y299853D01*
X40773Y297280D01*
X42165Y293919D01*
X42165Y290281D01*
X40773Y286920D01*
X38200Y284347D01*
X34839Y282955D01*
X32004Y282955D01*
X31986Y282953D01*
X31968Y282955D01*
X31786Y282934D01*
X31603Y282915D01*
X31586Y282910D01*
X31569Y282908D01*
X31394Y282851D01*
X31218Y282797D01*
X31203Y282789D01*
X31186Y282783D01*
X31026Y282693D01*
X30864Y282605D01*
X30851Y282594D01*
X30835Y282585D01*
X30696Y282465D01*
X30555Y282348D01*
X30544Y282334D01*
X30530Y282322D01*
X30418Y282177D01*
X30303Y282034D01*
X30295Y282018D01*
X30284Y282004D01*
X30202Y281839D01*
X30117Y281677D01*
X30112Y281660D01*
X30104Y281644D01*
X30057Y281465D01*
X30006Y281290D01*
X30004Y281272D01*
X30000Y281255D01*
X29973Y280924D01*
X29973Y277876D01*
X29975Y277858D01*
X29973Y277840D01*
X29994Y277658D01*
X30013Y277475D01*
X30018Y277458D01*
X30020Y277441D01*
X30077Y277266D01*
X30131Y277090D01*
X30139Y277075D01*
X30145Y277058D01*
X30235Y276898D01*
X30323Y276736D01*
X30334Y276723D01*
X30343Y276707D01*
X30463Y276568D01*
X30580Y276427D01*
X30594Y276416D01*
X30606Y276402D01*
X30751Y276290D01*
X30894Y276175D01*
X30910Y276167D01*
X30924Y276156D01*
X31089Y276074D01*
X31251Y275989D01*
X31268Y275984D01*
X31284Y275976D01*
X31463Y275929D01*
X31638Y275878D01*
X31656Y275876D01*
X31673Y275872D01*
X32004Y275845D01*
X34839Y275845D01*
X38200Y274453D01*
X40773Y271880D01*
X42165Y268519D01*
X42165Y264881D01*
X40773Y261520D01*
X38200Y258947D01*
X34839Y257555D01*
X32004Y257555D01*
X31986Y257553D01*
X31968Y257555D01*
X31786Y257534D01*
X31603Y257515D01*
X31586Y257510D01*
X31569Y257508D01*
X31394Y257451D01*
X31218Y257397D01*
X31203Y257389D01*
X31186Y257383D01*
X31026Y257293D01*
X30864Y257205D01*
X30851Y257194D01*
X30835Y257185D01*
X30696Y257065D01*
X30555Y256948D01*
X30544Y256934D01*
X30530Y256922D01*
X30418Y256777D01*
X30303Y256634D01*
X30295Y256618D01*
X30284Y256604D01*
X30202Y256439D01*
X30117Y256277D01*
X30112Y256260D01*
X30104Y256244D01*
X30057Y256065D01*
X30006Y255890D01*
X30004Y255872D01*
X30000Y255855D01*
X29973Y255524D01*
X29973Y252476D01*
X29975Y252458D01*
X29973Y252440D01*
X29994Y252258D01*
X30013Y252075D01*
X30018Y252058D01*
X30020Y252041D01*
X30077Y251866D01*
X30131Y251690D01*
X30139Y251675D01*
X30145Y251658D01*
X30235Y251498D01*
X30323Y251336D01*
X30334Y251323D01*
X30343Y251307D01*
X30463Y251168D01*
X30580Y251027D01*
X30594Y251016D01*
X30606Y251002D01*
X30751Y250890D01*
X30894Y250775D01*
X30910Y250767D01*
X30924Y250756D01*
X31089Y250674D01*
X31251Y250589D01*
X31268Y250584D01*
X31284Y250576D01*
X31463Y250529D01*
X31638Y250478D01*
X31656Y250476D01*
X31673Y250472D01*
X32004Y250445D01*
X34839Y250445D01*
X38200Y249053D01*
X40773Y246480D01*
X42165Y243119D01*
X42165Y239481D01*
X40773Y236120D01*
X38200Y233547D01*
X37941Y233440D01*
X34839Y232155D01*
X32004Y232155D01*
X31986Y232153D01*
X31968Y232155D01*
X31786Y232134D01*
X31603Y232115D01*
X31586Y232110D01*
X31569Y232108D01*
X31394Y232051D01*
X31218Y231997D01*
X31203Y231989D01*
X31186Y231983D01*
X31026Y231893D01*
X30864Y231805D01*
X30851Y231794D01*
X30835Y231785D01*
X30696Y231665D01*
X30555Y231548D01*
X30544Y231534D01*
X30530Y231522D01*
X30418Y231377D01*
X30303Y231234D01*
X30295Y231218D01*
X30284Y231204D01*
X30202Y231039D01*
X30117Y230877D01*
X30112Y230860D01*
X30104Y230844D01*
X30057Y230665D01*
X30006Y230490D01*
X30004Y230472D01*
X30000Y230455D01*
X29973Y230124D01*
X29973Y167835D01*
X29975Y167809D01*
X29973Y167782D01*
X29995Y167608D01*
X30013Y167435D01*
X30020Y167409D01*
X30024Y167383D01*
X30079Y167217D01*
X30131Y167050D01*
X30144Y167026D01*
X30152Y167001D01*
X30239Y166849D01*
X30323Y166696D01*
X30340Y166675D01*
X30353Y166652D01*
X30568Y166399D01*
X96549Y100418D01*
X96570Y100401D01*
X96587Y100380D01*
X96725Y100273D01*
X96861Y100163D01*
X96884Y100150D01*
X96905Y100134D01*
X97062Y100056D01*
X97216Y99974D01*
X97242Y99966D01*
X97266Y99954D01*
X97435Y99909D01*
X97602Y99859D01*
X97629Y99857D01*
X97655Y99850D01*
X97985Y99823D01*
X144636Y99823D01*
X144662Y99825D01*
X144689Y99823D01*
X144863Y99845D01*
X145036Y99863D01*
X145062Y99870D01*
X145088Y99874D01*
X145254Y99929D01*
X145421Y99981D01*
X145445Y99994D01*
X145470Y100002D01*
X145622Y100089D01*
X145775Y100173D01*
X145796Y100190D01*
X145819Y100203D01*
X146072Y100418D01*
X149033Y103379D01*
X155767Y103379D01*
X160529Y98617D01*
X160529Y94429D01*
X160531Y94403D01*
X160529Y94376D01*
X160551Y94202D01*
X160569Y94029D01*
X160576Y94003D01*
X160580Y93977D01*
X160635Y93811D01*
X160687Y93644D01*
X160700Y93620D01*
X160708Y93595D01*
X160795Y93443D01*
X160879Y93290D01*
X160896Y93269D01*
X160909Y93246D01*
X161124Y92993D01*
X204499Y49618D01*
X204520Y49601D01*
X204537Y49580D01*
X204675Y49473D01*
X204811Y49363D01*
X204834Y49350D01*
X204855Y49334D01*
X205012Y49256D01*
X205166Y49174D01*
X205192Y49166D01*
X205216Y49154D01*
X205385Y49109D01*
X205552Y49059D01*
X205579Y49057D01*
X205605Y49050D01*
X205935Y49023D01*
X219609Y49023D01*
X219618Y49024D01*
X219627Y49023D01*
X219819Y49044D01*
X220010Y49063D01*
X220018Y49065D01*
X220027Y49066D01*
X220210Y49124D01*
X220395Y49181D01*
X220403Y49185D01*
X220411Y49188D01*
X220580Y49281D01*
X220749Y49373D01*
X220756Y49378D01*
X220763Y49383D01*
X220911Y49508D01*
X221058Y49630D01*
X221064Y49637D01*
X221070Y49643D01*
X221190Y49795D01*
X221310Y49944D01*
X221314Y49952D01*
X221320Y49959D01*
X221407Y50131D01*
X221496Y50301D01*
X221498Y50310D01*
X221502Y50318D01*
X221554Y50504D01*
X221607Y50688D01*
X221608Y50697D01*
X221610Y50706D01*
X221625Y50898D01*
X221640Y51090D01*
X221639Y51098D01*
X221640Y51107D01*
X221615Y51300D01*
X221593Y51489D01*
X221591Y51498D01*
X221589Y51507D01*
X221528Y51690D01*
X221468Y51872D01*
X221464Y51880D01*
X221461Y51888D01*
X221366Y52054D01*
X221271Y52223D01*
X221265Y52230D01*
X221260Y52237D01*
X221046Y52490D01*
X219963Y53573D01*
X219963Y60727D01*
X225023Y65787D01*
X232177Y65787D01*
X237237Y60727D01*
X237237Y53573D01*
X233768Y50103D01*
X233751Y50083D01*
X233730Y50065D01*
X233623Y49927D01*
X233513Y49792D01*
X233500Y49768D01*
X233484Y49747D01*
X233406Y49590D01*
X233324Y49436D01*
X233316Y49411D01*
X233304Y49387D01*
X233259Y49217D01*
X233209Y49050D01*
X233207Y49024D01*
X233200Y48998D01*
X233173Y48667D01*
X233173Y40233D01*
X233175Y40206D01*
X233173Y40180D01*
X233195Y40006D01*
X233213Y39832D01*
X233220Y39807D01*
X233224Y39780D01*
X233279Y39614D01*
X233331Y39447D01*
X233344Y39424D01*
X233352Y39398D01*
X233439Y39247D01*
X233523Y39093D01*
X233540Y39073D01*
X233553Y39050D01*
X233768Y38797D01*
X237237Y35327D01*
X237237Y28173D01*
X232177Y23113D01*
X225023Y23113D01*
X219963Y28173D01*
X219963Y35327D01*
X221046Y36410D01*
X221051Y36417D01*
X221058Y36422D01*
X221178Y36572D01*
X221301Y36721D01*
X221305Y36729D01*
X221310Y36736D01*
X221399Y36906D01*
X221489Y37077D01*
X221492Y37086D01*
X221496Y37093D01*
X221549Y37278D01*
X221604Y37463D01*
X221605Y37472D01*
X221607Y37480D01*
X221623Y37671D01*
X221640Y37864D01*
X221639Y37873D01*
X221640Y37882D01*
X221618Y38071D01*
X221597Y38264D01*
X221594Y38273D01*
X221593Y38281D01*
X221534Y38463D01*
X221476Y38648D01*
X221471Y38656D01*
X221468Y38664D01*
X221375Y38829D01*
X221281Y39000D01*
X221275Y39007D01*
X221271Y39015D01*
X221145Y39160D01*
X221020Y39307D01*
X221013Y39313D01*
X221007Y39320D01*
X220857Y39436D01*
X220704Y39557D01*
X220696Y39561D01*
X220689Y39566D01*
X220518Y39652D01*
X220345Y39739D01*
X220337Y39742D01*
X220329Y39746D01*
X220143Y39796D01*
X219957Y39847D01*
X219949Y39848D01*
X219940Y39850D01*
X219609Y39877D01*
X202290Y39877D01*
X200610Y40573D01*
X199038Y42145D01*
X154657Y86526D01*
X154636Y86543D01*
X154619Y86564D01*
X154481Y86671D01*
X154345Y86781D01*
X154322Y86794D01*
X154301Y86810D01*
X154144Y86888D01*
X153990Y86970D01*
X153964Y86978D01*
X153940Y86990D01*
X153771Y87035D01*
X153604Y87085D01*
X153577Y87087D01*
X153551Y87094D01*
X153221Y87121D01*
X149033Y87121D01*
X146072Y90082D01*
X146051Y90099D01*
X146034Y90120D01*
X145896Y90227D01*
X145760Y90337D01*
X145737Y90350D01*
X145716Y90366D01*
X145559Y90444D01*
X145405Y90526D01*
X145379Y90534D01*
X145355Y90546D01*
X145186Y90591D01*
X145019Y90641D01*
X144992Y90643D01*
X144966Y90650D01*
X144636Y90677D01*
X94340Y90677D01*
X92660Y91373D01*
X91088Y92945D01*
X29720Y154313D01*
X29618Y154397D01*
X29521Y154488D01*
X29462Y154524D01*
X29409Y154568D01*
X29292Y154630D01*
X29179Y154700D01*
X29114Y154724D01*
X29053Y154756D01*
X28926Y154794D01*
X28801Y154841D01*
X28733Y154852D01*
X28667Y154871D01*
X28535Y154883D01*
X28404Y154904D01*
X28335Y154901D01*
X28266Y154908D01*
X28134Y154893D01*
X28002Y154888D01*
X27935Y154872D01*
X27866Y154864D01*
X27739Y154824D01*
X27610Y154793D01*
X27548Y154764D01*
X27482Y154743D01*
X27366Y154678D01*
X27246Y154622D01*
X27190Y154581D01*
X27130Y154548D01*
X27029Y154462D01*
X26922Y154383D01*
X26875Y154332D01*
X26823Y154287D01*
X26741Y154183D01*
X26651Y154085D01*
X26616Y154026D01*
X26573Y153971D01*
X26513Y153853D01*
X26445Y153739D01*
X26422Y153674D01*
X26391Y153613D01*
X26355Y153484D01*
X26311Y153359D01*
X26301Y153291D01*
X26283Y153225D01*
X26273Y153092D01*
X26255Y152961D01*
X26259Y152892D01*
X26254Y152823D01*
X26270Y152691D01*
X26278Y152559D01*
X26295Y152492D01*
X26304Y152424D01*
X26346Y152298D01*
X26380Y152169D01*
X26414Y152097D01*
X26432Y152042D01*
X26471Y151975D01*
X26521Y151869D01*
X106912Y11184D01*
X106967Y11106D01*
X107014Y11023D01*
X107083Y10943D01*
X107145Y10856D01*
X107215Y10791D01*
X107277Y10718D01*
X107361Y10653D01*
X107439Y10581D01*
X107520Y10530D01*
X107595Y10472D01*
X107690Y10424D01*
X107781Y10368D01*
X107870Y10335D01*
X107956Y10292D01*
X108059Y10265D01*
X108158Y10228D01*
X108252Y10213D01*
X108345Y10188D01*
X108475Y10177D01*
X108556Y10164D01*
X108607Y10166D01*
X108675Y10161D01*
X144890Y10161D01*
X144898Y10162D01*
G37*
%LPC*%
G36*
X291958Y161256D02*
X291958Y161256D01*
X291940Y161258D01*
X291923Y161262D01*
X291592Y161289D01*
X281939Y161289D01*
X281939Y167170D01*
X282189Y168749D01*
X282684Y170270D01*
X283410Y171695D01*
X284350Y172989D01*
X285481Y174120D01*
X286775Y175060D01*
X288101Y175736D01*
X288208Y175804D01*
X288319Y175865D01*
X288377Y175913D01*
X288440Y175954D01*
X288531Y176041D01*
X288628Y176122D01*
X288675Y176181D01*
X288729Y176234D01*
X288801Y176338D01*
X288880Y176436D01*
X288915Y176503D01*
X288958Y176565D01*
X289008Y176681D01*
X289066Y176793D01*
X289087Y176866D01*
X289116Y176935D01*
X289142Y177059D01*
X289177Y177180D01*
X289183Y177256D01*
X289199Y177329D01*
X289200Y177456D01*
X289210Y177582D01*
X289201Y177657D01*
X289202Y177732D01*
X289178Y177856D01*
X289163Y177981D01*
X289140Y178053D01*
X289125Y178127D01*
X289077Y178244D01*
X289038Y178364D01*
X289001Y178430D01*
X288972Y178500D01*
X288902Y178605D01*
X288840Y178715D01*
X288791Y178772D01*
X288749Y178835D01*
X288660Y178924D01*
X288577Y179020D01*
X288518Y179066D01*
X288464Y179119D01*
X288359Y179189D01*
X288259Y179266D01*
X288191Y179300D01*
X288129Y179342D01*
X288012Y179389D01*
X287899Y179446D01*
X287826Y179465D01*
X287756Y179494D01*
X287632Y179517D01*
X287510Y179550D01*
X287422Y179557D01*
X287360Y179569D01*
X287287Y179568D01*
X287179Y179577D01*
X271621Y179577D01*
X271495Y179565D01*
X271369Y179562D01*
X271295Y179545D01*
X271220Y179537D01*
X271100Y179500D01*
X270976Y179472D01*
X270908Y179441D01*
X270835Y179419D01*
X270725Y179359D01*
X270609Y179307D01*
X270548Y179263D01*
X270481Y179227D01*
X270384Y179147D01*
X270282Y179073D01*
X270230Y179018D01*
X270172Y178970D01*
X270093Y178871D01*
X270007Y178779D01*
X269967Y178715D01*
X269920Y178656D01*
X269862Y178544D01*
X269795Y178436D01*
X269769Y178365D01*
X269734Y178299D01*
X269699Y178177D01*
X269656Y178059D01*
X269644Y177984D01*
X269623Y177912D01*
X269613Y177786D01*
X269593Y177661D01*
X269596Y177586D01*
X269590Y177510D01*
X269605Y177385D01*
X269610Y177259D01*
X269628Y177185D01*
X269637Y177111D01*
X269676Y176991D01*
X269706Y176868D01*
X269738Y176800D01*
X269762Y176728D01*
X269824Y176618D01*
X269878Y176504D01*
X269923Y176443D01*
X269960Y176377D01*
X270042Y176282D01*
X270118Y176180D01*
X270174Y176130D01*
X270223Y176073D01*
X270323Y175995D01*
X270416Y175910D01*
X270491Y175864D01*
X270541Y175826D01*
X270607Y175793D01*
X270699Y175736D01*
X272025Y175060D01*
X273319Y174120D01*
X274450Y172989D01*
X275390Y171695D01*
X276116Y170270D01*
X276611Y168749D01*
X276861Y167170D01*
X276861Y161289D01*
X267208Y161289D01*
X267190Y161287D01*
X267173Y161289D01*
X266990Y161268D01*
X266808Y161249D01*
X266791Y161244D01*
X266773Y161242D01*
X266695Y161217D01*
X266558Y161256D01*
X266540Y161258D01*
X266523Y161262D01*
X266192Y161289D01*
X256539Y161289D01*
X256539Y167170D01*
X256803Y168837D01*
X256824Y168907D01*
X256831Y168982D01*
X256847Y169055D01*
X256849Y169181D01*
X256861Y169308D01*
X256852Y169382D01*
X256854Y169457D01*
X256831Y169582D01*
X256817Y169708D01*
X256794Y169780D01*
X256781Y169853D01*
X256734Y169971D01*
X256696Y170092D01*
X256659Y170157D01*
X256631Y170227D01*
X256562Y170334D01*
X256501Y170444D01*
X256452Y170501D01*
X256411Y170564D01*
X256322Y170655D01*
X256240Y170751D01*
X256181Y170798D01*
X256129Y170851D01*
X256024Y170922D01*
X255924Y171001D01*
X255857Y171035D01*
X255795Y171077D01*
X255678Y171126D01*
X255565Y171183D01*
X255493Y171203D01*
X255424Y171232D01*
X255300Y171257D01*
X255178Y171291D01*
X255103Y171297D01*
X255029Y171311D01*
X254903Y171311D01*
X254776Y171320D01*
X254701Y171311D01*
X254626Y171311D01*
X254502Y171286D01*
X254377Y171270D01*
X254305Y171246D01*
X254232Y171231D01*
X254115Y171182D01*
X253995Y171142D01*
X253930Y171104D01*
X253861Y171075D01*
X253756Y171004D01*
X253646Y170941D01*
X253580Y170884D01*
X253528Y170849D01*
X253476Y170796D01*
X253393Y170726D01*
X250240Y167573D01*
X248560Y166877D01*
X206432Y166877D01*
X206401Y166874D01*
X206369Y166876D01*
X206200Y166854D01*
X206031Y166837D01*
X206001Y166828D01*
X205970Y166824D01*
X205654Y166723D01*
X204256Y166143D01*
X202144Y166143D01*
X200746Y166723D01*
X200716Y166732D01*
X200688Y166746D01*
X200523Y166790D01*
X200360Y166839D01*
X200329Y166842D01*
X200299Y166850D01*
X199968Y166877D01*
X194621Y166877D01*
X194595Y166875D01*
X194568Y166877D01*
X194394Y166855D01*
X194221Y166837D01*
X194195Y166830D01*
X194168Y166826D01*
X194003Y166770D01*
X193836Y166719D01*
X193812Y166706D01*
X193787Y166698D01*
X193636Y166611D01*
X193482Y166527D01*
X193461Y166510D01*
X193438Y166497D01*
X193185Y166282D01*
X190600Y163697D01*
X187339Y162346D01*
X187338Y162346D01*
X187239Y162305D01*
X168361Y162305D01*
X165000Y163697D01*
X162427Y166270D01*
X161035Y169631D01*
X161035Y173269D01*
X162427Y176630D01*
X165000Y179203D01*
X168361Y180595D01*
X187239Y180595D01*
X190600Y179203D01*
X193185Y176618D01*
X193206Y176601D01*
X193223Y176580D01*
X193361Y176473D01*
X193496Y176363D01*
X193520Y176350D01*
X193541Y176334D01*
X193698Y176256D01*
X193852Y176174D01*
X193878Y176166D01*
X193902Y176154D01*
X194071Y176109D01*
X194238Y176059D01*
X194265Y176057D01*
X194291Y176050D01*
X194621Y176023D01*
X199968Y176023D01*
X199999Y176026D01*
X200031Y176024D01*
X200200Y176046D01*
X200369Y176063D01*
X200399Y176072D01*
X200430Y176076D01*
X200746Y176177D01*
X202144Y176757D01*
X204256Y176757D01*
X205654Y176177D01*
X205684Y176168D01*
X205712Y176154D01*
X205877Y176110D01*
X206040Y176061D01*
X206071Y176058D01*
X206101Y176050D01*
X206432Y176023D01*
X219710Y176023D01*
X219715Y176023D01*
X219719Y176023D01*
X219913Y176043D01*
X220111Y176063D01*
X220115Y176064D01*
X220119Y176064D01*
X220305Y176122D01*
X220496Y176181D01*
X220500Y176183D01*
X220504Y176184D01*
X220675Y176278D01*
X220850Y176373D01*
X220853Y176375D01*
X220857Y176378D01*
X221007Y176504D01*
X221159Y176630D01*
X221162Y176634D01*
X221165Y176637D01*
X221288Y176791D01*
X221411Y176944D01*
X221413Y176948D01*
X221416Y176951D01*
X221506Y177126D01*
X221597Y177301D01*
X221598Y177306D01*
X221600Y177310D01*
X221653Y177497D01*
X221708Y177688D01*
X221709Y177693D01*
X221710Y177697D01*
X221725Y177890D01*
X221741Y178090D01*
X221740Y178094D01*
X221741Y178098D01*
X221717Y178291D01*
X221694Y178489D01*
X221693Y178494D01*
X221692Y178498D01*
X221632Y178681D01*
X221569Y178872D01*
X221567Y178876D01*
X221566Y178880D01*
X221470Y179048D01*
X221371Y179223D01*
X221368Y179226D01*
X221366Y179230D01*
X221236Y179379D01*
X221108Y179527D01*
X221105Y179530D01*
X221102Y179534D01*
X220945Y179654D01*
X220790Y179774D01*
X220786Y179776D01*
X220783Y179779D01*
X220487Y179931D01*
X219660Y180273D01*
X208251Y191682D01*
X208230Y191699D01*
X208213Y191720D01*
X208075Y191827D01*
X207939Y191937D01*
X207916Y191950D01*
X207895Y191966D01*
X207738Y192044D01*
X207584Y192126D01*
X207558Y192134D01*
X207534Y192146D01*
X207365Y192191D01*
X207198Y192241D01*
X207171Y192243D01*
X207145Y192250D01*
X206815Y192277D01*
X194621Y192277D01*
X194595Y192275D01*
X194568Y192277D01*
X194394Y192255D01*
X194221Y192237D01*
X194195Y192230D01*
X194169Y192226D01*
X194003Y192171D01*
X193836Y192119D01*
X193812Y192106D01*
X193787Y192098D01*
X193635Y192011D01*
X193482Y191927D01*
X193461Y191910D01*
X193438Y191897D01*
X193185Y191682D01*
X190600Y189097D01*
X189768Y188753D01*
X187239Y187705D01*
X168361Y187705D01*
X165000Y189097D01*
X162427Y191670D01*
X161035Y195031D01*
X161035Y198669D01*
X162427Y202030D01*
X165000Y204603D01*
X166729Y205319D01*
X168361Y205995D01*
X187239Y205995D01*
X190600Y204603D01*
X193185Y202018D01*
X193206Y202001D01*
X193223Y201980D01*
X193361Y201873D01*
X193496Y201763D01*
X193520Y201750D01*
X193541Y201734D01*
X193698Y201656D01*
X193852Y201574D01*
X193878Y201566D01*
X193902Y201554D01*
X194071Y201509D01*
X194238Y201459D01*
X194265Y201457D01*
X194291Y201450D01*
X194621Y201423D01*
X210460Y201423D01*
X212140Y200727D01*
X213712Y199155D01*
X214479Y198388D01*
X214610Y198281D01*
X214736Y198170D01*
X214765Y198154D01*
X214790Y198133D01*
X214940Y198054D01*
X215085Y197970D01*
X215117Y197960D01*
X215146Y197944D01*
X215308Y197896D01*
X215467Y197843D01*
X215500Y197839D01*
X215532Y197829D01*
X215700Y197814D01*
X215867Y197793D01*
X215900Y197796D01*
X215933Y197793D01*
X216101Y197811D01*
X216268Y197824D01*
X216300Y197833D01*
X216333Y197836D01*
X216494Y197887D01*
X216656Y197933D01*
X216685Y197948D01*
X216717Y197958D01*
X216864Y198039D01*
X217014Y198116D01*
X217040Y198137D01*
X217069Y198153D01*
X217198Y198262D01*
X217330Y198366D01*
X217351Y198392D01*
X217376Y198413D01*
X217481Y198545D01*
X217589Y198674D01*
X217605Y198703D01*
X217626Y198729D01*
X217702Y198879D01*
X217742Y198951D01*
X227882Y198951D01*
X227900Y198952D01*
X227917Y198951D01*
X228100Y198972D01*
X228282Y198991D01*
X228299Y198996D01*
X228317Y198998D01*
X228492Y199055D01*
X228592Y199086D01*
X228599Y199082D01*
X228777Y199034D01*
X228952Y198984D01*
X228970Y198982D01*
X228987Y198978D01*
X229318Y198951D01*
X239053Y198951D01*
X238600Y197558D01*
X237829Y196044D01*
X236831Y194670D01*
X235630Y193469D01*
X234154Y192397D01*
X234028Y192285D01*
X233899Y192178D01*
X233879Y192152D01*
X233854Y192130D01*
X233752Y191995D01*
X233647Y191864D01*
X233632Y191834D01*
X233612Y191808D01*
X233539Y191655D01*
X233462Y191507D01*
X233452Y191475D01*
X233438Y191445D01*
X233397Y191281D01*
X233350Y191120D01*
X233347Y191086D01*
X233339Y191054D01*
X233331Y190886D01*
X233317Y190718D01*
X233321Y190685D01*
X233319Y190652D01*
X233345Y190486D01*
X233364Y190319D01*
X233374Y190287D01*
X233379Y190254D01*
X233437Y190096D01*
X233489Y189936D01*
X233505Y189907D01*
X233517Y189875D01*
X233604Y189732D01*
X233687Y189585D01*
X233709Y189560D01*
X233726Y189531D01*
X233840Y189408D01*
X233950Y189280D01*
X233976Y189260D01*
X233999Y189236D01*
X234135Y189137D01*
X234268Y189034D01*
X234298Y189019D01*
X234325Y188999D01*
X234478Y188929D01*
X234629Y188854D01*
X234661Y188846D01*
X234691Y188832D01*
X234854Y188794D01*
X235017Y188750D01*
X235055Y188747D01*
X235083Y188740D01*
X235169Y188737D01*
X235348Y188723D01*
X238565Y188723D01*
X238591Y188725D01*
X238618Y188723D01*
X238792Y188745D01*
X238965Y188763D01*
X238991Y188770D01*
X239017Y188774D01*
X239183Y188829D01*
X239350Y188881D01*
X239374Y188894D01*
X239399Y188902D01*
X239551Y188989D01*
X239704Y189073D01*
X239725Y189090D01*
X239748Y189103D01*
X240001Y189318D01*
X251410Y200727D01*
X253090Y201423D01*
X312060Y201423D01*
X313740Y200727D01*
X316079Y198388D01*
X316209Y198281D01*
X316336Y198170D01*
X316365Y198154D01*
X316391Y198133D01*
X316539Y198054D01*
X316685Y197970D01*
X316717Y197960D01*
X316746Y197944D01*
X316908Y197896D01*
X317067Y197843D01*
X317100Y197839D01*
X317132Y197829D01*
X317300Y197814D01*
X317467Y197793D01*
X317500Y197796D01*
X317533Y197793D01*
X317701Y197811D01*
X317868Y197824D01*
X317900Y197833D01*
X317933Y197836D01*
X318094Y197887D01*
X318256Y197933D01*
X318285Y197948D01*
X318317Y197958D01*
X318464Y198039D01*
X318614Y198116D01*
X318640Y198137D01*
X318670Y198153D01*
X318798Y198261D01*
X318930Y198366D01*
X318951Y198392D01*
X318977Y198413D01*
X319081Y198545D01*
X319189Y198674D01*
X319206Y198703D01*
X319226Y198729D01*
X319302Y198879D01*
X319342Y198951D01*
X329482Y198951D01*
X329500Y198952D01*
X329517Y198951D01*
X329700Y198972D01*
X329882Y198991D01*
X329899Y198996D01*
X329917Y198998D01*
X330092Y199055D01*
X330192Y199086D01*
X330199Y199082D01*
X330377Y199034D01*
X330552Y198984D01*
X330570Y198982D01*
X330587Y198978D01*
X330918Y198951D01*
X341052Y198951D01*
X341132Y198817D01*
X341213Y198670D01*
X341235Y198645D01*
X341252Y198616D01*
X341365Y198491D01*
X341474Y198363D01*
X341500Y198342D01*
X341522Y198318D01*
X341657Y198218D01*
X341790Y198113D01*
X341819Y198098D01*
X341846Y198078D01*
X341998Y198007D01*
X342149Y197931D01*
X342181Y197922D01*
X342211Y197908D01*
X342374Y197868D01*
X342536Y197823D01*
X342570Y197820D01*
X342602Y197813D01*
X342770Y197806D01*
X342938Y197794D01*
X342971Y197798D01*
X343004Y197796D01*
X343170Y197823D01*
X343337Y197844D01*
X343369Y197855D01*
X343402Y197860D01*
X343560Y197919D01*
X343719Y197972D01*
X343748Y197989D01*
X343779Y198000D01*
X343922Y198089D01*
X344068Y198173D01*
X344096Y198197D01*
X344121Y198213D01*
X344184Y198272D01*
X344321Y198388D01*
X346660Y200727D01*
X348340Y201423D01*
X364179Y201423D01*
X364205Y201425D01*
X364232Y201423D01*
X364406Y201445D01*
X364579Y201463D01*
X364605Y201470D01*
X364632Y201474D01*
X364797Y201530D01*
X364964Y201581D01*
X364988Y201594D01*
X365013Y201602D01*
X365164Y201689D01*
X365318Y201773D01*
X365339Y201790D01*
X365362Y201803D01*
X365615Y202018D01*
X368200Y204603D01*
X369929Y205319D01*
X371561Y205995D01*
X390439Y205995D01*
X393800Y204603D01*
X396373Y202030D01*
X397765Y198669D01*
X397765Y195031D01*
X396373Y191670D01*
X393800Y189097D01*
X392968Y188753D01*
X390439Y187705D01*
X371561Y187705D01*
X368200Y189097D01*
X365615Y191682D01*
X365594Y191699D01*
X365577Y191720D01*
X365439Y191827D01*
X365304Y191937D01*
X365280Y191950D01*
X365259Y191966D01*
X365102Y192044D01*
X364948Y192126D01*
X364922Y192134D01*
X364898Y192146D01*
X364729Y192191D01*
X364562Y192241D01*
X364535Y192243D01*
X364509Y192250D01*
X364179Y192277D01*
X351985Y192277D01*
X351959Y192275D01*
X351932Y192277D01*
X351758Y192255D01*
X351585Y192237D01*
X351559Y192230D01*
X351533Y192226D01*
X351367Y192171D01*
X351200Y192119D01*
X351176Y192106D01*
X351151Y192098D01*
X350999Y192011D01*
X350846Y191927D01*
X350825Y191910D01*
X350802Y191897D01*
X350549Y191682D01*
X340712Y181845D01*
X339140Y180273D01*
X338313Y179931D01*
X338309Y179929D01*
X338304Y179927D01*
X338132Y179834D01*
X337958Y179740D01*
X337954Y179738D01*
X337950Y179735D01*
X337802Y179611D01*
X337647Y179484D01*
X337645Y179481D01*
X337641Y179478D01*
X337517Y179323D01*
X337394Y179171D01*
X337392Y179167D01*
X337389Y179164D01*
X337298Y178989D01*
X337207Y178815D01*
X337205Y178811D01*
X337203Y178807D01*
X337149Y178617D01*
X337093Y178428D01*
X337093Y178424D01*
X337092Y178420D01*
X337076Y178222D01*
X337059Y178027D01*
X337059Y178023D01*
X337059Y178018D01*
X337083Y177815D01*
X337104Y177627D01*
X337105Y177623D01*
X337106Y177619D01*
X337167Y177430D01*
X337227Y177244D01*
X337229Y177240D01*
X337231Y177236D01*
X337328Y177063D01*
X337424Y176892D01*
X337426Y176889D01*
X337429Y176885D01*
X337557Y176736D01*
X337685Y176587D01*
X337689Y176584D01*
X337692Y176580D01*
X337844Y176462D01*
X338002Y176338D01*
X338006Y176336D01*
X338010Y176334D01*
X338185Y176247D01*
X338362Y176158D01*
X338366Y176156D01*
X338370Y176154D01*
X338563Y176103D01*
X338750Y176051D01*
X338755Y176051D01*
X338759Y176050D01*
X339090Y176023D01*
X364179Y176023D01*
X364205Y176025D01*
X364232Y176023D01*
X364406Y176045D01*
X364579Y176063D01*
X364605Y176070D01*
X364632Y176074D01*
X364797Y176130D01*
X364964Y176181D01*
X364988Y176194D01*
X365013Y176202D01*
X365164Y176289D01*
X365318Y176373D01*
X365339Y176390D01*
X365362Y176403D01*
X365615Y176618D01*
X368200Y179203D01*
X371561Y180595D01*
X390439Y180595D01*
X393800Y179203D01*
X396373Y176630D01*
X397765Y173269D01*
X397765Y169631D01*
X396373Y166270D01*
X393800Y163697D01*
X390539Y162346D01*
X390538Y162346D01*
X390439Y162305D01*
X371561Y162305D01*
X368200Y163697D01*
X365615Y166282D01*
X365594Y166299D01*
X365577Y166320D01*
X365439Y166427D01*
X365304Y166537D01*
X365280Y166550D01*
X365259Y166566D01*
X365102Y166644D01*
X364948Y166726D01*
X364922Y166734D01*
X364898Y166746D01*
X364729Y166791D01*
X364562Y166841D01*
X364535Y166843D01*
X364509Y166850D01*
X364179Y166877D01*
X316590Y166877D01*
X314910Y167573D01*
X303501Y178982D01*
X303480Y178999D01*
X303463Y179020D01*
X303325Y179126D01*
X303189Y179237D01*
X303166Y179250D01*
X303145Y179266D01*
X302988Y179344D01*
X302834Y179426D01*
X302808Y179434D01*
X302784Y179446D01*
X302615Y179491D01*
X302448Y179541D01*
X302421Y179543D01*
X302395Y179550D01*
X302065Y179577D01*
X297021Y179577D01*
X296895Y179565D01*
X296769Y179562D01*
X296695Y179545D01*
X296620Y179537D01*
X296500Y179500D01*
X296376Y179472D01*
X296308Y179441D01*
X296235Y179419D01*
X296125Y179359D01*
X296009Y179307D01*
X295948Y179263D01*
X295881Y179227D01*
X295784Y179147D01*
X295682Y179073D01*
X295630Y179018D01*
X295572Y178970D01*
X295493Y178871D01*
X295407Y178779D01*
X295367Y178715D01*
X295320Y178656D01*
X295262Y178544D01*
X295195Y178436D01*
X295169Y178365D01*
X295134Y178299D01*
X295099Y178177D01*
X295056Y178059D01*
X295044Y177984D01*
X295023Y177912D01*
X295013Y177786D01*
X294993Y177661D01*
X294996Y177586D01*
X294990Y177510D01*
X295005Y177385D01*
X295010Y177259D01*
X295028Y177185D01*
X295037Y177111D01*
X295076Y176991D01*
X295106Y176868D01*
X295138Y176800D01*
X295162Y176728D01*
X295224Y176618D01*
X295278Y176504D01*
X295323Y176443D01*
X295360Y176377D01*
X295442Y176282D01*
X295518Y176180D01*
X295574Y176130D01*
X295623Y176073D01*
X295723Y175995D01*
X295816Y175910D01*
X295891Y175864D01*
X295941Y175826D01*
X296007Y175793D01*
X296099Y175736D01*
X297425Y175060D01*
X298719Y174120D01*
X299850Y172989D01*
X300790Y171695D01*
X301516Y170270D01*
X302011Y168749D01*
X302261Y167170D01*
X302261Y161289D01*
X292608Y161289D01*
X292590Y161287D01*
X292573Y161289D01*
X292390Y161268D01*
X292208Y161249D01*
X292191Y161244D01*
X292173Y161242D01*
X292095Y161217D01*
X291958Y161256D01*
G37*
%LPD*%
%LPC*%
G36*
X168361Y111505D02*
X168361Y111505D01*
X165000Y112897D01*
X162427Y115470D01*
X161035Y118831D01*
X161035Y122469D01*
X162427Y125830D01*
X165000Y128403D01*
X168361Y129795D01*
X187239Y129795D01*
X190600Y128403D01*
X193185Y125818D01*
X193206Y125801D01*
X193223Y125780D01*
X193361Y125673D01*
X193496Y125563D01*
X193520Y125550D01*
X193541Y125534D01*
X193698Y125456D01*
X193852Y125374D01*
X193878Y125366D01*
X193902Y125354D01*
X194071Y125309D01*
X194238Y125259D01*
X194265Y125257D01*
X194291Y125250D01*
X194621Y125223D01*
X257810Y125223D01*
X257815Y125223D01*
X257819Y125223D01*
X258013Y125243D01*
X258211Y125263D01*
X258215Y125264D01*
X258219Y125264D01*
X258405Y125322D01*
X258596Y125381D01*
X258600Y125383D01*
X258604Y125384D01*
X258775Y125478D01*
X258950Y125573D01*
X258953Y125575D01*
X258957Y125578D01*
X259108Y125705D01*
X259259Y125830D01*
X259262Y125834D01*
X259265Y125837D01*
X259388Y125991D01*
X259511Y126144D01*
X259513Y126148D01*
X259516Y126151D01*
X259606Y126326D01*
X259697Y126501D01*
X259698Y126506D01*
X259700Y126510D01*
X259752Y126695D01*
X259808Y126888D01*
X259809Y126893D01*
X259810Y126897D01*
X259825Y127090D01*
X259841Y127290D01*
X259840Y127294D01*
X259841Y127298D01*
X259817Y127491D01*
X259794Y127689D01*
X259793Y127694D01*
X259792Y127698D01*
X259732Y127881D01*
X259669Y128072D01*
X259667Y128076D01*
X259666Y128080D01*
X259570Y128248D01*
X259471Y128423D01*
X259468Y128426D01*
X259466Y128430D01*
X259336Y128579D01*
X259208Y128727D01*
X259205Y128730D01*
X259202Y128734D01*
X259045Y128854D01*
X258890Y128974D01*
X258886Y128976D01*
X258883Y128979D01*
X258587Y129131D01*
X257760Y129473D01*
X246351Y140882D01*
X246330Y140899D01*
X246313Y140920D01*
X246175Y141027D01*
X246039Y141137D01*
X246016Y141150D01*
X245995Y141166D01*
X245838Y141244D01*
X245684Y141326D01*
X245658Y141334D01*
X245634Y141346D01*
X245465Y141391D01*
X245298Y141441D01*
X245271Y141443D01*
X245245Y141450D01*
X244915Y141477D01*
X194621Y141477D01*
X194595Y141475D01*
X194568Y141477D01*
X194394Y141455D01*
X194221Y141437D01*
X194195Y141430D01*
X194168Y141426D01*
X194003Y141370D01*
X193836Y141319D01*
X193812Y141306D01*
X193787Y141298D01*
X193636Y141211D01*
X193482Y141127D01*
X193461Y141110D01*
X193438Y141097D01*
X193185Y140882D01*
X190600Y138297D01*
X187239Y136905D01*
X168361Y136905D01*
X165000Y138297D01*
X162427Y140870D01*
X161035Y144231D01*
X161035Y147869D01*
X162427Y151230D01*
X165000Y153803D01*
X168361Y155195D01*
X187239Y155195D01*
X190600Y153803D01*
X193185Y151218D01*
X193206Y151201D01*
X193223Y151180D01*
X193361Y151073D01*
X193496Y150963D01*
X193520Y150950D01*
X193541Y150934D01*
X193698Y150856D01*
X193852Y150774D01*
X193878Y150766D01*
X193902Y150754D01*
X194071Y150709D01*
X194238Y150659D01*
X194265Y150657D01*
X194291Y150650D01*
X194621Y150623D01*
X248560Y150623D01*
X250240Y149927D01*
X253393Y146774D01*
X253491Y146693D01*
X253583Y146606D01*
X253647Y146566D01*
X253705Y146519D01*
X253816Y146459D01*
X253924Y146392D01*
X253994Y146365D01*
X254060Y146330D01*
X254181Y146294D01*
X254300Y146249D01*
X254374Y146237D01*
X254446Y146215D01*
X254573Y146204D01*
X254697Y146183D01*
X254772Y146186D01*
X254847Y146179D01*
X254973Y146193D01*
X255100Y146197D01*
X255173Y146214D01*
X255247Y146222D01*
X255368Y146261D01*
X255491Y146290D01*
X255560Y146321D01*
X255631Y146344D01*
X255742Y146405D01*
X255857Y146458D01*
X255918Y146502D01*
X255984Y146539D01*
X256080Y146621D01*
X256183Y146695D01*
X256233Y146751D01*
X256291Y146799D01*
X256369Y146899D01*
X256455Y146992D01*
X256494Y147056D01*
X256540Y147115D01*
X256598Y147228D01*
X256663Y147336D01*
X256689Y147407D01*
X256723Y147474D01*
X256757Y147596D01*
X256799Y147715D01*
X256810Y147790D01*
X256831Y147862D01*
X256840Y147988D01*
X256858Y148114D01*
X256854Y148189D01*
X256860Y148263D01*
X256844Y148389D01*
X256838Y148516D01*
X256817Y148601D01*
X256810Y148663D01*
X256798Y148697D01*
X256539Y150330D01*
X256539Y156211D01*
X266192Y156211D01*
X266210Y156212D01*
X266227Y156211D01*
X266410Y156232D01*
X266592Y156251D01*
X266609Y156256D01*
X266627Y156258D01*
X266705Y156283D01*
X266842Y156244D01*
X266860Y156242D01*
X266877Y156238D01*
X267208Y156211D01*
X276861Y156211D01*
X276861Y150330D01*
X276611Y148751D01*
X276116Y147230D01*
X275390Y145805D01*
X274450Y144511D01*
X273319Y143380D01*
X272025Y142440D01*
X270699Y141764D01*
X270592Y141696D01*
X270481Y141635D01*
X270424Y141587D01*
X270360Y141546D01*
X270269Y141459D01*
X270172Y141378D01*
X270125Y141319D01*
X270071Y141266D01*
X269999Y141162D01*
X269920Y141064D01*
X269885Y140997D01*
X269842Y140935D01*
X269792Y140819D01*
X269734Y140707D01*
X269713Y140634D01*
X269684Y140565D01*
X269658Y140441D01*
X269623Y140320D01*
X269617Y140244D01*
X269601Y140171D01*
X269600Y140044D01*
X269590Y139918D01*
X269599Y139843D01*
X269598Y139768D01*
X269622Y139644D01*
X269637Y139519D01*
X269660Y139447D01*
X269675Y139373D01*
X269723Y139256D01*
X269762Y139136D01*
X269799Y139070D01*
X269828Y139000D01*
X269898Y138895D01*
X269960Y138785D01*
X270009Y138728D01*
X270051Y138665D01*
X270140Y138576D01*
X270223Y138480D01*
X270282Y138434D01*
X270336Y138381D01*
X270441Y138311D01*
X270541Y138234D01*
X270608Y138200D01*
X270671Y138158D01*
X270788Y138111D01*
X270901Y138054D01*
X270974Y138035D01*
X271044Y138006D01*
X271168Y137983D01*
X271290Y137950D01*
X271378Y137943D01*
X271440Y137931D01*
X271513Y137932D01*
X271621Y137923D01*
X287179Y137923D01*
X287305Y137935D01*
X287431Y137938D01*
X287505Y137955D01*
X287580Y137963D01*
X287700Y138000D01*
X287824Y138028D01*
X287892Y138059D01*
X287965Y138081D01*
X288076Y138141D01*
X288191Y138193D01*
X288252Y138237D01*
X288319Y138273D01*
X288416Y138353D01*
X288518Y138427D01*
X288570Y138482D01*
X288628Y138530D01*
X288707Y138629D01*
X288793Y138721D01*
X288833Y138785D01*
X288880Y138844D01*
X288938Y138956D01*
X289005Y139064D01*
X289031Y139134D01*
X289066Y139201D01*
X289101Y139323D01*
X289145Y139441D01*
X289156Y139516D01*
X289177Y139588D01*
X289187Y139714D01*
X289207Y139839D01*
X289204Y139914D01*
X289210Y139990D01*
X289195Y140115D01*
X289190Y140241D01*
X289172Y140315D01*
X289163Y140389D01*
X289124Y140509D01*
X289094Y140632D01*
X289062Y140700D01*
X289038Y140772D01*
X288976Y140882D01*
X288922Y140996D01*
X288877Y141057D01*
X288840Y141123D01*
X288758Y141218D01*
X288682Y141320D01*
X288627Y141370D01*
X288577Y141427D01*
X288478Y141505D01*
X288384Y141590D01*
X288309Y141636D01*
X288259Y141674D01*
X288193Y141707D01*
X288101Y141764D01*
X286775Y142440D01*
X285481Y143380D01*
X284350Y144511D01*
X283410Y145805D01*
X282684Y147230D01*
X282189Y148751D01*
X281939Y150330D01*
X281939Y156211D01*
X291592Y156211D01*
X291610Y156212D01*
X291627Y156211D01*
X291810Y156232D01*
X291992Y156251D01*
X292009Y156256D01*
X292027Y156258D01*
X292105Y156283D01*
X292242Y156244D01*
X292260Y156242D01*
X292277Y156238D01*
X292608Y156211D01*
X302261Y156211D01*
X302261Y150330D01*
X302011Y148751D01*
X301516Y147230D01*
X300790Y145805D01*
X299850Y144511D01*
X298719Y143380D01*
X297425Y142440D01*
X296099Y141764D01*
X295992Y141696D01*
X295881Y141635D01*
X295824Y141587D01*
X295760Y141546D01*
X295669Y141459D01*
X295572Y141378D01*
X295525Y141319D01*
X295471Y141266D01*
X295399Y141162D01*
X295320Y141064D01*
X295285Y140997D01*
X295242Y140935D01*
X295192Y140819D01*
X295134Y140707D01*
X295113Y140634D01*
X295084Y140565D01*
X295058Y140441D01*
X295023Y140320D01*
X295017Y140244D01*
X295001Y140171D01*
X295000Y140044D01*
X294990Y139918D01*
X294999Y139843D01*
X294998Y139768D01*
X295022Y139644D01*
X295037Y139519D01*
X295060Y139447D01*
X295075Y139373D01*
X295123Y139256D01*
X295162Y139136D01*
X295199Y139070D01*
X295228Y139000D01*
X295298Y138895D01*
X295360Y138785D01*
X295409Y138728D01*
X295451Y138665D01*
X295540Y138576D01*
X295623Y138480D01*
X295682Y138434D01*
X295736Y138381D01*
X295841Y138311D01*
X295941Y138234D01*
X296008Y138200D01*
X296071Y138158D01*
X296188Y138111D01*
X296301Y138054D01*
X296374Y138035D01*
X296444Y138006D01*
X296568Y137983D01*
X296690Y137950D01*
X296778Y137943D01*
X296840Y137931D01*
X296913Y137932D01*
X297021Y137923D01*
X302065Y137923D01*
X302091Y137925D01*
X302118Y137923D01*
X302292Y137945D01*
X302465Y137963D01*
X302491Y137970D01*
X302517Y137974D01*
X302683Y138029D01*
X302850Y138081D01*
X302874Y138094D01*
X302899Y138102D01*
X303051Y138189D01*
X303204Y138273D01*
X303225Y138290D01*
X303248Y138303D01*
X303501Y138518D01*
X314910Y149927D01*
X316590Y150623D01*
X352368Y150623D01*
X352399Y150626D01*
X352431Y150624D01*
X352600Y150646D01*
X352769Y150663D01*
X352799Y150672D01*
X352830Y150676D01*
X353146Y150777D01*
X354544Y151357D01*
X356656Y151357D01*
X358054Y150777D01*
X358084Y150768D01*
X358112Y150754D01*
X358277Y150710D01*
X358440Y150661D01*
X358471Y150658D01*
X358501Y150650D01*
X358832Y150623D01*
X364179Y150623D01*
X364205Y150625D01*
X364232Y150623D01*
X364406Y150645D01*
X364579Y150663D01*
X364605Y150670D01*
X364631Y150674D01*
X364797Y150729D01*
X364964Y150781D01*
X364988Y150794D01*
X365013Y150802D01*
X365165Y150889D01*
X365318Y150973D01*
X365339Y150990D01*
X365362Y151003D01*
X365615Y151218D01*
X368200Y153803D01*
X371561Y155195D01*
X390439Y155195D01*
X393800Y153803D01*
X396373Y151230D01*
X397765Y147869D01*
X397765Y144231D01*
X396373Y140870D01*
X393800Y138297D01*
X390439Y136905D01*
X371561Y136905D01*
X368200Y138297D01*
X365615Y140882D01*
X365594Y140899D01*
X365577Y140920D01*
X365439Y141027D01*
X365304Y141137D01*
X365280Y141150D01*
X365259Y141166D01*
X365102Y141244D01*
X364948Y141326D01*
X364922Y141334D01*
X364898Y141346D01*
X364729Y141391D01*
X364562Y141441D01*
X364535Y141443D01*
X364509Y141450D01*
X364179Y141477D01*
X358832Y141477D01*
X358801Y141474D01*
X358769Y141476D01*
X358600Y141454D01*
X358431Y141437D01*
X358401Y141428D01*
X358370Y141424D01*
X358054Y141323D01*
X356656Y140743D01*
X354544Y140743D01*
X353146Y141323D01*
X353116Y141332D01*
X353088Y141346D01*
X352923Y141390D01*
X352760Y141439D01*
X352729Y141442D01*
X352699Y141450D01*
X352368Y141477D01*
X320235Y141477D01*
X320209Y141475D01*
X320182Y141477D01*
X320008Y141455D01*
X319835Y141437D01*
X319809Y141430D01*
X319783Y141426D01*
X319617Y141371D01*
X319450Y141319D01*
X319426Y141306D01*
X319401Y141298D01*
X319249Y141211D01*
X319096Y141127D01*
X319075Y141110D01*
X319052Y141097D01*
X318799Y140882D01*
X307390Y129473D01*
X306563Y129131D01*
X306559Y129129D01*
X306554Y129127D01*
X306382Y129034D01*
X306208Y128940D01*
X306204Y128938D01*
X306200Y128935D01*
X306052Y128811D01*
X305897Y128684D01*
X305895Y128681D01*
X305891Y128678D01*
X305768Y128525D01*
X305644Y128371D01*
X305642Y128367D01*
X305639Y128364D01*
X305548Y128189D01*
X305457Y128015D01*
X305455Y128011D01*
X305453Y128007D01*
X305398Y127815D01*
X305343Y127628D01*
X305343Y127624D01*
X305342Y127620D01*
X305326Y127422D01*
X305309Y127227D01*
X305309Y127223D01*
X305309Y127218D01*
X305333Y127015D01*
X305354Y126827D01*
X305355Y126823D01*
X305356Y126819D01*
X305417Y126630D01*
X305477Y126444D01*
X305479Y126440D01*
X305481Y126436D01*
X305578Y126263D01*
X305674Y126092D01*
X305676Y126089D01*
X305679Y126085D01*
X305807Y125936D01*
X305935Y125787D01*
X305939Y125784D01*
X305942Y125780D01*
X306094Y125662D01*
X306252Y125538D01*
X306256Y125536D01*
X306260Y125534D01*
X306435Y125447D01*
X306612Y125358D01*
X306616Y125356D01*
X306620Y125354D01*
X306813Y125303D01*
X307000Y125251D01*
X307005Y125251D01*
X307009Y125250D01*
X307340Y125223D01*
X364179Y125223D01*
X364205Y125225D01*
X364232Y125223D01*
X364406Y125245D01*
X364579Y125263D01*
X364605Y125270D01*
X364631Y125274D01*
X364797Y125329D01*
X364964Y125381D01*
X364988Y125394D01*
X365013Y125402D01*
X365165Y125489D01*
X365318Y125573D01*
X365339Y125590D01*
X365362Y125603D01*
X365615Y125818D01*
X368200Y128403D01*
X371561Y129795D01*
X390439Y129795D01*
X393800Y128403D01*
X396373Y125830D01*
X397765Y122469D01*
X397765Y118831D01*
X396373Y115470D01*
X393800Y112897D01*
X390439Y111505D01*
X371561Y111505D01*
X368200Y112897D01*
X365615Y115482D01*
X365594Y115499D01*
X365577Y115520D01*
X365439Y115627D01*
X365304Y115737D01*
X365280Y115750D01*
X365259Y115766D01*
X365102Y115844D01*
X364948Y115926D01*
X364922Y115934D01*
X364898Y115946D01*
X364729Y115991D01*
X364562Y116041D01*
X364535Y116043D01*
X364509Y116050D01*
X364179Y116077D01*
X194621Y116077D01*
X194595Y116075D01*
X194568Y116077D01*
X194394Y116055D01*
X194221Y116037D01*
X194195Y116030D01*
X194168Y116026D01*
X194003Y115970D01*
X193836Y115919D01*
X193812Y115906D01*
X193787Y115898D01*
X193636Y115811D01*
X193482Y115727D01*
X193461Y115710D01*
X193438Y115697D01*
X193185Y115482D01*
X190600Y112897D01*
X187239Y111505D01*
X168361Y111505D01*
G37*
%LPD*%
%LPC*%
G36*
X328256Y221925D02*
X328256Y221925D01*
X324663Y223413D01*
X321913Y226163D01*
X320425Y229756D01*
X320425Y233644D01*
X321356Y235891D01*
X321360Y235904D01*
X321366Y235915D01*
X321418Y236096D01*
X321472Y236276D01*
X321473Y236289D01*
X321477Y236302D01*
X321493Y236490D01*
X321510Y236677D01*
X321509Y236690D01*
X321510Y236704D01*
X321488Y236891D01*
X321469Y237077D01*
X321465Y237090D01*
X321463Y237103D01*
X321405Y237283D01*
X321349Y237462D01*
X321342Y237473D01*
X321338Y237486D01*
X321245Y237651D01*
X321156Y237815D01*
X321147Y237825D01*
X321140Y237837D01*
X321017Y237979D01*
X320896Y238123D01*
X320886Y238131D01*
X320877Y238142D01*
X320729Y238257D01*
X320582Y238374D01*
X320570Y238380D01*
X320559Y238388D01*
X320390Y238472D01*
X320223Y238558D01*
X320211Y238562D01*
X320199Y238568D01*
X320016Y238617D01*
X319836Y238668D01*
X319823Y238669D01*
X319810Y238672D01*
X319479Y238699D01*
X302200Y238699D01*
X302199Y238700D01*
X302199Y294700D01*
X302200Y294701D01*
X358200Y294701D01*
X358201Y294700D01*
X358201Y238700D01*
X358200Y238699D01*
X340921Y238699D01*
X340908Y238698D01*
X340894Y238699D01*
X340708Y238678D01*
X340520Y238659D01*
X340507Y238655D01*
X340494Y238654D01*
X340316Y238597D01*
X340135Y238541D01*
X340124Y238535D01*
X340111Y238531D01*
X339947Y238439D01*
X339781Y238349D01*
X339771Y238341D01*
X339759Y238334D01*
X339616Y238212D01*
X339472Y238092D01*
X339464Y238081D01*
X339454Y238073D01*
X339337Y237924D01*
X339220Y237778D01*
X339214Y237766D01*
X339205Y237756D01*
X339121Y237587D01*
X339034Y237421D01*
X339031Y237408D01*
X339025Y237396D01*
X338975Y237214D01*
X338923Y237034D01*
X338922Y237020D01*
X338918Y237007D01*
X338905Y236819D01*
X338890Y236632D01*
X338892Y236619D01*
X338891Y236606D01*
X338915Y236418D01*
X338937Y236233D01*
X338941Y236220D01*
X338943Y236207D01*
X339044Y235891D01*
X339975Y233644D01*
X339975Y229756D01*
X338487Y226163D01*
X335737Y223413D01*
X332144Y221925D01*
X328256Y221925D01*
G37*
%LPD*%
%LPC*%
G36*
X226656Y221925D02*
X226656Y221925D01*
X223063Y223413D01*
X220313Y226163D01*
X218825Y229756D01*
X218825Y233644D01*
X219756Y235891D01*
X219760Y235904D01*
X219766Y235915D01*
X219818Y236096D01*
X219872Y236276D01*
X219873Y236289D01*
X219877Y236302D01*
X219893Y236490D01*
X219910Y236677D01*
X219909Y236690D01*
X219910Y236704D01*
X219888Y236891D01*
X219869Y237077D01*
X219865Y237090D01*
X219863Y237103D01*
X219805Y237283D01*
X219749Y237462D01*
X219742Y237473D01*
X219738Y237486D01*
X219645Y237651D01*
X219556Y237815D01*
X219547Y237825D01*
X219540Y237837D01*
X219417Y237979D01*
X219296Y238123D01*
X219286Y238131D01*
X219277Y238142D01*
X219129Y238257D01*
X218982Y238374D01*
X218970Y238380D01*
X218959Y238388D01*
X218790Y238472D01*
X218623Y238558D01*
X218611Y238562D01*
X218599Y238568D01*
X218416Y238617D01*
X218236Y238668D01*
X218223Y238669D01*
X218210Y238672D01*
X217879Y238699D01*
X200600Y238699D01*
X200599Y238700D01*
X200599Y294700D01*
X200600Y294701D01*
X256600Y294701D01*
X256601Y294700D01*
X256601Y238700D01*
X256600Y238699D01*
X239321Y238699D01*
X239308Y238698D01*
X239294Y238699D01*
X239108Y238678D01*
X238920Y238659D01*
X238907Y238655D01*
X238894Y238654D01*
X238716Y238597D01*
X238535Y238541D01*
X238524Y238535D01*
X238511Y238531D01*
X238347Y238439D01*
X238181Y238349D01*
X238171Y238341D01*
X238159Y238334D01*
X238016Y238212D01*
X237872Y238092D01*
X237864Y238081D01*
X237854Y238073D01*
X237737Y237924D01*
X237620Y237778D01*
X237614Y237766D01*
X237605Y237756D01*
X237521Y237587D01*
X237434Y237421D01*
X237431Y237408D01*
X237425Y237396D01*
X237375Y237214D01*
X237323Y237034D01*
X237322Y237020D01*
X237318Y237007D01*
X237305Y236819D01*
X237290Y236632D01*
X237292Y236619D01*
X237291Y236606D01*
X237315Y236418D01*
X237337Y236233D01*
X237341Y236220D01*
X237343Y236207D01*
X237444Y235891D01*
X238375Y233644D01*
X238375Y229756D01*
X236887Y226163D01*
X234137Y223413D01*
X230544Y221925D01*
X226656Y221925D01*
G37*
%LPD*%
%LPC*%
G36*
X429856Y221925D02*
X429856Y221925D01*
X426263Y223413D01*
X423513Y226163D01*
X422025Y229756D01*
X422025Y233644D01*
X422956Y235891D01*
X422960Y235904D01*
X422966Y235915D01*
X423018Y236095D01*
X423072Y236276D01*
X423074Y236289D01*
X423077Y236302D01*
X423093Y236490D01*
X423110Y236677D01*
X423109Y236690D01*
X423110Y236704D01*
X423088Y236890D01*
X423069Y237077D01*
X423065Y237090D01*
X423063Y237103D01*
X423005Y237283D01*
X422949Y237462D01*
X422943Y237473D01*
X422938Y237486D01*
X422846Y237650D01*
X422756Y237815D01*
X422747Y237825D01*
X422740Y237837D01*
X422618Y237979D01*
X422496Y238123D01*
X422486Y238131D01*
X422477Y238142D01*
X422329Y238256D01*
X422182Y238374D01*
X422170Y238380D01*
X422159Y238388D01*
X421991Y238472D01*
X421824Y238558D01*
X421811Y238562D01*
X421799Y238568D01*
X421616Y238617D01*
X421436Y238668D01*
X421423Y238669D01*
X421410Y238672D01*
X421079Y238699D01*
X403800Y238699D01*
X403799Y238700D01*
X403799Y294700D01*
X403800Y294701D01*
X459800Y294701D01*
X459801Y294700D01*
X459801Y238700D01*
X459800Y238699D01*
X442521Y238699D01*
X442507Y238698D01*
X442494Y238699D01*
X442308Y238678D01*
X442120Y238659D01*
X442107Y238655D01*
X442094Y238654D01*
X441916Y238597D01*
X441735Y238541D01*
X441723Y238535D01*
X441711Y238531D01*
X441547Y238439D01*
X441381Y238349D01*
X441371Y238341D01*
X441359Y238334D01*
X441216Y238211D01*
X441072Y238092D01*
X441064Y238081D01*
X441053Y238073D01*
X440937Y237924D01*
X440820Y237778D01*
X440814Y237766D01*
X440805Y237756D01*
X440720Y237586D01*
X440634Y237421D01*
X440631Y237408D01*
X440624Y237396D01*
X440575Y237214D01*
X440523Y237034D01*
X440522Y237020D01*
X440518Y237007D01*
X440505Y236820D01*
X440490Y236632D01*
X440491Y236619D01*
X440491Y236606D01*
X440515Y236418D01*
X440537Y236233D01*
X440541Y236220D01*
X440543Y236207D01*
X440644Y235891D01*
X441575Y233644D01*
X441575Y229756D01*
X440087Y226163D01*
X437337Y223413D01*
X433744Y221925D01*
X429856Y221925D01*
G37*
%LPD*%
%LPC*%
G36*
X125056Y221925D02*
X125056Y221925D01*
X121463Y223413D01*
X118713Y226163D01*
X117225Y229756D01*
X117225Y233644D01*
X118156Y235891D01*
X118160Y235904D01*
X118166Y235915D01*
X118218Y236095D01*
X118272Y236276D01*
X118274Y236289D01*
X118277Y236302D01*
X118293Y236490D01*
X118310Y236677D01*
X118309Y236690D01*
X118310Y236704D01*
X118288Y236890D01*
X118269Y237077D01*
X118265Y237090D01*
X118263Y237103D01*
X118205Y237283D01*
X118149Y237462D01*
X118143Y237473D01*
X118138Y237486D01*
X118046Y237650D01*
X117956Y237815D01*
X117947Y237825D01*
X117940Y237837D01*
X117818Y237979D01*
X117696Y238123D01*
X117686Y238131D01*
X117677Y238142D01*
X117529Y238256D01*
X117382Y238374D01*
X117370Y238380D01*
X117359Y238388D01*
X117191Y238472D01*
X117024Y238558D01*
X117011Y238562D01*
X116999Y238568D01*
X116816Y238617D01*
X116636Y238668D01*
X116623Y238669D01*
X116610Y238672D01*
X116279Y238699D01*
X99000Y238699D01*
X98999Y238700D01*
X98999Y294700D01*
X99000Y294701D01*
X155000Y294701D01*
X155001Y294700D01*
X155001Y238700D01*
X155000Y238699D01*
X137721Y238699D01*
X137707Y238698D01*
X137694Y238699D01*
X137508Y238678D01*
X137320Y238659D01*
X137307Y238655D01*
X137294Y238654D01*
X137116Y238597D01*
X136935Y238541D01*
X136923Y238535D01*
X136911Y238531D01*
X136747Y238439D01*
X136581Y238349D01*
X136571Y238341D01*
X136559Y238334D01*
X136416Y238211D01*
X136272Y238092D01*
X136264Y238081D01*
X136253Y238073D01*
X136137Y237924D01*
X136020Y237778D01*
X136014Y237766D01*
X136005Y237756D01*
X135920Y237586D01*
X135834Y237421D01*
X135831Y237408D01*
X135824Y237396D01*
X135775Y237214D01*
X135723Y237034D01*
X135722Y237020D01*
X135718Y237007D01*
X135705Y236820D01*
X135690Y236632D01*
X135691Y236619D01*
X135691Y236606D01*
X135715Y236418D01*
X135737Y236233D01*
X135741Y236220D01*
X135743Y236207D01*
X135844Y235891D01*
X136775Y233644D01*
X136775Y229756D01*
X135287Y226163D01*
X132537Y223413D01*
X128944Y221925D01*
X125056Y221925D01*
G37*
%LPD*%
%LPC*%
G36*
X54061Y194055D02*
X54061Y194055D01*
X50700Y195447D01*
X48127Y198020D01*
X46735Y201381D01*
X46735Y205019D01*
X48127Y208380D01*
X50700Y210953D01*
X54061Y212345D01*
X56896Y212345D01*
X56914Y212347D01*
X56932Y212345D01*
X57114Y212366D01*
X57297Y212385D01*
X57314Y212390D01*
X57331Y212392D01*
X57506Y212449D01*
X57682Y212503D01*
X57697Y212511D01*
X57714Y212517D01*
X57874Y212607D01*
X58036Y212695D01*
X58049Y212706D01*
X58065Y212715D01*
X58204Y212835D01*
X58345Y212952D01*
X58356Y212966D01*
X58370Y212978D01*
X58482Y213123D01*
X58597Y213266D01*
X58605Y213282D01*
X58616Y213296D01*
X58698Y213461D01*
X58783Y213623D01*
X58788Y213640D01*
X58796Y213656D01*
X58843Y213835D01*
X58894Y214010D01*
X58896Y214028D01*
X58900Y214045D01*
X58927Y214376D01*
X58927Y230124D01*
X58925Y230142D01*
X58927Y230160D01*
X58906Y230342D01*
X58887Y230525D01*
X58882Y230542D01*
X58880Y230559D01*
X58823Y230734D01*
X58769Y230910D01*
X58761Y230925D01*
X58755Y230942D01*
X58665Y231102D01*
X58577Y231264D01*
X58566Y231277D01*
X58557Y231293D01*
X58437Y231432D01*
X58320Y231573D01*
X58306Y231584D01*
X58294Y231598D01*
X58149Y231710D01*
X58006Y231825D01*
X57990Y231833D01*
X57976Y231844D01*
X57811Y231926D01*
X57649Y232011D01*
X57632Y232016D01*
X57616Y232024D01*
X57437Y232071D01*
X57262Y232122D01*
X57244Y232124D01*
X57227Y232128D01*
X56896Y232155D01*
X54061Y232155D01*
X50700Y233547D01*
X48127Y236120D01*
X46735Y239481D01*
X46735Y243119D01*
X48127Y246480D01*
X50700Y249053D01*
X53002Y250006D01*
X54061Y250445D01*
X56896Y250445D01*
X56914Y250447D01*
X56932Y250445D01*
X57114Y250466D01*
X57297Y250485D01*
X57314Y250490D01*
X57331Y250492D01*
X57506Y250549D01*
X57682Y250603D01*
X57697Y250611D01*
X57714Y250617D01*
X57874Y250707D01*
X58036Y250795D01*
X58049Y250806D01*
X58065Y250815D01*
X58204Y250935D01*
X58345Y251052D01*
X58356Y251066D01*
X58370Y251078D01*
X58482Y251223D01*
X58597Y251366D01*
X58605Y251382D01*
X58616Y251396D01*
X58698Y251561D01*
X58783Y251723D01*
X58788Y251740D01*
X58796Y251756D01*
X58843Y251935D01*
X58894Y252110D01*
X58896Y252128D01*
X58900Y252145D01*
X58927Y252476D01*
X58927Y255524D01*
X58925Y255542D01*
X58927Y255560D01*
X58906Y255742D01*
X58887Y255925D01*
X58882Y255942D01*
X58880Y255959D01*
X58823Y256134D01*
X58769Y256310D01*
X58761Y256325D01*
X58755Y256342D01*
X58665Y256502D01*
X58577Y256664D01*
X58566Y256677D01*
X58557Y256693D01*
X58437Y256832D01*
X58320Y256973D01*
X58306Y256984D01*
X58294Y256998D01*
X58149Y257110D01*
X58006Y257225D01*
X57990Y257233D01*
X57976Y257244D01*
X57811Y257326D01*
X57649Y257411D01*
X57632Y257416D01*
X57616Y257424D01*
X57437Y257471D01*
X57262Y257522D01*
X57244Y257524D01*
X57227Y257528D01*
X56896Y257555D01*
X54061Y257555D01*
X50700Y258947D01*
X48127Y261520D01*
X46735Y264881D01*
X46735Y268519D01*
X48127Y271880D01*
X50700Y274453D01*
X54061Y275845D01*
X56896Y275845D01*
X56914Y275847D01*
X56932Y275845D01*
X57114Y275866D01*
X57297Y275885D01*
X57314Y275890D01*
X57331Y275892D01*
X57506Y275949D01*
X57682Y276003D01*
X57697Y276011D01*
X57714Y276017D01*
X57874Y276107D01*
X58036Y276195D01*
X58049Y276206D01*
X58065Y276215D01*
X58204Y276335D01*
X58345Y276452D01*
X58356Y276466D01*
X58370Y276478D01*
X58482Y276623D01*
X58597Y276766D01*
X58605Y276782D01*
X58616Y276796D01*
X58698Y276961D01*
X58783Y277123D01*
X58788Y277140D01*
X58796Y277156D01*
X58843Y277335D01*
X58894Y277510D01*
X58896Y277528D01*
X58900Y277545D01*
X58927Y277876D01*
X58927Y280924D01*
X58925Y280942D01*
X58927Y280960D01*
X58906Y281142D01*
X58887Y281325D01*
X58882Y281342D01*
X58880Y281359D01*
X58823Y281534D01*
X58769Y281710D01*
X58761Y281725D01*
X58755Y281742D01*
X58665Y281902D01*
X58577Y282064D01*
X58566Y282077D01*
X58557Y282093D01*
X58437Y282232D01*
X58320Y282373D01*
X58306Y282384D01*
X58294Y282398D01*
X58149Y282510D01*
X58006Y282625D01*
X57990Y282633D01*
X57976Y282644D01*
X57811Y282726D01*
X57649Y282811D01*
X57632Y282816D01*
X57616Y282824D01*
X57437Y282871D01*
X57262Y282922D01*
X57244Y282924D01*
X57227Y282928D01*
X56896Y282955D01*
X54061Y282955D01*
X50700Y284347D01*
X48127Y286920D01*
X46735Y290281D01*
X46735Y293919D01*
X48127Y297280D01*
X50700Y299853D01*
X54061Y301245D01*
X72939Y301245D01*
X76300Y299853D01*
X78873Y297280D01*
X80265Y293919D01*
X80265Y290281D01*
X78873Y286920D01*
X76300Y284347D01*
X72939Y282955D01*
X70104Y282955D01*
X70086Y282953D01*
X70068Y282955D01*
X69886Y282934D01*
X69703Y282915D01*
X69686Y282910D01*
X69669Y282908D01*
X69494Y282851D01*
X69318Y282797D01*
X69303Y282789D01*
X69286Y282783D01*
X69126Y282693D01*
X68964Y282605D01*
X68951Y282594D01*
X68935Y282585D01*
X68796Y282465D01*
X68655Y282348D01*
X68644Y282334D01*
X68630Y282322D01*
X68518Y282177D01*
X68403Y282034D01*
X68395Y282018D01*
X68384Y282004D01*
X68302Y281839D01*
X68217Y281677D01*
X68212Y281660D01*
X68204Y281644D01*
X68157Y281465D01*
X68106Y281290D01*
X68104Y281272D01*
X68100Y281255D01*
X68073Y280924D01*
X68073Y277876D01*
X68075Y277858D01*
X68073Y277840D01*
X68094Y277658D01*
X68113Y277475D01*
X68118Y277458D01*
X68120Y277441D01*
X68177Y277266D01*
X68231Y277090D01*
X68239Y277075D01*
X68245Y277058D01*
X68335Y276898D01*
X68423Y276736D01*
X68434Y276723D01*
X68443Y276707D01*
X68563Y276568D01*
X68680Y276427D01*
X68694Y276416D01*
X68706Y276402D01*
X68851Y276290D01*
X68994Y276175D01*
X69010Y276167D01*
X69024Y276156D01*
X69189Y276074D01*
X69351Y275989D01*
X69368Y275984D01*
X69384Y275976D01*
X69563Y275929D01*
X69738Y275878D01*
X69756Y275876D01*
X69773Y275872D01*
X70104Y275845D01*
X72939Y275845D01*
X76300Y274453D01*
X78873Y271880D01*
X80265Y268519D01*
X80265Y264881D01*
X78873Y261520D01*
X76300Y258947D01*
X72939Y257555D01*
X70104Y257555D01*
X70086Y257553D01*
X70068Y257555D01*
X69886Y257534D01*
X69703Y257515D01*
X69686Y257510D01*
X69669Y257508D01*
X69494Y257451D01*
X69318Y257397D01*
X69303Y257389D01*
X69286Y257383D01*
X69126Y257293D01*
X68964Y257205D01*
X68951Y257194D01*
X68935Y257185D01*
X68796Y257065D01*
X68655Y256948D01*
X68644Y256934D01*
X68630Y256922D01*
X68518Y256777D01*
X68403Y256634D01*
X68395Y256618D01*
X68384Y256604D01*
X68302Y256439D01*
X68217Y256277D01*
X68212Y256260D01*
X68204Y256244D01*
X68157Y256065D01*
X68106Y255890D01*
X68104Y255872D01*
X68100Y255855D01*
X68073Y255524D01*
X68073Y252476D01*
X68075Y252458D01*
X68073Y252440D01*
X68094Y252258D01*
X68113Y252075D01*
X68118Y252058D01*
X68120Y252041D01*
X68177Y251866D01*
X68231Y251690D01*
X68239Y251675D01*
X68245Y251658D01*
X68335Y251498D01*
X68423Y251336D01*
X68434Y251323D01*
X68443Y251307D01*
X68563Y251168D01*
X68680Y251027D01*
X68694Y251016D01*
X68706Y251002D01*
X68851Y250890D01*
X68994Y250775D01*
X69010Y250767D01*
X69024Y250756D01*
X69189Y250674D01*
X69351Y250589D01*
X69368Y250584D01*
X69384Y250576D01*
X69563Y250529D01*
X69738Y250478D01*
X69756Y250476D01*
X69773Y250472D01*
X70104Y250445D01*
X72939Y250445D01*
X76300Y249053D01*
X78873Y246480D01*
X80265Y243119D01*
X80265Y239481D01*
X78873Y236120D01*
X76300Y233547D01*
X76041Y233440D01*
X72939Y232155D01*
X70104Y232155D01*
X70086Y232153D01*
X70068Y232155D01*
X69886Y232134D01*
X69703Y232115D01*
X69686Y232110D01*
X69669Y232108D01*
X69494Y232051D01*
X69318Y231997D01*
X69303Y231989D01*
X69286Y231983D01*
X69126Y231893D01*
X68964Y231805D01*
X68951Y231794D01*
X68935Y231785D01*
X68796Y231665D01*
X68655Y231548D01*
X68644Y231534D01*
X68630Y231522D01*
X68518Y231377D01*
X68403Y231234D01*
X68395Y231218D01*
X68384Y231204D01*
X68302Y231039D01*
X68217Y230877D01*
X68212Y230860D01*
X68204Y230844D01*
X68157Y230665D01*
X68106Y230490D01*
X68104Y230472D01*
X68100Y230455D01*
X68073Y230124D01*
X68073Y214376D01*
X68075Y214358D01*
X68073Y214340D01*
X68094Y214158D01*
X68113Y213975D01*
X68118Y213958D01*
X68120Y213941D01*
X68177Y213766D01*
X68231Y213590D01*
X68239Y213575D01*
X68245Y213558D01*
X68335Y213398D01*
X68423Y213236D01*
X68434Y213223D01*
X68443Y213207D01*
X68563Y213068D01*
X68680Y212927D01*
X68694Y212916D01*
X68706Y212902D01*
X68851Y212790D01*
X68994Y212675D01*
X69010Y212667D01*
X69024Y212656D01*
X69189Y212574D01*
X69351Y212489D01*
X69368Y212484D01*
X69384Y212476D01*
X69563Y212429D01*
X69738Y212378D01*
X69756Y212376D01*
X69773Y212372D01*
X70104Y212345D01*
X72939Y212345D01*
X76300Y210953D01*
X78873Y208380D01*
X80265Y205019D01*
X80265Y201381D01*
X78873Y198020D01*
X76300Y195447D01*
X72939Y194055D01*
X54061Y194055D01*
G37*
%LPD*%
%LPC*%
G36*
X485861Y194055D02*
X485861Y194055D01*
X482500Y195447D01*
X479927Y198020D01*
X478535Y201381D01*
X478535Y205019D01*
X479927Y208380D01*
X482500Y210953D01*
X485861Y212345D01*
X488696Y212345D01*
X488714Y212347D01*
X488732Y212345D01*
X488914Y212366D01*
X489097Y212385D01*
X489114Y212390D01*
X489131Y212392D01*
X489306Y212449D01*
X489482Y212503D01*
X489497Y212511D01*
X489514Y212517D01*
X489674Y212607D01*
X489836Y212695D01*
X489849Y212706D01*
X489865Y212715D01*
X490004Y212835D01*
X490145Y212952D01*
X490156Y212966D01*
X490170Y212978D01*
X490282Y213123D01*
X490397Y213266D01*
X490405Y213282D01*
X490416Y213296D01*
X490498Y213461D01*
X490583Y213623D01*
X490588Y213640D01*
X490596Y213656D01*
X490643Y213835D01*
X490694Y214010D01*
X490696Y214028D01*
X490700Y214045D01*
X490727Y214376D01*
X490727Y230124D01*
X490725Y230142D01*
X490727Y230160D01*
X490706Y230342D01*
X490687Y230525D01*
X490682Y230542D01*
X490680Y230559D01*
X490623Y230734D01*
X490569Y230910D01*
X490561Y230925D01*
X490555Y230942D01*
X490465Y231102D01*
X490377Y231264D01*
X490366Y231277D01*
X490357Y231293D01*
X490237Y231432D01*
X490120Y231573D01*
X490106Y231584D01*
X490094Y231598D01*
X489949Y231710D01*
X489806Y231825D01*
X489790Y231833D01*
X489776Y231844D01*
X489611Y231926D01*
X489449Y232011D01*
X489432Y232016D01*
X489416Y232024D01*
X489237Y232071D01*
X489062Y232122D01*
X489044Y232124D01*
X489027Y232128D01*
X488696Y232155D01*
X485861Y232155D01*
X482500Y233547D01*
X479927Y236120D01*
X478535Y239481D01*
X478535Y243119D01*
X479927Y246480D01*
X482500Y249053D01*
X484802Y250006D01*
X485861Y250445D01*
X488696Y250445D01*
X488714Y250447D01*
X488732Y250445D01*
X488914Y250466D01*
X489097Y250485D01*
X489114Y250490D01*
X489131Y250492D01*
X489306Y250549D01*
X489482Y250603D01*
X489497Y250611D01*
X489514Y250617D01*
X489674Y250707D01*
X489836Y250795D01*
X489849Y250806D01*
X489865Y250815D01*
X490004Y250935D01*
X490145Y251052D01*
X490156Y251066D01*
X490170Y251078D01*
X490282Y251223D01*
X490397Y251366D01*
X490405Y251382D01*
X490416Y251396D01*
X490498Y251561D01*
X490583Y251723D01*
X490588Y251740D01*
X490596Y251756D01*
X490643Y251935D01*
X490694Y252110D01*
X490696Y252128D01*
X490700Y252145D01*
X490727Y252476D01*
X490727Y255524D01*
X490725Y255542D01*
X490727Y255560D01*
X490706Y255742D01*
X490687Y255925D01*
X490682Y255942D01*
X490680Y255959D01*
X490623Y256134D01*
X490569Y256310D01*
X490561Y256325D01*
X490555Y256342D01*
X490465Y256502D01*
X490377Y256664D01*
X490366Y256677D01*
X490357Y256693D01*
X490237Y256832D01*
X490120Y256973D01*
X490106Y256984D01*
X490094Y256998D01*
X489949Y257110D01*
X489806Y257225D01*
X489790Y257233D01*
X489776Y257244D01*
X489611Y257326D01*
X489449Y257411D01*
X489432Y257416D01*
X489416Y257424D01*
X489237Y257471D01*
X489062Y257522D01*
X489044Y257524D01*
X489027Y257528D01*
X488696Y257555D01*
X485861Y257555D01*
X482500Y258947D01*
X479927Y261520D01*
X478535Y264881D01*
X478535Y268519D01*
X479927Y271880D01*
X482500Y274453D01*
X485861Y275845D01*
X488696Y275845D01*
X488714Y275847D01*
X488732Y275845D01*
X488914Y275866D01*
X489097Y275885D01*
X489114Y275890D01*
X489131Y275892D01*
X489306Y275949D01*
X489482Y276003D01*
X489497Y276011D01*
X489514Y276017D01*
X489674Y276107D01*
X489836Y276195D01*
X489849Y276206D01*
X489865Y276215D01*
X490004Y276335D01*
X490145Y276452D01*
X490156Y276466D01*
X490170Y276478D01*
X490282Y276623D01*
X490397Y276766D01*
X490405Y276782D01*
X490416Y276796D01*
X490498Y276961D01*
X490583Y277123D01*
X490588Y277140D01*
X490596Y277156D01*
X490643Y277335D01*
X490694Y277510D01*
X490696Y277528D01*
X490700Y277545D01*
X490727Y277876D01*
X490727Y280924D01*
X490725Y280942D01*
X490727Y280960D01*
X490706Y281142D01*
X490687Y281325D01*
X490682Y281342D01*
X490680Y281359D01*
X490623Y281534D01*
X490569Y281710D01*
X490561Y281725D01*
X490555Y281742D01*
X490465Y281902D01*
X490377Y282064D01*
X490366Y282077D01*
X490357Y282093D01*
X490237Y282232D01*
X490120Y282373D01*
X490106Y282384D01*
X490094Y282398D01*
X489949Y282510D01*
X489806Y282625D01*
X489790Y282633D01*
X489776Y282644D01*
X489611Y282726D01*
X489449Y282811D01*
X489432Y282816D01*
X489416Y282824D01*
X489237Y282871D01*
X489062Y282922D01*
X489044Y282924D01*
X489027Y282928D01*
X488696Y282955D01*
X485861Y282955D01*
X482500Y284347D01*
X479927Y286920D01*
X478535Y290281D01*
X478535Y293919D01*
X479927Y297280D01*
X482500Y299853D01*
X485861Y301245D01*
X504739Y301245D01*
X508100Y299853D01*
X510673Y297280D01*
X512065Y293919D01*
X512065Y290281D01*
X510673Y286920D01*
X508100Y284347D01*
X504739Y282955D01*
X501904Y282955D01*
X501886Y282953D01*
X501868Y282955D01*
X501686Y282934D01*
X501503Y282915D01*
X501486Y282910D01*
X501469Y282908D01*
X501294Y282851D01*
X501118Y282797D01*
X501103Y282789D01*
X501086Y282783D01*
X500926Y282693D01*
X500764Y282605D01*
X500751Y282594D01*
X500735Y282585D01*
X500596Y282465D01*
X500455Y282348D01*
X500444Y282334D01*
X500430Y282322D01*
X500318Y282177D01*
X500203Y282034D01*
X500195Y282018D01*
X500184Y282004D01*
X500102Y281839D01*
X500017Y281677D01*
X500012Y281660D01*
X500004Y281644D01*
X499957Y281465D01*
X499906Y281290D01*
X499904Y281272D01*
X499900Y281255D01*
X499873Y280924D01*
X499873Y277876D01*
X499875Y277858D01*
X499873Y277840D01*
X499894Y277658D01*
X499913Y277475D01*
X499918Y277458D01*
X499920Y277441D01*
X499977Y277266D01*
X500031Y277090D01*
X500039Y277075D01*
X500045Y277058D01*
X500135Y276898D01*
X500223Y276736D01*
X500234Y276723D01*
X500243Y276707D01*
X500363Y276568D01*
X500480Y276427D01*
X500494Y276416D01*
X500506Y276402D01*
X500651Y276290D01*
X500794Y276175D01*
X500810Y276167D01*
X500824Y276156D01*
X500989Y276074D01*
X501151Y275989D01*
X501168Y275984D01*
X501184Y275976D01*
X501363Y275929D01*
X501538Y275878D01*
X501556Y275876D01*
X501573Y275872D01*
X501904Y275845D01*
X504739Y275845D01*
X508100Y274453D01*
X510673Y271880D01*
X512065Y268519D01*
X512065Y264881D01*
X510673Y261520D01*
X508100Y258947D01*
X504739Y257555D01*
X501904Y257555D01*
X501886Y257553D01*
X501868Y257555D01*
X501686Y257534D01*
X501503Y257515D01*
X501486Y257510D01*
X501469Y257508D01*
X501294Y257451D01*
X501118Y257397D01*
X501103Y257389D01*
X501086Y257383D01*
X500926Y257293D01*
X500764Y257205D01*
X500751Y257194D01*
X500735Y257185D01*
X500596Y257065D01*
X500455Y256948D01*
X500444Y256934D01*
X500430Y256922D01*
X500318Y256777D01*
X500203Y256634D01*
X500195Y256618D01*
X500184Y256604D01*
X500102Y256439D01*
X500017Y256277D01*
X500012Y256260D01*
X500004Y256244D01*
X499957Y256065D01*
X499906Y255890D01*
X499904Y255872D01*
X499900Y255855D01*
X499873Y255524D01*
X499873Y252476D01*
X499875Y252458D01*
X499873Y252440D01*
X499894Y252258D01*
X499913Y252075D01*
X499918Y252058D01*
X499920Y252041D01*
X499977Y251866D01*
X500031Y251690D01*
X500039Y251675D01*
X500045Y251658D01*
X500135Y251498D01*
X500223Y251336D01*
X500234Y251323D01*
X500243Y251307D01*
X500363Y251168D01*
X500480Y251027D01*
X500494Y251016D01*
X500506Y251002D01*
X500651Y250890D01*
X500794Y250775D01*
X500810Y250767D01*
X500824Y250756D01*
X500989Y250674D01*
X501151Y250589D01*
X501168Y250584D01*
X501184Y250576D01*
X501363Y250529D01*
X501538Y250478D01*
X501556Y250476D01*
X501573Y250472D01*
X501904Y250445D01*
X504739Y250445D01*
X508100Y249053D01*
X510673Y246480D01*
X512065Y243119D01*
X512065Y239481D01*
X510673Y236120D01*
X508100Y233547D01*
X507841Y233440D01*
X504739Y232155D01*
X501904Y232155D01*
X501886Y232153D01*
X501868Y232155D01*
X501686Y232134D01*
X501503Y232115D01*
X501486Y232110D01*
X501469Y232108D01*
X501294Y232051D01*
X501118Y231997D01*
X501103Y231989D01*
X501086Y231983D01*
X500926Y231893D01*
X500764Y231805D01*
X500751Y231794D01*
X500735Y231785D01*
X500596Y231665D01*
X500455Y231548D01*
X500444Y231534D01*
X500430Y231522D01*
X500318Y231377D01*
X500203Y231234D01*
X500195Y231218D01*
X500184Y231204D01*
X500102Y231039D01*
X500017Y230877D01*
X500012Y230860D01*
X500004Y230844D01*
X499957Y230665D01*
X499906Y230490D01*
X499904Y230472D01*
X499900Y230455D01*
X499873Y230124D01*
X499873Y214376D01*
X499875Y214358D01*
X499873Y214340D01*
X499894Y214158D01*
X499913Y213975D01*
X499918Y213958D01*
X499920Y213941D01*
X499977Y213766D01*
X500031Y213590D01*
X500039Y213575D01*
X500045Y213558D01*
X500135Y213398D01*
X500223Y213236D01*
X500234Y213223D01*
X500243Y213207D01*
X500363Y213068D01*
X500480Y212927D01*
X500494Y212916D01*
X500506Y212902D01*
X500651Y212790D01*
X500794Y212675D01*
X500810Y212667D01*
X500824Y212656D01*
X500989Y212574D01*
X501151Y212489D01*
X501168Y212484D01*
X501184Y212476D01*
X501363Y212429D01*
X501538Y212378D01*
X501556Y212376D01*
X501573Y212372D01*
X501904Y212345D01*
X504739Y212345D01*
X508100Y210953D01*
X510673Y208380D01*
X512065Y205019D01*
X512065Y201381D01*
X510673Y198020D01*
X508100Y195447D01*
X504739Y194055D01*
X485861Y194055D01*
G37*
%LPD*%
%LPC*%
G36*
X447483Y36321D02*
X447483Y36321D01*
X442721Y41083D01*
X442721Y47817D01*
X447483Y52579D01*
X454217Y52579D01*
X458979Y47817D01*
X458979Y41083D01*
X454217Y36321D01*
X447483Y36321D01*
G37*
%LPD*%
%LPC*%
G36*
X104583Y36321D02*
X104583Y36321D01*
X99821Y41083D01*
X99821Y47817D01*
X104583Y52579D01*
X111317Y52579D01*
X116079Y47817D01*
X116079Y41083D01*
X111317Y36321D01*
X104583Y36321D01*
G37*
%LPD*%
%LPC*%
G36*
X66039Y180339D02*
X66039Y180339D01*
X66039Y187961D01*
X71920Y187961D01*
X73499Y187711D01*
X75020Y187216D01*
X76445Y186490D01*
X77739Y185550D01*
X78870Y184419D01*
X79810Y183125D01*
X80536Y181700D01*
X80979Y180339D01*
X66039Y180339D01*
G37*
%LPD*%
%LPC*%
G36*
X497839Y180339D02*
X497839Y180339D01*
X497839Y187961D01*
X503720Y187961D01*
X505299Y187711D01*
X506820Y187216D01*
X508245Y186490D01*
X509539Y185550D01*
X510670Y184419D01*
X511610Y183125D01*
X512336Y181700D01*
X512779Y180339D01*
X497839Y180339D01*
G37*
%LPD*%
%LPC*%
G36*
X477821Y180339D02*
X477821Y180339D01*
X478264Y181700D01*
X478990Y183125D01*
X479930Y184419D01*
X481061Y185550D01*
X482355Y186490D01*
X483780Y187216D01*
X485301Y187711D01*
X486880Y187961D01*
X492761Y187961D01*
X492761Y180339D01*
X477821Y180339D01*
G37*
%LPD*%
%LPC*%
G36*
X46021Y180339D02*
X46021Y180339D01*
X46464Y181700D01*
X47190Y183125D01*
X48130Y184419D01*
X49261Y185550D01*
X50555Y186490D01*
X51980Y187216D01*
X53501Y187711D01*
X55080Y187961D01*
X60961Y187961D01*
X60961Y180339D01*
X46021Y180339D01*
G37*
%LPD*%
%LPC*%
G36*
X66039Y167639D02*
X66039Y167639D01*
X66039Y175261D01*
X80979Y175261D01*
X80536Y173900D01*
X79810Y172475D01*
X78870Y171181D01*
X77739Y170050D01*
X76445Y169110D01*
X75020Y168384D01*
X73499Y167889D01*
X71920Y167639D01*
X66039Y167639D01*
G37*
%LPD*%
%LPC*%
G36*
X497839Y167639D02*
X497839Y167639D01*
X497839Y175261D01*
X512779Y175261D01*
X512336Y173900D01*
X511610Y172475D01*
X510670Y171181D01*
X509539Y170050D01*
X508245Y169110D01*
X506820Y168384D01*
X505299Y167889D01*
X503720Y167639D01*
X497839Y167639D01*
G37*
%LPD*%
%LPC*%
G36*
X55080Y167639D02*
X55080Y167639D01*
X53501Y167889D01*
X51980Y168384D01*
X50555Y169110D01*
X49261Y170050D01*
X48130Y171181D01*
X47190Y172475D01*
X46464Y173900D01*
X46021Y175261D01*
X60961Y175261D01*
X60961Y167639D01*
X55080Y167639D01*
G37*
%LPD*%
%LPC*%
G36*
X486880Y167639D02*
X486880Y167639D01*
X485301Y167889D01*
X483780Y168384D01*
X482355Y169110D01*
X481061Y170050D01*
X479930Y171181D01*
X478990Y172475D01*
X478264Y173900D01*
X477821Y175261D01*
X492761Y175261D01*
X492761Y167639D01*
X486880Y167639D01*
G37*
%LPD*%
%LPC*%
G36*
X434549Y204449D02*
X434549Y204449D01*
X434549Y212153D01*
X435942Y211700D01*
X437456Y210929D01*
X438830Y209931D01*
X440031Y208730D01*
X441029Y207356D01*
X441800Y205842D01*
X442253Y204449D01*
X434549Y204449D01*
G37*
%LPD*%
%LPC*%
G36*
X231349Y204449D02*
X231349Y204449D01*
X231349Y212153D01*
X232742Y211700D01*
X234256Y210929D01*
X235630Y209931D01*
X236831Y208730D01*
X237829Y207356D01*
X238600Y205842D01*
X239053Y204449D01*
X231349Y204449D01*
G37*
%LPD*%
%LPC*%
G36*
X332949Y204449D02*
X332949Y204449D01*
X332949Y212153D01*
X334342Y211700D01*
X335856Y210929D01*
X337230Y209931D01*
X338431Y208730D01*
X339429Y207356D01*
X340200Y205842D01*
X340653Y204449D01*
X332949Y204449D01*
G37*
%LPD*%
%LPC*%
G36*
X129749Y204449D02*
X129749Y204449D01*
X129749Y212153D01*
X131142Y211700D01*
X132656Y210929D01*
X134030Y209931D01*
X135231Y208730D01*
X136229Y207356D01*
X137000Y205842D01*
X137453Y204449D01*
X129749Y204449D01*
G37*
%LPD*%
%LPC*%
G36*
X129749Y198951D02*
X129749Y198951D01*
X137453Y198951D01*
X137000Y197558D01*
X136229Y196044D01*
X135231Y194670D01*
X134030Y193469D01*
X132656Y192471D01*
X131142Y191700D01*
X129749Y191247D01*
X129749Y198951D01*
G37*
%LPD*%
%LPC*%
G36*
X116547Y204449D02*
X116547Y204449D01*
X117000Y205842D01*
X117771Y207356D01*
X118769Y208730D01*
X119970Y209931D01*
X121344Y210929D01*
X122858Y211700D01*
X124251Y212153D01*
X124251Y204449D01*
X116547Y204449D01*
G37*
%LPD*%
%LPC*%
G36*
X218147Y204449D02*
X218147Y204449D01*
X218600Y205842D01*
X219371Y207356D01*
X220369Y208730D01*
X221570Y209931D01*
X222944Y210929D01*
X224458Y211700D01*
X225851Y212153D01*
X225851Y204449D01*
X218147Y204449D01*
G37*
%LPD*%
%LPC*%
G36*
X434549Y198951D02*
X434549Y198951D01*
X442253Y198951D01*
X441800Y197558D01*
X441029Y196044D01*
X440031Y194670D01*
X438830Y193469D01*
X437456Y192471D01*
X435942Y191700D01*
X434549Y191247D01*
X434549Y198951D01*
G37*
%LPD*%
%LPC*%
G36*
X421347Y204449D02*
X421347Y204449D01*
X421800Y205842D01*
X422571Y207356D01*
X423569Y208730D01*
X424770Y209931D01*
X426144Y210929D01*
X427658Y211700D01*
X429051Y212153D01*
X429051Y204449D01*
X421347Y204449D01*
G37*
%LPD*%
%LPC*%
G36*
X319747Y204449D02*
X319747Y204449D01*
X320200Y205842D01*
X320971Y207356D01*
X321969Y208730D01*
X323170Y209931D01*
X324544Y210929D01*
X326058Y211700D01*
X327451Y212153D01*
X327451Y204449D01*
X319747Y204449D01*
G37*
%LPD*%
%LPC*%
G36*
X427658Y191700D02*
X427658Y191700D01*
X426144Y192471D01*
X424770Y193469D01*
X423569Y194670D01*
X422571Y196044D01*
X421800Y197558D01*
X421347Y198951D01*
X429051Y198951D01*
X429051Y191247D01*
X427658Y191700D01*
G37*
%LPD*%
%LPC*%
G36*
X122858Y191700D02*
X122858Y191700D01*
X121344Y192471D01*
X119970Y193469D01*
X118769Y194670D01*
X117771Y196044D01*
X117000Y197558D01*
X116547Y198951D01*
X124251Y198951D01*
X124251Y191247D01*
X122858Y191700D01*
G37*
%LPD*%
%LPC*%
G36*
X256285Y34035D02*
X256285Y34035D01*
X256285Y41403D01*
X257998Y41403D01*
X263653Y35748D01*
X263653Y34035D01*
X256285Y34035D01*
G37*
%LPD*%
%LPC*%
G36*
X281685Y34035D02*
X281685Y34035D01*
X281685Y41403D01*
X283398Y41403D01*
X289053Y35748D01*
X289053Y34035D01*
X281685Y34035D01*
G37*
%LPD*%
%LPC*%
G36*
X307085Y34035D02*
X307085Y34035D01*
X307085Y41403D01*
X308798Y41403D01*
X314453Y35748D01*
X314453Y34035D01*
X307085Y34035D01*
G37*
%LPD*%
%LPC*%
G36*
X281685Y59435D02*
X281685Y59435D01*
X281685Y66803D01*
X283398Y66803D01*
X289053Y61148D01*
X289053Y59435D01*
X281685Y59435D01*
G37*
%LPD*%
%LPC*%
G36*
X307085Y59435D02*
X307085Y59435D01*
X307085Y66803D01*
X308798Y66803D01*
X314453Y61148D01*
X314453Y59435D01*
X307085Y59435D01*
G37*
%LPD*%
%LPC*%
G36*
X256285Y59435D02*
X256285Y59435D01*
X256285Y66803D01*
X257998Y66803D01*
X263653Y61148D01*
X263653Y59435D01*
X256285Y59435D01*
G37*
%LPD*%
%LPC*%
G36*
X244347Y59435D02*
X244347Y59435D01*
X244347Y61148D01*
X250002Y66803D01*
X251715Y66803D01*
X251715Y59435D01*
X244347Y59435D01*
G37*
%LPD*%
%LPC*%
G36*
X281685Y22097D02*
X281685Y22097D01*
X281685Y29465D01*
X289053Y29465D01*
X289053Y27752D01*
X283398Y22097D01*
X281685Y22097D01*
G37*
%LPD*%
%LPC*%
G36*
X269747Y59435D02*
X269747Y59435D01*
X269747Y61148D01*
X275402Y66803D01*
X277115Y66803D01*
X277115Y59435D01*
X269747Y59435D01*
G37*
%LPD*%
%LPC*%
G36*
X295147Y34035D02*
X295147Y34035D01*
X295147Y35748D01*
X300802Y41403D01*
X302515Y41403D01*
X302515Y34035D01*
X295147Y34035D01*
G37*
%LPD*%
%LPC*%
G36*
X295147Y59435D02*
X295147Y59435D01*
X295147Y61148D01*
X300802Y66803D01*
X302515Y66803D01*
X302515Y59435D01*
X295147Y59435D01*
G37*
%LPD*%
%LPC*%
G36*
X269747Y34035D02*
X269747Y34035D01*
X269747Y35748D01*
X275402Y41403D01*
X277115Y41403D01*
X277115Y34035D01*
X269747Y34035D01*
G37*
%LPD*%
%LPC*%
G36*
X244347Y34035D02*
X244347Y34035D01*
X244347Y35748D01*
X250002Y41403D01*
X251715Y41403D01*
X251715Y34035D01*
X244347Y34035D01*
G37*
%LPD*%
%LPC*%
G36*
X256285Y47497D02*
X256285Y47497D01*
X256285Y54865D01*
X263653Y54865D01*
X263653Y53152D01*
X257998Y47497D01*
X256285Y47497D01*
G37*
%LPD*%
%LPC*%
G36*
X256285Y22097D02*
X256285Y22097D01*
X256285Y29465D01*
X263653Y29465D01*
X263653Y27752D01*
X257998Y22097D01*
X256285Y22097D01*
G37*
%LPD*%
%LPC*%
G36*
X281685Y47497D02*
X281685Y47497D01*
X281685Y54865D01*
X289053Y54865D01*
X289053Y53152D01*
X283398Y47497D01*
X281685Y47497D01*
G37*
%LPD*%
%LPC*%
G36*
X307085Y22097D02*
X307085Y22097D01*
X307085Y29465D01*
X314453Y29465D01*
X314453Y27752D01*
X308798Y22097D01*
X307085Y22097D01*
G37*
%LPD*%
%LPC*%
G36*
X307085Y47497D02*
X307085Y47497D01*
X307085Y54865D01*
X314453Y54865D01*
X314453Y53152D01*
X308798Y47497D01*
X307085Y47497D01*
G37*
%LPD*%
%LPC*%
G36*
X300802Y47497D02*
X300802Y47497D01*
X295147Y53152D01*
X295147Y54865D01*
X302515Y54865D01*
X302515Y47497D01*
X300802Y47497D01*
G37*
%LPD*%
%LPC*%
G36*
X275402Y22097D02*
X275402Y22097D01*
X269747Y27752D01*
X269747Y29465D01*
X277115Y29465D01*
X277115Y22097D01*
X275402Y22097D01*
G37*
%LPD*%
%LPC*%
G36*
X275402Y47497D02*
X275402Y47497D01*
X269747Y53152D01*
X269747Y54865D01*
X277115Y54865D01*
X277115Y47497D01*
X275402Y47497D01*
G37*
%LPD*%
%LPC*%
G36*
X250002Y47497D02*
X250002Y47497D01*
X244347Y53152D01*
X244347Y54865D01*
X251715Y54865D01*
X251715Y47497D01*
X250002Y47497D01*
G37*
%LPD*%
%LPC*%
G36*
X300802Y22097D02*
X300802Y22097D01*
X295147Y27752D01*
X295147Y29465D01*
X302515Y29465D01*
X302515Y22097D01*
X300802Y22097D01*
G37*
%LPD*%
%LPC*%
G36*
X250002Y22097D02*
X250002Y22097D01*
X244347Y27752D01*
X244347Y29465D01*
X251715Y29465D01*
X251715Y22097D01*
X250002Y22097D01*
G37*
%LPD*%
%LPC*%
G36*
X109981Y71881D02*
X109981Y71881D01*
X109981Y78995D01*
X111738Y78995D01*
X117095Y73638D01*
X117095Y71881D01*
X109981Y71881D01*
G37*
%LPD*%
%LPC*%
G36*
X408431Y97281D02*
X408431Y97281D01*
X408431Y104395D01*
X410188Y104395D01*
X415545Y99038D01*
X415545Y97281D01*
X408431Y97281D01*
G37*
%LPD*%
%LPC*%
G36*
X397255Y97281D02*
X397255Y97281D01*
X397255Y99038D01*
X402612Y104395D01*
X404369Y104395D01*
X404369Y97281D01*
X397255Y97281D01*
G37*
%LPD*%
%LPC*%
G36*
X408431Y86105D02*
X408431Y86105D01*
X408431Y93219D01*
X415545Y93219D01*
X415545Y91462D01*
X410188Y86105D01*
X408431Y86105D01*
G37*
%LPD*%
%LPC*%
G36*
X109981Y60705D02*
X109981Y60705D01*
X109981Y67819D01*
X117095Y67819D01*
X117095Y66062D01*
X111738Y60705D01*
X109981Y60705D01*
G37*
%LPD*%
%LPC*%
G36*
X98805Y71881D02*
X98805Y71881D01*
X98805Y73638D01*
X104162Y78995D01*
X105919Y78995D01*
X105919Y71881D01*
X98805Y71881D01*
G37*
%LPD*%
%LPC*%
G36*
X104162Y60705D02*
X104162Y60705D01*
X98805Y66062D01*
X98805Y67819D01*
X105919Y67819D01*
X105919Y60705D01*
X104162Y60705D01*
G37*
%LPD*%
%LPC*%
G36*
X402612Y86105D02*
X402612Y86105D01*
X397255Y91462D01*
X397255Y93219D01*
X404369Y93219D01*
X404369Y86105D01*
X402612Y86105D01*
G37*
%LPD*%
D10*
X450850Y69850D03*
X450850Y44450D03*
X107950Y69850D03*
X107950Y44450D03*
D11*
X228600Y31750D03*
X228600Y57150D03*
X254000Y31750D03*
X254000Y57150D03*
X279400Y31750D03*
X279400Y57150D03*
X304800Y31750D03*
X304800Y57150D03*
X330200Y31750D03*
X330200Y57150D03*
D10*
X406400Y95250D03*
X406400Y19050D03*
D12*
X152400Y19050D03*
X152400Y95250D03*
D13*
X525780Y292100D02*
X541020Y292100D01*
X541020Y266700D02*
X525780Y266700D01*
X525780Y241300D02*
X541020Y241300D01*
X502920Y241300D02*
X487680Y241300D01*
X487680Y266700D02*
X502920Y266700D01*
X502920Y292100D02*
X487680Y292100D01*
X71120Y241300D02*
X55880Y241300D01*
X55880Y266700D02*
X71120Y266700D01*
X71120Y292100D02*
X55880Y292100D01*
X33020Y292100D02*
X17780Y292100D01*
X17780Y266700D02*
X33020Y266700D01*
X33020Y241300D02*
X17780Y241300D01*
X373380Y120650D02*
X388620Y120650D01*
X388620Y146050D02*
X373380Y146050D01*
X373380Y171450D02*
X388620Y171450D01*
X388620Y196850D02*
X373380Y196850D01*
X487680Y203200D02*
X502920Y203200D01*
X502920Y177800D02*
X487680Y177800D01*
X71120Y203200D02*
X55880Y203200D01*
X55880Y177800D02*
X71120Y177800D01*
X170180Y120650D02*
X185420Y120650D01*
X185420Y146050D02*
X170180Y146050D01*
X170180Y171450D02*
X185420Y171450D01*
X185420Y196850D02*
X170180Y196850D01*
D14*
X127000Y316700D03*
X127000Y231700D03*
X127000Y201700D03*
X228600Y316700D03*
X228600Y231700D03*
X228600Y201700D03*
X330200Y316700D03*
X330200Y231700D03*
X330200Y201700D03*
X431800Y316700D03*
X431800Y231700D03*
X431800Y201700D03*
D13*
X266700Y166370D02*
X266700Y151130D01*
X292100Y151130D02*
X292100Y166370D01*
D15*
X330200Y44450D02*
X330200Y31750D01*
X330200Y44450D02*
X330200Y57150D01*
X400050Y69850D02*
X450850Y69850D01*
X400050Y69850D02*
X374650Y44450D01*
X330200Y44450D01*
X450850Y69850D02*
X450850Y82550D01*
X533400Y165100D01*
X533400Y241300D01*
X533400Y292100D01*
X25400Y292100D02*
X25400Y266700D01*
X25400Y241300D01*
X25400Y165100D01*
X95250Y95250D01*
X152400Y95250D01*
X203200Y44450D01*
X228600Y44450D01*
X228600Y57150D01*
X228600Y44450D02*
X228600Y31750D01*
X495300Y203200D02*
X495300Y241300D01*
X495300Y266700D01*
X495300Y292100D01*
X63500Y241300D02*
X63500Y203200D01*
X63500Y241300D02*
X63500Y266700D01*
X63500Y292100D01*
X349250Y196850D02*
X381000Y196850D01*
X349250Y196850D02*
X336550Y184150D01*
X323850Y184150D02*
X311150Y196850D01*
X254000Y196850D01*
X241300Y184150D01*
X222250Y184150D01*
X209550Y196850D01*
X177800Y196850D01*
X323850Y184150D02*
X336550Y184150D01*
X355600Y146050D02*
X381000Y146050D01*
X355600Y146050D02*
X317500Y146050D01*
X304800Y133350D01*
X260350Y133350D01*
X247650Y146050D01*
X177800Y146050D01*
D16*
X355600Y146050D03*
D15*
X381000Y120650D02*
X177800Y120650D01*
X177800Y171450D02*
X203200Y171450D01*
X247650Y171450D01*
X260350Y184150D02*
X304800Y184150D01*
X317500Y171450D02*
X381000Y171450D01*
X260350Y184150D02*
X247650Y171450D01*
X304800Y184150D02*
X317500Y171450D01*
D16*
X203200Y171450D03*
M02*
