G04 EAGLE Gerber RS-274X export*
G75*
%MOMM*%
%FSLAX34Y34*%
%LPD*%
%INSoldermask Top*%
%IPPOS*%
%AMOC8*
5,1,8,0,0,1.08239X$1,22.5*%
G01*
%ADD10P,1.649562X8X292.500000*%
%ADD11P,1.759533X8X22.500000*%
%ADD12P,1.649562X8X112.500000*%
%ADD13C,1.727200*%
%ADD14C,1.853200*%
%ADD15C,0.959600*%


D10*
X450850Y69850D03*
X450850Y44450D03*
X107950Y69850D03*
X107950Y44450D03*
D11*
X228600Y31750D03*
X228600Y57150D03*
X254000Y31750D03*
X254000Y57150D03*
X279400Y31750D03*
X279400Y57150D03*
X304800Y31750D03*
X304800Y57150D03*
X330200Y31750D03*
X330200Y57150D03*
D10*
X406400Y95250D03*
X406400Y19050D03*
D12*
X152400Y19050D03*
X152400Y95250D03*
D13*
X525780Y292100D02*
X541020Y292100D01*
X541020Y266700D02*
X525780Y266700D01*
X525780Y241300D02*
X541020Y241300D01*
X502920Y241300D02*
X487680Y241300D01*
X487680Y266700D02*
X502920Y266700D01*
X502920Y292100D02*
X487680Y292100D01*
X71120Y241300D02*
X55880Y241300D01*
X55880Y266700D02*
X71120Y266700D01*
X71120Y292100D02*
X55880Y292100D01*
X33020Y292100D02*
X17780Y292100D01*
X17780Y266700D02*
X33020Y266700D01*
X33020Y241300D02*
X17780Y241300D01*
X373380Y120650D02*
X388620Y120650D01*
X388620Y146050D02*
X373380Y146050D01*
X373380Y171450D02*
X388620Y171450D01*
X388620Y196850D02*
X373380Y196850D01*
X487680Y203200D02*
X502920Y203200D01*
X502920Y177800D02*
X487680Y177800D01*
X71120Y203200D02*
X55880Y203200D01*
X55880Y177800D02*
X71120Y177800D01*
X170180Y120650D02*
X185420Y120650D01*
X185420Y146050D02*
X170180Y146050D01*
X170180Y171450D02*
X185420Y171450D01*
X185420Y196850D02*
X170180Y196850D01*
D14*
X127000Y316700D03*
X127000Y231700D03*
X127000Y201700D03*
X228600Y316700D03*
X228600Y231700D03*
X228600Y201700D03*
X330200Y316700D03*
X330200Y231700D03*
X330200Y201700D03*
X431800Y316700D03*
X431800Y231700D03*
X431800Y201700D03*
D13*
X266700Y166370D02*
X266700Y151130D01*
X292100Y151130D02*
X292100Y166370D01*
D15*
X355600Y146050D03*
X203200Y171450D03*
M02*
