G04 EAGLE Gerber RS-274X export*
G75*
%MOMM*%
%FSLAX34Y34*%
%LPD*%
%INTop Copper*%
%IPPOS*%
%AMOC8*
5,1,8,0,0,1.08239X$1,22.5*%
G01*
%ADD10P,1.429621X8X292.500000*%
%ADD11P,1.539592X8X22.500000*%
%ADD12P,1.429621X8X112.500000*%
%ADD13C,1.524000*%
%ADD14C,1.650000*%
%ADD15P,1.649562X8X292.500000*%
%ADD16C,0.609600*%
%ADD17C,0.756400*%

G36*
X132198Y10162D02*
X132198Y10162D01*
X132207Y10161D01*
X132399Y10182D01*
X132590Y10201D01*
X132599Y10203D01*
X132608Y10204D01*
X132790Y10262D01*
X132975Y10319D01*
X132983Y10323D01*
X132992Y10326D01*
X133160Y10419D01*
X133329Y10511D01*
X133336Y10516D01*
X133344Y10521D01*
X133491Y10645D01*
X133638Y10768D01*
X133644Y10775D01*
X133651Y10781D01*
X133770Y10932D01*
X133891Y11082D01*
X133895Y11090D01*
X133900Y11097D01*
X133988Y11270D01*
X134076Y11439D01*
X134079Y11448D01*
X134083Y11456D01*
X134135Y11642D01*
X134188Y11826D01*
X134188Y11835D01*
X134191Y11844D01*
X134205Y12037D01*
X134221Y12228D01*
X134220Y12236D01*
X134220Y12245D01*
X134196Y12438D01*
X134174Y12627D01*
X134171Y12636D01*
X134170Y12645D01*
X134108Y12828D01*
X134049Y13010D01*
X134044Y13018D01*
X134042Y13026D01*
X133946Y13192D01*
X133851Y13361D01*
X133845Y13368D01*
X133841Y13375D01*
X133626Y13628D01*
X131571Y15683D01*
X131571Y22417D01*
X136333Y27179D01*
X143067Y27179D01*
X147829Y22417D01*
X147829Y15683D01*
X145774Y13628D01*
X145768Y13621D01*
X145762Y13616D01*
X145641Y13466D01*
X145519Y13317D01*
X145515Y13309D01*
X145509Y13302D01*
X145421Y13132D01*
X145330Y12961D01*
X145328Y12952D01*
X145324Y12945D01*
X145271Y12760D01*
X145216Y12575D01*
X145215Y12566D01*
X145212Y12558D01*
X145197Y12367D01*
X145179Y12174D01*
X145180Y12165D01*
X145179Y12156D01*
X145202Y11967D01*
X145223Y11774D01*
X145225Y11765D01*
X145226Y11757D01*
X145286Y11575D01*
X145344Y11390D01*
X145348Y11382D01*
X145351Y11374D01*
X145446Y11205D01*
X145539Y11038D01*
X145545Y11031D01*
X145549Y11023D01*
X145675Y10877D01*
X145799Y10731D01*
X145806Y10725D01*
X145812Y10718D01*
X145964Y10601D01*
X146115Y10481D01*
X146123Y10477D01*
X146130Y10472D01*
X146302Y10386D01*
X146474Y10299D01*
X146483Y10296D01*
X146491Y10292D01*
X146677Y10242D01*
X146862Y10191D01*
X146871Y10190D01*
X146880Y10188D01*
X147210Y10161D01*
X386190Y10161D01*
X386198Y10162D01*
X386207Y10161D01*
X386399Y10182D01*
X386590Y10201D01*
X386599Y10203D01*
X386608Y10204D01*
X386790Y10262D01*
X386975Y10319D01*
X386983Y10323D01*
X386992Y10326D01*
X387160Y10419D01*
X387329Y10511D01*
X387336Y10516D01*
X387344Y10521D01*
X387491Y10645D01*
X387638Y10768D01*
X387644Y10775D01*
X387651Y10781D01*
X387770Y10932D01*
X387891Y11082D01*
X387895Y11090D01*
X387900Y11097D01*
X387988Y11270D01*
X388076Y11439D01*
X388079Y11448D01*
X388083Y11456D01*
X388135Y11642D01*
X388188Y11826D01*
X388188Y11835D01*
X388191Y11844D01*
X388205Y12037D01*
X388221Y12228D01*
X388220Y12236D01*
X388220Y12245D01*
X388196Y12438D01*
X388174Y12627D01*
X388171Y12636D01*
X388170Y12645D01*
X388108Y12828D01*
X388049Y13010D01*
X388044Y13018D01*
X388042Y13026D01*
X387946Y13192D01*
X387851Y13361D01*
X387845Y13368D01*
X387841Y13375D01*
X387626Y13628D01*
X385571Y15683D01*
X385571Y22417D01*
X390333Y27179D01*
X397067Y27179D01*
X401829Y22417D01*
X401829Y15683D01*
X399774Y13628D01*
X399768Y13621D01*
X399762Y13616D01*
X399641Y13466D01*
X399519Y13317D01*
X399515Y13309D01*
X399509Y13302D01*
X399421Y13132D01*
X399330Y12961D01*
X399328Y12952D01*
X399324Y12945D01*
X399271Y12760D01*
X399216Y12575D01*
X399215Y12566D01*
X399212Y12558D01*
X399197Y12367D01*
X399179Y12174D01*
X399180Y12165D01*
X399179Y12156D01*
X399202Y11967D01*
X399223Y11774D01*
X399225Y11765D01*
X399226Y11757D01*
X399286Y11575D01*
X399344Y11390D01*
X399348Y11382D01*
X399351Y11374D01*
X399446Y11205D01*
X399539Y11038D01*
X399545Y11031D01*
X399549Y11023D01*
X399675Y10877D01*
X399799Y10731D01*
X399806Y10725D01*
X399812Y10718D01*
X399964Y10601D01*
X400115Y10481D01*
X400123Y10477D01*
X400130Y10472D01*
X400302Y10386D01*
X400474Y10299D01*
X400483Y10296D01*
X400491Y10292D01*
X400677Y10242D01*
X400862Y10191D01*
X400871Y10190D01*
X400880Y10188D01*
X401210Y10161D01*
X430615Y10161D01*
X430766Y10176D01*
X430917Y10183D01*
X430966Y10196D01*
X431016Y10201D01*
X431161Y10245D01*
X431308Y10282D01*
X431353Y10304D01*
X431400Y10319D01*
X431534Y10391D01*
X431671Y10457D01*
X431711Y10487D01*
X431755Y10511D01*
X431871Y10608D01*
X431992Y10699D01*
X432025Y10736D01*
X432064Y10768D01*
X432159Y10887D01*
X432260Y11000D01*
X432289Y11048D01*
X432316Y11082D01*
X432356Y11158D01*
X432432Y11284D01*
X498615Y143651D01*
X498643Y143722D01*
X498678Y143790D01*
X498714Y143910D01*
X498759Y144027D01*
X498771Y144102D01*
X498793Y144176D01*
X498805Y144301D01*
X498825Y144424D01*
X498823Y144500D01*
X498830Y144577D01*
X498816Y144701D01*
X498812Y144826D01*
X498795Y144901D01*
X498786Y144977D01*
X498748Y145097D01*
X498720Y145218D01*
X498688Y145288D01*
X498665Y145361D01*
X498604Y145470D01*
X498552Y145584D01*
X498507Y145646D01*
X498470Y145713D01*
X498389Y145809D01*
X498315Y145910D01*
X498259Y145962D01*
X498209Y146020D01*
X498111Y146098D01*
X498019Y146183D01*
X497954Y146222D01*
X497894Y146270D01*
X497782Y146327D01*
X497675Y146392D01*
X497603Y146418D01*
X497535Y146452D01*
X497414Y146486D01*
X497296Y146528D01*
X497220Y146540D01*
X497147Y146560D01*
X497022Y146569D01*
X496898Y146588D01*
X496822Y146584D01*
X496745Y146590D01*
X496621Y146574D01*
X496496Y146568D01*
X496422Y146549D01*
X496346Y146539D01*
X496227Y146499D01*
X496106Y146469D01*
X496037Y146435D01*
X495964Y146411D01*
X495856Y146349D01*
X495743Y146294D01*
X495682Y146248D01*
X495615Y146210D01*
X495491Y146104D01*
X495421Y146052D01*
X495397Y146025D01*
X495362Y145995D01*
X436968Y87601D01*
X436951Y87580D01*
X436930Y87563D01*
X436823Y87425D01*
X436713Y87289D01*
X436700Y87266D01*
X436684Y87245D01*
X436606Y87088D01*
X436524Y86934D01*
X436516Y86908D01*
X436504Y86884D01*
X436459Y86715D01*
X436409Y86548D01*
X436407Y86521D01*
X436400Y86495D01*
X436373Y86165D01*
X436373Y77614D01*
X436375Y77588D01*
X436373Y77561D01*
X436395Y77387D01*
X436413Y77214D01*
X436420Y77188D01*
X436424Y77162D01*
X436480Y76996D01*
X436531Y76829D01*
X436544Y76805D01*
X436552Y76780D01*
X436639Y76628D01*
X436723Y76475D01*
X436740Y76454D01*
X436753Y76431D01*
X436968Y76178D01*
X439929Y73217D01*
X439929Y66483D01*
X435167Y61721D01*
X428433Y61721D01*
X425472Y64682D01*
X425451Y64699D01*
X425434Y64720D01*
X425296Y64827D01*
X425160Y64937D01*
X425137Y64950D01*
X425116Y64966D01*
X424959Y65044D01*
X424805Y65126D01*
X424779Y65134D01*
X424755Y65146D01*
X424586Y65191D01*
X424419Y65241D01*
X424392Y65243D01*
X424366Y65250D01*
X424036Y65277D01*
X390085Y65277D01*
X390059Y65275D01*
X390032Y65277D01*
X389858Y65255D01*
X389685Y65237D01*
X389659Y65230D01*
X389633Y65226D01*
X389467Y65171D01*
X389300Y65119D01*
X389276Y65106D01*
X389251Y65098D01*
X389099Y65011D01*
X388946Y64927D01*
X388925Y64910D01*
X388902Y64897D01*
X388649Y64682D01*
X364540Y40573D01*
X362860Y39877D01*
X326491Y39877D01*
X326482Y39876D01*
X326473Y39877D01*
X326281Y39856D01*
X326090Y39837D01*
X326082Y39835D01*
X326073Y39834D01*
X325890Y39776D01*
X325705Y39719D01*
X325697Y39715D01*
X325689Y39712D01*
X325520Y39619D01*
X325351Y39527D01*
X325344Y39522D01*
X325337Y39517D01*
X325189Y39392D01*
X325042Y39270D01*
X325036Y39263D01*
X325030Y39257D01*
X324910Y39105D01*
X324790Y38956D01*
X324786Y38948D01*
X324780Y38941D01*
X324693Y38769D01*
X324604Y38599D01*
X324602Y38590D01*
X324598Y38582D01*
X324546Y38396D01*
X324493Y38212D01*
X324492Y38203D01*
X324490Y38194D01*
X324475Y38002D01*
X324460Y37810D01*
X324461Y37802D01*
X324460Y37793D01*
X324485Y37600D01*
X324507Y37411D01*
X324509Y37402D01*
X324511Y37393D01*
X324572Y37210D01*
X324632Y37028D01*
X324636Y37020D01*
X324639Y37012D01*
X324734Y36846D01*
X324829Y36677D01*
X324835Y36670D01*
X324840Y36663D01*
X325054Y36410D01*
X326137Y35327D01*
X326137Y28173D01*
X321077Y23113D01*
X313923Y23113D01*
X308863Y28173D01*
X308863Y35327D01*
X312332Y38796D01*
X312349Y38817D01*
X312370Y38835D01*
X312477Y38973D01*
X312587Y39108D01*
X312600Y39132D01*
X312616Y39153D01*
X312694Y39309D01*
X312776Y39464D01*
X312784Y39489D01*
X312796Y39513D01*
X312841Y39683D01*
X312891Y39850D01*
X312893Y39876D01*
X312900Y39902D01*
X312927Y40233D01*
X312927Y48667D01*
X312925Y48694D01*
X312927Y48721D01*
X312905Y48894D01*
X312887Y49068D01*
X312880Y49093D01*
X312876Y49120D01*
X312820Y49286D01*
X312769Y49453D01*
X312756Y49476D01*
X312748Y49502D01*
X312661Y49653D01*
X312577Y49807D01*
X312560Y49827D01*
X312547Y49851D01*
X312332Y50104D01*
X308863Y53573D01*
X308863Y60727D01*
X313923Y65787D01*
X321077Y65787D01*
X326137Y60727D01*
X326137Y53573D01*
X325054Y52490D01*
X325049Y52483D01*
X325042Y52478D01*
X324922Y52328D01*
X324799Y52179D01*
X324795Y52171D01*
X324790Y52164D01*
X324701Y51994D01*
X324611Y51823D01*
X324608Y51814D01*
X324604Y51807D01*
X324551Y51622D01*
X324496Y51437D01*
X324495Y51428D01*
X324493Y51420D01*
X324477Y51229D01*
X324460Y51036D01*
X324461Y51027D01*
X324460Y51018D01*
X324482Y50829D01*
X324503Y50636D01*
X324506Y50627D01*
X324507Y50619D01*
X324566Y50436D01*
X324624Y50252D01*
X324629Y50244D01*
X324632Y50236D01*
X324726Y50069D01*
X324819Y49900D01*
X324825Y49893D01*
X324829Y49885D01*
X324955Y49740D01*
X325080Y49593D01*
X325087Y49587D01*
X325093Y49580D01*
X325243Y49464D01*
X325396Y49343D01*
X325404Y49339D01*
X325411Y49334D01*
X325582Y49248D01*
X325755Y49161D01*
X325763Y49158D01*
X325771Y49154D01*
X325957Y49104D01*
X326143Y49053D01*
X326151Y49052D01*
X326160Y49050D01*
X326491Y49023D01*
X359215Y49023D01*
X359241Y49025D01*
X359268Y49023D01*
X359442Y49045D01*
X359615Y49063D01*
X359641Y49070D01*
X359667Y49074D01*
X359833Y49129D01*
X360000Y49181D01*
X360024Y49194D01*
X360049Y49202D01*
X360201Y49289D01*
X360354Y49373D01*
X360375Y49390D01*
X360398Y49403D01*
X360651Y49618D01*
X384760Y73727D01*
X386440Y74423D01*
X424036Y74423D01*
X424062Y74425D01*
X424089Y74423D01*
X424263Y74445D01*
X424436Y74463D01*
X424462Y74470D01*
X424488Y74474D01*
X424654Y74529D01*
X424821Y74581D01*
X424845Y74594D01*
X424870Y74602D01*
X425022Y74689D01*
X425175Y74773D01*
X425196Y74790D01*
X425219Y74803D01*
X425472Y75018D01*
X426632Y76178D01*
X426649Y76199D01*
X426670Y76216D01*
X426777Y76354D01*
X426887Y76490D01*
X426900Y76513D01*
X426916Y76534D01*
X426994Y76691D01*
X427076Y76845D01*
X427084Y76871D01*
X427096Y76895D01*
X427141Y77064D01*
X427191Y77231D01*
X427193Y77258D01*
X427200Y77284D01*
X427227Y77614D01*
X427227Y89810D01*
X427923Y91490D01*
X496482Y160049D01*
X496499Y160070D01*
X496520Y160087D01*
X496627Y160225D01*
X496737Y160361D01*
X496750Y160384D01*
X496766Y160405D01*
X496844Y160562D01*
X496926Y160716D01*
X496934Y160742D01*
X496946Y160766D01*
X496991Y160935D01*
X497041Y161102D01*
X497043Y161129D01*
X497050Y161155D01*
X497077Y161485D01*
X497077Y172879D01*
X497065Y173005D01*
X497062Y173131D01*
X497045Y173205D01*
X497037Y173280D01*
X497000Y173400D01*
X496972Y173524D01*
X496941Y173592D01*
X496919Y173665D01*
X496859Y173775D01*
X496807Y173891D01*
X496763Y173952D01*
X496727Y174019D01*
X496647Y174116D01*
X496573Y174218D01*
X496518Y174270D01*
X496470Y174328D01*
X496371Y174407D01*
X496279Y174493D01*
X496215Y174533D01*
X496156Y174580D01*
X496044Y174638D01*
X495936Y174705D01*
X495865Y174731D01*
X495799Y174766D01*
X495677Y174801D01*
X495559Y174844D01*
X495484Y174856D01*
X495412Y174877D01*
X495286Y174887D01*
X495161Y174907D01*
X495086Y174904D01*
X495010Y174910D01*
X494885Y174895D01*
X494759Y174890D01*
X494685Y174872D01*
X494611Y174863D01*
X494491Y174824D01*
X494368Y174794D01*
X494300Y174762D01*
X494228Y174738D01*
X494118Y174676D01*
X494004Y174622D01*
X493943Y174577D01*
X493877Y174540D01*
X493782Y174458D01*
X493680Y174382D01*
X493630Y174326D01*
X493573Y174277D01*
X493495Y174177D01*
X493410Y174084D01*
X493364Y174009D01*
X493326Y173959D01*
X493293Y173893D01*
X493236Y173801D01*
X492560Y172475D01*
X491620Y171181D01*
X490489Y170050D01*
X489195Y169110D01*
X487770Y168384D01*
X486249Y167889D01*
X484670Y167639D01*
X478789Y167639D01*
X478789Y177292D01*
X478787Y177310D01*
X478789Y177327D01*
X478768Y177510D01*
X478749Y177692D01*
X478744Y177709D01*
X478742Y177727D01*
X478717Y177805D01*
X478756Y177942D01*
X478758Y177960D01*
X478762Y177977D01*
X478789Y178308D01*
X478789Y187961D01*
X484670Y187961D01*
X486249Y187711D01*
X487770Y187216D01*
X489195Y186490D01*
X490489Y185550D01*
X491620Y184419D01*
X492560Y183125D01*
X493236Y181799D01*
X493304Y181692D01*
X493365Y181581D01*
X493413Y181523D01*
X493454Y181460D01*
X493541Y181369D01*
X493622Y181272D01*
X493681Y181225D01*
X493734Y181171D01*
X493838Y181099D01*
X493936Y181020D01*
X494003Y180985D01*
X494065Y180942D01*
X494181Y180892D01*
X494293Y180834D01*
X494366Y180813D01*
X494435Y180784D01*
X494559Y180758D01*
X494680Y180723D01*
X494756Y180717D01*
X494829Y180701D01*
X494956Y180700D01*
X495082Y180690D01*
X495157Y180699D01*
X495232Y180698D01*
X495356Y180722D01*
X495481Y180737D01*
X495553Y180760D01*
X495627Y180775D01*
X495744Y180823D01*
X495864Y180862D01*
X495930Y180899D01*
X496000Y180928D01*
X496105Y180998D01*
X496215Y181060D01*
X496272Y181109D01*
X496335Y181151D01*
X496424Y181240D01*
X496520Y181323D01*
X496566Y181382D01*
X496619Y181436D01*
X496689Y181541D01*
X496766Y181641D01*
X496800Y181709D01*
X496842Y181771D01*
X496889Y181888D01*
X496946Y182001D01*
X496965Y182074D01*
X496994Y182144D01*
X497017Y182268D01*
X497050Y182390D01*
X497057Y182478D01*
X497069Y182540D01*
X497068Y182613D01*
X497077Y182721D01*
X497077Y244799D01*
X497075Y244825D01*
X497077Y244852D01*
X497055Y245026D01*
X497037Y245199D01*
X497030Y245225D01*
X497026Y245252D01*
X496970Y245417D01*
X496919Y245584D01*
X496906Y245608D01*
X496898Y245633D01*
X496811Y245785D01*
X496727Y245938D01*
X496710Y245959D01*
X496697Y245982D01*
X496482Y246235D01*
X492505Y250212D01*
X492505Y257788D01*
X496482Y261765D01*
X496499Y261786D01*
X496520Y261803D01*
X496627Y261941D01*
X496737Y262076D01*
X496750Y262100D01*
X496766Y262121D01*
X496844Y262278D01*
X496926Y262432D01*
X496934Y262458D01*
X496946Y262482D01*
X496991Y262651D01*
X497041Y262818D01*
X497043Y262845D01*
X497050Y262870D01*
X497077Y263201D01*
X497077Y270199D01*
X497075Y270225D01*
X497077Y270252D01*
X497055Y270426D01*
X497037Y270599D01*
X497030Y270625D01*
X497026Y270652D01*
X496970Y270817D01*
X496919Y270984D01*
X496906Y271008D01*
X496898Y271033D01*
X496811Y271185D01*
X496727Y271338D01*
X496710Y271359D01*
X496697Y271382D01*
X496482Y271635D01*
X492505Y275612D01*
X492505Y283188D01*
X496482Y287165D01*
X496499Y287186D01*
X496520Y287203D01*
X496627Y287341D01*
X496737Y287476D01*
X496750Y287500D01*
X496766Y287521D01*
X496844Y287678D01*
X496926Y287832D01*
X496934Y287858D01*
X496946Y287882D01*
X496991Y288051D01*
X497041Y288218D01*
X497043Y288245D01*
X497050Y288270D01*
X497077Y288601D01*
X497077Y295599D01*
X497075Y295625D01*
X497077Y295652D01*
X497055Y295826D01*
X497037Y295999D01*
X497030Y296025D01*
X497026Y296052D01*
X496971Y296217D01*
X496919Y296384D01*
X496906Y296408D01*
X496898Y296433D01*
X496811Y296585D01*
X496727Y296738D01*
X496710Y296759D01*
X496697Y296782D01*
X496482Y297035D01*
X492505Y301012D01*
X492505Y308588D01*
X497862Y313945D01*
X498632Y313945D01*
X498641Y313946D01*
X498650Y313945D01*
X498843Y313966D01*
X499033Y313985D01*
X499041Y313987D01*
X499050Y313988D01*
X499234Y314046D01*
X499418Y314103D01*
X499425Y314107D01*
X499434Y314110D01*
X499602Y314202D01*
X499772Y314295D01*
X499778Y314300D01*
X499786Y314305D01*
X499933Y314429D01*
X500081Y314552D01*
X500086Y314559D01*
X500093Y314565D01*
X500213Y314717D01*
X500333Y314866D01*
X500337Y314874D01*
X500343Y314881D01*
X500431Y315054D01*
X500519Y315223D01*
X500521Y315232D01*
X500525Y315240D01*
X500576Y315424D01*
X500630Y315610D01*
X500631Y315619D01*
X500633Y315628D01*
X500647Y315821D01*
X500663Y316012D01*
X500662Y316020D01*
X500663Y316029D01*
X500638Y316222D01*
X500616Y316411D01*
X500613Y316420D01*
X500612Y316429D01*
X500551Y316612D01*
X500491Y316794D01*
X500487Y316802D01*
X500484Y316810D01*
X500388Y316977D01*
X500293Y317145D01*
X500287Y317152D01*
X500283Y317159D01*
X500068Y317412D01*
X491686Y325794D01*
X491666Y325811D01*
X491648Y325832D01*
X491510Y325939D01*
X491375Y326049D01*
X491351Y326062D01*
X491330Y326078D01*
X491173Y326156D01*
X491019Y326238D01*
X490994Y326246D01*
X490969Y326258D01*
X490800Y326303D01*
X490633Y326353D01*
X490607Y326355D01*
X490581Y326362D01*
X490250Y326389D01*
X415438Y326389D01*
X415429Y326388D01*
X415420Y326389D01*
X415228Y326368D01*
X415038Y326349D01*
X415029Y326347D01*
X415020Y326346D01*
X414838Y326288D01*
X414653Y326231D01*
X414645Y326227D01*
X414636Y326224D01*
X414468Y326131D01*
X414299Y326039D01*
X414292Y326034D01*
X414284Y326029D01*
X414136Y325904D01*
X413989Y325782D01*
X413984Y325775D01*
X413977Y325769D01*
X413857Y325617D01*
X413737Y325468D01*
X413733Y325460D01*
X413727Y325453D01*
X413640Y325280D01*
X413551Y325111D01*
X413549Y325102D01*
X413545Y325094D01*
X413493Y324909D01*
X413440Y324724D01*
X413439Y324715D01*
X413437Y324706D01*
X413423Y324512D01*
X413407Y324322D01*
X413408Y324314D01*
X413408Y324305D01*
X413432Y324114D01*
X413454Y323923D01*
X413457Y323914D01*
X413458Y323905D01*
X413519Y323724D01*
X413579Y323540D01*
X413583Y323532D01*
X413586Y323524D01*
X413682Y323356D01*
X413777Y323189D01*
X413783Y323182D01*
X413787Y323175D01*
X414002Y322922D01*
X414687Y322237D01*
X416175Y318644D01*
X416175Y314756D01*
X414687Y311163D01*
X411937Y308413D01*
X408344Y306925D01*
X404456Y306925D01*
X400863Y308413D01*
X398113Y311163D01*
X396625Y314756D01*
X396625Y318644D01*
X398113Y322237D01*
X398798Y322922D01*
X398804Y322929D01*
X398811Y322934D01*
X398930Y323083D01*
X399053Y323233D01*
X399057Y323241D01*
X399063Y323248D01*
X399151Y323418D01*
X399242Y323589D01*
X399244Y323598D01*
X399249Y323605D01*
X399302Y323790D01*
X399357Y323975D01*
X399357Y323984D01*
X399360Y323992D01*
X399375Y324181D01*
X399393Y324376D01*
X399392Y324385D01*
X399393Y324394D01*
X399371Y324583D01*
X399350Y324776D01*
X399347Y324785D01*
X399346Y324793D01*
X399286Y324976D01*
X399228Y325160D01*
X399224Y325168D01*
X399221Y325176D01*
X399126Y325344D01*
X399033Y325512D01*
X399028Y325519D01*
X399023Y325527D01*
X398897Y325673D01*
X398773Y325819D01*
X398766Y325825D01*
X398760Y325832D01*
X398607Y325950D01*
X398457Y326069D01*
X398449Y326073D01*
X398442Y326078D01*
X398270Y326164D01*
X398098Y326251D01*
X398089Y326254D01*
X398081Y326258D01*
X397896Y326307D01*
X397710Y326359D01*
X397701Y326360D01*
X397693Y326362D01*
X397362Y326389D01*
X320188Y326389D01*
X320179Y326388D01*
X320170Y326389D01*
X319978Y326368D01*
X319788Y326349D01*
X319779Y326347D01*
X319770Y326346D01*
X319588Y326288D01*
X319403Y326231D01*
X319395Y326227D01*
X319386Y326224D01*
X319218Y326131D01*
X319049Y326039D01*
X319042Y326034D01*
X319034Y326029D01*
X318886Y325904D01*
X318739Y325782D01*
X318734Y325775D01*
X318727Y325769D01*
X318607Y325617D01*
X318487Y325468D01*
X318483Y325460D01*
X318477Y325453D01*
X318390Y325280D01*
X318301Y325111D01*
X318299Y325102D01*
X318295Y325094D01*
X318243Y324909D01*
X318190Y324724D01*
X318189Y324715D01*
X318187Y324706D01*
X318173Y324512D01*
X318157Y324322D01*
X318158Y324314D01*
X318158Y324305D01*
X318182Y324114D01*
X318204Y323923D01*
X318207Y323914D01*
X318208Y323905D01*
X318269Y323724D01*
X318329Y323540D01*
X318333Y323532D01*
X318336Y323524D01*
X318432Y323356D01*
X318527Y323189D01*
X318533Y323182D01*
X318537Y323175D01*
X318752Y322922D01*
X319437Y322237D01*
X320925Y318644D01*
X320925Y314756D01*
X319437Y311163D01*
X316687Y308413D01*
X313094Y306925D01*
X309206Y306925D01*
X305613Y308413D01*
X302863Y311163D01*
X301375Y314756D01*
X301375Y318644D01*
X302863Y322237D01*
X303548Y322922D01*
X303554Y322929D01*
X303561Y322934D01*
X303680Y323083D01*
X303803Y323233D01*
X303807Y323241D01*
X303813Y323248D01*
X303901Y323418D01*
X303992Y323589D01*
X303994Y323598D01*
X303999Y323605D01*
X304052Y323790D01*
X304107Y323975D01*
X304107Y323984D01*
X304110Y323992D01*
X304125Y324181D01*
X304143Y324376D01*
X304142Y324385D01*
X304143Y324394D01*
X304121Y324583D01*
X304100Y324776D01*
X304097Y324785D01*
X304096Y324793D01*
X304036Y324976D01*
X303978Y325160D01*
X303974Y325168D01*
X303971Y325176D01*
X303876Y325344D01*
X303783Y325512D01*
X303778Y325519D01*
X303773Y325527D01*
X303647Y325673D01*
X303523Y325819D01*
X303516Y325825D01*
X303510Y325832D01*
X303357Y325950D01*
X303207Y326069D01*
X303199Y326073D01*
X303192Y326078D01*
X303020Y326164D01*
X302848Y326251D01*
X302839Y326254D01*
X302831Y326258D01*
X302646Y326307D01*
X302460Y326359D01*
X302451Y326360D01*
X302443Y326362D01*
X302112Y326389D01*
X224938Y326389D01*
X224929Y326388D01*
X224920Y326389D01*
X224728Y326368D01*
X224538Y326349D01*
X224529Y326347D01*
X224520Y326346D01*
X224338Y326288D01*
X224153Y326231D01*
X224145Y326227D01*
X224136Y326224D01*
X223968Y326131D01*
X223799Y326039D01*
X223792Y326034D01*
X223784Y326029D01*
X223636Y325904D01*
X223489Y325782D01*
X223484Y325775D01*
X223477Y325769D01*
X223357Y325617D01*
X223237Y325468D01*
X223233Y325460D01*
X223227Y325453D01*
X223140Y325280D01*
X223051Y325111D01*
X223049Y325102D01*
X223045Y325094D01*
X222993Y324909D01*
X222940Y324724D01*
X222939Y324715D01*
X222937Y324706D01*
X222923Y324512D01*
X222907Y324322D01*
X222908Y324314D01*
X222908Y324305D01*
X222932Y324114D01*
X222954Y323923D01*
X222957Y323914D01*
X222958Y323905D01*
X223019Y323724D01*
X223079Y323540D01*
X223083Y323532D01*
X223086Y323524D01*
X223182Y323356D01*
X223277Y323189D01*
X223283Y323182D01*
X223287Y323175D01*
X223502Y322922D01*
X224187Y322237D01*
X225675Y318644D01*
X225675Y314756D01*
X224187Y311163D01*
X221437Y308413D01*
X217844Y306925D01*
X213956Y306925D01*
X210363Y308413D01*
X207613Y311163D01*
X206125Y314756D01*
X206125Y318644D01*
X207613Y322237D01*
X208298Y322922D01*
X208304Y322929D01*
X208311Y322934D01*
X208430Y323083D01*
X208553Y323233D01*
X208557Y323241D01*
X208563Y323248D01*
X208651Y323418D01*
X208742Y323589D01*
X208744Y323598D01*
X208749Y323605D01*
X208802Y323790D01*
X208857Y323975D01*
X208857Y323984D01*
X208860Y323992D01*
X208875Y324181D01*
X208893Y324376D01*
X208892Y324385D01*
X208893Y324394D01*
X208871Y324583D01*
X208850Y324776D01*
X208847Y324785D01*
X208846Y324793D01*
X208786Y324976D01*
X208728Y325160D01*
X208724Y325168D01*
X208721Y325176D01*
X208626Y325344D01*
X208533Y325512D01*
X208528Y325519D01*
X208523Y325527D01*
X208397Y325673D01*
X208273Y325819D01*
X208266Y325825D01*
X208260Y325832D01*
X208107Y325950D01*
X207957Y326069D01*
X207949Y326073D01*
X207942Y326078D01*
X207770Y326164D01*
X207598Y326251D01*
X207589Y326254D01*
X207581Y326258D01*
X207396Y326307D01*
X207210Y326359D01*
X207201Y326360D01*
X207193Y326362D01*
X206862Y326389D01*
X129688Y326389D01*
X129679Y326388D01*
X129670Y326389D01*
X129478Y326368D01*
X129288Y326349D01*
X129279Y326347D01*
X129270Y326346D01*
X129088Y326288D01*
X128903Y326231D01*
X128895Y326227D01*
X128886Y326224D01*
X128718Y326131D01*
X128549Y326039D01*
X128542Y326034D01*
X128534Y326029D01*
X128386Y325904D01*
X128239Y325782D01*
X128234Y325775D01*
X128227Y325769D01*
X128107Y325617D01*
X127987Y325468D01*
X127983Y325460D01*
X127977Y325453D01*
X127890Y325280D01*
X127801Y325111D01*
X127799Y325102D01*
X127795Y325094D01*
X127743Y324909D01*
X127690Y324724D01*
X127689Y324715D01*
X127687Y324706D01*
X127673Y324512D01*
X127657Y324322D01*
X127658Y324314D01*
X127658Y324305D01*
X127682Y324114D01*
X127704Y323923D01*
X127707Y323914D01*
X127708Y323905D01*
X127769Y323724D01*
X127829Y323540D01*
X127833Y323532D01*
X127836Y323524D01*
X127932Y323356D01*
X128027Y323189D01*
X128033Y323182D01*
X128037Y323175D01*
X128252Y322922D01*
X128937Y322237D01*
X130425Y318644D01*
X130425Y314756D01*
X128937Y311163D01*
X126187Y308413D01*
X122594Y306925D01*
X118706Y306925D01*
X115113Y308413D01*
X112363Y311163D01*
X110875Y314756D01*
X110875Y318644D01*
X112363Y322237D01*
X113048Y322922D01*
X113054Y322929D01*
X113061Y322934D01*
X113180Y323083D01*
X113303Y323233D01*
X113307Y323241D01*
X113313Y323248D01*
X113401Y323418D01*
X113492Y323589D01*
X113494Y323598D01*
X113499Y323605D01*
X113552Y323790D01*
X113607Y323975D01*
X113607Y323984D01*
X113610Y323992D01*
X113625Y324181D01*
X113643Y324376D01*
X113642Y324385D01*
X113643Y324394D01*
X113621Y324583D01*
X113600Y324776D01*
X113597Y324785D01*
X113596Y324793D01*
X113536Y324976D01*
X113478Y325160D01*
X113474Y325168D01*
X113471Y325176D01*
X113376Y325344D01*
X113283Y325512D01*
X113278Y325519D01*
X113273Y325527D01*
X113147Y325673D01*
X113023Y325819D01*
X113016Y325825D01*
X113010Y325832D01*
X112857Y325950D01*
X112707Y326069D01*
X112699Y326073D01*
X112692Y326078D01*
X112520Y326164D01*
X112348Y326251D01*
X112339Y326254D01*
X112331Y326258D01*
X112146Y326307D01*
X111960Y326359D01*
X111951Y326360D01*
X111943Y326362D01*
X111612Y326389D01*
X36811Y326389D01*
X36783Y326386D01*
X36755Y326388D01*
X36582Y326366D01*
X36410Y326349D01*
X36383Y326341D01*
X36355Y326337D01*
X36191Y326282D01*
X36025Y326231D01*
X36000Y326218D01*
X35974Y326209D01*
X35824Y326122D01*
X35671Y326039D01*
X35650Y326021D01*
X35625Y326007D01*
X35372Y325792D01*
X27017Y317410D01*
X27012Y317404D01*
X27007Y317400D01*
X26884Y317248D01*
X26762Y317098D01*
X26759Y317092D01*
X26754Y317086D01*
X26665Y316915D01*
X26574Y316742D01*
X26572Y316735D01*
X26569Y316729D01*
X26515Y316543D01*
X26460Y316356D01*
X26459Y316349D01*
X26457Y316342D01*
X26441Y316149D01*
X26424Y315955D01*
X26425Y315948D01*
X26424Y315940D01*
X26447Y315748D01*
X26468Y315555D01*
X26470Y315548D01*
X26471Y315541D01*
X26532Y315356D01*
X26590Y315171D01*
X26594Y315165D01*
X26596Y315158D01*
X26691Y314989D01*
X26786Y314819D01*
X26790Y314814D01*
X26794Y314807D01*
X26921Y314661D01*
X27047Y314513D01*
X27052Y314508D01*
X27057Y314502D01*
X27210Y314384D01*
X27363Y314263D01*
X27370Y314260D01*
X27375Y314256D01*
X27549Y314169D01*
X27722Y314082D01*
X27729Y314080D01*
X27736Y314076D01*
X27925Y314025D01*
X28110Y313974D01*
X28117Y313974D01*
X28125Y313972D01*
X28455Y313945D01*
X29188Y313945D01*
X34545Y308588D01*
X34545Y301012D01*
X30568Y297035D01*
X30551Y297014D01*
X30530Y296997D01*
X30423Y296859D01*
X30313Y296724D01*
X30300Y296700D01*
X30284Y296679D01*
X30206Y296522D01*
X30124Y296368D01*
X30116Y296342D01*
X30104Y296318D01*
X30059Y296149D01*
X30009Y295982D01*
X30007Y295955D01*
X30000Y295929D01*
X29973Y295599D01*
X29973Y288601D01*
X29975Y288575D01*
X29973Y288548D01*
X29995Y288374D01*
X30013Y288201D01*
X30020Y288175D01*
X30024Y288148D01*
X30079Y287983D01*
X30131Y287816D01*
X30144Y287792D01*
X30152Y287767D01*
X30239Y287615D01*
X30323Y287462D01*
X30340Y287441D01*
X30353Y287418D01*
X30568Y287165D01*
X34545Y283188D01*
X34545Y275612D01*
X30568Y271635D01*
X30551Y271614D01*
X30530Y271597D01*
X30423Y271459D01*
X30313Y271324D01*
X30300Y271300D01*
X30284Y271279D01*
X30206Y271122D01*
X30124Y270968D01*
X30116Y270942D01*
X30104Y270918D01*
X30059Y270749D01*
X30009Y270582D01*
X30007Y270555D01*
X30000Y270529D01*
X29973Y270199D01*
X29973Y263201D01*
X29975Y263175D01*
X29973Y263148D01*
X29995Y262974D01*
X30013Y262801D01*
X30020Y262775D01*
X30024Y262748D01*
X30079Y262583D01*
X30131Y262416D01*
X30144Y262392D01*
X30152Y262367D01*
X30239Y262215D01*
X30323Y262062D01*
X30340Y262041D01*
X30353Y262018D01*
X30568Y261765D01*
X34545Y257788D01*
X34545Y250212D01*
X30568Y246235D01*
X30551Y246214D01*
X30530Y246197D01*
X30423Y246059D01*
X30313Y245924D01*
X30300Y245900D01*
X30284Y245879D01*
X30206Y245722D01*
X30124Y245568D01*
X30116Y245542D01*
X30104Y245518D01*
X30059Y245349D01*
X30009Y245182D01*
X30007Y245155D01*
X30000Y245129D01*
X29973Y244799D01*
X29973Y182721D01*
X29985Y182595D01*
X29988Y182469D01*
X30005Y182395D01*
X30013Y182320D01*
X30050Y182200D01*
X30078Y182076D01*
X30109Y182008D01*
X30131Y181935D01*
X30191Y181824D01*
X30243Y181709D01*
X30287Y181648D01*
X30323Y181581D01*
X30403Y181484D01*
X30477Y181382D01*
X30532Y181330D01*
X30580Y181272D01*
X30679Y181193D01*
X30771Y181107D01*
X30835Y181067D01*
X30894Y181020D01*
X31006Y180962D01*
X31114Y180895D01*
X31184Y180869D01*
X31251Y180834D01*
X31373Y180799D01*
X31491Y180755D01*
X31566Y180744D01*
X31638Y180723D01*
X31764Y180713D01*
X31889Y180693D01*
X31964Y180696D01*
X32040Y180690D01*
X32165Y180705D01*
X32291Y180710D01*
X32365Y180728D01*
X32439Y180737D01*
X32559Y180776D01*
X32682Y180806D01*
X32750Y180838D01*
X32822Y180862D01*
X32932Y180924D01*
X33046Y180978D01*
X33107Y181023D01*
X33173Y181060D01*
X33268Y181142D01*
X33370Y181218D01*
X33420Y181274D01*
X33477Y181323D01*
X33555Y181422D01*
X33640Y181516D01*
X33686Y181591D01*
X33724Y181641D01*
X33757Y181707D01*
X33814Y181799D01*
X34490Y183125D01*
X35430Y184419D01*
X36561Y185550D01*
X37855Y186490D01*
X39280Y187216D01*
X40801Y187711D01*
X42380Y187961D01*
X48261Y187961D01*
X48261Y178308D01*
X48262Y178290D01*
X48261Y178273D01*
X48282Y178090D01*
X48301Y177908D01*
X48306Y177891D01*
X48308Y177873D01*
X48333Y177795D01*
X48294Y177658D01*
X48292Y177640D01*
X48288Y177623D01*
X48261Y177292D01*
X48261Y167639D01*
X42380Y167639D01*
X40801Y167889D01*
X39280Y168384D01*
X37855Y169110D01*
X36561Y170050D01*
X35430Y171181D01*
X34490Y172475D01*
X33814Y173801D01*
X33746Y173908D01*
X33685Y174019D01*
X33637Y174076D01*
X33596Y174140D01*
X33509Y174231D01*
X33428Y174328D01*
X33369Y174375D01*
X33316Y174429D01*
X33212Y174501D01*
X33114Y174580D01*
X33047Y174615D01*
X32985Y174658D01*
X32869Y174708D01*
X32757Y174766D01*
X32684Y174787D01*
X32615Y174816D01*
X32491Y174842D01*
X32370Y174877D01*
X32294Y174883D01*
X32221Y174899D01*
X32094Y174900D01*
X31968Y174910D01*
X31893Y174901D01*
X31818Y174902D01*
X31694Y174878D01*
X31569Y174863D01*
X31497Y174840D01*
X31423Y174825D01*
X31306Y174777D01*
X31186Y174738D01*
X31120Y174701D01*
X31050Y174672D01*
X30945Y174602D01*
X30835Y174540D01*
X30778Y174491D01*
X30715Y174449D01*
X30626Y174360D01*
X30530Y174277D01*
X30484Y174218D01*
X30431Y174164D01*
X30361Y174059D01*
X30284Y173959D01*
X30250Y173892D01*
X30208Y173829D01*
X30161Y173712D01*
X30104Y173599D01*
X30085Y173526D01*
X30056Y173456D01*
X30033Y173332D01*
X30000Y173210D01*
X29993Y173122D01*
X29981Y173060D01*
X29982Y172987D01*
X29973Y172879D01*
X29973Y167835D01*
X29975Y167809D01*
X29973Y167782D01*
X29995Y167608D01*
X30013Y167435D01*
X30020Y167409D01*
X30024Y167383D01*
X30079Y167217D01*
X30131Y167050D01*
X30144Y167026D01*
X30152Y167001D01*
X30239Y166849D01*
X30323Y166696D01*
X30340Y166675D01*
X30353Y166652D01*
X30568Y166399D01*
X96549Y100418D01*
X96570Y100401D01*
X96587Y100380D01*
X96725Y100273D01*
X96861Y100163D01*
X96884Y100150D01*
X96905Y100134D01*
X97062Y100056D01*
X97216Y99974D01*
X97242Y99966D01*
X97266Y99954D01*
X97435Y99909D01*
X97602Y99859D01*
X97629Y99857D01*
X97655Y99850D01*
X97985Y99823D01*
X131936Y99823D01*
X131962Y99825D01*
X131989Y99823D01*
X132163Y99845D01*
X132336Y99863D01*
X132362Y99870D01*
X132388Y99874D01*
X132554Y99930D01*
X132721Y99981D01*
X132745Y99994D01*
X132770Y100002D01*
X132922Y100089D01*
X133075Y100173D01*
X133096Y100190D01*
X133119Y100203D01*
X133372Y100418D01*
X136333Y103379D01*
X143067Y103379D01*
X147829Y98617D01*
X147829Y94429D01*
X147831Y94403D01*
X147829Y94376D01*
X147851Y94202D01*
X147869Y94029D01*
X147876Y94003D01*
X147880Y93977D01*
X147935Y93811D01*
X147987Y93644D01*
X148000Y93620D01*
X148008Y93595D01*
X148095Y93443D01*
X148179Y93290D01*
X148196Y93269D01*
X148209Y93246D01*
X148424Y92993D01*
X191799Y49618D01*
X191820Y49601D01*
X191837Y49580D01*
X191975Y49473D01*
X192111Y49363D01*
X192134Y49350D01*
X192155Y49334D01*
X192312Y49256D01*
X192466Y49174D01*
X192492Y49166D01*
X192516Y49154D01*
X192685Y49109D01*
X192852Y49059D01*
X192879Y49057D01*
X192905Y49050D01*
X193235Y49023D01*
X206909Y49023D01*
X206918Y49024D01*
X206927Y49023D01*
X207119Y49044D01*
X207310Y49063D01*
X207318Y49065D01*
X207327Y49066D01*
X207510Y49124D01*
X207695Y49181D01*
X207703Y49185D01*
X207711Y49188D01*
X207880Y49281D01*
X208049Y49373D01*
X208056Y49378D01*
X208063Y49383D01*
X208211Y49508D01*
X208358Y49630D01*
X208364Y49637D01*
X208370Y49643D01*
X208490Y49795D01*
X208610Y49944D01*
X208614Y49952D01*
X208620Y49959D01*
X208707Y50131D01*
X208796Y50301D01*
X208798Y50310D01*
X208802Y50318D01*
X208854Y50504D01*
X208907Y50688D01*
X208908Y50697D01*
X208910Y50706D01*
X208925Y50898D01*
X208940Y51090D01*
X208939Y51098D01*
X208940Y51107D01*
X208915Y51300D01*
X208893Y51489D01*
X208891Y51498D01*
X208889Y51507D01*
X208828Y51690D01*
X208768Y51872D01*
X208764Y51880D01*
X208761Y51888D01*
X208666Y52054D01*
X208571Y52223D01*
X208565Y52230D01*
X208560Y52237D01*
X208346Y52490D01*
X207263Y53573D01*
X207263Y60727D01*
X212323Y65787D01*
X219477Y65787D01*
X224537Y60727D01*
X224537Y53573D01*
X221068Y50103D01*
X221051Y50083D01*
X221030Y50065D01*
X220923Y49927D01*
X220813Y49792D01*
X220800Y49768D01*
X220784Y49747D01*
X220706Y49590D01*
X220624Y49436D01*
X220616Y49411D01*
X220604Y49387D01*
X220559Y49217D01*
X220509Y49050D01*
X220507Y49024D01*
X220500Y48998D01*
X220473Y48667D01*
X220473Y40233D01*
X220475Y40206D01*
X220473Y40180D01*
X220495Y40006D01*
X220513Y39832D01*
X220520Y39807D01*
X220524Y39780D01*
X220579Y39614D01*
X220631Y39447D01*
X220644Y39424D01*
X220652Y39398D01*
X220739Y39247D01*
X220823Y39093D01*
X220840Y39073D01*
X220853Y39050D01*
X221068Y38797D01*
X224537Y35327D01*
X224537Y28173D01*
X219477Y23113D01*
X212323Y23113D01*
X207263Y28173D01*
X207263Y35327D01*
X208346Y36410D01*
X208351Y36417D01*
X208358Y36422D01*
X208478Y36572D01*
X208601Y36721D01*
X208605Y36729D01*
X208610Y36736D01*
X208699Y36906D01*
X208789Y37077D01*
X208792Y37086D01*
X208796Y37093D01*
X208849Y37278D01*
X208904Y37463D01*
X208905Y37472D01*
X208907Y37480D01*
X208923Y37671D01*
X208940Y37864D01*
X208939Y37873D01*
X208940Y37882D01*
X208918Y38071D01*
X208897Y38264D01*
X208894Y38273D01*
X208893Y38281D01*
X208834Y38463D01*
X208776Y38648D01*
X208771Y38656D01*
X208768Y38664D01*
X208675Y38829D01*
X208581Y39000D01*
X208575Y39007D01*
X208571Y39015D01*
X208445Y39160D01*
X208320Y39307D01*
X208313Y39313D01*
X208307Y39320D01*
X208157Y39436D01*
X208004Y39557D01*
X207996Y39561D01*
X207989Y39566D01*
X207818Y39652D01*
X207645Y39739D01*
X207637Y39742D01*
X207629Y39746D01*
X207443Y39796D01*
X207257Y39847D01*
X207249Y39848D01*
X207240Y39850D01*
X206909Y39877D01*
X189590Y39877D01*
X187910Y40573D01*
X186338Y42145D01*
X141957Y86526D01*
X141936Y86543D01*
X141919Y86564D01*
X141781Y86671D01*
X141645Y86781D01*
X141622Y86794D01*
X141601Y86810D01*
X141444Y86888D01*
X141290Y86970D01*
X141264Y86978D01*
X141240Y86990D01*
X141071Y87035D01*
X140904Y87085D01*
X140877Y87087D01*
X140851Y87094D01*
X140521Y87121D01*
X136333Y87121D01*
X133372Y90082D01*
X133351Y90099D01*
X133334Y90120D01*
X133196Y90227D01*
X133060Y90337D01*
X133037Y90350D01*
X133016Y90366D01*
X132859Y90444D01*
X132705Y90526D01*
X132679Y90534D01*
X132655Y90546D01*
X132486Y90591D01*
X132319Y90641D01*
X132292Y90643D01*
X132266Y90650D01*
X131936Y90677D01*
X94340Y90677D01*
X92660Y91373D01*
X25338Y158695D01*
X25279Y158744D01*
X25226Y158799D01*
X25123Y158871D01*
X25026Y158950D01*
X24959Y158986D01*
X24896Y159030D01*
X24781Y159081D01*
X24671Y159139D01*
X24597Y159161D01*
X24527Y159192D01*
X24405Y159218D01*
X24285Y159254D01*
X24208Y159261D01*
X24134Y159277D01*
X24008Y159279D01*
X23884Y159290D01*
X23807Y159282D01*
X23731Y159283D01*
X23608Y159260D01*
X23483Y159247D01*
X23410Y159224D01*
X23335Y159210D01*
X23219Y159163D01*
X23100Y159125D01*
X23033Y159088D01*
X22961Y159060D01*
X22857Y158991D01*
X22747Y158930D01*
X22689Y158881D01*
X22625Y158839D01*
X22536Y158751D01*
X22440Y158670D01*
X22393Y158610D01*
X22338Y158556D01*
X22268Y158452D01*
X22191Y158354D01*
X22156Y158286D01*
X22113Y158222D01*
X22065Y158107D01*
X22008Y157995D01*
X21988Y157921D01*
X21958Y157851D01*
X21934Y157728D01*
X21900Y157607D01*
X21895Y157531D01*
X21880Y157456D01*
X21880Y157331D01*
X21871Y157206D01*
X21881Y157130D01*
X21881Y157053D01*
X21906Y156931D01*
X21921Y156806D01*
X21946Y156734D01*
X21961Y156659D01*
X22022Y156507D01*
X22050Y156425D01*
X22067Y156394D01*
X22085Y156351D01*
X94618Y11284D01*
X94699Y11155D01*
X94774Y11023D01*
X94806Y10985D01*
X94833Y10943D01*
X94938Y10833D01*
X95037Y10718D01*
X95076Y10688D01*
X95111Y10652D01*
X95235Y10565D01*
X95355Y10472D01*
X95400Y10449D01*
X95441Y10421D01*
X95580Y10360D01*
X95716Y10292D01*
X95764Y10279D01*
X95810Y10259D01*
X95958Y10227D01*
X96104Y10188D01*
X96161Y10183D01*
X96203Y10174D01*
X96289Y10173D01*
X96435Y10161D01*
X132190Y10161D01*
X132198Y10162D01*
G37*
%LPC*%
G36*
X279258Y161256D02*
X279258Y161256D01*
X279240Y161258D01*
X279223Y161262D01*
X278892Y161289D01*
X269239Y161289D01*
X269239Y167170D01*
X269489Y168749D01*
X269984Y170270D01*
X270710Y171695D01*
X271650Y172989D01*
X272781Y174120D01*
X274075Y175060D01*
X275401Y175736D01*
X275508Y175804D01*
X275619Y175865D01*
X275676Y175913D01*
X275740Y175954D01*
X275831Y176041D01*
X275928Y176122D01*
X275975Y176181D01*
X276029Y176234D01*
X276101Y176338D01*
X276180Y176436D01*
X276215Y176503D01*
X276258Y176565D01*
X276308Y176681D01*
X276366Y176793D01*
X276387Y176866D01*
X276416Y176935D01*
X276442Y177059D01*
X276477Y177180D01*
X276483Y177256D01*
X276499Y177329D01*
X276500Y177456D01*
X276510Y177582D01*
X276501Y177657D01*
X276502Y177732D01*
X276478Y177856D01*
X276463Y177981D01*
X276440Y178053D01*
X276425Y178127D01*
X276377Y178244D01*
X276338Y178364D01*
X276301Y178430D01*
X276272Y178500D01*
X276202Y178605D01*
X276140Y178715D01*
X276091Y178772D01*
X276049Y178835D01*
X275960Y178924D01*
X275877Y179020D01*
X275818Y179066D01*
X275764Y179119D01*
X275659Y179189D01*
X275559Y179266D01*
X275492Y179300D01*
X275429Y179342D01*
X275312Y179389D01*
X275199Y179446D01*
X275126Y179465D01*
X275056Y179494D01*
X274932Y179517D01*
X274810Y179550D01*
X274722Y179557D01*
X274660Y179569D01*
X274587Y179568D01*
X274479Y179577D01*
X258921Y179577D01*
X258795Y179565D01*
X258669Y179562D01*
X258595Y179545D01*
X258520Y179537D01*
X258400Y179500D01*
X258276Y179472D01*
X258208Y179441D01*
X258135Y179419D01*
X258024Y179359D01*
X257909Y179307D01*
X257848Y179263D01*
X257781Y179227D01*
X257684Y179147D01*
X257582Y179073D01*
X257530Y179018D01*
X257472Y178970D01*
X257393Y178871D01*
X257307Y178779D01*
X257267Y178715D01*
X257220Y178656D01*
X257162Y178544D01*
X257095Y178436D01*
X257069Y178366D01*
X257034Y178299D01*
X256999Y178177D01*
X256955Y178059D01*
X256944Y177984D01*
X256923Y177912D01*
X256913Y177786D01*
X256893Y177661D01*
X256896Y177586D01*
X256890Y177510D01*
X256905Y177385D01*
X256910Y177259D01*
X256928Y177185D01*
X256937Y177111D01*
X256976Y176991D01*
X257006Y176868D01*
X257038Y176800D01*
X257062Y176728D01*
X257124Y176618D01*
X257178Y176504D01*
X257223Y176443D01*
X257260Y176377D01*
X257342Y176282D01*
X257418Y176180D01*
X257474Y176130D01*
X257523Y176073D01*
X257622Y175995D01*
X257716Y175910D01*
X257791Y175864D01*
X257841Y175826D01*
X257907Y175793D01*
X257999Y175736D01*
X259325Y175060D01*
X260619Y174120D01*
X261750Y172989D01*
X262690Y171695D01*
X263416Y170270D01*
X263911Y168749D01*
X264161Y167170D01*
X264161Y161289D01*
X254508Y161289D01*
X254490Y161287D01*
X254473Y161289D01*
X254290Y161268D01*
X254108Y161249D01*
X254091Y161244D01*
X254073Y161242D01*
X253995Y161217D01*
X253858Y161256D01*
X253840Y161258D01*
X253823Y161262D01*
X253492Y161289D01*
X243839Y161289D01*
X243839Y167170D01*
X244103Y168837D01*
X244124Y168907D01*
X244131Y168982D01*
X244147Y169055D01*
X244149Y169181D01*
X244161Y169308D01*
X244152Y169382D01*
X244154Y169457D01*
X244131Y169582D01*
X244117Y169708D01*
X244094Y169780D01*
X244081Y169853D01*
X244034Y169971D01*
X243996Y170092D01*
X243959Y170157D01*
X243931Y170227D01*
X243862Y170334D01*
X243801Y170444D01*
X243752Y170501D01*
X243711Y170564D01*
X243622Y170655D01*
X243540Y170751D01*
X243481Y170798D01*
X243429Y170851D01*
X243324Y170922D01*
X243224Y171001D01*
X243157Y171035D01*
X243095Y171077D01*
X242978Y171126D01*
X242865Y171183D01*
X242793Y171203D01*
X242724Y171232D01*
X242600Y171257D01*
X242478Y171291D01*
X242403Y171297D01*
X242329Y171311D01*
X242203Y171311D01*
X242076Y171320D01*
X242001Y171311D01*
X241926Y171311D01*
X241802Y171286D01*
X241677Y171270D01*
X241605Y171246D01*
X241532Y171231D01*
X241415Y171182D01*
X241295Y171142D01*
X241230Y171104D01*
X241161Y171075D01*
X241056Y171004D01*
X240946Y170941D01*
X240880Y170884D01*
X240828Y170849D01*
X240776Y170796D01*
X240693Y170726D01*
X237540Y167573D01*
X235860Y166877D01*
X193732Y166877D01*
X193701Y166874D01*
X193669Y166876D01*
X193500Y166854D01*
X193331Y166837D01*
X193301Y166828D01*
X193270Y166824D01*
X192954Y166723D01*
X191556Y166143D01*
X189444Y166143D01*
X188046Y166723D01*
X188016Y166732D01*
X187988Y166746D01*
X187823Y166790D01*
X187660Y166839D01*
X187629Y166842D01*
X187599Y166850D01*
X187268Y166877D01*
X181921Y166877D01*
X181895Y166875D01*
X181868Y166877D01*
X181694Y166855D01*
X181521Y166837D01*
X181495Y166830D01*
X181468Y166826D01*
X181303Y166770D01*
X181136Y166719D01*
X181112Y166706D01*
X181087Y166698D01*
X180936Y166611D01*
X180782Y166527D01*
X180761Y166510D01*
X180738Y166497D01*
X180485Y166282D01*
X177900Y163697D01*
X174639Y162346D01*
X174638Y162346D01*
X174539Y162305D01*
X155661Y162305D01*
X152300Y163697D01*
X149727Y166270D01*
X148335Y169631D01*
X148335Y173269D01*
X149727Y176630D01*
X152300Y179203D01*
X155661Y180595D01*
X174539Y180595D01*
X177900Y179203D01*
X180485Y176618D01*
X180506Y176601D01*
X180523Y176580D01*
X180661Y176473D01*
X180796Y176363D01*
X180820Y176350D01*
X180841Y176334D01*
X180998Y176256D01*
X181152Y176174D01*
X181178Y176166D01*
X181202Y176154D01*
X181371Y176109D01*
X181538Y176059D01*
X181565Y176057D01*
X181591Y176050D01*
X181921Y176023D01*
X187268Y176023D01*
X187299Y176026D01*
X187331Y176024D01*
X187500Y176046D01*
X187669Y176063D01*
X187699Y176072D01*
X187730Y176076D01*
X188046Y176177D01*
X189444Y176757D01*
X191556Y176757D01*
X192954Y176177D01*
X192984Y176168D01*
X193012Y176154D01*
X193177Y176110D01*
X193340Y176061D01*
X193371Y176058D01*
X193401Y176050D01*
X193732Y176023D01*
X200660Y176023D01*
X200665Y176023D01*
X200669Y176023D01*
X200863Y176043D01*
X201061Y176063D01*
X201065Y176064D01*
X201069Y176064D01*
X201255Y176122D01*
X201446Y176181D01*
X201450Y176183D01*
X201454Y176184D01*
X201625Y176278D01*
X201800Y176373D01*
X201803Y176375D01*
X201807Y176378D01*
X201957Y176504D01*
X202109Y176630D01*
X202112Y176634D01*
X202115Y176637D01*
X202238Y176791D01*
X202361Y176944D01*
X202363Y176948D01*
X202366Y176951D01*
X202456Y177126D01*
X202547Y177301D01*
X202548Y177306D01*
X202550Y177310D01*
X202603Y177497D01*
X202658Y177688D01*
X202659Y177693D01*
X202660Y177697D01*
X202675Y177890D01*
X202691Y178090D01*
X202690Y178094D01*
X202691Y178098D01*
X202667Y178291D01*
X202644Y178489D01*
X202643Y178494D01*
X202642Y178498D01*
X202582Y178681D01*
X202519Y178872D01*
X202517Y178876D01*
X202516Y178880D01*
X202420Y179048D01*
X202321Y179223D01*
X202318Y179226D01*
X202316Y179230D01*
X202186Y179379D01*
X202058Y179527D01*
X202055Y179530D01*
X202052Y179534D01*
X201895Y179654D01*
X201740Y179774D01*
X201736Y179776D01*
X201733Y179779D01*
X201437Y179931D01*
X200610Y180273D01*
X189201Y191682D01*
X189180Y191699D01*
X189163Y191720D01*
X189025Y191827D01*
X188889Y191937D01*
X188866Y191950D01*
X188845Y191966D01*
X188688Y192044D01*
X188534Y192126D01*
X188508Y192134D01*
X188484Y192146D01*
X188315Y192191D01*
X188148Y192241D01*
X188121Y192243D01*
X188095Y192250D01*
X187765Y192277D01*
X181921Y192277D01*
X181895Y192275D01*
X181868Y192277D01*
X181694Y192255D01*
X181521Y192237D01*
X181495Y192230D01*
X181468Y192226D01*
X181303Y192170D01*
X181136Y192119D01*
X181112Y192106D01*
X181087Y192098D01*
X180936Y192011D01*
X180782Y191927D01*
X180761Y191910D01*
X180738Y191897D01*
X180485Y191682D01*
X177900Y189097D01*
X177068Y188753D01*
X174539Y187705D01*
X155661Y187705D01*
X152300Y189097D01*
X149727Y191670D01*
X148335Y195031D01*
X148335Y198669D01*
X149727Y202030D01*
X152300Y204603D01*
X154029Y205319D01*
X155661Y205995D01*
X174539Y205995D01*
X177900Y204603D01*
X180485Y202018D01*
X180506Y202001D01*
X180523Y201980D01*
X180661Y201873D01*
X180796Y201763D01*
X180820Y201750D01*
X180841Y201734D01*
X180998Y201656D01*
X181152Y201574D01*
X181178Y201566D01*
X181202Y201554D01*
X181371Y201509D01*
X181538Y201459D01*
X181565Y201457D01*
X181591Y201450D01*
X181921Y201423D01*
X191410Y201423D01*
X193090Y200727D01*
X204499Y189318D01*
X204520Y189301D01*
X204537Y189280D01*
X204675Y189173D01*
X204811Y189063D01*
X204834Y189050D01*
X204855Y189034D01*
X205012Y188956D01*
X205166Y188874D01*
X205192Y188866D01*
X205216Y188854D01*
X205385Y188809D01*
X205552Y188759D01*
X205579Y188757D01*
X205605Y188750D01*
X205935Y188723D01*
X209152Y188723D01*
X209319Y188739D01*
X209487Y188751D01*
X209519Y188759D01*
X209552Y188763D01*
X209713Y188812D01*
X209876Y188856D01*
X209905Y188871D01*
X209937Y188881D01*
X210085Y188961D01*
X210236Y189036D01*
X210262Y189057D01*
X210291Y189073D01*
X210420Y189180D01*
X210553Y189284D01*
X210575Y189309D01*
X210601Y189330D01*
X210706Y189461D01*
X210816Y189589D01*
X210832Y189618D01*
X210853Y189644D01*
X210930Y189793D01*
X211013Y189940D01*
X211023Y189972D01*
X211038Y190001D01*
X211085Y190163D01*
X211137Y190323D01*
X211141Y190356D01*
X211150Y190388D01*
X211164Y190556D01*
X211183Y190723D01*
X211180Y190756D01*
X211183Y190790D01*
X211163Y190957D01*
X211149Y191124D01*
X211140Y191156D01*
X211136Y191189D01*
X211084Y191349D01*
X211037Y191511D01*
X211021Y191540D01*
X211011Y191572D01*
X210928Y191719D01*
X210850Y191868D01*
X210829Y191894D01*
X210813Y191923D01*
X210703Y192050D01*
X210597Y192181D01*
X210569Y192205D01*
X210550Y192227D01*
X210482Y192280D01*
X210346Y192397D01*
X208870Y193469D01*
X207669Y194670D01*
X206671Y196044D01*
X205900Y197558D01*
X205447Y198951D01*
X215182Y198951D01*
X215200Y198952D01*
X215217Y198951D01*
X215400Y198972D01*
X215582Y198991D01*
X215599Y198996D01*
X215617Y198998D01*
X215792Y199055D01*
X215892Y199086D01*
X215899Y199082D01*
X216077Y199034D01*
X216252Y198984D01*
X216270Y198982D01*
X216287Y198978D01*
X216618Y198951D01*
X226353Y198951D01*
X225900Y197558D01*
X225129Y196044D01*
X224131Y194670D01*
X222930Y193469D01*
X221454Y192397D01*
X221328Y192285D01*
X221199Y192178D01*
X221179Y192152D01*
X221154Y192130D01*
X221052Y191995D01*
X220947Y191864D01*
X220932Y191834D01*
X220912Y191808D01*
X220839Y191655D01*
X220762Y191507D01*
X220752Y191475D01*
X220738Y191445D01*
X220697Y191281D01*
X220650Y191120D01*
X220647Y191086D01*
X220639Y191054D01*
X220631Y190886D01*
X220617Y190718D01*
X220621Y190685D01*
X220619Y190652D01*
X220645Y190486D01*
X220664Y190319D01*
X220674Y190287D01*
X220679Y190254D01*
X220737Y190096D01*
X220789Y189936D01*
X220805Y189907D01*
X220817Y189875D01*
X220904Y189732D01*
X220987Y189585D01*
X221009Y189560D01*
X221026Y189531D01*
X221140Y189408D01*
X221250Y189280D01*
X221276Y189260D01*
X221299Y189236D01*
X221435Y189137D01*
X221568Y189034D01*
X221598Y189019D01*
X221625Y188999D01*
X221778Y188929D01*
X221929Y188854D01*
X221961Y188846D01*
X221991Y188832D01*
X222154Y188794D01*
X222317Y188750D01*
X222355Y188747D01*
X222383Y188740D01*
X222469Y188737D01*
X222648Y188723D01*
X225865Y188723D01*
X225891Y188725D01*
X225918Y188723D01*
X226092Y188745D01*
X226265Y188763D01*
X226291Y188770D01*
X226317Y188774D01*
X226483Y188829D01*
X226650Y188881D01*
X226674Y188894D01*
X226699Y188902D01*
X226851Y188989D01*
X227004Y189073D01*
X227025Y189090D01*
X227048Y189103D01*
X227301Y189318D01*
X238710Y200727D01*
X240390Y201423D01*
X293010Y201423D01*
X294690Y200727D01*
X296262Y199155D01*
X297029Y198388D01*
X297160Y198281D01*
X297286Y198170D01*
X297315Y198154D01*
X297340Y198133D01*
X297490Y198054D01*
X297635Y197970D01*
X297667Y197960D01*
X297696Y197944D01*
X297858Y197896D01*
X298017Y197843D01*
X298050Y197839D01*
X298082Y197829D01*
X298250Y197814D01*
X298417Y197793D01*
X298450Y197796D01*
X298483Y197793D01*
X298651Y197811D01*
X298818Y197824D01*
X298850Y197833D01*
X298883Y197836D01*
X299044Y197887D01*
X299206Y197933D01*
X299235Y197948D01*
X299267Y197958D01*
X299414Y198039D01*
X299564Y198116D01*
X299590Y198137D01*
X299619Y198153D01*
X299748Y198262D01*
X299880Y198366D01*
X299901Y198392D01*
X299926Y198413D01*
X300031Y198545D01*
X300139Y198674D01*
X300155Y198703D01*
X300176Y198729D01*
X300252Y198879D01*
X300292Y198951D01*
X310432Y198951D01*
X310450Y198952D01*
X310467Y198951D01*
X310650Y198972D01*
X310832Y198991D01*
X310849Y198996D01*
X310867Y198998D01*
X311042Y199055D01*
X311142Y199086D01*
X311149Y199082D01*
X311327Y199034D01*
X311502Y198984D01*
X311520Y198982D01*
X311537Y198978D01*
X311868Y198951D01*
X321603Y198951D01*
X321150Y197558D01*
X320379Y196044D01*
X319381Y194670D01*
X318180Y193469D01*
X316704Y192397D01*
X316578Y192285D01*
X316449Y192178D01*
X316429Y192152D01*
X316404Y192130D01*
X316302Y191995D01*
X316197Y191864D01*
X316182Y191834D01*
X316162Y191808D01*
X316089Y191655D01*
X316012Y191507D01*
X316002Y191475D01*
X315988Y191445D01*
X315947Y191281D01*
X315900Y191120D01*
X315897Y191086D01*
X315889Y191054D01*
X315881Y190886D01*
X315867Y190718D01*
X315871Y190685D01*
X315869Y190652D01*
X315895Y190486D01*
X315914Y190319D01*
X315924Y190287D01*
X315929Y190254D01*
X315987Y190096D01*
X316039Y189936D01*
X316055Y189907D01*
X316067Y189875D01*
X316154Y189732D01*
X316237Y189585D01*
X316259Y189560D01*
X316276Y189531D01*
X316390Y189408D01*
X316500Y189280D01*
X316526Y189260D01*
X316549Y189236D01*
X316685Y189137D01*
X316818Y189034D01*
X316848Y189019D01*
X316875Y188999D01*
X317028Y188929D01*
X317179Y188854D01*
X317211Y188846D01*
X317241Y188832D01*
X317404Y188794D01*
X317567Y188750D01*
X317605Y188747D01*
X317633Y188740D01*
X317719Y188737D01*
X317898Y188723D01*
X321115Y188723D01*
X321141Y188725D01*
X321168Y188723D01*
X321342Y188745D01*
X321515Y188763D01*
X321541Y188770D01*
X321567Y188774D01*
X321733Y188830D01*
X321900Y188881D01*
X321924Y188894D01*
X321949Y188902D01*
X322101Y188989D01*
X322254Y189073D01*
X322275Y189090D01*
X322298Y189103D01*
X322551Y189318D01*
X333960Y200727D01*
X335640Y201423D01*
X345129Y201423D01*
X345155Y201425D01*
X345182Y201423D01*
X345356Y201445D01*
X345529Y201463D01*
X345555Y201470D01*
X345581Y201474D01*
X345747Y201529D01*
X345914Y201581D01*
X345938Y201594D01*
X345963Y201602D01*
X346115Y201689D01*
X346268Y201773D01*
X346289Y201790D01*
X346312Y201803D01*
X346565Y202018D01*
X349150Y204603D01*
X350879Y205319D01*
X352511Y205995D01*
X371389Y205995D01*
X374750Y204603D01*
X377323Y202030D01*
X378715Y198669D01*
X378715Y195031D01*
X377323Y191670D01*
X374750Y189097D01*
X373918Y188753D01*
X371389Y187705D01*
X352511Y187705D01*
X349150Y189097D01*
X346565Y191682D01*
X346544Y191699D01*
X346527Y191720D01*
X346389Y191827D01*
X346254Y191937D01*
X346230Y191950D01*
X346209Y191966D01*
X346052Y192044D01*
X345898Y192126D01*
X345872Y192134D01*
X345848Y192146D01*
X345679Y192191D01*
X345512Y192241D01*
X345485Y192243D01*
X345459Y192250D01*
X345129Y192277D01*
X339285Y192277D01*
X339259Y192275D01*
X339232Y192277D01*
X339058Y192255D01*
X338885Y192237D01*
X338859Y192230D01*
X338833Y192226D01*
X338667Y192171D01*
X338500Y192119D01*
X338476Y192106D01*
X338451Y192098D01*
X338299Y192011D01*
X338146Y191927D01*
X338125Y191910D01*
X338102Y191897D01*
X337849Y191682D01*
X328012Y181845D01*
X326440Y180273D01*
X325613Y179931D01*
X325609Y179929D01*
X325604Y179927D01*
X325432Y179834D01*
X325258Y179740D01*
X325254Y179738D01*
X325250Y179735D01*
X325102Y179611D01*
X324947Y179484D01*
X324945Y179481D01*
X324941Y179478D01*
X324817Y179323D01*
X324694Y179171D01*
X324692Y179167D01*
X324689Y179164D01*
X324598Y178989D01*
X324507Y178815D01*
X324505Y178811D01*
X324503Y178807D01*
X324449Y178617D01*
X324393Y178428D01*
X324393Y178424D01*
X324392Y178420D01*
X324376Y178222D01*
X324359Y178027D01*
X324359Y178023D01*
X324359Y178018D01*
X324383Y177815D01*
X324404Y177627D01*
X324405Y177623D01*
X324406Y177619D01*
X324467Y177430D01*
X324527Y177244D01*
X324529Y177240D01*
X324531Y177236D01*
X324628Y177063D01*
X324724Y176892D01*
X324726Y176889D01*
X324729Y176885D01*
X324857Y176736D01*
X324985Y176587D01*
X324989Y176584D01*
X324992Y176580D01*
X325144Y176462D01*
X325302Y176338D01*
X325306Y176336D01*
X325310Y176334D01*
X325485Y176247D01*
X325662Y176158D01*
X325666Y176156D01*
X325670Y176154D01*
X325863Y176103D01*
X326050Y176051D01*
X326055Y176051D01*
X326059Y176050D01*
X326390Y176023D01*
X345129Y176023D01*
X345155Y176025D01*
X345182Y176023D01*
X345356Y176045D01*
X345529Y176063D01*
X345555Y176070D01*
X345581Y176074D01*
X345747Y176129D01*
X345914Y176181D01*
X345938Y176194D01*
X345963Y176202D01*
X346115Y176289D01*
X346268Y176373D01*
X346289Y176390D01*
X346312Y176403D01*
X346565Y176618D01*
X349150Y179203D01*
X352511Y180595D01*
X371389Y180595D01*
X374750Y179203D01*
X377323Y176630D01*
X378715Y173269D01*
X378715Y169631D01*
X377323Y166270D01*
X374750Y163697D01*
X371489Y162346D01*
X371488Y162346D01*
X371389Y162305D01*
X352511Y162305D01*
X349150Y163697D01*
X346565Y166282D01*
X346544Y166299D01*
X346527Y166320D01*
X346389Y166427D01*
X346254Y166537D01*
X346230Y166550D01*
X346209Y166566D01*
X346052Y166644D01*
X345898Y166726D01*
X345872Y166734D01*
X345848Y166746D01*
X345679Y166791D01*
X345512Y166841D01*
X345485Y166843D01*
X345459Y166850D01*
X345129Y166877D01*
X297540Y166877D01*
X295860Y167573D01*
X292707Y170726D01*
X292609Y170807D01*
X292517Y170894D01*
X292453Y170934D01*
X292395Y170981D01*
X292284Y171041D01*
X292176Y171108D01*
X292106Y171135D01*
X292040Y171170D01*
X291919Y171206D01*
X291800Y171251D01*
X291726Y171263D01*
X291654Y171285D01*
X291527Y171296D01*
X291403Y171317D01*
X291328Y171314D01*
X291253Y171321D01*
X291127Y171307D01*
X291000Y171303D01*
X290927Y171286D01*
X290853Y171278D01*
X290732Y171239D01*
X290609Y171210D01*
X290540Y171179D01*
X290469Y171156D01*
X290358Y171095D01*
X290243Y171042D01*
X290182Y170998D01*
X290116Y170961D01*
X290020Y170879D01*
X289917Y170805D01*
X289867Y170749D01*
X289809Y170701D01*
X289731Y170601D01*
X289645Y170508D01*
X289606Y170444D01*
X289560Y170385D01*
X289502Y170272D01*
X289437Y170164D01*
X289411Y170093D01*
X289377Y170026D01*
X289343Y169904D01*
X289301Y169785D01*
X289290Y169710D01*
X289269Y169638D01*
X289260Y169512D01*
X289242Y169386D01*
X289246Y169311D01*
X289240Y169237D01*
X289256Y169111D01*
X289262Y168984D01*
X289283Y168899D01*
X289290Y168837D01*
X289302Y168803D01*
X289561Y167170D01*
X289561Y161289D01*
X279908Y161289D01*
X279890Y161287D01*
X279873Y161289D01*
X279690Y161268D01*
X279508Y161249D01*
X279491Y161244D01*
X279473Y161242D01*
X279395Y161217D01*
X279258Y161256D01*
G37*
%LPD*%
%LPC*%
G36*
X155661Y111505D02*
X155661Y111505D01*
X152300Y112897D01*
X149727Y115470D01*
X148335Y118831D01*
X148335Y122469D01*
X149727Y125830D01*
X152300Y128403D01*
X155661Y129795D01*
X174539Y129795D01*
X177900Y128403D01*
X180485Y125818D01*
X180506Y125801D01*
X180523Y125780D01*
X180661Y125673D01*
X180796Y125563D01*
X180820Y125550D01*
X180841Y125534D01*
X180998Y125456D01*
X181152Y125374D01*
X181178Y125366D01*
X181202Y125354D01*
X181371Y125309D01*
X181538Y125259D01*
X181565Y125257D01*
X181591Y125250D01*
X181921Y125223D01*
X245110Y125223D01*
X245115Y125223D01*
X245119Y125223D01*
X245313Y125243D01*
X245511Y125263D01*
X245515Y125264D01*
X245519Y125264D01*
X245705Y125322D01*
X245896Y125381D01*
X245900Y125383D01*
X245904Y125384D01*
X246075Y125478D01*
X246250Y125573D01*
X246253Y125575D01*
X246257Y125578D01*
X246408Y125705D01*
X246559Y125830D01*
X246562Y125834D01*
X246565Y125837D01*
X246688Y125991D01*
X246811Y126144D01*
X246813Y126148D01*
X246816Y126151D01*
X246906Y126326D01*
X246997Y126501D01*
X246998Y126506D01*
X247000Y126510D01*
X247052Y126695D01*
X247108Y126888D01*
X247109Y126893D01*
X247110Y126897D01*
X247125Y127090D01*
X247141Y127290D01*
X247140Y127294D01*
X247141Y127298D01*
X247117Y127491D01*
X247094Y127689D01*
X247093Y127694D01*
X247092Y127698D01*
X247032Y127881D01*
X246969Y128072D01*
X246967Y128076D01*
X246966Y128080D01*
X246870Y128248D01*
X246771Y128423D01*
X246768Y128426D01*
X246766Y128430D01*
X246636Y128579D01*
X246508Y128727D01*
X246505Y128730D01*
X246502Y128734D01*
X246345Y128854D01*
X246190Y128974D01*
X246186Y128976D01*
X246183Y128979D01*
X245887Y129131D01*
X245060Y129473D01*
X233651Y140882D01*
X233630Y140899D01*
X233613Y140920D01*
X233475Y141027D01*
X233339Y141137D01*
X233316Y141150D01*
X233295Y141166D01*
X233138Y141244D01*
X232984Y141326D01*
X232958Y141334D01*
X232934Y141346D01*
X232765Y141391D01*
X232598Y141441D01*
X232571Y141443D01*
X232545Y141450D01*
X232215Y141477D01*
X181921Y141477D01*
X181895Y141475D01*
X181868Y141477D01*
X181694Y141455D01*
X181521Y141437D01*
X181495Y141430D01*
X181468Y141426D01*
X181303Y141370D01*
X181136Y141319D01*
X181112Y141306D01*
X181087Y141298D01*
X180936Y141211D01*
X180782Y141127D01*
X180761Y141110D01*
X180738Y141097D01*
X180485Y140882D01*
X177900Y138297D01*
X174539Y136905D01*
X155661Y136905D01*
X152300Y138297D01*
X149727Y140870D01*
X148335Y144231D01*
X148335Y147869D01*
X149727Y151230D01*
X152300Y153803D01*
X155661Y155195D01*
X174539Y155195D01*
X177900Y153803D01*
X180485Y151218D01*
X180506Y151201D01*
X180523Y151180D01*
X180661Y151073D01*
X180796Y150963D01*
X180820Y150950D01*
X180841Y150934D01*
X180998Y150856D01*
X181152Y150774D01*
X181178Y150766D01*
X181202Y150754D01*
X181371Y150709D01*
X181538Y150659D01*
X181565Y150657D01*
X181591Y150650D01*
X181921Y150623D01*
X235860Y150623D01*
X237540Y149927D01*
X239112Y148355D01*
X239112Y148354D01*
X240693Y146774D01*
X240791Y146694D01*
X240883Y146606D01*
X240946Y146566D01*
X241005Y146519D01*
X241116Y146459D01*
X241223Y146392D01*
X241294Y146365D01*
X241360Y146330D01*
X241482Y146294D01*
X241600Y146249D01*
X241674Y146237D01*
X241746Y146215D01*
X241872Y146204D01*
X241997Y146183D01*
X242072Y146186D01*
X242147Y146179D01*
X242273Y146193D01*
X242399Y146197D01*
X242472Y146214D01*
X242547Y146222D01*
X242668Y146261D01*
X242791Y146290D01*
X242859Y146321D01*
X242931Y146344D01*
X243042Y146405D01*
X243157Y146458D01*
X243218Y146502D01*
X243284Y146539D01*
X243380Y146620D01*
X243482Y146695D01*
X243533Y146750D01*
X243591Y146799D01*
X243669Y146899D01*
X243755Y146992D01*
X243793Y147056D01*
X243840Y147115D01*
X243898Y147228D01*
X243963Y147336D01*
X243988Y147407D01*
X244023Y147474D01*
X244057Y147596D01*
X244099Y147715D01*
X244110Y147789D01*
X244131Y147862D01*
X244140Y147988D01*
X244158Y148113D01*
X244154Y148188D01*
X244160Y148263D01*
X244144Y148389D01*
X244138Y148515D01*
X244117Y148600D01*
X244110Y148663D01*
X244098Y148697D01*
X243839Y150330D01*
X243839Y156211D01*
X253492Y156211D01*
X253510Y156212D01*
X253527Y156211D01*
X253710Y156232D01*
X253892Y156251D01*
X253909Y156256D01*
X253927Y156258D01*
X254005Y156283D01*
X254142Y156244D01*
X254160Y156242D01*
X254177Y156238D01*
X254508Y156211D01*
X264161Y156211D01*
X264161Y150330D01*
X263911Y148751D01*
X263416Y147230D01*
X262690Y145805D01*
X261750Y144511D01*
X260619Y143380D01*
X259325Y142440D01*
X257999Y141764D01*
X257892Y141696D01*
X257781Y141635D01*
X257724Y141587D01*
X257660Y141546D01*
X257569Y141459D01*
X257472Y141378D01*
X257425Y141319D01*
X257371Y141266D01*
X257299Y141162D01*
X257220Y141064D01*
X257185Y140997D01*
X257142Y140935D01*
X257092Y140819D01*
X257034Y140707D01*
X257013Y140634D01*
X256984Y140565D01*
X256958Y140441D01*
X256923Y140320D01*
X256917Y140244D01*
X256901Y140171D01*
X256900Y140044D01*
X256890Y139918D01*
X256899Y139843D01*
X256898Y139768D01*
X256922Y139644D01*
X256937Y139519D01*
X256960Y139447D01*
X256975Y139373D01*
X257023Y139256D01*
X257062Y139136D01*
X257099Y139070D01*
X257128Y139000D01*
X257198Y138895D01*
X257260Y138785D01*
X257309Y138728D01*
X257351Y138665D01*
X257440Y138576D01*
X257523Y138480D01*
X257582Y138434D01*
X257636Y138381D01*
X257741Y138311D01*
X257841Y138234D01*
X257908Y138200D01*
X257971Y138158D01*
X258088Y138111D01*
X258201Y138054D01*
X258274Y138035D01*
X258344Y138006D01*
X258468Y137983D01*
X258590Y137950D01*
X258678Y137943D01*
X258740Y137931D01*
X258813Y137932D01*
X258921Y137923D01*
X274479Y137923D01*
X274605Y137935D01*
X274731Y137938D01*
X274805Y137955D01*
X274880Y137963D01*
X275000Y138000D01*
X275124Y138028D01*
X275192Y138059D01*
X275265Y138081D01*
X275376Y138141D01*
X275491Y138193D01*
X275552Y138237D01*
X275619Y138273D01*
X275716Y138353D01*
X275818Y138427D01*
X275870Y138482D01*
X275928Y138530D01*
X276007Y138629D01*
X276093Y138721D01*
X276133Y138785D01*
X276180Y138844D01*
X276238Y138956D01*
X276305Y139064D01*
X276331Y139134D01*
X276366Y139201D01*
X276401Y139323D01*
X276445Y139441D01*
X276456Y139516D01*
X276477Y139588D01*
X276487Y139714D01*
X276507Y139839D01*
X276504Y139914D01*
X276510Y139990D01*
X276495Y140115D01*
X276490Y140241D01*
X276472Y140315D01*
X276463Y140389D01*
X276424Y140509D01*
X276394Y140632D01*
X276362Y140700D01*
X276338Y140772D01*
X276276Y140882D01*
X276222Y140996D01*
X276177Y141057D01*
X276140Y141123D01*
X276058Y141218D01*
X275982Y141320D01*
X275927Y141370D01*
X275877Y141427D01*
X275778Y141505D01*
X275684Y141590D01*
X275609Y141636D01*
X275559Y141674D01*
X275493Y141707D01*
X275401Y141764D01*
X274075Y142440D01*
X272781Y143380D01*
X271650Y144511D01*
X270710Y145805D01*
X269984Y147230D01*
X269489Y148751D01*
X269239Y150330D01*
X269239Y156211D01*
X278892Y156211D01*
X278910Y156212D01*
X278927Y156211D01*
X279110Y156232D01*
X279292Y156251D01*
X279309Y156256D01*
X279327Y156258D01*
X279405Y156283D01*
X279542Y156244D01*
X279560Y156242D01*
X279577Y156238D01*
X279908Y156211D01*
X289561Y156211D01*
X289561Y150330D01*
X289311Y148751D01*
X288816Y147230D01*
X288090Y145805D01*
X287150Y144511D01*
X286019Y143380D01*
X284725Y142440D01*
X283399Y141764D01*
X283292Y141696D01*
X283181Y141635D01*
X283124Y141587D01*
X283060Y141546D01*
X282969Y141459D01*
X282872Y141378D01*
X282825Y141319D01*
X282771Y141266D01*
X282699Y141162D01*
X282620Y141064D01*
X282585Y140997D01*
X282542Y140935D01*
X282492Y140819D01*
X282434Y140707D01*
X282413Y140634D01*
X282384Y140565D01*
X282358Y140441D01*
X282323Y140320D01*
X282317Y140244D01*
X282301Y140171D01*
X282300Y140044D01*
X282290Y139918D01*
X282299Y139843D01*
X282298Y139768D01*
X282322Y139644D01*
X282337Y139519D01*
X282360Y139447D01*
X282375Y139373D01*
X282423Y139256D01*
X282462Y139136D01*
X282499Y139070D01*
X282528Y139000D01*
X282598Y138895D01*
X282660Y138785D01*
X282709Y138728D01*
X282751Y138665D01*
X282840Y138576D01*
X282923Y138480D01*
X282982Y138434D01*
X283036Y138381D01*
X283141Y138311D01*
X283241Y138234D01*
X283308Y138200D01*
X283371Y138158D01*
X283488Y138111D01*
X283601Y138054D01*
X283674Y138035D01*
X283744Y138006D01*
X283868Y137983D01*
X283990Y137950D01*
X284078Y137943D01*
X284140Y137931D01*
X284213Y137932D01*
X284321Y137923D01*
X289365Y137923D01*
X289391Y137925D01*
X289418Y137923D01*
X289592Y137945D01*
X289765Y137963D01*
X289791Y137970D01*
X289817Y137974D01*
X289983Y138029D01*
X290150Y138081D01*
X290174Y138094D01*
X290199Y138102D01*
X290350Y138189D01*
X290504Y138273D01*
X290525Y138290D01*
X290548Y138303D01*
X290801Y138518D01*
X299281Y146998D01*
X299301Y147022D01*
X299325Y147043D01*
X299429Y147178D01*
X299537Y147310D01*
X299551Y147337D01*
X299570Y147362D01*
X299722Y147657D01*
X300301Y149056D01*
X301794Y150549D01*
X303744Y151357D01*
X305856Y151357D01*
X307254Y150777D01*
X307284Y150768D01*
X307312Y150754D01*
X307477Y150710D01*
X307640Y150661D01*
X307671Y150658D01*
X307701Y150650D01*
X308032Y150623D01*
X345129Y150623D01*
X345155Y150625D01*
X345182Y150623D01*
X345356Y150645D01*
X345529Y150663D01*
X345555Y150670D01*
X345581Y150674D01*
X345747Y150729D01*
X345914Y150781D01*
X345938Y150794D01*
X345963Y150802D01*
X346115Y150889D01*
X346268Y150973D01*
X346289Y150990D01*
X346312Y151003D01*
X346565Y151218D01*
X349150Y153803D01*
X352511Y155195D01*
X371389Y155195D01*
X374750Y153803D01*
X377323Y151230D01*
X378715Y147869D01*
X378715Y144231D01*
X377323Y140870D01*
X374750Y138297D01*
X371389Y136905D01*
X352511Y136905D01*
X349150Y138297D01*
X346565Y140882D01*
X346544Y140899D01*
X346527Y140920D01*
X346389Y141027D01*
X346254Y141137D01*
X346230Y141150D01*
X346209Y141166D01*
X346052Y141244D01*
X345898Y141326D01*
X345872Y141334D01*
X345848Y141346D01*
X345679Y141391D01*
X345512Y141441D01*
X345485Y141443D01*
X345459Y141450D01*
X345129Y141477D01*
X308032Y141477D01*
X308001Y141474D01*
X307970Y141476D01*
X307800Y141454D01*
X307631Y141437D01*
X307601Y141428D01*
X307570Y141424D01*
X307254Y141323D01*
X306407Y140972D01*
X306380Y140957D01*
X306350Y140947D01*
X306202Y140862D01*
X306052Y140782D01*
X306028Y140762D01*
X306001Y140746D01*
X305748Y140531D01*
X296262Y131045D01*
X294690Y129473D01*
X293863Y129131D01*
X293859Y129129D01*
X293854Y129127D01*
X293682Y129034D01*
X293508Y128940D01*
X293504Y128938D01*
X293500Y128935D01*
X293352Y128811D01*
X293197Y128684D01*
X293195Y128681D01*
X293191Y128678D01*
X293068Y128525D01*
X292944Y128371D01*
X292942Y128367D01*
X292939Y128364D01*
X292848Y128189D01*
X292757Y128015D01*
X292755Y128011D01*
X292753Y128007D01*
X292698Y127815D01*
X292643Y127628D01*
X292643Y127624D01*
X292642Y127620D01*
X292626Y127422D01*
X292609Y127227D01*
X292609Y127223D01*
X292609Y127218D01*
X292633Y127015D01*
X292654Y126827D01*
X292655Y126823D01*
X292656Y126819D01*
X292717Y126630D01*
X292777Y126444D01*
X292779Y126440D01*
X292781Y126436D01*
X292878Y126263D01*
X292974Y126092D01*
X292976Y126089D01*
X292979Y126085D01*
X293107Y125936D01*
X293235Y125787D01*
X293239Y125784D01*
X293242Y125780D01*
X293394Y125662D01*
X293552Y125538D01*
X293556Y125536D01*
X293560Y125534D01*
X293735Y125447D01*
X293912Y125358D01*
X293916Y125356D01*
X293920Y125354D01*
X294113Y125303D01*
X294300Y125251D01*
X294305Y125251D01*
X294309Y125250D01*
X294640Y125223D01*
X345129Y125223D01*
X345155Y125225D01*
X345182Y125223D01*
X345356Y125245D01*
X345529Y125263D01*
X345555Y125270D01*
X345581Y125274D01*
X345747Y125329D01*
X345914Y125381D01*
X345938Y125394D01*
X345963Y125402D01*
X346115Y125489D01*
X346268Y125573D01*
X346289Y125590D01*
X346312Y125603D01*
X346565Y125818D01*
X349150Y128403D01*
X352511Y129795D01*
X371389Y129795D01*
X374750Y128403D01*
X377323Y125830D01*
X378715Y122469D01*
X378715Y118831D01*
X377323Y115470D01*
X374750Y112897D01*
X371389Y111505D01*
X352511Y111505D01*
X349150Y112897D01*
X346565Y115482D01*
X346544Y115499D01*
X346527Y115520D01*
X346389Y115627D01*
X346254Y115737D01*
X346230Y115750D01*
X346209Y115766D01*
X346052Y115844D01*
X345898Y115926D01*
X345872Y115934D01*
X345848Y115946D01*
X345679Y115991D01*
X345512Y116041D01*
X345485Y116043D01*
X345459Y116050D01*
X345129Y116077D01*
X181921Y116077D01*
X181895Y116075D01*
X181868Y116077D01*
X181694Y116055D01*
X181521Y116037D01*
X181495Y116030D01*
X181468Y116026D01*
X181303Y115970D01*
X181136Y115919D01*
X181112Y115906D01*
X181087Y115898D01*
X180936Y115811D01*
X180782Y115727D01*
X180761Y115710D01*
X180738Y115697D01*
X180485Y115482D01*
X177900Y112897D01*
X174539Y111505D01*
X155661Y111505D01*
G37*
%LPD*%
%LPC*%
G36*
X309206Y221925D02*
X309206Y221925D01*
X305613Y223413D01*
X302863Y226163D01*
X301375Y229756D01*
X301375Y233644D01*
X302306Y235891D01*
X302310Y235904D01*
X302316Y235915D01*
X302368Y236096D01*
X302422Y236276D01*
X302423Y236289D01*
X302427Y236302D01*
X302443Y236490D01*
X302460Y236677D01*
X302459Y236690D01*
X302460Y236704D01*
X302438Y236891D01*
X302419Y237077D01*
X302415Y237090D01*
X302413Y237103D01*
X302355Y237283D01*
X302299Y237462D01*
X302292Y237473D01*
X302288Y237486D01*
X302195Y237651D01*
X302106Y237815D01*
X302097Y237825D01*
X302090Y237837D01*
X301967Y237979D01*
X301846Y238123D01*
X301836Y238131D01*
X301827Y238142D01*
X301679Y238257D01*
X301532Y238374D01*
X301520Y238380D01*
X301509Y238388D01*
X301340Y238472D01*
X301173Y238558D01*
X301161Y238562D01*
X301149Y238568D01*
X300966Y238617D01*
X300786Y238668D01*
X300773Y238669D01*
X300760Y238672D01*
X300429Y238699D01*
X283150Y238699D01*
X283149Y238700D01*
X283149Y294700D01*
X283150Y294701D01*
X339150Y294701D01*
X339151Y294700D01*
X339151Y238700D01*
X339150Y238699D01*
X321871Y238699D01*
X321858Y238698D01*
X321844Y238699D01*
X321658Y238678D01*
X321470Y238659D01*
X321457Y238655D01*
X321444Y238654D01*
X321266Y238597D01*
X321085Y238541D01*
X321074Y238535D01*
X321061Y238531D01*
X320897Y238439D01*
X320731Y238349D01*
X320721Y238341D01*
X320709Y238334D01*
X320566Y238212D01*
X320422Y238092D01*
X320414Y238081D01*
X320404Y238073D01*
X320287Y237924D01*
X320170Y237778D01*
X320164Y237766D01*
X320155Y237756D01*
X320071Y237587D01*
X319984Y237421D01*
X319981Y237408D01*
X319975Y237396D01*
X319925Y237214D01*
X319873Y237034D01*
X319872Y237020D01*
X319868Y237007D01*
X319855Y236819D01*
X319840Y236632D01*
X319842Y236619D01*
X319841Y236606D01*
X319865Y236418D01*
X319887Y236233D01*
X319891Y236220D01*
X319893Y236207D01*
X319994Y235891D01*
X320925Y233644D01*
X320925Y229756D01*
X319437Y226163D01*
X316687Y223413D01*
X313094Y221925D01*
X309206Y221925D01*
G37*
%LPD*%
%LPC*%
G36*
X404456Y221925D02*
X404456Y221925D01*
X400863Y223413D01*
X398113Y226163D01*
X396625Y229756D01*
X396625Y233644D01*
X397556Y235891D01*
X397560Y235904D01*
X397566Y235915D01*
X397618Y236095D01*
X397672Y236276D01*
X397674Y236289D01*
X397677Y236302D01*
X397693Y236490D01*
X397710Y236677D01*
X397709Y236690D01*
X397710Y236704D01*
X397688Y236890D01*
X397669Y237077D01*
X397665Y237090D01*
X397663Y237103D01*
X397605Y237283D01*
X397549Y237462D01*
X397543Y237473D01*
X397538Y237486D01*
X397446Y237650D01*
X397356Y237815D01*
X397347Y237825D01*
X397340Y237837D01*
X397218Y237979D01*
X397096Y238123D01*
X397086Y238131D01*
X397077Y238142D01*
X396929Y238256D01*
X396782Y238374D01*
X396770Y238380D01*
X396759Y238388D01*
X396591Y238472D01*
X396424Y238558D01*
X396411Y238562D01*
X396399Y238568D01*
X396216Y238617D01*
X396036Y238668D01*
X396023Y238669D01*
X396010Y238672D01*
X395679Y238699D01*
X378400Y238699D01*
X378399Y238700D01*
X378399Y294700D01*
X378400Y294701D01*
X434400Y294701D01*
X434401Y294700D01*
X434401Y238700D01*
X434400Y238699D01*
X417121Y238699D01*
X417107Y238698D01*
X417094Y238699D01*
X416908Y238678D01*
X416720Y238659D01*
X416707Y238655D01*
X416694Y238654D01*
X416516Y238597D01*
X416335Y238541D01*
X416323Y238535D01*
X416311Y238531D01*
X416147Y238439D01*
X415981Y238349D01*
X415971Y238341D01*
X415959Y238334D01*
X415816Y238211D01*
X415672Y238092D01*
X415664Y238081D01*
X415653Y238073D01*
X415537Y237924D01*
X415420Y237778D01*
X415414Y237766D01*
X415405Y237756D01*
X415320Y237586D01*
X415234Y237421D01*
X415231Y237408D01*
X415224Y237396D01*
X415175Y237214D01*
X415123Y237034D01*
X415122Y237020D01*
X415118Y237007D01*
X415105Y236820D01*
X415090Y236632D01*
X415091Y236619D01*
X415091Y236606D01*
X415115Y236418D01*
X415137Y236233D01*
X415141Y236220D01*
X415143Y236207D01*
X415244Y235891D01*
X416175Y233644D01*
X416175Y229756D01*
X414687Y226163D01*
X411937Y223413D01*
X408344Y221925D01*
X404456Y221925D01*
G37*
%LPD*%
%LPC*%
G36*
X213956Y221925D02*
X213956Y221925D01*
X210363Y223413D01*
X207613Y226163D01*
X206125Y229756D01*
X206125Y233644D01*
X207056Y235891D01*
X207060Y235904D01*
X207066Y235915D01*
X207118Y236095D01*
X207172Y236276D01*
X207174Y236289D01*
X207177Y236302D01*
X207193Y236490D01*
X207210Y236677D01*
X207209Y236690D01*
X207210Y236704D01*
X207188Y236890D01*
X207169Y237077D01*
X207165Y237090D01*
X207163Y237103D01*
X207105Y237283D01*
X207049Y237462D01*
X207043Y237473D01*
X207038Y237486D01*
X206946Y237650D01*
X206856Y237815D01*
X206847Y237825D01*
X206840Y237837D01*
X206718Y237979D01*
X206596Y238123D01*
X206586Y238131D01*
X206577Y238142D01*
X206429Y238256D01*
X206282Y238374D01*
X206270Y238380D01*
X206259Y238388D01*
X206091Y238472D01*
X205924Y238558D01*
X205911Y238562D01*
X205899Y238568D01*
X205716Y238617D01*
X205536Y238668D01*
X205523Y238669D01*
X205510Y238672D01*
X205179Y238699D01*
X187900Y238699D01*
X187899Y238700D01*
X187899Y294700D01*
X187900Y294701D01*
X243900Y294701D01*
X243901Y294700D01*
X243901Y238700D01*
X243900Y238699D01*
X226621Y238699D01*
X226607Y238698D01*
X226594Y238699D01*
X226408Y238678D01*
X226220Y238659D01*
X226207Y238655D01*
X226194Y238654D01*
X226016Y238597D01*
X225835Y238541D01*
X225823Y238535D01*
X225811Y238531D01*
X225647Y238439D01*
X225481Y238349D01*
X225471Y238341D01*
X225459Y238334D01*
X225316Y238211D01*
X225172Y238092D01*
X225164Y238081D01*
X225153Y238073D01*
X225037Y237924D01*
X224920Y237778D01*
X224914Y237766D01*
X224905Y237756D01*
X224820Y237586D01*
X224734Y237421D01*
X224731Y237408D01*
X224724Y237396D01*
X224675Y237214D01*
X224623Y237034D01*
X224622Y237020D01*
X224618Y237007D01*
X224605Y236820D01*
X224590Y236632D01*
X224591Y236619D01*
X224591Y236606D01*
X224615Y236418D01*
X224637Y236233D01*
X224641Y236220D01*
X224643Y236207D01*
X224744Y235891D01*
X225675Y233644D01*
X225675Y229756D01*
X224187Y226163D01*
X221437Y223413D01*
X217844Y221925D01*
X213956Y221925D01*
G37*
%LPD*%
%LPC*%
G36*
X118706Y221925D02*
X118706Y221925D01*
X115113Y223413D01*
X112363Y226163D01*
X110875Y229756D01*
X110875Y233644D01*
X111806Y235891D01*
X111810Y235904D01*
X111816Y235915D01*
X111868Y236095D01*
X111922Y236276D01*
X111924Y236289D01*
X111927Y236302D01*
X111943Y236490D01*
X111960Y236677D01*
X111959Y236690D01*
X111960Y236704D01*
X111938Y236890D01*
X111919Y237077D01*
X111915Y237090D01*
X111913Y237103D01*
X111855Y237283D01*
X111799Y237462D01*
X111793Y237473D01*
X111788Y237486D01*
X111696Y237650D01*
X111606Y237815D01*
X111597Y237825D01*
X111590Y237837D01*
X111468Y237979D01*
X111346Y238123D01*
X111336Y238131D01*
X111327Y238142D01*
X111179Y238256D01*
X111032Y238374D01*
X111020Y238380D01*
X111009Y238388D01*
X110841Y238472D01*
X110674Y238558D01*
X110661Y238562D01*
X110649Y238568D01*
X110466Y238617D01*
X110286Y238668D01*
X110273Y238669D01*
X110260Y238672D01*
X109929Y238699D01*
X92650Y238699D01*
X92649Y238700D01*
X92649Y294700D01*
X92650Y294701D01*
X148650Y294701D01*
X148651Y294700D01*
X148651Y238700D01*
X148650Y238699D01*
X131371Y238699D01*
X131357Y238698D01*
X131344Y238699D01*
X131158Y238678D01*
X130970Y238659D01*
X130957Y238655D01*
X130944Y238654D01*
X130766Y238597D01*
X130585Y238541D01*
X130573Y238535D01*
X130561Y238531D01*
X130397Y238439D01*
X130231Y238349D01*
X130221Y238341D01*
X130209Y238334D01*
X130066Y238211D01*
X129922Y238092D01*
X129914Y238081D01*
X129903Y238073D01*
X129787Y237924D01*
X129670Y237778D01*
X129664Y237766D01*
X129655Y237756D01*
X129570Y237586D01*
X129484Y237421D01*
X129481Y237408D01*
X129474Y237396D01*
X129425Y237214D01*
X129373Y237034D01*
X129372Y237020D01*
X129368Y237007D01*
X129355Y236820D01*
X129340Y236632D01*
X129341Y236619D01*
X129341Y236606D01*
X129365Y236418D01*
X129387Y236233D01*
X129391Y236220D01*
X129393Y236207D01*
X129494Y235891D01*
X130425Y233644D01*
X130425Y229756D01*
X128937Y226163D01*
X126187Y223413D01*
X122594Y221925D01*
X118706Y221925D01*
G37*
%LPD*%
%LPC*%
G36*
X41361Y194055D02*
X41361Y194055D01*
X38000Y195447D01*
X35427Y198020D01*
X34035Y201381D01*
X34035Y205019D01*
X35427Y208380D01*
X38000Y210953D01*
X41361Y212345D01*
X44196Y212345D01*
X44214Y212347D01*
X44232Y212345D01*
X44414Y212366D01*
X44597Y212385D01*
X44614Y212390D01*
X44631Y212392D01*
X44806Y212449D01*
X44982Y212503D01*
X44997Y212511D01*
X45014Y212517D01*
X45174Y212607D01*
X45336Y212695D01*
X45349Y212706D01*
X45365Y212715D01*
X45504Y212835D01*
X45645Y212952D01*
X45656Y212966D01*
X45670Y212978D01*
X45782Y213123D01*
X45897Y213266D01*
X45905Y213282D01*
X45916Y213296D01*
X45998Y213461D01*
X46083Y213623D01*
X46088Y213640D01*
X46096Y213656D01*
X46143Y213835D01*
X46194Y214010D01*
X46196Y214028D01*
X46200Y214045D01*
X46227Y214376D01*
X46227Y244799D01*
X46225Y244825D01*
X46227Y244852D01*
X46205Y245026D01*
X46187Y245199D01*
X46180Y245225D01*
X46176Y245252D01*
X46121Y245417D01*
X46069Y245584D01*
X46056Y245608D01*
X46048Y245633D01*
X45961Y245785D01*
X45877Y245938D01*
X45860Y245959D01*
X45847Y245982D01*
X45632Y246235D01*
X41655Y250212D01*
X41655Y257788D01*
X45632Y261765D01*
X45649Y261786D01*
X45670Y261803D01*
X45777Y261941D01*
X45887Y262076D01*
X45900Y262100D01*
X45916Y262121D01*
X45994Y262278D01*
X46076Y262432D01*
X46084Y262458D01*
X46096Y262482D01*
X46141Y262651D01*
X46191Y262818D01*
X46193Y262845D01*
X46200Y262871D01*
X46227Y263201D01*
X46227Y270199D01*
X46225Y270225D01*
X46227Y270252D01*
X46205Y270426D01*
X46187Y270599D01*
X46180Y270625D01*
X46176Y270652D01*
X46121Y270817D01*
X46069Y270984D01*
X46056Y271008D01*
X46048Y271033D01*
X45961Y271185D01*
X45877Y271338D01*
X45860Y271359D01*
X45847Y271382D01*
X45632Y271635D01*
X41655Y275612D01*
X41655Y283188D01*
X45632Y287165D01*
X45649Y287186D01*
X45670Y287203D01*
X45777Y287341D01*
X45887Y287476D01*
X45900Y287500D01*
X45916Y287521D01*
X45994Y287678D01*
X46076Y287832D01*
X46084Y287858D01*
X46096Y287882D01*
X46141Y288051D01*
X46191Y288218D01*
X46193Y288245D01*
X46200Y288271D01*
X46227Y288601D01*
X46227Y295599D01*
X46225Y295625D01*
X46227Y295652D01*
X46205Y295826D01*
X46187Y295999D01*
X46180Y296025D01*
X46176Y296052D01*
X46121Y296217D01*
X46069Y296384D01*
X46056Y296408D01*
X46048Y296433D01*
X45961Y296585D01*
X45877Y296738D01*
X45860Y296759D01*
X45847Y296782D01*
X45632Y297035D01*
X41655Y301012D01*
X41655Y308588D01*
X47012Y313945D01*
X54588Y313945D01*
X59945Y308588D01*
X59945Y301012D01*
X55968Y297035D01*
X55951Y297014D01*
X55930Y296997D01*
X55823Y296859D01*
X55713Y296724D01*
X55700Y296700D01*
X55684Y296679D01*
X55606Y296522D01*
X55524Y296368D01*
X55516Y296342D01*
X55504Y296318D01*
X55459Y296149D01*
X55409Y295982D01*
X55407Y295955D01*
X55400Y295929D01*
X55373Y295599D01*
X55373Y288601D01*
X55375Y288575D01*
X55373Y288548D01*
X55395Y288374D01*
X55413Y288201D01*
X55420Y288175D01*
X55424Y288148D01*
X55479Y287983D01*
X55531Y287816D01*
X55544Y287792D01*
X55552Y287767D01*
X55639Y287615D01*
X55723Y287462D01*
X55740Y287441D01*
X55753Y287418D01*
X55968Y287165D01*
X59945Y283188D01*
X59945Y275612D01*
X55968Y271635D01*
X55951Y271614D01*
X55930Y271597D01*
X55823Y271459D01*
X55713Y271324D01*
X55700Y271300D01*
X55684Y271279D01*
X55606Y271122D01*
X55524Y270968D01*
X55516Y270942D01*
X55504Y270918D01*
X55459Y270749D01*
X55409Y270582D01*
X55407Y270555D01*
X55400Y270529D01*
X55373Y270199D01*
X55373Y263201D01*
X55375Y263175D01*
X55373Y263148D01*
X55395Y262974D01*
X55413Y262801D01*
X55420Y262775D01*
X55424Y262748D01*
X55479Y262583D01*
X55531Y262416D01*
X55544Y262392D01*
X55552Y262367D01*
X55639Y262215D01*
X55723Y262062D01*
X55740Y262041D01*
X55753Y262018D01*
X55968Y261765D01*
X59945Y257788D01*
X59945Y250212D01*
X55968Y246235D01*
X55951Y246214D01*
X55930Y246197D01*
X55823Y246059D01*
X55713Y245924D01*
X55700Y245900D01*
X55684Y245879D01*
X55606Y245722D01*
X55524Y245568D01*
X55516Y245542D01*
X55504Y245518D01*
X55459Y245349D01*
X55409Y245182D01*
X55407Y245155D01*
X55400Y245129D01*
X55373Y244799D01*
X55373Y214376D01*
X55375Y214358D01*
X55373Y214340D01*
X55394Y214158D01*
X55413Y213975D01*
X55418Y213958D01*
X55420Y213941D01*
X55477Y213766D01*
X55531Y213590D01*
X55539Y213575D01*
X55545Y213558D01*
X55635Y213398D01*
X55723Y213236D01*
X55734Y213223D01*
X55743Y213207D01*
X55863Y213068D01*
X55980Y212927D01*
X55994Y212916D01*
X56006Y212902D01*
X56151Y212790D01*
X56294Y212675D01*
X56310Y212667D01*
X56324Y212656D01*
X56489Y212574D01*
X56651Y212489D01*
X56668Y212484D01*
X56684Y212476D01*
X56863Y212429D01*
X57038Y212378D01*
X57056Y212376D01*
X57073Y212372D01*
X57404Y212345D01*
X60239Y212345D01*
X63600Y210953D01*
X66173Y208380D01*
X67565Y205019D01*
X67565Y201381D01*
X66173Y198020D01*
X63600Y195447D01*
X60239Y194055D01*
X41361Y194055D01*
G37*
%LPD*%
%LPC*%
G36*
X466811Y194055D02*
X466811Y194055D01*
X463450Y195447D01*
X460877Y198020D01*
X459485Y201381D01*
X459485Y205019D01*
X460877Y208380D01*
X463450Y210953D01*
X466811Y212345D01*
X469646Y212345D01*
X469664Y212347D01*
X469682Y212345D01*
X469864Y212366D01*
X470047Y212385D01*
X470064Y212390D01*
X470081Y212392D01*
X470256Y212449D01*
X470432Y212503D01*
X470447Y212511D01*
X470464Y212517D01*
X470624Y212607D01*
X470786Y212695D01*
X470799Y212706D01*
X470815Y212715D01*
X470954Y212835D01*
X471095Y212952D01*
X471106Y212966D01*
X471120Y212978D01*
X471232Y213123D01*
X471347Y213266D01*
X471355Y213282D01*
X471366Y213296D01*
X471448Y213461D01*
X471533Y213623D01*
X471538Y213640D01*
X471546Y213656D01*
X471593Y213835D01*
X471644Y214010D01*
X471646Y214028D01*
X471650Y214045D01*
X471677Y214376D01*
X471677Y244799D01*
X471675Y244825D01*
X471677Y244852D01*
X471655Y245026D01*
X471637Y245199D01*
X471630Y245225D01*
X471626Y245252D01*
X471571Y245417D01*
X471519Y245584D01*
X471506Y245608D01*
X471498Y245633D01*
X471411Y245785D01*
X471327Y245938D01*
X471310Y245959D01*
X471297Y245982D01*
X471082Y246235D01*
X467105Y250212D01*
X467105Y257788D01*
X471082Y261765D01*
X471099Y261786D01*
X471120Y261803D01*
X471227Y261941D01*
X471337Y262076D01*
X471350Y262100D01*
X471366Y262121D01*
X471444Y262278D01*
X471526Y262432D01*
X471534Y262458D01*
X471546Y262482D01*
X471591Y262651D01*
X471641Y262818D01*
X471643Y262845D01*
X471650Y262871D01*
X471677Y263201D01*
X471677Y270199D01*
X471675Y270225D01*
X471677Y270252D01*
X471655Y270426D01*
X471637Y270599D01*
X471630Y270625D01*
X471626Y270652D01*
X471571Y270817D01*
X471519Y270984D01*
X471506Y271008D01*
X471498Y271033D01*
X471411Y271185D01*
X471327Y271338D01*
X471310Y271359D01*
X471297Y271382D01*
X471082Y271635D01*
X467105Y275612D01*
X467105Y283188D01*
X471082Y287165D01*
X471099Y287186D01*
X471120Y287203D01*
X471227Y287341D01*
X471337Y287476D01*
X471350Y287500D01*
X471366Y287521D01*
X471444Y287678D01*
X471526Y287832D01*
X471534Y287858D01*
X471546Y287882D01*
X471591Y288051D01*
X471641Y288218D01*
X471643Y288245D01*
X471650Y288271D01*
X471677Y288601D01*
X471677Y295599D01*
X471675Y295625D01*
X471677Y295652D01*
X471655Y295826D01*
X471637Y295999D01*
X471630Y296025D01*
X471626Y296052D01*
X471571Y296217D01*
X471519Y296384D01*
X471506Y296408D01*
X471498Y296433D01*
X471411Y296585D01*
X471327Y296738D01*
X471310Y296759D01*
X471297Y296782D01*
X471082Y297035D01*
X467105Y301012D01*
X467105Y308588D01*
X472462Y313945D01*
X480038Y313945D01*
X485395Y308588D01*
X485395Y301012D01*
X481418Y297035D01*
X481401Y297014D01*
X481380Y296997D01*
X481273Y296859D01*
X481163Y296724D01*
X481150Y296700D01*
X481134Y296679D01*
X481056Y296522D01*
X480974Y296368D01*
X480966Y296342D01*
X480954Y296318D01*
X480909Y296149D01*
X480859Y295982D01*
X480857Y295955D01*
X480850Y295929D01*
X480823Y295599D01*
X480823Y288601D01*
X480825Y288575D01*
X480823Y288548D01*
X480845Y288374D01*
X480863Y288201D01*
X480870Y288175D01*
X480874Y288148D01*
X480929Y287983D01*
X480981Y287816D01*
X480994Y287792D01*
X481002Y287767D01*
X481089Y287615D01*
X481173Y287462D01*
X481190Y287441D01*
X481203Y287418D01*
X481418Y287165D01*
X485395Y283188D01*
X485395Y275612D01*
X481418Y271635D01*
X481401Y271614D01*
X481380Y271597D01*
X481273Y271459D01*
X481163Y271324D01*
X481150Y271300D01*
X481134Y271279D01*
X481056Y271122D01*
X480974Y270968D01*
X480966Y270942D01*
X480954Y270918D01*
X480909Y270749D01*
X480859Y270582D01*
X480857Y270555D01*
X480850Y270529D01*
X480823Y270199D01*
X480823Y263201D01*
X480825Y263175D01*
X480823Y263148D01*
X480845Y262974D01*
X480863Y262801D01*
X480870Y262775D01*
X480874Y262748D01*
X480929Y262583D01*
X480981Y262416D01*
X480994Y262392D01*
X481002Y262367D01*
X481089Y262215D01*
X481173Y262062D01*
X481190Y262041D01*
X481203Y262018D01*
X481418Y261765D01*
X485395Y257788D01*
X485395Y250212D01*
X481418Y246235D01*
X481401Y246214D01*
X481380Y246197D01*
X481273Y246059D01*
X481163Y245924D01*
X481150Y245900D01*
X481134Y245879D01*
X481056Y245722D01*
X480974Y245568D01*
X480966Y245542D01*
X480954Y245518D01*
X480909Y245349D01*
X480859Y245182D01*
X480857Y245155D01*
X480850Y245129D01*
X480823Y244799D01*
X480823Y214376D01*
X480825Y214358D01*
X480823Y214340D01*
X480844Y214158D01*
X480863Y213975D01*
X480868Y213958D01*
X480870Y213941D01*
X480927Y213766D01*
X480981Y213590D01*
X480989Y213575D01*
X480995Y213558D01*
X481085Y213398D01*
X481173Y213236D01*
X481184Y213223D01*
X481193Y213207D01*
X481313Y213068D01*
X481430Y212927D01*
X481444Y212916D01*
X481456Y212902D01*
X481601Y212790D01*
X481744Y212675D01*
X481760Y212667D01*
X481774Y212656D01*
X481939Y212574D01*
X482101Y212489D01*
X482118Y212484D01*
X482134Y212476D01*
X482313Y212429D01*
X482488Y212378D01*
X482506Y212376D01*
X482523Y212372D01*
X482854Y212345D01*
X485689Y212345D01*
X489050Y210953D01*
X491623Y208380D01*
X493015Y205019D01*
X493015Y201381D01*
X491623Y198020D01*
X489050Y195447D01*
X485689Y194055D01*
X466811Y194055D01*
G37*
%LPD*%
%LPC*%
G36*
X428433Y36321D02*
X428433Y36321D01*
X423671Y41083D01*
X423671Y47817D01*
X428433Y52579D01*
X435167Y52579D01*
X439929Y47817D01*
X439929Y41083D01*
X435167Y36321D01*
X428433Y36321D01*
G37*
%LPD*%
%LPC*%
G36*
X91883Y36321D02*
X91883Y36321D01*
X87121Y41083D01*
X87121Y47817D01*
X91883Y52579D01*
X98617Y52579D01*
X103379Y47817D01*
X103379Y41083D01*
X98617Y36321D01*
X91883Y36321D01*
G37*
%LPD*%
%LPC*%
G36*
X53339Y180339D02*
X53339Y180339D01*
X53339Y187961D01*
X59220Y187961D01*
X60799Y187711D01*
X62320Y187216D01*
X63745Y186490D01*
X65039Y185550D01*
X66170Y184419D01*
X67110Y183125D01*
X67836Y181700D01*
X68279Y180339D01*
X53339Y180339D01*
G37*
%LPD*%
%LPC*%
G36*
X458771Y180339D02*
X458771Y180339D01*
X459214Y181700D01*
X459940Y183125D01*
X460880Y184419D01*
X462011Y185550D01*
X463305Y186490D01*
X464730Y187216D01*
X466251Y187711D01*
X467830Y187961D01*
X473711Y187961D01*
X473711Y180339D01*
X458771Y180339D01*
G37*
%LPD*%
%LPC*%
G36*
X53339Y167639D02*
X53339Y167639D01*
X53339Y175261D01*
X68279Y175261D01*
X67836Y173900D01*
X67110Y172475D01*
X66170Y171181D01*
X65039Y170050D01*
X63745Y169110D01*
X62320Y168384D01*
X60799Y167889D01*
X59220Y167639D01*
X53339Y167639D01*
G37*
%LPD*%
%LPC*%
G36*
X467830Y167639D02*
X467830Y167639D01*
X466251Y167889D01*
X464730Y168384D01*
X463305Y169110D01*
X462011Y170050D01*
X460880Y171181D01*
X459940Y172475D01*
X459214Y173900D01*
X458771Y175261D01*
X473711Y175261D01*
X473711Y167639D01*
X467830Y167639D01*
G37*
%LPD*%
%LPC*%
G36*
X123399Y204449D02*
X123399Y204449D01*
X123399Y212153D01*
X124792Y211700D01*
X126306Y210929D01*
X127680Y209931D01*
X128881Y208730D01*
X129879Y207356D01*
X130650Y205842D01*
X131103Y204449D01*
X123399Y204449D01*
G37*
%LPD*%
%LPC*%
G36*
X218649Y204449D02*
X218649Y204449D01*
X218649Y212153D01*
X220042Y211700D01*
X221556Y210929D01*
X222930Y209931D01*
X224131Y208730D01*
X225129Y207356D01*
X225900Y205842D01*
X226353Y204449D01*
X218649Y204449D01*
G37*
%LPD*%
%LPC*%
G36*
X313899Y204449D02*
X313899Y204449D01*
X313899Y212153D01*
X315292Y211700D01*
X316806Y210929D01*
X318180Y209931D01*
X319381Y208730D01*
X320379Y207356D01*
X321150Y205842D01*
X321603Y204449D01*
X313899Y204449D01*
G37*
%LPD*%
%LPC*%
G36*
X409149Y204449D02*
X409149Y204449D01*
X409149Y212153D01*
X410542Y211700D01*
X412056Y210929D01*
X413430Y209931D01*
X414631Y208730D01*
X415629Y207356D01*
X416400Y205842D01*
X416853Y204449D01*
X409149Y204449D01*
G37*
%LPD*%
%LPC*%
G36*
X409149Y198951D02*
X409149Y198951D01*
X416853Y198951D01*
X416400Y197558D01*
X415629Y196044D01*
X414631Y194670D01*
X413430Y193469D01*
X412056Y192471D01*
X410542Y191700D01*
X409149Y191247D01*
X409149Y198951D01*
G37*
%LPD*%
%LPC*%
G36*
X123399Y198951D02*
X123399Y198951D01*
X131103Y198951D01*
X130650Y197558D01*
X129879Y196044D01*
X128881Y194670D01*
X127680Y193469D01*
X126306Y192471D01*
X124792Y191700D01*
X123399Y191247D01*
X123399Y198951D01*
G37*
%LPD*%
%LPC*%
G36*
X300697Y204449D02*
X300697Y204449D01*
X301150Y205842D01*
X301921Y207356D01*
X302919Y208730D01*
X304120Y209931D01*
X305494Y210929D01*
X307008Y211700D01*
X308401Y212153D01*
X308401Y204449D01*
X300697Y204449D01*
G37*
%LPD*%
%LPC*%
G36*
X395947Y204449D02*
X395947Y204449D01*
X396400Y205842D01*
X397171Y207356D01*
X398169Y208730D01*
X399370Y209931D01*
X400744Y210929D01*
X402258Y211700D01*
X403651Y212153D01*
X403651Y204449D01*
X395947Y204449D01*
G37*
%LPD*%
%LPC*%
G36*
X110197Y204449D02*
X110197Y204449D01*
X110650Y205842D01*
X111421Y207356D01*
X112419Y208730D01*
X113620Y209931D01*
X114994Y210929D01*
X116508Y211700D01*
X117901Y212153D01*
X117901Y204449D01*
X110197Y204449D01*
G37*
%LPD*%
%LPC*%
G36*
X205447Y204449D02*
X205447Y204449D01*
X205900Y205842D01*
X206671Y207356D01*
X207669Y208730D01*
X208870Y209931D01*
X210244Y210929D01*
X211758Y211700D01*
X213151Y212153D01*
X213151Y204449D01*
X205447Y204449D01*
G37*
%LPD*%
%LPC*%
G36*
X116508Y191700D02*
X116508Y191700D01*
X114994Y192471D01*
X113620Y193469D01*
X112419Y194670D01*
X111421Y196044D01*
X110650Y197558D01*
X110197Y198951D01*
X117901Y198951D01*
X117901Y191247D01*
X116508Y191700D01*
G37*
%LPD*%
%LPC*%
G36*
X402258Y191700D02*
X402258Y191700D01*
X400744Y192471D01*
X399370Y193469D01*
X398169Y194670D01*
X397171Y196044D01*
X396400Y197558D01*
X395947Y198951D01*
X403651Y198951D01*
X403651Y191247D01*
X402258Y191700D01*
G37*
%LPD*%
%LPC*%
G36*
X294385Y34035D02*
X294385Y34035D01*
X294385Y41403D01*
X296098Y41403D01*
X301753Y35748D01*
X301753Y34035D01*
X294385Y34035D01*
G37*
%LPD*%
%LPC*%
G36*
X268985Y34035D02*
X268985Y34035D01*
X268985Y41403D01*
X270698Y41403D01*
X276353Y35748D01*
X276353Y34035D01*
X268985Y34035D01*
G37*
%LPD*%
%LPC*%
G36*
X243585Y34035D02*
X243585Y34035D01*
X243585Y41403D01*
X245298Y41403D01*
X250953Y35748D01*
X250953Y34035D01*
X243585Y34035D01*
G37*
%LPD*%
%LPC*%
G36*
X294385Y59435D02*
X294385Y59435D01*
X294385Y66803D01*
X296098Y66803D01*
X301753Y61148D01*
X301753Y59435D01*
X294385Y59435D01*
G37*
%LPD*%
%LPC*%
G36*
X268985Y59435D02*
X268985Y59435D01*
X268985Y66803D01*
X270698Y66803D01*
X276353Y61148D01*
X276353Y59435D01*
X268985Y59435D01*
G37*
%LPD*%
%LPC*%
G36*
X243585Y59435D02*
X243585Y59435D01*
X243585Y66803D01*
X245298Y66803D01*
X250953Y61148D01*
X250953Y59435D01*
X243585Y59435D01*
G37*
%LPD*%
%LPC*%
G36*
X231647Y59435D02*
X231647Y59435D01*
X231647Y61148D01*
X237302Y66803D01*
X239015Y66803D01*
X239015Y59435D01*
X231647Y59435D01*
G37*
%LPD*%
%LPC*%
G36*
X243585Y47497D02*
X243585Y47497D01*
X243585Y54865D01*
X250953Y54865D01*
X250953Y53152D01*
X245298Y47497D01*
X243585Y47497D01*
G37*
%LPD*%
%LPC*%
G36*
X257047Y59435D02*
X257047Y59435D01*
X257047Y61148D01*
X262702Y66803D01*
X264415Y66803D01*
X264415Y59435D01*
X257047Y59435D01*
G37*
%LPD*%
%LPC*%
G36*
X282447Y59435D02*
X282447Y59435D01*
X282447Y61148D01*
X288102Y66803D01*
X289815Y66803D01*
X289815Y59435D01*
X282447Y59435D01*
G37*
%LPD*%
%LPC*%
G36*
X282447Y34035D02*
X282447Y34035D01*
X282447Y35748D01*
X288102Y41403D01*
X289815Y41403D01*
X289815Y34035D01*
X282447Y34035D01*
G37*
%LPD*%
%LPC*%
G36*
X268985Y22097D02*
X268985Y22097D01*
X268985Y29465D01*
X276353Y29465D01*
X276353Y27752D01*
X270698Y22097D01*
X268985Y22097D01*
G37*
%LPD*%
%LPC*%
G36*
X294385Y47497D02*
X294385Y47497D01*
X294385Y54865D01*
X301753Y54865D01*
X301753Y53152D01*
X296098Y47497D01*
X294385Y47497D01*
G37*
%LPD*%
%LPC*%
G36*
X257047Y34035D02*
X257047Y34035D01*
X257047Y35748D01*
X262702Y41403D01*
X264415Y41403D01*
X264415Y34035D01*
X257047Y34035D01*
G37*
%LPD*%
%LPC*%
G36*
X268985Y47497D02*
X268985Y47497D01*
X268985Y54865D01*
X276353Y54865D01*
X276353Y53152D01*
X270698Y47497D01*
X268985Y47497D01*
G37*
%LPD*%
%LPC*%
G36*
X294385Y22097D02*
X294385Y22097D01*
X294385Y29465D01*
X301753Y29465D01*
X301753Y27752D01*
X296098Y22097D01*
X294385Y22097D01*
G37*
%LPD*%
%LPC*%
G36*
X231647Y34035D02*
X231647Y34035D01*
X231647Y35748D01*
X237302Y41403D01*
X239015Y41403D01*
X239015Y34035D01*
X231647Y34035D01*
G37*
%LPD*%
%LPC*%
G36*
X243585Y22097D02*
X243585Y22097D01*
X243585Y29465D01*
X250953Y29465D01*
X250953Y27752D01*
X245298Y22097D01*
X243585Y22097D01*
G37*
%LPD*%
%LPC*%
G36*
X237302Y47497D02*
X237302Y47497D01*
X231647Y53152D01*
X231647Y54865D01*
X239015Y54865D01*
X239015Y47497D01*
X237302Y47497D01*
G37*
%LPD*%
%LPC*%
G36*
X288102Y22097D02*
X288102Y22097D01*
X282447Y27752D01*
X282447Y29465D01*
X289815Y29465D01*
X289815Y22097D01*
X288102Y22097D01*
G37*
%LPD*%
%LPC*%
G36*
X262702Y47497D02*
X262702Y47497D01*
X257047Y53152D01*
X257047Y54865D01*
X264415Y54865D01*
X264415Y47497D01*
X262702Y47497D01*
G37*
%LPD*%
%LPC*%
G36*
X262702Y22097D02*
X262702Y22097D01*
X257047Y27752D01*
X257047Y29465D01*
X264415Y29465D01*
X264415Y22097D01*
X262702Y22097D01*
G37*
%LPD*%
%LPC*%
G36*
X288102Y47497D02*
X288102Y47497D01*
X282447Y53152D01*
X282447Y54865D01*
X289815Y54865D01*
X289815Y47497D01*
X288102Y47497D01*
G37*
%LPD*%
%LPC*%
G36*
X237302Y22097D02*
X237302Y22097D01*
X231647Y27752D01*
X231647Y29465D01*
X239015Y29465D01*
X239015Y22097D01*
X237302Y22097D01*
G37*
%LPD*%
%LPC*%
G36*
X395731Y97281D02*
X395731Y97281D01*
X395731Y104395D01*
X397488Y104395D01*
X402845Y99038D01*
X402845Y97281D01*
X395731Y97281D01*
G37*
%LPD*%
%LPC*%
G36*
X97281Y71881D02*
X97281Y71881D01*
X97281Y78995D01*
X99038Y78995D01*
X104395Y73638D01*
X104395Y71881D01*
X97281Y71881D01*
G37*
%LPD*%
%LPC*%
G36*
X384555Y97281D02*
X384555Y97281D01*
X384555Y99038D01*
X389912Y104395D01*
X391669Y104395D01*
X391669Y97281D01*
X384555Y97281D01*
G37*
%LPD*%
%LPC*%
G36*
X395731Y86105D02*
X395731Y86105D01*
X395731Y93219D01*
X402845Y93219D01*
X402845Y91462D01*
X397488Y86105D01*
X395731Y86105D01*
G37*
%LPD*%
%LPC*%
G36*
X86105Y71881D02*
X86105Y71881D01*
X86105Y73638D01*
X91462Y78995D01*
X93219Y78995D01*
X93219Y71881D01*
X86105Y71881D01*
G37*
%LPD*%
%LPC*%
G36*
X97281Y60705D02*
X97281Y60705D01*
X97281Y67819D01*
X104395Y67819D01*
X104395Y66062D01*
X99038Y60705D01*
X97281Y60705D01*
G37*
%LPD*%
%LPC*%
G36*
X389912Y86105D02*
X389912Y86105D01*
X384555Y91462D01*
X384555Y93219D01*
X391669Y93219D01*
X391669Y86105D01*
X389912Y86105D01*
G37*
%LPD*%
%LPC*%
G36*
X91462Y60705D02*
X91462Y60705D01*
X86105Y66062D01*
X86105Y67819D01*
X93219Y67819D01*
X93219Y60705D01*
X91462Y60705D01*
G37*
%LPD*%
D10*
X431800Y69850D03*
X431800Y44450D03*
X95250Y69850D03*
X95250Y44450D03*
D11*
X215900Y31750D03*
X215900Y57150D03*
X241300Y31750D03*
X241300Y57150D03*
X266700Y31750D03*
X266700Y57150D03*
X292100Y31750D03*
X292100Y57150D03*
X317500Y31750D03*
X317500Y57150D03*
D10*
X393700Y95250D03*
X393700Y19050D03*
D12*
X139700Y19050D03*
X139700Y95250D03*
D13*
X354330Y120650D02*
X369570Y120650D01*
X369570Y146050D02*
X354330Y146050D01*
X354330Y171450D02*
X369570Y171450D01*
X369570Y196850D02*
X354330Y196850D01*
X468630Y203200D02*
X483870Y203200D01*
X483870Y177800D02*
X468630Y177800D01*
X58420Y203200D02*
X43180Y203200D01*
X43180Y177800D02*
X58420Y177800D01*
X157480Y120650D02*
X172720Y120650D01*
X172720Y146050D02*
X157480Y146050D01*
X157480Y171450D02*
X172720Y171450D01*
X172720Y196850D02*
X157480Y196850D01*
D14*
X120650Y316700D03*
X120650Y231700D03*
X120650Y201700D03*
X215900Y316700D03*
X215900Y231700D03*
X215900Y201700D03*
X311150Y316700D03*
X311150Y231700D03*
X311150Y201700D03*
X406400Y316700D03*
X406400Y231700D03*
X406400Y201700D03*
D13*
X254000Y166370D02*
X254000Y151130D01*
X279400Y151130D02*
X279400Y166370D01*
D15*
X476250Y304800D03*
X501650Y304800D03*
X476250Y279400D03*
X501650Y279400D03*
X476250Y254000D03*
X501650Y254000D03*
X25400Y304800D03*
X50800Y304800D03*
X25400Y279400D03*
X50800Y279400D03*
X25400Y254000D03*
X50800Y254000D03*
D16*
X317500Y44450D02*
X317500Y31750D01*
X317500Y44450D02*
X317500Y57150D01*
X387350Y69850D02*
X431800Y69850D01*
X387350Y69850D02*
X361950Y44450D01*
X317500Y44450D01*
X431800Y69850D02*
X431800Y88900D01*
X501650Y158750D01*
X501650Y254000D01*
X501650Y279400D01*
X501650Y304800D01*
X95250Y95250D02*
X25400Y165100D01*
X95250Y95250D02*
X139700Y95250D01*
X190500Y44450D01*
X215900Y44450D01*
X215900Y57150D01*
X215900Y44450D02*
X215900Y31750D01*
X25400Y165100D02*
X25400Y254000D01*
X25400Y279400D02*
X25400Y304800D01*
X25400Y279400D02*
X25400Y254000D01*
X476250Y254000D02*
X476250Y203200D01*
X476250Y279400D02*
X476250Y304800D01*
X476250Y279400D02*
X476250Y254000D01*
X50800Y279400D02*
X50800Y304800D01*
X50800Y279400D02*
X50800Y254000D01*
X50800Y203200D01*
X336550Y196850D02*
X361950Y196850D01*
X336550Y196850D02*
X323850Y184150D01*
X304800Y184150D02*
X292100Y196850D01*
X241300Y196850D01*
X228600Y184150D01*
X203200Y184150D01*
X190500Y196850D01*
X165100Y196850D01*
X304800Y184150D02*
X323850Y184150D01*
X304800Y146050D02*
X361950Y146050D01*
X304800Y146050D02*
X292100Y133350D01*
X247650Y133350D01*
X234950Y146050D01*
X165100Y146050D01*
D17*
X304800Y146050D03*
D16*
X361950Y120650D02*
X165100Y120650D01*
X165100Y171450D02*
X190500Y171450D01*
X234950Y171450D01*
X247650Y184150D02*
X285750Y184150D01*
X298450Y171450D02*
X361950Y171450D01*
X247650Y184150D02*
X234950Y171450D01*
X285750Y184150D02*
X298450Y171450D01*
D17*
X190500Y171450D03*
M02*
