G04 EAGLE Gerber RS-274X export*
G75*
%MOMM*%
%FSLAX34Y34*%
%LPD*%
%INSoldermask Bottom*%
%IPPOS*%
%AMOC8*
5,1,8,0,0,1.08239X$1,22.5*%
G01*
%ADD10P,1.649562X8X292.500000*%
%ADD11P,1.759533X8X22.500000*%
%ADD12P,1.649562X8X112.500000*%
%ADD13C,1.727200*%
%ADD14C,1.853200*%
%ADD15P,1.869504X8X292.500000*%
%ADD16C,0.959600*%


D10*
X431800Y69850D03*
X431800Y44450D03*
X95250Y69850D03*
X95250Y44450D03*
D11*
X215900Y31750D03*
X215900Y57150D03*
X241300Y31750D03*
X241300Y57150D03*
X266700Y31750D03*
X266700Y57150D03*
X292100Y31750D03*
X292100Y57150D03*
X317500Y31750D03*
X317500Y57150D03*
D10*
X393700Y95250D03*
X393700Y19050D03*
D12*
X139700Y19050D03*
X139700Y95250D03*
D13*
X354330Y120650D02*
X369570Y120650D01*
X369570Y146050D02*
X354330Y146050D01*
X354330Y171450D02*
X369570Y171450D01*
X369570Y196850D02*
X354330Y196850D01*
X468630Y203200D02*
X483870Y203200D01*
X483870Y177800D02*
X468630Y177800D01*
X58420Y203200D02*
X43180Y203200D01*
X43180Y177800D02*
X58420Y177800D01*
X157480Y120650D02*
X172720Y120650D01*
X172720Y146050D02*
X157480Y146050D01*
X157480Y171450D02*
X172720Y171450D01*
X172720Y196850D02*
X157480Y196850D01*
D14*
X120650Y316700D03*
X120650Y231700D03*
X120650Y201700D03*
X215900Y316700D03*
X215900Y231700D03*
X215900Y201700D03*
X311150Y316700D03*
X311150Y231700D03*
X311150Y201700D03*
X406400Y316700D03*
X406400Y231700D03*
X406400Y201700D03*
D13*
X254000Y166370D02*
X254000Y151130D01*
X279400Y151130D02*
X279400Y166370D01*
D15*
X476250Y304800D03*
X501650Y304800D03*
X476250Y279400D03*
X501650Y279400D03*
X476250Y254000D03*
X501650Y254000D03*
X25400Y304800D03*
X50800Y304800D03*
X25400Y279400D03*
X50800Y279400D03*
X25400Y254000D03*
X50800Y254000D03*
D16*
X304800Y146050D03*
X190500Y171450D03*
M02*
