G04 EAGLE Gerber RS-274X export*
G75*
%MOMM*%
%FSLAX34Y34*%
%LPD*%
%INBottom Copper*%
%IPPOS*%
%AMOC8*
5,1,8,0,0,1.08239X$1,22.5*%
G01*
%ADD10P,1.429621X8X292.500000*%
%ADD11P,1.539592X8X22.500000*%
%ADD12P,1.429621X8X112.500000*%
%ADD13C,1.524000*%
%ADD14C,1.650000*%
%ADD15P,1.649562X8X292.500000*%
%ADD16C,0.609600*%
%ADD17C,0.756400*%

G36*
X144898Y10162D02*
X144898Y10162D01*
X144907Y10161D01*
X145099Y10182D01*
X145290Y10201D01*
X145299Y10203D01*
X145308Y10204D01*
X145490Y10262D01*
X145675Y10319D01*
X145683Y10323D01*
X145692Y10326D01*
X145860Y10419D01*
X146029Y10511D01*
X146036Y10516D01*
X146044Y10521D01*
X146191Y10645D01*
X146338Y10768D01*
X146344Y10775D01*
X146351Y10781D01*
X146470Y10932D01*
X146591Y11082D01*
X146595Y11090D01*
X146600Y11097D01*
X146688Y11270D01*
X146776Y11439D01*
X146779Y11448D01*
X146783Y11456D01*
X146835Y11642D01*
X146888Y11826D01*
X146888Y11835D01*
X146891Y11844D01*
X146905Y12037D01*
X146921Y12228D01*
X146920Y12236D01*
X146920Y12245D01*
X146896Y12438D01*
X146874Y12627D01*
X146871Y12636D01*
X146870Y12645D01*
X146808Y12828D01*
X146749Y13010D01*
X146744Y13018D01*
X146742Y13026D01*
X146646Y13192D01*
X146551Y13361D01*
X146545Y13368D01*
X146541Y13375D01*
X146326Y13628D01*
X144271Y15683D01*
X144271Y19871D01*
X144269Y19897D01*
X144271Y19924D01*
X144249Y20098D01*
X144231Y20271D01*
X144224Y20297D01*
X144220Y20323D01*
X144165Y20489D01*
X144113Y20656D01*
X144100Y20680D01*
X144092Y20705D01*
X144005Y20857D01*
X143921Y21010D01*
X143904Y21031D01*
X143891Y21054D01*
X143676Y21307D01*
X125701Y39282D01*
X125680Y39299D01*
X125663Y39320D01*
X125525Y39427D01*
X125389Y39537D01*
X125366Y39550D01*
X125345Y39566D01*
X125188Y39644D01*
X125034Y39726D01*
X125008Y39734D01*
X124984Y39746D01*
X124815Y39791D01*
X124648Y39841D01*
X124621Y39843D01*
X124595Y39850D01*
X124265Y39877D01*
X115714Y39877D01*
X115688Y39875D01*
X115661Y39877D01*
X115487Y39855D01*
X115314Y39837D01*
X115288Y39830D01*
X115262Y39826D01*
X115096Y39770D01*
X114929Y39719D01*
X114905Y39706D01*
X114880Y39698D01*
X114728Y39611D01*
X114575Y39527D01*
X114554Y39510D01*
X114531Y39497D01*
X114278Y39282D01*
X111317Y36321D01*
X104583Y36321D01*
X99821Y41083D01*
X99821Y47817D01*
X104583Y52579D01*
X111317Y52579D01*
X114278Y49618D01*
X114299Y49601D01*
X114316Y49580D01*
X114454Y49473D01*
X114590Y49363D01*
X114613Y49350D01*
X114634Y49334D01*
X114791Y49256D01*
X114945Y49174D01*
X114971Y49166D01*
X114995Y49154D01*
X115164Y49109D01*
X115331Y49059D01*
X115358Y49057D01*
X115384Y49050D01*
X115714Y49023D01*
X127910Y49023D01*
X129590Y48327D01*
X150143Y27774D01*
X150164Y27757D01*
X150181Y27736D01*
X150319Y27629D01*
X150455Y27519D01*
X150478Y27506D01*
X150499Y27490D01*
X150656Y27412D01*
X150810Y27330D01*
X150836Y27322D01*
X150860Y27310D01*
X151029Y27265D01*
X151196Y27215D01*
X151223Y27213D01*
X151249Y27206D01*
X151579Y27179D01*
X155767Y27179D01*
X160529Y22417D01*
X160529Y15683D01*
X158474Y13628D01*
X158468Y13621D01*
X158462Y13616D01*
X158341Y13466D01*
X158219Y13317D01*
X158215Y13309D01*
X158209Y13302D01*
X158121Y13132D01*
X158030Y12961D01*
X158028Y12952D01*
X158024Y12945D01*
X157971Y12760D01*
X157916Y12575D01*
X157915Y12566D01*
X157912Y12558D01*
X157897Y12367D01*
X157879Y12174D01*
X157880Y12165D01*
X157879Y12156D01*
X157902Y11967D01*
X157923Y11774D01*
X157925Y11765D01*
X157926Y11757D01*
X157986Y11575D01*
X158044Y11390D01*
X158048Y11382D01*
X158051Y11374D01*
X158146Y11205D01*
X158239Y11038D01*
X158245Y11031D01*
X158249Y11023D01*
X158375Y10877D01*
X158499Y10731D01*
X158506Y10725D01*
X158512Y10718D01*
X158664Y10601D01*
X158815Y10481D01*
X158823Y10477D01*
X158830Y10472D01*
X159002Y10386D01*
X159174Y10299D01*
X159183Y10296D01*
X159191Y10292D01*
X159377Y10242D01*
X159562Y10191D01*
X159571Y10190D01*
X159580Y10188D01*
X159910Y10161D01*
X398890Y10161D01*
X398898Y10162D01*
X398907Y10161D01*
X399099Y10182D01*
X399290Y10201D01*
X399299Y10203D01*
X399308Y10204D01*
X399490Y10262D01*
X399675Y10319D01*
X399683Y10323D01*
X399692Y10326D01*
X399860Y10419D01*
X400029Y10511D01*
X400036Y10516D01*
X400044Y10521D01*
X400191Y10645D01*
X400338Y10768D01*
X400344Y10775D01*
X400351Y10781D01*
X400470Y10932D01*
X400591Y11082D01*
X400595Y11090D01*
X400600Y11097D01*
X400688Y11270D01*
X400776Y11439D01*
X400779Y11448D01*
X400783Y11456D01*
X400835Y11642D01*
X400888Y11826D01*
X400888Y11835D01*
X400891Y11844D01*
X400905Y12037D01*
X400921Y12228D01*
X400920Y12236D01*
X400920Y12245D01*
X400896Y12438D01*
X400874Y12627D01*
X400871Y12636D01*
X400870Y12645D01*
X400808Y12828D01*
X400749Y13010D01*
X400744Y13018D01*
X400742Y13026D01*
X400646Y13192D01*
X400551Y13361D01*
X400545Y13368D01*
X400541Y13375D01*
X400326Y13628D01*
X398271Y15683D01*
X398271Y22417D01*
X403033Y27179D01*
X407221Y27179D01*
X407247Y27181D01*
X407274Y27179D01*
X407448Y27201D01*
X407621Y27219D01*
X407647Y27226D01*
X407673Y27230D01*
X407839Y27285D01*
X408006Y27337D01*
X408030Y27350D01*
X408055Y27358D01*
X408207Y27445D01*
X408360Y27529D01*
X408381Y27546D01*
X408404Y27559D01*
X408657Y27774D01*
X429210Y48327D01*
X430890Y49023D01*
X443086Y49023D01*
X443112Y49025D01*
X443139Y49023D01*
X443313Y49045D01*
X443486Y49063D01*
X443512Y49070D01*
X443538Y49074D01*
X443704Y49130D01*
X443871Y49181D01*
X443895Y49194D01*
X443920Y49202D01*
X444072Y49289D01*
X444225Y49373D01*
X444246Y49390D01*
X444269Y49403D01*
X444522Y49618D01*
X447483Y52579D01*
X454217Y52579D01*
X458979Y47817D01*
X458979Y41083D01*
X454217Y36321D01*
X447483Y36321D01*
X444522Y39282D01*
X444501Y39299D01*
X444484Y39320D01*
X444346Y39427D01*
X444210Y39537D01*
X444187Y39550D01*
X444166Y39566D01*
X444009Y39644D01*
X443855Y39726D01*
X443829Y39734D01*
X443805Y39746D01*
X443636Y39791D01*
X443469Y39841D01*
X443442Y39843D01*
X443416Y39850D01*
X443086Y39877D01*
X434535Y39877D01*
X434509Y39875D01*
X434482Y39877D01*
X434308Y39855D01*
X434135Y39837D01*
X434109Y39830D01*
X434083Y39826D01*
X433917Y39771D01*
X433750Y39719D01*
X433726Y39706D01*
X433701Y39698D01*
X433549Y39611D01*
X433396Y39527D01*
X433375Y39510D01*
X433352Y39497D01*
X433099Y39282D01*
X415124Y21307D01*
X415107Y21286D01*
X415086Y21269D01*
X414979Y21131D01*
X414869Y20995D01*
X414856Y20972D01*
X414840Y20951D01*
X414762Y20794D01*
X414680Y20640D01*
X414672Y20614D01*
X414660Y20590D01*
X414615Y20421D01*
X414565Y20254D01*
X414563Y20227D01*
X414556Y20201D01*
X414529Y19871D01*
X414529Y15683D01*
X412474Y13628D01*
X412468Y13621D01*
X412462Y13616D01*
X412341Y13466D01*
X412219Y13317D01*
X412215Y13309D01*
X412209Y13302D01*
X412121Y13132D01*
X412030Y12961D01*
X412028Y12952D01*
X412024Y12945D01*
X411971Y12760D01*
X411916Y12575D01*
X411915Y12566D01*
X411912Y12558D01*
X411897Y12367D01*
X411879Y12174D01*
X411880Y12165D01*
X411879Y12156D01*
X411902Y11967D01*
X411923Y11774D01*
X411925Y11765D01*
X411926Y11757D01*
X411986Y11575D01*
X412044Y11390D01*
X412048Y11382D01*
X412051Y11374D01*
X412146Y11205D01*
X412239Y11038D01*
X412245Y11031D01*
X412249Y11023D01*
X412375Y10877D01*
X412499Y10731D01*
X412506Y10725D01*
X412512Y10718D01*
X412664Y10601D01*
X412815Y10481D01*
X412823Y10477D01*
X412830Y10472D01*
X413002Y10386D01*
X413174Y10299D01*
X413183Y10296D01*
X413191Y10292D01*
X413377Y10242D01*
X413562Y10191D01*
X413571Y10190D01*
X413580Y10188D01*
X413910Y10161D01*
X449665Y10161D01*
X449816Y10176D01*
X449967Y10183D01*
X450016Y10196D01*
X450066Y10201D01*
X450211Y10245D01*
X450358Y10282D01*
X450403Y10304D01*
X450450Y10319D01*
X450584Y10391D01*
X450721Y10457D01*
X450761Y10487D01*
X450805Y10511D01*
X450921Y10608D01*
X451042Y10699D01*
X451075Y10736D01*
X451114Y10768D01*
X451209Y10887D01*
X451310Y11000D01*
X451339Y11048D01*
X451366Y11082D01*
X451406Y11158D01*
X451482Y11284D01*
X535725Y179770D01*
X535762Y179866D01*
X535808Y179959D01*
X535833Y180054D01*
X535868Y180146D01*
X535885Y180248D01*
X535912Y180347D01*
X535922Y180466D01*
X535935Y180543D01*
X535933Y180600D01*
X535939Y180678D01*
X535939Y299750D01*
X535937Y299776D01*
X535939Y299803D01*
X535917Y299977D01*
X535899Y300151D01*
X535892Y300176D01*
X535888Y300203D01*
X535833Y300368D01*
X535781Y300535D01*
X535768Y300559D01*
X535760Y300584D01*
X535673Y300736D01*
X535589Y300889D01*
X535572Y300910D01*
X535559Y300933D01*
X535344Y301186D01*
X510736Y325794D01*
X510716Y325811D01*
X510698Y325832D01*
X510560Y325939D01*
X510425Y326049D01*
X510401Y326062D01*
X510380Y326078D01*
X510223Y326156D01*
X510069Y326238D01*
X510044Y326246D01*
X510019Y326258D01*
X509850Y326303D01*
X509683Y326353D01*
X509657Y326355D01*
X509631Y326362D01*
X509300Y326389D01*
X440838Y326389D01*
X440829Y326388D01*
X440820Y326389D01*
X440628Y326368D01*
X440438Y326349D01*
X440429Y326347D01*
X440420Y326346D01*
X440238Y326288D01*
X440053Y326231D01*
X440045Y326227D01*
X440036Y326224D01*
X439868Y326131D01*
X439699Y326039D01*
X439692Y326034D01*
X439684Y326029D01*
X439536Y325904D01*
X439389Y325782D01*
X439384Y325775D01*
X439377Y325769D01*
X439257Y325617D01*
X439137Y325468D01*
X439133Y325460D01*
X439127Y325453D01*
X439040Y325280D01*
X438951Y325111D01*
X438949Y325102D01*
X438945Y325094D01*
X438893Y324909D01*
X438840Y324724D01*
X438839Y324715D01*
X438837Y324706D01*
X438823Y324512D01*
X438807Y324322D01*
X438808Y324314D01*
X438808Y324305D01*
X438832Y324114D01*
X438854Y323923D01*
X438857Y323914D01*
X438858Y323905D01*
X438919Y323724D01*
X438979Y323540D01*
X438983Y323532D01*
X438986Y323524D01*
X439082Y323356D01*
X439177Y323189D01*
X439183Y323182D01*
X439187Y323175D01*
X439402Y322922D01*
X440087Y322237D01*
X441575Y318644D01*
X441575Y314756D01*
X440087Y311163D01*
X437250Y308326D01*
X437235Y308318D01*
X437100Y308201D01*
X436962Y308087D01*
X436947Y308070D01*
X436930Y308055D01*
X436821Y307913D01*
X436708Y307774D01*
X436697Y307755D01*
X436684Y307737D01*
X436604Y307577D01*
X436521Y307418D01*
X436514Y307396D01*
X436504Y307376D01*
X436458Y307203D01*
X436408Y307032D01*
X436406Y307009D01*
X436400Y306987D01*
X436373Y306657D01*
X436373Y267140D01*
X436374Y267131D01*
X436373Y267122D01*
X436394Y266930D01*
X436395Y266912D01*
X436373Y265873D01*
X436375Y265853D01*
X436373Y265829D01*
X436373Y264939D01*
X436015Y264125D01*
X436009Y264106D01*
X435998Y264085D01*
X435657Y263263D01*
X435014Y262647D01*
X435002Y262632D01*
X434983Y262616D01*
X434276Y261909D01*
X434068Y261740D01*
X417949Y246298D01*
X417917Y246261D01*
X417880Y246229D01*
X417787Y246108D01*
X417687Y245992D01*
X417663Y245950D01*
X417634Y245911D01*
X417566Y245774D01*
X417491Y245640D01*
X417476Y245594D01*
X417454Y245551D01*
X417415Y245402D01*
X417368Y245257D01*
X417362Y245209D01*
X417350Y245162D01*
X417330Y244921D01*
X417323Y244857D01*
X417324Y244845D01*
X417323Y244831D01*
X417323Y204888D01*
X417331Y204804D01*
X417330Y204720D01*
X417351Y204604D01*
X417363Y204487D01*
X417387Y204407D01*
X417403Y204324D01*
X417446Y204215D01*
X417481Y204102D01*
X417521Y204028D01*
X417552Y203950D01*
X417617Y203852D01*
X417673Y203748D01*
X417727Y203684D01*
X417773Y203613D01*
X417855Y203529D01*
X417930Y203439D01*
X417996Y203386D01*
X418055Y203326D01*
X418153Y203260D01*
X418244Y203187D01*
X418319Y203148D01*
X418389Y203101D01*
X418497Y203055D01*
X418601Y203001D01*
X418682Y202978D01*
X418760Y202945D01*
X418875Y202922D01*
X418988Y202890D01*
X419072Y202883D01*
X419155Y202866D01*
X419272Y202867D01*
X419390Y202857D01*
X419473Y202867D01*
X419558Y202867D01*
X419673Y202890D01*
X419789Y202904D01*
X419870Y202930D01*
X419952Y202947D01*
X420061Y202992D01*
X420172Y203029D01*
X420246Y203070D01*
X420323Y203103D01*
X420421Y203169D01*
X420523Y203227D01*
X420587Y203282D01*
X420656Y203329D01*
X420739Y203413D01*
X420827Y203490D01*
X420879Y203556D01*
X420938Y203617D01*
X421002Y203715D01*
X421074Y203808D01*
X421112Y203883D01*
X421158Y203954D01*
X421215Y204091D01*
X421254Y204168D01*
X421265Y204209D01*
X421286Y204260D01*
X421800Y205842D01*
X422571Y207356D01*
X423569Y208730D01*
X424770Y209931D01*
X426144Y210929D01*
X427658Y211700D01*
X429051Y212153D01*
X429051Y202418D01*
X429052Y202400D01*
X429051Y202383D01*
X429072Y202200D01*
X429091Y202018D01*
X429096Y202001D01*
X429098Y201983D01*
X429155Y201808D01*
X429186Y201708D01*
X429182Y201701D01*
X429134Y201523D01*
X429084Y201348D01*
X429082Y201330D01*
X429078Y201313D01*
X429051Y200982D01*
X429051Y191247D01*
X427658Y191700D01*
X426144Y192471D01*
X424770Y193469D01*
X423569Y194670D01*
X422571Y196044D01*
X421800Y197558D01*
X421286Y199140D01*
X421252Y199217D01*
X421227Y199298D01*
X421171Y199401D01*
X421124Y199508D01*
X421076Y199578D01*
X421035Y199652D01*
X420960Y199742D01*
X420893Y199838D01*
X420832Y199896D01*
X420778Y199961D01*
X420686Y200034D01*
X420601Y200115D01*
X420530Y200160D01*
X420464Y200213D01*
X420360Y200267D01*
X420260Y200330D01*
X420181Y200360D01*
X420107Y200399D01*
X419994Y200431D01*
X419884Y200473D01*
X419801Y200487D01*
X419720Y200510D01*
X419603Y200520D01*
X419487Y200539D01*
X419402Y200536D01*
X419318Y200543D01*
X419202Y200529D01*
X419084Y200525D01*
X419002Y200506D01*
X418919Y200496D01*
X418807Y200460D01*
X418693Y200433D01*
X418616Y200397D01*
X418536Y200371D01*
X418433Y200313D01*
X418327Y200264D01*
X418259Y200215D01*
X418185Y200173D01*
X418096Y200097D01*
X418001Y200027D01*
X417944Y199965D01*
X417880Y199910D01*
X417809Y199818D01*
X417729Y199731D01*
X417685Y199659D01*
X417634Y199592D01*
X417581Y199487D01*
X417521Y199386D01*
X417492Y199307D01*
X417454Y199232D01*
X417424Y199118D01*
X417384Y199008D01*
X417372Y198924D01*
X417350Y198843D01*
X417338Y198694D01*
X417325Y198609D01*
X417327Y198567D01*
X417323Y198512D01*
X417323Y132440D01*
X416627Y130760D01*
X402640Y116773D01*
X400960Y116077D01*
X397821Y116077D01*
X397795Y116075D01*
X397768Y116077D01*
X397594Y116055D01*
X397421Y116037D01*
X397395Y116030D01*
X397368Y116026D01*
X397203Y115970D01*
X397036Y115919D01*
X397012Y115906D01*
X396987Y115898D01*
X396836Y115811D01*
X396682Y115727D01*
X396661Y115710D01*
X396638Y115697D01*
X396385Y115482D01*
X393800Y112897D01*
X390439Y111505D01*
X371561Y111505D01*
X368200Y112897D01*
X365627Y115470D01*
X364235Y118831D01*
X364235Y122469D01*
X365627Y125830D01*
X368200Y128403D01*
X371561Y129795D01*
X390439Y129795D01*
X393800Y128403D01*
X396132Y126071D01*
X396145Y126060D01*
X396157Y126046D01*
X396301Y125932D01*
X396443Y125816D01*
X396459Y125808D01*
X396473Y125797D01*
X396637Y125713D01*
X396799Y125627D01*
X396816Y125622D01*
X396832Y125614D01*
X397009Y125565D01*
X397185Y125513D01*
X397202Y125511D01*
X397220Y125506D01*
X397403Y125493D01*
X397586Y125476D01*
X397603Y125478D01*
X397621Y125477D01*
X397803Y125500D01*
X397986Y125520D01*
X398003Y125525D01*
X398021Y125527D01*
X398194Y125585D01*
X398370Y125641D01*
X398385Y125650D01*
X398402Y125655D01*
X398562Y125747D01*
X398722Y125836D01*
X398736Y125847D01*
X398751Y125856D01*
X399004Y126071D01*
X407582Y134649D01*
X407599Y134670D01*
X407620Y134687D01*
X407727Y134825D01*
X407837Y134961D01*
X407850Y134984D01*
X407866Y135005D01*
X407944Y135162D01*
X408026Y135316D01*
X408034Y135342D01*
X408046Y135366D01*
X408091Y135535D01*
X408141Y135702D01*
X408143Y135729D01*
X408150Y135755D01*
X408177Y136085D01*
X408177Y246410D01*
X408176Y246419D01*
X408177Y246428D01*
X408156Y246620D01*
X408155Y246638D01*
X408177Y247677D01*
X408175Y247697D01*
X408177Y247721D01*
X408177Y248611D01*
X408535Y249425D01*
X408541Y249444D01*
X408552Y249465D01*
X408893Y250287D01*
X409536Y250903D01*
X409548Y250918D01*
X409567Y250933D01*
X410274Y251641D01*
X410482Y251810D01*
X426601Y267252D01*
X426633Y267289D01*
X426670Y267321D01*
X426763Y267442D01*
X426863Y267558D01*
X426887Y267600D01*
X426916Y267639D01*
X426984Y267776D01*
X427059Y267910D01*
X427074Y267956D01*
X427096Y267999D01*
X427135Y268147D01*
X427182Y268293D01*
X427188Y268341D01*
X427200Y268388D01*
X427220Y268629D01*
X427227Y268693D01*
X427226Y268705D01*
X427227Y268719D01*
X427227Y306657D01*
X427225Y306679D01*
X427227Y306702D01*
X427205Y306879D01*
X427187Y307057D01*
X427181Y307079D01*
X427178Y307101D01*
X427122Y307271D01*
X427069Y307442D01*
X427058Y307462D01*
X427051Y307483D01*
X426963Y307639D01*
X426877Y307796D01*
X426863Y307814D01*
X426852Y307833D01*
X426734Y307968D01*
X426620Y308106D01*
X426602Y308120D01*
X426587Y308137D01*
X426445Y308246D01*
X426370Y308306D01*
X423513Y311163D01*
X422025Y314756D01*
X422025Y318644D01*
X423513Y322237D01*
X424198Y322922D01*
X424204Y322929D01*
X424211Y322934D01*
X424330Y323083D01*
X424453Y323233D01*
X424457Y323241D01*
X424463Y323248D01*
X424551Y323418D01*
X424642Y323589D01*
X424644Y323598D01*
X424649Y323605D01*
X424702Y323790D01*
X424757Y323975D01*
X424757Y323984D01*
X424760Y323992D01*
X424775Y324181D01*
X424793Y324376D01*
X424792Y324385D01*
X424793Y324394D01*
X424771Y324583D01*
X424750Y324776D01*
X424747Y324785D01*
X424746Y324793D01*
X424686Y324976D01*
X424628Y325160D01*
X424624Y325168D01*
X424621Y325176D01*
X424526Y325344D01*
X424433Y325512D01*
X424428Y325519D01*
X424423Y325527D01*
X424297Y325673D01*
X424173Y325819D01*
X424166Y325825D01*
X424160Y325832D01*
X424007Y325950D01*
X423857Y326069D01*
X423849Y326073D01*
X423842Y326078D01*
X423670Y326164D01*
X423498Y326251D01*
X423489Y326254D01*
X423481Y326258D01*
X423296Y326307D01*
X423110Y326359D01*
X423101Y326360D01*
X423093Y326362D01*
X422762Y326389D01*
X339238Y326389D01*
X339229Y326388D01*
X339220Y326389D01*
X339028Y326368D01*
X338838Y326349D01*
X338829Y326347D01*
X338820Y326346D01*
X338638Y326288D01*
X338453Y326231D01*
X338445Y326227D01*
X338436Y326224D01*
X338268Y326131D01*
X338099Y326039D01*
X338092Y326034D01*
X338084Y326029D01*
X337936Y325904D01*
X337789Y325782D01*
X337784Y325775D01*
X337777Y325769D01*
X337657Y325617D01*
X337537Y325468D01*
X337533Y325460D01*
X337527Y325453D01*
X337440Y325280D01*
X337351Y325111D01*
X337349Y325102D01*
X337345Y325094D01*
X337293Y324909D01*
X337240Y324724D01*
X337239Y324715D01*
X337237Y324706D01*
X337223Y324512D01*
X337207Y324322D01*
X337208Y324314D01*
X337208Y324305D01*
X337232Y324114D01*
X337254Y323923D01*
X337257Y323914D01*
X337258Y323905D01*
X337319Y323724D01*
X337379Y323540D01*
X337383Y323532D01*
X337386Y323524D01*
X337482Y323356D01*
X337577Y323189D01*
X337583Y323182D01*
X337587Y323175D01*
X337802Y322922D01*
X338487Y322237D01*
X339975Y318644D01*
X339975Y314756D01*
X338487Y311163D01*
X335650Y308326D01*
X335635Y308318D01*
X335500Y308201D01*
X335362Y308087D01*
X335347Y308070D01*
X335330Y308055D01*
X335221Y307913D01*
X335108Y307774D01*
X335097Y307755D01*
X335084Y307737D01*
X335004Y307577D01*
X334921Y307418D01*
X334914Y307396D01*
X334904Y307376D01*
X334858Y307203D01*
X334808Y307032D01*
X334806Y307009D01*
X334800Y306987D01*
X334773Y306657D01*
X334773Y268698D01*
X334777Y268655D01*
X334775Y268612D01*
X334797Y268455D01*
X334813Y268297D01*
X334825Y268256D01*
X334831Y268213D01*
X334884Y268064D01*
X334931Y267912D01*
X334951Y267874D01*
X334966Y267834D01*
X335047Y267697D01*
X335123Y267558D01*
X335150Y267525D01*
X335172Y267488D01*
X335351Y267284D01*
X335380Y267249D01*
X335385Y267245D01*
X335391Y267238D01*
X357877Y245460D01*
X357889Y245451D01*
X357899Y245440D01*
X358021Y245346D01*
X358796Y244571D01*
X358807Y244562D01*
X358819Y244548D01*
X359462Y243925D01*
X359805Y243098D01*
X359811Y243085D01*
X359817Y243068D01*
X360173Y242248D01*
X360173Y241352D01*
X360174Y241337D01*
X360173Y241319D01*
X360190Y240253D01*
X360173Y240041D01*
X360173Y149282D01*
X360176Y149251D01*
X360174Y149220D01*
X360196Y149050D01*
X360213Y148881D01*
X360222Y148851D01*
X360226Y148820D01*
X360327Y148504D01*
X360536Y148000D01*
X360540Y147992D01*
X360543Y147984D01*
X360635Y147815D01*
X360726Y147645D01*
X360732Y147638D01*
X360736Y147630D01*
X360860Y147483D01*
X360983Y147335D01*
X360990Y147329D01*
X360996Y147322D01*
X361145Y147203D01*
X361295Y147081D01*
X361303Y147077D01*
X361310Y147071D01*
X361480Y146984D01*
X361652Y146894D01*
X361661Y146891D01*
X361669Y146887D01*
X361852Y146835D01*
X362038Y146781D01*
X362047Y146780D01*
X362056Y146778D01*
X362247Y146763D01*
X362440Y146746D01*
X362448Y146747D01*
X362457Y146747D01*
X362647Y146770D01*
X362840Y146791D01*
X362848Y146794D01*
X362857Y146795D01*
X363038Y146855D01*
X363223Y146915D01*
X363231Y146919D01*
X363239Y146922D01*
X363406Y147017D01*
X363574Y147111D01*
X363581Y147117D01*
X363589Y147121D01*
X363734Y147247D01*
X363880Y147373D01*
X363886Y147380D01*
X363893Y147386D01*
X364010Y147538D01*
X364128Y147690D01*
X364132Y147698D01*
X364138Y147705D01*
X364290Y148000D01*
X365627Y151230D01*
X368200Y153803D01*
X371561Y155195D01*
X390439Y155195D01*
X393800Y153803D01*
X396373Y151230D01*
X397765Y147869D01*
X397765Y144231D01*
X396373Y140870D01*
X393800Y138297D01*
X390439Y136905D01*
X371561Y136905D01*
X368200Y138297D01*
X365627Y140870D01*
X364290Y144100D01*
X364285Y144108D01*
X364283Y144116D01*
X364190Y144286D01*
X364099Y144455D01*
X364094Y144462D01*
X364089Y144470D01*
X363966Y144617D01*
X363843Y144765D01*
X363836Y144771D01*
X363830Y144778D01*
X363679Y144898D01*
X363530Y145019D01*
X363522Y145023D01*
X363515Y145029D01*
X363342Y145118D01*
X363174Y145206D01*
X363165Y145209D01*
X363157Y145213D01*
X362971Y145265D01*
X362787Y145319D01*
X362778Y145320D01*
X362770Y145322D01*
X362579Y145337D01*
X362386Y145354D01*
X362377Y145353D01*
X362368Y145353D01*
X362177Y145330D01*
X361986Y145309D01*
X361978Y145306D01*
X361969Y145305D01*
X361786Y145244D01*
X361603Y145185D01*
X361595Y145181D01*
X361587Y145178D01*
X361420Y145083D01*
X361251Y144989D01*
X361245Y144983D01*
X361237Y144979D01*
X361093Y144853D01*
X360946Y144727D01*
X360940Y144720D01*
X360933Y144714D01*
X360816Y144562D01*
X360697Y144410D01*
X360693Y144402D01*
X360688Y144395D01*
X360536Y144100D01*
X360099Y143044D01*
X358606Y141551D01*
X356656Y140743D01*
X354544Y140743D01*
X352594Y141551D01*
X351101Y143044D01*
X350293Y144994D01*
X350293Y147106D01*
X350873Y148504D01*
X350882Y148534D01*
X350896Y148562D01*
X350940Y148727D01*
X350989Y148890D01*
X350992Y148921D01*
X351000Y148951D01*
X351027Y149282D01*
X351027Y238502D01*
X351023Y238545D01*
X351025Y238588D01*
X351003Y238745D01*
X350987Y238903D01*
X350975Y238944D01*
X350969Y238987D01*
X350916Y239136D01*
X350869Y239288D01*
X350849Y239326D01*
X350834Y239366D01*
X350753Y239503D01*
X350677Y239642D01*
X350650Y239675D01*
X350628Y239712D01*
X350449Y239916D01*
X350420Y239951D01*
X350415Y239955D01*
X350409Y239962D01*
X327923Y261740D01*
X327911Y261749D01*
X327901Y261760D01*
X327779Y261854D01*
X327004Y262629D01*
X326993Y262638D01*
X326981Y262652D01*
X326338Y263275D01*
X325995Y264102D01*
X325989Y264115D01*
X325983Y264132D01*
X325627Y264952D01*
X325627Y265848D01*
X325626Y265862D01*
X325627Y265881D01*
X325610Y266947D01*
X325627Y267159D01*
X325627Y306657D01*
X325625Y306679D01*
X325627Y306702D01*
X325605Y306879D01*
X325587Y307057D01*
X325581Y307079D01*
X325578Y307101D01*
X325522Y307271D01*
X325469Y307442D01*
X325458Y307462D01*
X325451Y307483D01*
X325363Y307639D01*
X325277Y307796D01*
X325263Y307814D01*
X325252Y307833D01*
X325134Y307968D01*
X325020Y308106D01*
X325002Y308120D01*
X324987Y308137D01*
X324845Y308246D01*
X324770Y308306D01*
X321913Y311163D01*
X320425Y314756D01*
X320425Y318644D01*
X321913Y322237D01*
X322598Y322922D01*
X322604Y322929D01*
X322611Y322934D01*
X322730Y323083D01*
X322853Y323233D01*
X322857Y323241D01*
X322863Y323248D01*
X322951Y323418D01*
X323042Y323589D01*
X323044Y323598D01*
X323049Y323605D01*
X323102Y323790D01*
X323157Y323975D01*
X323157Y323984D01*
X323160Y323992D01*
X323175Y324181D01*
X323193Y324376D01*
X323192Y324385D01*
X323193Y324394D01*
X323171Y324583D01*
X323150Y324776D01*
X323147Y324785D01*
X323146Y324793D01*
X323086Y324976D01*
X323028Y325160D01*
X323024Y325168D01*
X323021Y325176D01*
X322926Y325344D01*
X322833Y325512D01*
X322828Y325519D01*
X322823Y325527D01*
X322697Y325673D01*
X322573Y325819D01*
X322566Y325825D01*
X322560Y325832D01*
X322407Y325950D01*
X322257Y326069D01*
X322249Y326073D01*
X322242Y326078D01*
X322070Y326164D01*
X321898Y326251D01*
X321889Y326254D01*
X321881Y326258D01*
X321696Y326307D01*
X321510Y326359D01*
X321501Y326360D01*
X321493Y326362D01*
X321162Y326389D01*
X237638Y326389D01*
X237629Y326388D01*
X237620Y326389D01*
X237428Y326368D01*
X237238Y326349D01*
X237229Y326347D01*
X237220Y326346D01*
X237038Y326288D01*
X236853Y326231D01*
X236845Y326227D01*
X236836Y326224D01*
X236668Y326131D01*
X236499Y326039D01*
X236492Y326034D01*
X236484Y326029D01*
X236336Y325904D01*
X236189Y325782D01*
X236184Y325775D01*
X236177Y325769D01*
X236057Y325617D01*
X235937Y325468D01*
X235933Y325460D01*
X235927Y325453D01*
X235840Y325280D01*
X235751Y325111D01*
X235749Y325102D01*
X235745Y325094D01*
X235693Y324909D01*
X235640Y324724D01*
X235639Y324715D01*
X235637Y324706D01*
X235623Y324512D01*
X235607Y324322D01*
X235608Y324314D01*
X235608Y324305D01*
X235632Y324114D01*
X235654Y323923D01*
X235657Y323914D01*
X235658Y323905D01*
X235719Y323724D01*
X235779Y323540D01*
X235783Y323532D01*
X235786Y323524D01*
X235882Y323356D01*
X235977Y323189D01*
X235983Y323182D01*
X235987Y323175D01*
X236202Y322922D01*
X236887Y322237D01*
X238375Y318644D01*
X238375Y314756D01*
X236887Y311163D01*
X234050Y308326D01*
X234035Y308318D01*
X233900Y308201D01*
X233762Y308087D01*
X233747Y308070D01*
X233730Y308055D01*
X233621Y307913D01*
X233508Y307774D01*
X233497Y307755D01*
X233484Y307737D01*
X233404Y307577D01*
X233321Y307418D01*
X233314Y307396D01*
X233304Y307376D01*
X233258Y307203D01*
X233208Y307032D01*
X233206Y307009D01*
X233200Y306987D01*
X233173Y306657D01*
X233173Y265790D01*
X232477Y264110D01*
X208368Y240001D01*
X208351Y239980D01*
X208330Y239963D01*
X208223Y239825D01*
X208113Y239689D01*
X208100Y239666D01*
X208084Y239645D01*
X208006Y239488D01*
X207924Y239334D01*
X207916Y239308D01*
X207904Y239284D01*
X207859Y239115D01*
X207809Y238948D01*
X207807Y238921D01*
X207800Y238895D01*
X207773Y238565D01*
X207773Y174682D01*
X207774Y174669D01*
X207773Y174656D01*
X207775Y174639D01*
X207774Y174619D01*
X207796Y174450D01*
X207813Y174281D01*
X207820Y174258D01*
X207820Y174257D01*
X207822Y174251D01*
X207826Y174220D01*
X207927Y173904D01*
X208507Y172506D01*
X208507Y170394D01*
X207699Y168444D01*
X206206Y166951D01*
X204256Y166143D01*
X202144Y166143D01*
X200194Y166951D01*
X198701Y168444D01*
X198264Y169500D01*
X198260Y169508D01*
X198257Y169516D01*
X198165Y169684D01*
X198074Y169855D01*
X198068Y169862D01*
X198064Y169870D01*
X197940Y170017D01*
X197817Y170165D01*
X197810Y170171D01*
X197804Y170178D01*
X197655Y170297D01*
X197505Y170419D01*
X197497Y170423D01*
X197490Y170429D01*
X197320Y170516D01*
X197148Y170606D01*
X197139Y170609D01*
X197131Y170613D01*
X196948Y170665D01*
X196762Y170719D01*
X196753Y170720D01*
X196744Y170722D01*
X196553Y170737D01*
X196360Y170754D01*
X196352Y170753D01*
X196343Y170753D01*
X196153Y170730D01*
X195960Y170709D01*
X195952Y170706D01*
X195943Y170705D01*
X195761Y170645D01*
X195577Y170585D01*
X195569Y170581D01*
X195561Y170578D01*
X195393Y170483D01*
X195226Y170389D01*
X195219Y170383D01*
X195211Y170379D01*
X195065Y170252D01*
X194920Y170127D01*
X194914Y170120D01*
X194907Y170114D01*
X194790Y169962D01*
X194672Y169810D01*
X194668Y169802D01*
X194662Y169795D01*
X194510Y169500D01*
X193173Y166270D01*
X190600Y163697D01*
X187339Y162346D01*
X187338Y162346D01*
X187239Y162305D01*
X168361Y162305D01*
X165000Y163697D01*
X162427Y166270D01*
X161035Y169631D01*
X161035Y173269D01*
X162427Y176630D01*
X165000Y179203D01*
X168361Y180595D01*
X187239Y180595D01*
X190600Y179203D01*
X193173Y176630D01*
X194510Y173400D01*
X194515Y173392D01*
X194517Y173383D01*
X194610Y173215D01*
X194701Y173045D01*
X194706Y173038D01*
X194711Y173030D01*
X194834Y172883D01*
X194957Y172735D01*
X194964Y172729D01*
X194970Y172722D01*
X195121Y172602D01*
X195270Y172481D01*
X195278Y172477D01*
X195285Y172471D01*
X195457Y172383D01*
X195626Y172294D01*
X195635Y172291D01*
X195643Y172287D01*
X195828Y172235D01*
X196013Y172181D01*
X196022Y172180D01*
X196030Y172178D01*
X196222Y172163D01*
X196414Y172146D01*
X196423Y172147D01*
X196432Y172147D01*
X196624Y172170D01*
X196814Y172191D01*
X196822Y172194D01*
X196831Y172195D01*
X197014Y172256D01*
X197197Y172315D01*
X197205Y172319D01*
X197214Y172322D01*
X197381Y172417D01*
X197549Y172511D01*
X197555Y172517D01*
X197563Y172521D01*
X197709Y172648D01*
X197854Y172773D01*
X197860Y172780D01*
X197867Y172786D01*
X197984Y172938D01*
X198103Y173090D01*
X198107Y173098D01*
X198112Y173105D01*
X198264Y173400D01*
X198473Y173904D01*
X198482Y173934D01*
X198496Y173962D01*
X198540Y174127D01*
X198589Y174290D01*
X198592Y174318D01*
X198594Y174326D01*
X198594Y174329D01*
X198600Y174351D01*
X198627Y174682D01*
X198627Y242210D01*
X199323Y243890D01*
X223432Y267999D01*
X223449Y268020D01*
X223470Y268037D01*
X223576Y268175D01*
X223687Y268311D01*
X223700Y268334D01*
X223716Y268355D01*
X223794Y268512D01*
X223876Y268666D01*
X223884Y268692D01*
X223896Y268716D01*
X223941Y268885D01*
X223991Y269052D01*
X223993Y269079D01*
X224000Y269105D01*
X224027Y269435D01*
X224027Y306657D01*
X224025Y306679D01*
X224027Y306702D01*
X224005Y306879D01*
X223987Y307057D01*
X223981Y307079D01*
X223978Y307101D01*
X223922Y307271D01*
X223869Y307442D01*
X223858Y307462D01*
X223851Y307483D01*
X223763Y307639D01*
X223677Y307796D01*
X223663Y307814D01*
X223652Y307833D01*
X223534Y307968D01*
X223420Y308106D01*
X223402Y308120D01*
X223387Y308137D01*
X223245Y308246D01*
X223170Y308306D01*
X220313Y311163D01*
X218825Y314756D01*
X218825Y318644D01*
X220313Y322237D01*
X220998Y322922D01*
X221004Y322929D01*
X221011Y322934D01*
X221130Y323083D01*
X221253Y323233D01*
X221257Y323241D01*
X221263Y323248D01*
X221351Y323418D01*
X221442Y323589D01*
X221444Y323598D01*
X221449Y323605D01*
X221502Y323790D01*
X221557Y323975D01*
X221557Y323984D01*
X221560Y323992D01*
X221575Y324181D01*
X221593Y324376D01*
X221592Y324385D01*
X221593Y324394D01*
X221571Y324583D01*
X221550Y324776D01*
X221547Y324785D01*
X221546Y324793D01*
X221486Y324976D01*
X221428Y325160D01*
X221424Y325168D01*
X221421Y325176D01*
X221326Y325344D01*
X221233Y325512D01*
X221228Y325519D01*
X221223Y325527D01*
X221097Y325673D01*
X220973Y325819D01*
X220966Y325825D01*
X220960Y325832D01*
X220807Y325950D01*
X220657Y326069D01*
X220649Y326073D01*
X220642Y326078D01*
X220470Y326164D01*
X220298Y326251D01*
X220289Y326254D01*
X220281Y326258D01*
X220096Y326307D01*
X219910Y326359D01*
X219901Y326360D01*
X219893Y326362D01*
X219562Y326389D01*
X136038Y326389D01*
X136029Y326388D01*
X136020Y326389D01*
X135828Y326368D01*
X135638Y326349D01*
X135629Y326347D01*
X135620Y326346D01*
X135438Y326288D01*
X135253Y326231D01*
X135245Y326227D01*
X135236Y326224D01*
X135068Y326131D01*
X134899Y326039D01*
X134892Y326034D01*
X134884Y326029D01*
X134736Y325904D01*
X134589Y325782D01*
X134584Y325775D01*
X134577Y325769D01*
X134457Y325617D01*
X134337Y325468D01*
X134333Y325460D01*
X134327Y325453D01*
X134240Y325280D01*
X134151Y325111D01*
X134149Y325102D01*
X134145Y325094D01*
X134093Y324909D01*
X134040Y324724D01*
X134039Y324715D01*
X134037Y324706D01*
X134023Y324512D01*
X134007Y324322D01*
X134008Y324314D01*
X134008Y324305D01*
X134032Y324114D01*
X134054Y323923D01*
X134057Y323914D01*
X134058Y323905D01*
X134119Y323724D01*
X134179Y323540D01*
X134183Y323532D01*
X134186Y323524D01*
X134282Y323356D01*
X134377Y323189D01*
X134383Y323182D01*
X134387Y323175D01*
X134602Y322922D01*
X135287Y322237D01*
X136775Y318644D01*
X136775Y314756D01*
X135287Y311163D01*
X132450Y308326D01*
X132435Y308318D01*
X132300Y308201D01*
X132162Y308087D01*
X132147Y308070D01*
X132130Y308055D01*
X132021Y307913D01*
X131908Y307774D01*
X131897Y307755D01*
X131884Y307737D01*
X131804Y307577D01*
X131721Y307418D01*
X131714Y307396D01*
X131704Y307376D01*
X131658Y307203D01*
X131608Y307032D01*
X131606Y307009D01*
X131600Y306987D01*
X131573Y306657D01*
X131573Y294835D01*
X131575Y294809D01*
X131573Y294782D01*
X131595Y294608D01*
X131613Y294435D01*
X131620Y294409D01*
X131624Y294383D01*
X131679Y294217D01*
X131731Y294050D01*
X131744Y294026D01*
X131752Y294001D01*
X131839Y293849D01*
X131923Y293696D01*
X131940Y293675D01*
X131953Y293652D01*
X132168Y293399D01*
X181677Y243890D01*
X182373Y242210D01*
X182373Y208026D01*
X182375Y208008D01*
X182373Y207990D01*
X182394Y207808D01*
X182413Y207625D01*
X182418Y207608D01*
X182420Y207591D01*
X182477Y207416D01*
X182531Y207240D01*
X182539Y207225D01*
X182545Y207208D01*
X182635Y207048D01*
X182723Y206886D01*
X182734Y206873D01*
X182743Y206857D01*
X182863Y206718D01*
X182980Y206577D01*
X182994Y206566D01*
X183006Y206552D01*
X183152Y206439D01*
X183294Y206325D01*
X183310Y206317D01*
X183324Y206306D01*
X183489Y206224D01*
X183651Y206139D01*
X183668Y206134D01*
X183684Y206126D01*
X183863Y206079D01*
X184038Y206028D01*
X184056Y206026D01*
X184073Y206022D01*
X184404Y205995D01*
X187239Y205995D01*
X190600Y204603D01*
X193173Y202030D01*
X194565Y198669D01*
X194565Y195031D01*
X193173Y191670D01*
X190600Y189097D01*
X189768Y188753D01*
X187239Y187705D01*
X168361Y187705D01*
X165000Y189097D01*
X162427Y191670D01*
X161035Y195031D01*
X161035Y198669D01*
X162427Y202030D01*
X165000Y204603D01*
X166729Y205319D01*
X168361Y205995D01*
X171196Y205995D01*
X171214Y205997D01*
X171232Y205995D01*
X171414Y206016D01*
X171597Y206035D01*
X171614Y206040D01*
X171631Y206042D01*
X171806Y206099D01*
X171982Y206153D01*
X171997Y206161D01*
X172014Y206167D01*
X172174Y206257D01*
X172336Y206345D01*
X172349Y206356D01*
X172365Y206365D01*
X172504Y206485D01*
X172645Y206602D01*
X172656Y206616D01*
X172670Y206628D01*
X172782Y206772D01*
X172897Y206916D01*
X172905Y206932D01*
X172916Y206946D01*
X172998Y207111D01*
X173083Y207273D01*
X173088Y207290D01*
X173096Y207306D01*
X173143Y207485D01*
X173194Y207660D01*
X173196Y207678D01*
X173200Y207695D01*
X173227Y208026D01*
X173227Y238565D01*
X173225Y238591D01*
X173227Y238618D01*
X173205Y238792D01*
X173187Y238965D01*
X173180Y238991D01*
X173176Y239017D01*
X173121Y239183D01*
X173069Y239350D01*
X173056Y239374D01*
X173048Y239399D01*
X172961Y239551D01*
X172877Y239704D01*
X172860Y239725D01*
X172847Y239748D01*
X172632Y240001D01*
X123123Y289510D01*
X122427Y291190D01*
X122427Y306657D01*
X122425Y306679D01*
X122427Y306702D01*
X122405Y306879D01*
X122387Y307057D01*
X122381Y307079D01*
X122378Y307101D01*
X122322Y307271D01*
X122269Y307442D01*
X122258Y307462D01*
X122251Y307483D01*
X122163Y307639D01*
X122077Y307796D01*
X122063Y307814D01*
X122052Y307833D01*
X121934Y307968D01*
X121820Y308106D01*
X121802Y308120D01*
X121787Y308137D01*
X121645Y308246D01*
X121570Y308306D01*
X118713Y311163D01*
X117225Y314756D01*
X117225Y318644D01*
X118713Y322237D01*
X119398Y322922D01*
X119404Y322929D01*
X119411Y322934D01*
X119530Y323083D01*
X119653Y323233D01*
X119657Y323241D01*
X119663Y323248D01*
X119751Y323418D01*
X119842Y323589D01*
X119844Y323598D01*
X119849Y323605D01*
X119902Y323790D01*
X119957Y323975D01*
X119957Y323984D01*
X119960Y323992D01*
X119975Y324181D01*
X119993Y324376D01*
X119992Y324385D01*
X119993Y324394D01*
X119971Y324583D01*
X119950Y324776D01*
X119947Y324785D01*
X119946Y324793D01*
X119886Y324976D01*
X119828Y325160D01*
X119824Y325168D01*
X119821Y325176D01*
X119726Y325344D01*
X119633Y325512D01*
X119628Y325519D01*
X119623Y325527D01*
X119497Y325673D01*
X119373Y325819D01*
X119366Y325825D01*
X119360Y325832D01*
X119207Y325950D01*
X119057Y326069D01*
X119049Y326073D01*
X119042Y326078D01*
X118870Y326164D01*
X118698Y326251D01*
X118689Y326254D01*
X118681Y326258D01*
X118496Y326307D01*
X118310Y326359D01*
X118301Y326360D01*
X118293Y326362D01*
X117962Y326389D01*
X49511Y326389D01*
X49483Y326386D01*
X49454Y326388D01*
X49282Y326366D01*
X49110Y326349D01*
X49083Y326341D01*
X49055Y326337D01*
X48891Y326282D01*
X48725Y326231D01*
X48700Y326218D01*
X48674Y326209D01*
X48524Y326122D01*
X48371Y326039D01*
X48350Y326021D01*
X48325Y326007D01*
X48072Y325792D01*
X23453Y301095D01*
X23438Y301076D01*
X23418Y301059D01*
X23310Y300920D01*
X23199Y300783D01*
X23187Y300761D01*
X23172Y300741D01*
X23093Y300583D01*
X23011Y300427D01*
X23004Y300403D01*
X22992Y300381D01*
X22946Y300210D01*
X22897Y300041D01*
X22894Y300016D01*
X22888Y299992D01*
X22861Y299661D01*
X22861Y180678D01*
X22871Y180575D01*
X22871Y180472D01*
X22891Y180376D01*
X22901Y180278D01*
X22931Y180179D01*
X22952Y180078D01*
X22996Y179967D01*
X23019Y179893D01*
X23046Y179842D01*
X23075Y179770D01*
X107318Y11284D01*
X107399Y11155D01*
X107474Y11023D01*
X107506Y10985D01*
X107533Y10943D01*
X107638Y10833D01*
X107737Y10718D01*
X107776Y10688D01*
X107811Y10652D01*
X107935Y10565D01*
X108055Y10472D01*
X108100Y10449D01*
X108141Y10421D01*
X108280Y10360D01*
X108416Y10292D01*
X108464Y10279D01*
X108510Y10259D01*
X108658Y10227D01*
X108804Y10188D01*
X108861Y10183D01*
X108903Y10174D01*
X108989Y10173D01*
X109135Y10161D01*
X144890Y10161D01*
X144898Y10162D01*
G37*
%LPC*%
G36*
X168361Y136905D02*
X168361Y136905D01*
X165000Y138297D01*
X162427Y140870D01*
X161035Y144231D01*
X161035Y147869D01*
X162427Y151230D01*
X165000Y153803D01*
X168361Y155195D01*
X187239Y155195D01*
X190600Y153803D01*
X193173Y151230D01*
X194565Y147869D01*
X194565Y144231D01*
X193173Y140870D01*
X190600Y138297D01*
X187239Y136905D01*
X168361Y136905D01*
G37*
%LPD*%
%LPC*%
G36*
X168361Y111505D02*
X168361Y111505D01*
X165000Y112897D01*
X162427Y115470D01*
X161035Y118831D01*
X161035Y122469D01*
X162427Y125830D01*
X165000Y128403D01*
X168361Y129795D01*
X187239Y129795D01*
X190600Y128403D01*
X193173Y125830D01*
X194565Y122469D01*
X194565Y118831D01*
X193173Y115470D01*
X190600Y112897D01*
X187239Y111505D01*
X168361Y111505D01*
G37*
%LPD*%
%LPC*%
G36*
X485861Y194055D02*
X485861Y194055D01*
X482500Y195447D01*
X479927Y198020D01*
X478535Y201381D01*
X478535Y205019D01*
X479927Y208380D01*
X482500Y210953D01*
X485861Y212345D01*
X504739Y212345D01*
X508100Y210953D01*
X510673Y208380D01*
X512065Y205019D01*
X512065Y201381D01*
X510673Y198020D01*
X508100Y195447D01*
X504739Y194055D01*
X485861Y194055D01*
G37*
%LPD*%
%LPC*%
G36*
X54061Y194055D02*
X54061Y194055D01*
X50700Y195447D01*
X48127Y198020D01*
X46735Y201381D01*
X46735Y205019D01*
X48127Y208380D01*
X50700Y210953D01*
X54061Y212345D01*
X72939Y212345D01*
X76300Y210953D01*
X78873Y208380D01*
X80265Y205019D01*
X80265Y201381D01*
X78873Y198020D01*
X76300Y195447D01*
X72939Y194055D01*
X54061Y194055D01*
G37*
%LPD*%
%LPC*%
G36*
X371561Y187705D02*
X371561Y187705D01*
X368200Y189097D01*
X365627Y191670D01*
X364235Y195031D01*
X364235Y198669D01*
X365627Y202030D01*
X368200Y204603D01*
X369929Y205319D01*
X371561Y205995D01*
X390439Y205995D01*
X393800Y204603D01*
X396373Y202030D01*
X397765Y198669D01*
X397765Y195031D01*
X396373Y191670D01*
X393800Y189097D01*
X392968Y188753D01*
X390439Y187705D01*
X371561Y187705D01*
G37*
%LPD*%
%LPC*%
G36*
X371561Y162305D02*
X371561Y162305D01*
X368200Y163697D01*
X365627Y166270D01*
X364235Y169631D01*
X364235Y173269D01*
X365627Y176630D01*
X368200Y179203D01*
X371561Y180595D01*
X390439Y180595D01*
X393800Y179203D01*
X396373Y176630D01*
X397765Y173269D01*
X397765Y169631D01*
X396373Y166270D01*
X393800Y163697D01*
X390539Y162346D01*
X390538Y162346D01*
X390439Y162305D01*
X371561Y162305D01*
G37*
%LPD*%
%LPC*%
G36*
X226656Y221925D02*
X226656Y221925D01*
X223063Y223413D01*
X220313Y226163D01*
X218825Y229756D01*
X218825Y233644D01*
X220313Y237237D01*
X223063Y239987D01*
X226656Y241475D01*
X230544Y241475D01*
X234137Y239987D01*
X236887Y237237D01*
X238375Y233644D01*
X238375Y229756D01*
X236887Y226163D01*
X234137Y223413D01*
X230544Y221925D01*
X226656Y221925D01*
G37*
%LPD*%
%LPC*%
G36*
X125056Y221925D02*
X125056Y221925D01*
X121463Y223413D01*
X118713Y226163D01*
X117225Y229756D01*
X117225Y233644D01*
X118713Y237237D01*
X121463Y239987D01*
X125056Y241475D01*
X128944Y241475D01*
X132537Y239987D01*
X135287Y237237D01*
X136775Y233644D01*
X136775Y229756D01*
X135287Y226163D01*
X132537Y223413D01*
X128944Y221925D01*
X125056Y221925D01*
G37*
%LPD*%
%LPC*%
G36*
X328256Y221925D02*
X328256Y221925D01*
X324663Y223413D01*
X321913Y226163D01*
X320425Y229756D01*
X320425Y233644D01*
X321913Y237237D01*
X324663Y239987D01*
X328256Y241475D01*
X332144Y241475D01*
X335737Y239987D01*
X338487Y237237D01*
X339975Y233644D01*
X339975Y229756D01*
X338487Y226163D01*
X335737Y223413D01*
X332144Y221925D01*
X328256Y221925D01*
G37*
%LPD*%
%LPC*%
G36*
X429856Y221925D02*
X429856Y221925D01*
X426263Y223413D01*
X423513Y226163D01*
X422025Y229756D01*
X422025Y233644D01*
X423513Y237237D01*
X426263Y239987D01*
X429856Y241475D01*
X433744Y241475D01*
X437337Y239987D01*
X440087Y237237D01*
X441575Y233644D01*
X441575Y229756D01*
X440087Y226163D01*
X437337Y223413D01*
X433744Y221925D01*
X429856Y221925D01*
G37*
%LPD*%
%LPC*%
G36*
X59712Y232155D02*
X59712Y232155D01*
X54355Y237512D01*
X54355Y245088D01*
X59712Y250445D01*
X67288Y250445D01*
X72645Y245088D01*
X72645Y237512D01*
X67288Y232155D01*
X59712Y232155D01*
G37*
%LPD*%
%LPC*%
G36*
X34312Y232155D02*
X34312Y232155D01*
X28955Y237512D01*
X28955Y245088D01*
X34312Y250445D01*
X41888Y250445D01*
X47245Y245088D01*
X47245Y237512D01*
X41888Y232155D01*
X34312Y232155D01*
G37*
%LPD*%
%LPC*%
G36*
X491512Y232155D02*
X491512Y232155D01*
X486155Y237512D01*
X486155Y245088D01*
X491512Y250445D01*
X499088Y250445D01*
X504445Y245088D01*
X504445Y237512D01*
X499088Y232155D01*
X491512Y232155D01*
G37*
%LPD*%
%LPC*%
G36*
X516912Y232155D02*
X516912Y232155D01*
X511555Y237512D01*
X511555Y245088D01*
X516912Y250445D01*
X524488Y250445D01*
X529845Y245088D01*
X529845Y237512D01*
X524488Y232155D01*
X516912Y232155D01*
G37*
%LPD*%
%LPC*%
G36*
X59712Y257555D02*
X59712Y257555D01*
X54355Y262912D01*
X54355Y270488D01*
X59712Y275845D01*
X67288Y275845D01*
X72645Y270488D01*
X72645Y262912D01*
X67288Y257555D01*
X59712Y257555D01*
G37*
%LPD*%
%LPC*%
G36*
X34312Y257555D02*
X34312Y257555D01*
X28955Y262912D01*
X28955Y270488D01*
X34312Y275845D01*
X41888Y275845D01*
X47245Y270488D01*
X47245Y262912D01*
X41888Y257555D01*
X34312Y257555D01*
G37*
%LPD*%
%LPC*%
G36*
X516912Y257555D02*
X516912Y257555D01*
X511555Y262912D01*
X511555Y270488D01*
X516912Y275845D01*
X524488Y275845D01*
X529845Y270488D01*
X529845Y262912D01*
X524488Y257555D01*
X516912Y257555D01*
G37*
%LPD*%
%LPC*%
G36*
X34312Y282955D02*
X34312Y282955D01*
X28955Y288312D01*
X28955Y295888D01*
X34312Y301245D01*
X41888Y301245D01*
X47245Y295888D01*
X47245Y288312D01*
X41888Y282955D01*
X34312Y282955D01*
G37*
%LPD*%
%LPC*%
G36*
X491512Y257555D02*
X491512Y257555D01*
X486155Y262912D01*
X486155Y270488D01*
X491512Y275845D01*
X499088Y275845D01*
X504445Y270488D01*
X504445Y262912D01*
X499088Y257555D01*
X491512Y257555D01*
G37*
%LPD*%
%LPC*%
G36*
X516912Y282955D02*
X516912Y282955D01*
X511555Y288312D01*
X511555Y295888D01*
X516912Y301245D01*
X524488Y301245D01*
X529845Y295888D01*
X529845Y288312D01*
X524488Y282955D01*
X516912Y282955D01*
G37*
%LPD*%
%LPC*%
G36*
X491512Y282955D02*
X491512Y282955D01*
X486155Y288312D01*
X486155Y295888D01*
X491512Y301245D01*
X499088Y301245D01*
X504445Y295888D01*
X504445Y288312D01*
X499088Y282955D01*
X491512Y282955D01*
G37*
%LPD*%
%LPC*%
G36*
X59712Y282955D02*
X59712Y282955D01*
X54355Y288312D01*
X54355Y295888D01*
X59712Y301245D01*
X67288Y301245D01*
X72645Y295888D01*
X72645Y288312D01*
X67288Y282955D01*
X59712Y282955D01*
G37*
%LPD*%
%LPC*%
G36*
X225023Y23113D02*
X225023Y23113D01*
X219963Y28173D01*
X219963Y35327D01*
X225023Y40387D01*
X232177Y40387D01*
X237237Y35327D01*
X237237Y28173D01*
X232177Y23113D01*
X225023Y23113D01*
G37*
%LPD*%
%LPC*%
G36*
X326623Y23113D02*
X326623Y23113D01*
X321563Y28173D01*
X321563Y35327D01*
X326623Y40387D01*
X333777Y40387D01*
X338837Y35327D01*
X338837Y28173D01*
X333777Y23113D01*
X326623Y23113D01*
G37*
%LPD*%
%LPC*%
G36*
X326623Y48513D02*
X326623Y48513D01*
X321563Y53573D01*
X321563Y60727D01*
X326623Y65787D01*
X333777Y65787D01*
X338837Y60727D01*
X338837Y53573D01*
X333777Y48513D01*
X326623Y48513D01*
G37*
%LPD*%
%LPC*%
G36*
X225023Y48513D02*
X225023Y48513D01*
X219963Y53573D01*
X219963Y60727D01*
X225023Y65787D01*
X232177Y65787D01*
X237237Y60727D01*
X237237Y53573D01*
X232177Y48513D01*
X225023Y48513D01*
G37*
%LPD*%
%LPC*%
G36*
X149033Y87121D02*
X149033Y87121D01*
X144271Y91883D01*
X144271Y98617D01*
X149033Y103379D01*
X155767Y103379D01*
X160529Y98617D01*
X160529Y91883D01*
X155767Y87121D01*
X149033Y87121D01*
G37*
%LPD*%
%LPC*%
G36*
X447483Y61721D02*
X447483Y61721D01*
X442721Y66483D01*
X442721Y73217D01*
X447483Y77979D01*
X454217Y77979D01*
X458979Y73217D01*
X458979Y66483D01*
X454217Y61721D01*
X447483Y61721D01*
G37*
%LPD*%
%LPC*%
G36*
X66039Y180339D02*
X66039Y180339D01*
X66039Y187961D01*
X71920Y187961D01*
X73499Y187711D01*
X75020Y187216D01*
X76445Y186490D01*
X77739Y185550D01*
X78870Y184419D01*
X79810Y183125D01*
X80536Y181700D01*
X80979Y180339D01*
X66039Y180339D01*
G37*
%LPD*%
%LPC*%
G36*
X294639Y161289D02*
X294639Y161289D01*
X294639Y176229D01*
X296000Y175786D01*
X297425Y175060D01*
X298719Y174120D01*
X299850Y172989D01*
X300790Y171695D01*
X301516Y170270D01*
X302011Y168749D01*
X302261Y167170D01*
X302261Y161289D01*
X294639Y161289D01*
G37*
%LPD*%
%LPC*%
G36*
X269239Y161289D02*
X269239Y161289D01*
X269239Y176229D01*
X270600Y175786D01*
X272025Y175060D01*
X273319Y174120D01*
X274450Y172989D01*
X275390Y171695D01*
X276116Y170270D01*
X276611Y168749D01*
X276861Y167170D01*
X276861Y161289D01*
X269239Y161289D01*
G37*
%LPD*%
%LPC*%
G36*
X497839Y180339D02*
X497839Y180339D01*
X497839Y187961D01*
X503720Y187961D01*
X505299Y187711D01*
X506820Y187216D01*
X508245Y186490D01*
X509539Y185550D01*
X510670Y184419D01*
X511610Y183125D01*
X512336Y181700D01*
X512779Y180339D01*
X497839Y180339D01*
G37*
%LPD*%
%LPC*%
G36*
X46021Y180339D02*
X46021Y180339D01*
X46464Y181700D01*
X47190Y183125D01*
X48130Y184419D01*
X49261Y185550D01*
X50555Y186490D01*
X51980Y187216D01*
X53501Y187711D01*
X55080Y187961D01*
X60961Y187961D01*
X60961Y180339D01*
X46021Y180339D01*
G37*
%LPD*%
%LPC*%
G36*
X294639Y156211D02*
X294639Y156211D01*
X302261Y156211D01*
X302261Y150330D01*
X302011Y148751D01*
X301516Y147230D01*
X300790Y145805D01*
X299850Y144511D01*
X298719Y143380D01*
X297425Y142440D01*
X296000Y141714D01*
X294639Y141271D01*
X294639Y156211D01*
G37*
%LPD*%
%LPC*%
G36*
X477821Y180339D02*
X477821Y180339D01*
X478264Y181700D01*
X478990Y183125D01*
X479930Y184419D01*
X481061Y185550D01*
X482355Y186490D01*
X483780Y187216D01*
X485301Y187711D01*
X486880Y187961D01*
X492761Y187961D01*
X492761Y180339D01*
X477821Y180339D01*
G37*
%LPD*%
%LPC*%
G36*
X269239Y156211D02*
X269239Y156211D01*
X276861Y156211D01*
X276861Y150330D01*
X276611Y148751D01*
X276116Y147230D01*
X275390Y145805D01*
X274450Y144511D01*
X273319Y143380D01*
X272025Y142440D01*
X270600Y141714D01*
X269239Y141271D01*
X269239Y156211D01*
G37*
%LPD*%
%LPC*%
G36*
X256539Y161289D02*
X256539Y161289D01*
X256539Y167170D01*
X256789Y168749D01*
X257284Y170270D01*
X258010Y171695D01*
X258950Y172989D01*
X260081Y174120D01*
X261375Y175060D01*
X262800Y175786D01*
X264161Y176229D01*
X264161Y161289D01*
X256539Y161289D01*
G37*
%LPD*%
%LPC*%
G36*
X281939Y161289D02*
X281939Y161289D01*
X281939Y167170D01*
X282189Y168749D01*
X282684Y170270D01*
X283410Y171695D01*
X284350Y172989D01*
X285481Y174120D01*
X286775Y175060D01*
X288200Y175786D01*
X289561Y176229D01*
X289561Y161289D01*
X281939Y161289D01*
G37*
%LPD*%
%LPC*%
G36*
X497839Y167639D02*
X497839Y167639D01*
X497839Y175261D01*
X512779Y175261D01*
X512336Y173900D01*
X511610Y172475D01*
X510670Y171181D01*
X509539Y170050D01*
X508245Y169110D01*
X506820Y168384D01*
X505299Y167889D01*
X503720Y167639D01*
X497839Y167639D01*
G37*
%LPD*%
%LPC*%
G36*
X66039Y167639D02*
X66039Y167639D01*
X66039Y175261D01*
X80979Y175261D01*
X80536Y173900D01*
X79810Y172475D01*
X78870Y171181D01*
X77739Y170050D01*
X76445Y169110D01*
X75020Y168384D01*
X73499Y167889D01*
X71920Y167639D01*
X66039Y167639D01*
G37*
%LPD*%
%LPC*%
G36*
X55080Y167639D02*
X55080Y167639D01*
X53501Y167889D01*
X51980Y168384D01*
X50555Y169110D01*
X49261Y170050D01*
X48130Y171181D01*
X47190Y172475D01*
X46464Y173900D01*
X46021Y175261D01*
X60961Y175261D01*
X60961Y167639D01*
X55080Y167639D01*
G37*
%LPD*%
%LPC*%
G36*
X486880Y167639D02*
X486880Y167639D01*
X485301Y167889D01*
X483780Y168384D01*
X482355Y169110D01*
X481061Y170050D01*
X479930Y171181D01*
X478990Y172475D01*
X478264Y173900D01*
X477821Y175261D01*
X492761Y175261D01*
X492761Y167639D01*
X486880Y167639D01*
G37*
%LPD*%
%LPC*%
G36*
X288200Y141714D02*
X288200Y141714D01*
X286775Y142440D01*
X285481Y143380D01*
X284350Y144511D01*
X283410Y145805D01*
X282684Y147230D01*
X282189Y148751D01*
X281939Y150330D01*
X281939Y156211D01*
X289561Y156211D01*
X289561Y141271D01*
X288200Y141714D01*
G37*
%LPD*%
%LPC*%
G36*
X262800Y141714D02*
X262800Y141714D01*
X261375Y142440D01*
X260081Y143380D01*
X258950Y144511D01*
X258010Y145805D01*
X257284Y147230D01*
X256789Y148751D01*
X256539Y150330D01*
X256539Y156211D01*
X264161Y156211D01*
X264161Y141271D01*
X262800Y141714D01*
G37*
%LPD*%
%LPC*%
G36*
X434549Y204449D02*
X434549Y204449D01*
X434549Y212153D01*
X435942Y211700D01*
X437456Y210929D01*
X438830Y209931D01*
X440031Y208730D01*
X441029Y207356D01*
X441800Y205842D01*
X442253Y204449D01*
X434549Y204449D01*
G37*
%LPD*%
%LPC*%
G36*
X129749Y204449D02*
X129749Y204449D01*
X129749Y212153D01*
X131142Y211700D01*
X132656Y210929D01*
X134030Y209931D01*
X135231Y208730D01*
X136229Y207356D01*
X137000Y205842D01*
X137453Y204449D01*
X129749Y204449D01*
G37*
%LPD*%
%LPC*%
G36*
X332949Y204449D02*
X332949Y204449D01*
X332949Y212153D01*
X334342Y211700D01*
X335856Y210929D01*
X337230Y209931D01*
X338431Y208730D01*
X339429Y207356D01*
X340200Y205842D01*
X340653Y204449D01*
X332949Y204449D01*
G37*
%LPD*%
%LPC*%
G36*
X231349Y204449D02*
X231349Y204449D01*
X231349Y212153D01*
X232742Y211700D01*
X234256Y210929D01*
X235630Y209931D01*
X236831Y208730D01*
X237829Y207356D01*
X238600Y205842D01*
X239053Y204449D01*
X231349Y204449D01*
G37*
%LPD*%
%LPC*%
G36*
X434549Y198951D02*
X434549Y198951D01*
X442253Y198951D01*
X441800Y197558D01*
X441029Y196044D01*
X440031Y194670D01*
X438830Y193469D01*
X437456Y192471D01*
X435942Y191700D01*
X434549Y191247D01*
X434549Y198951D01*
G37*
%LPD*%
%LPC*%
G36*
X129749Y198951D02*
X129749Y198951D01*
X137453Y198951D01*
X137000Y197558D01*
X136229Y196044D01*
X135231Y194670D01*
X134030Y193469D01*
X132656Y192471D01*
X131142Y191700D01*
X129749Y191247D01*
X129749Y198951D01*
G37*
%LPD*%
%LPC*%
G36*
X231349Y198951D02*
X231349Y198951D01*
X239053Y198951D01*
X238600Y197558D01*
X237829Y196044D01*
X236831Y194670D01*
X235630Y193469D01*
X234256Y192471D01*
X232742Y191700D01*
X231349Y191247D01*
X231349Y198951D01*
G37*
%LPD*%
%LPC*%
G36*
X332949Y198951D02*
X332949Y198951D01*
X340653Y198951D01*
X340200Y197558D01*
X339429Y196044D01*
X338431Y194670D01*
X337230Y193469D01*
X335856Y192471D01*
X334342Y191700D01*
X332949Y191247D01*
X332949Y198951D01*
G37*
%LPD*%
%LPC*%
G36*
X218147Y204449D02*
X218147Y204449D01*
X218600Y205842D01*
X219371Y207356D01*
X220369Y208730D01*
X221570Y209931D01*
X222944Y210929D01*
X224458Y211700D01*
X225851Y212153D01*
X225851Y204449D01*
X218147Y204449D01*
G37*
%LPD*%
%LPC*%
G36*
X116547Y204449D02*
X116547Y204449D01*
X117000Y205842D01*
X117771Y207356D01*
X118769Y208730D01*
X119970Y209931D01*
X121344Y210929D01*
X122858Y211700D01*
X124251Y212153D01*
X124251Y204449D01*
X116547Y204449D01*
G37*
%LPD*%
%LPC*%
G36*
X319747Y204449D02*
X319747Y204449D01*
X320200Y205842D01*
X320971Y207356D01*
X321969Y208730D01*
X323170Y209931D01*
X324544Y210929D01*
X326058Y211700D01*
X327451Y212153D01*
X327451Y204449D01*
X319747Y204449D01*
G37*
%LPD*%
%LPC*%
G36*
X122858Y191700D02*
X122858Y191700D01*
X121344Y192471D01*
X119970Y193469D01*
X118769Y194670D01*
X117771Y196044D01*
X117000Y197558D01*
X116547Y198951D01*
X124251Y198951D01*
X124251Y191247D01*
X122858Y191700D01*
G37*
%LPD*%
%LPC*%
G36*
X224458Y191700D02*
X224458Y191700D01*
X222944Y192471D01*
X221570Y193469D01*
X220369Y194670D01*
X219371Y196044D01*
X218600Y197558D01*
X218147Y198951D01*
X225851Y198951D01*
X225851Y191247D01*
X224458Y191700D01*
G37*
%LPD*%
%LPC*%
G36*
X326058Y191700D02*
X326058Y191700D01*
X324544Y192471D01*
X323170Y193469D01*
X321969Y194670D01*
X320971Y196044D01*
X320200Y197558D01*
X319747Y198951D01*
X327451Y198951D01*
X327451Y191247D01*
X326058Y191700D01*
G37*
%LPD*%
%LPC*%
G36*
X256285Y34035D02*
X256285Y34035D01*
X256285Y41403D01*
X257998Y41403D01*
X263653Y35748D01*
X263653Y34035D01*
X256285Y34035D01*
G37*
%LPD*%
%LPC*%
G36*
X307085Y34035D02*
X307085Y34035D01*
X307085Y41403D01*
X308798Y41403D01*
X314453Y35748D01*
X314453Y34035D01*
X307085Y34035D01*
G37*
%LPD*%
%LPC*%
G36*
X281685Y34035D02*
X281685Y34035D01*
X281685Y41403D01*
X283398Y41403D01*
X289053Y35748D01*
X289053Y34035D01*
X281685Y34035D01*
G37*
%LPD*%
%LPC*%
G36*
X281685Y59435D02*
X281685Y59435D01*
X281685Y66803D01*
X283398Y66803D01*
X289053Y61148D01*
X289053Y59435D01*
X281685Y59435D01*
G37*
%LPD*%
%LPC*%
G36*
X256285Y59435D02*
X256285Y59435D01*
X256285Y66803D01*
X257998Y66803D01*
X263653Y61148D01*
X263653Y59435D01*
X256285Y59435D01*
G37*
%LPD*%
%LPC*%
G36*
X307085Y59435D02*
X307085Y59435D01*
X307085Y66803D01*
X308798Y66803D01*
X314453Y61148D01*
X314453Y59435D01*
X307085Y59435D01*
G37*
%LPD*%
%LPC*%
G36*
X244347Y59435D02*
X244347Y59435D01*
X244347Y61148D01*
X250002Y66803D01*
X251715Y66803D01*
X251715Y59435D01*
X244347Y59435D01*
G37*
%LPD*%
%LPC*%
G36*
X269747Y59435D02*
X269747Y59435D01*
X269747Y61148D01*
X275402Y66803D01*
X277115Y66803D01*
X277115Y59435D01*
X269747Y59435D01*
G37*
%LPD*%
%LPC*%
G36*
X295147Y59435D02*
X295147Y59435D01*
X295147Y61148D01*
X300802Y66803D01*
X302515Y66803D01*
X302515Y59435D01*
X295147Y59435D01*
G37*
%LPD*%
%LPC*%
G36*
X281685Y22097D02*
X281685Y22097D01*
X281685Y29465D01*
X289053Y29465D01*
X289053Y27752D01*
X283398Y22097D01*
X281685Y22097D01*
G37*
%LPD*%
%LPC*%
G36*
X307085Y22097D02*
X307085Y22097D01*
X307085Y29465D01*
X314453Y29465D01*
X314453Y27752D01*
X308798Y22097D01*
X307085Y22097D01*
G37*
%LPD*%
%LPC*%
G36*
X269747Y34035D02*
X269747Y34035D01*
X269747Y35748D01*
X275402Y41403D01*
X277115Y41403D01*
X277115Y34035D01*
X269747Y34035D01*
G37*
%LPD*%
%LPC*%
G36*
X295147Y34035D02*
X295147Y34035D01*
X295147Y35748D01*
X300802Y41403D01*
X302515Y41403D01*
X302515Y34035D01*
X295147Y34035D01*
G37*
%LPD*%
%LPC*%
G36*
X256285Y47497D02*
X256285Y47497D01*
X256285Y54865D01*
X263653Y54865D01*
X263653Y53152D01*
X257998Y47497D01*
X256285Y47497D01*
G37*
%LPD*%
%LPC*%
G36*
X256285Y22097D02*
X256285Y22097D01*
X256285Y29465D01*
X263653Y29465D01*
X263653Y27752D01*
X257998Y22097D01*
X256285Y22097D01*
G37*
%LPD*%
%LPC*%
G36*
X281685Y47497D02*
X281685Y47497D01*
X281685Y54865D01*
X289053Y54865D01*
X289053Y53152D01*
X283398Y47497D01*
X281685Y47497D01*
G37*
%LPD*%
%LPC*%
G36*
X244347Y34035D02*
X244347Y34035D01*
X244347Y35748D01*
X250002Y41403D01*
X251715Y41403D01*
X251715Y34035D01*
X244347Y34035D01*
G37*
%LPD*%
%LPC*%
G36*
X307085Y47497D02*
X307085Y47497D01*
X307085Y54865D01*
X314453Y54865D01*
X314453Y53152D01*
X308798Y47497D01*
X307085Y47497D01*
G37*
%LPD*%
%LPC*%
G36*
X300802Y47497D02*
X300802Y47497D01*
X295147Y53152D01*
X295147Y54865D01*
X302515Y54865D01*
X302515Y47497D01*
X300802Y47497D01*
G37*
%LPD*%
%LPC*%
G36*
X275402Y47497D02*
X275402Y47497D01*
X269747Y53152D01*
X269747Y54865D01*
X277115Y54865D01*
X277115Y47497D01*
X275402Y47497D01*
G37*
%LPD*%
%LPC*%
G36*
X250002Y47497D02*
X250002Y47497D01*
X244347Y53152D01*
X244347Y54865D01*
X251715Y54865D01*
X251715Y47497D01*
X250002Y47497D01*
G37*
%LPD*%
%LPC*%
G36*
X275402Y22097D02*
X275402Y22097D01*
X269747Y27752D01*
X269747Y29465D01*
X277115Y29465D01*
X277115Y22097D01*
X275402Y22097D01*
G37*
%LPD*%
%LPC*%
G36*
X300802Y22097D02*
X300802Y22097D01*
X295147Y27752D01*
X295147Y29465D01*
X302515Y29465D01*
X302515Y22097D01*
X300802Y22097D01*
G37*
%LPD*%
%LPC*%
G36*
X250002Y22097D02*
X250002Y22097D01*
X244347Y27752D01*
X244347Y29465D01*
X251715Y29465D01*
X251715Y22097D01*
X250002Y22097D01*
G37*
%LPD*%
%LPC*%
G36*
X408431Y97281D02*
X408431Y97281D01*
X408431Y104395D01*
X410188Y104395D01*
X415545Y99038D01*
X415545Y97281D01*
X408431Y97281D01*
G37*
%LPD*%
%LPC*%
G36*
X109981Y71881D02*
X109981Y71881D01*
X109981Y78995D01*
X111738Y78995D01*
X117095Y73638D01*
X117095Y71881D01*
X109981Y71881D01*
G37*
%LPD*%
%LPC*%
G36*
X408431Y86105D02*
X408431Y86105D01*
X408431Y93219D01*
X415545Y93219D01*
X415545Y91462D01*
X410188Y86105D01*
X408431Y86105D01*
G37*
%LPD*%
%LPC*%
G36*
X397255Y97281D02*
X397255Y97281D01*
X397255Y99038D01*
X402612Y104395D01*
X404369Y104395D01*
X404369Y97281D01*
X397255Y97281D01*
G37*
%LPD*%
%LPC*%
G36*
X109981Y60705D02*
X109981Y60705D01*
X109981Y67819D01*
X117095Y67819D01*
X117095Y66062D01*
X111738Y60705D01*
X109981Y60705D01*
G37*
%LPD*%
%LPC*%
G36*
X98805Y71881D02*
X98805Y71881D01*
X98805Y73638D01*
X104162Y78995D01*
X105919Y78995D01*
X105919Y71881D01*
X98805Y71881D01*
G37*
%LPD*%
%LPC*%
G36*
X104162Y60705D02*
X104162Y60705D01*
X98805Y66062D01*
X98805Y67819D01*
X105919Y67819D01*
X105919Y60705D01*
X104162Y60705D01*
G37*
%LPD*%
%LPC*%
G36*
X402612Y86105D02*
X402612Y86105D01*
X397255Y91462D01*
X397255Y93219D01*
X404369Y93219D01*
X404369Y86105D01*
X402612Y86105D01*
G37*
%LPD*%
D10*
X450850Y69850D03*
X450850Y44450D03*
X107950Y69850D03*
X107950Y44450D03*
D11*
X228600Y31750D03*
X228600Y57150D03*
X254000Y31750D03*
X254000Y57150D03*
X279400Y31750D03*
X279400Y57150D03*
X304800Y31750D03*
X304800Y57150D03*
X330200Y31750D03*
X330200Y57150D03*
D10*
X406400Y95250D03*
X406400Y19050D03*
D12*
X152400Y19050D03*
X152400Y95250D03*
D13*
X373380Y120650D02*
X388620Y120650D01*
X388620Y146050D02*
X373380Y146050D01*
X373380Y171450D02*
X388620Y171450D01*
X388620Y196850D02*
X373380Y196850D01*
X487680Y203200D02*
X502920Y203200D01*
X502920Y177800D02*
X487680Y177800D01*
X71120Y203200D02*
X55880Y203200D01*
X55880Y177800D02*
X71120Y177800D01*
X170180Y120650D02*
X185420Y120650D01*
X185420Y146050D02*
X170180Y146050D01*
X170180Y171450D02*
X185420Y171450D01*
X185420Y196850D02*
X170180Y196850D01*
D14*
X127000Y316700D03*
X127000Y231700D03*
X127000Y201700D03*
X228600Y316700D03*
X228600Y231700D03*
X228600Y201700D03*
X330200Y316700D03*
X330200Y231700D03*
X330200Y201700D03*
X431800Y316700D03*
X431800Y231700D03*
X431800Y201700D03*
D13*
X266700Y166370D02*
X266700Y151130D01*
X292100Y151130D02*
X292100Y166370D01*
D15*
X495300Y292100D03*
X520700Y292100D03*
X495300Y266700D03*
X520700Y266700D03*
X495300Y241300D03*
X520700Y241300D03*
X38100Y292100D03*
X63500Y292100D03*
X38100Y266700D03*
X63500Y266700D03*
X38100Y241300D03*
X63500Y241300D03*
D16*
X406400Y19050D02*
X431800Y44450D01*
X450850Y44450D01*
X127000Y44450D02*
X107950Y44450D01*
X127000Y44450D02*
X152400Y19050D01*
X127000Y292100D02*
X127000Y316700D01*
X127000Y292100D02*
X177800Y241300D01*
X177800Y196850D01*
X330200Y265900D02*
X330200Y316700D01*
X330200Y265900D02*
X355600Y241300D01*
X355600Y146050D01*
D17*
X355600Y146050D03*
D16*
X431800Y265900D02*
X431800Y316700D01*
X431800Y265900D02*
X412750Y247650D01*
X412750Y133350D01*
X400050Y120650D01*
X381000Y120650D01*
D17*
X203200Y171450D03*
D16*
X228600Y266700D02*
X228600Y316700D01*
X203200Y241300D02*
X203200Y171450D01*
X203200Y241300D02*
X228600Y266700D01*
M02*
