M48
;GenerationSoftware,Autodesk,EAGLE,9.6.2*%
;CreationDate,2022-05-04T15:20:27Z*%
FMAT,2
ICI,OFF
METRIC,TZ,000.000
T5C0.350
T4C0.813
T3C0.914
T2C1.016
T1C1.100
%
G90
M71
T1
X43180Y20170
X43180Y23170
X43180Y31670
X33020Y20170
X33020Y23170
X33020Y31670
X22860Y20170
X22860Y23170
X22860Y31670
X12700Y20170
X12700Y23170
X12700Y31670
T2
X6350Y24130
X3810Y24130
X6350Y26670
X3810Y26670
X6350Y29210
X3810Y29210
X52070Y24130
X49530Y24130
X38100Y12065
X38100Y14605
X38100Y17145
X38100Y19685
X49530Y20320
X49530Y17780
X6350Y20320
X6350Y17780
X17780Y12065
X52070Y26670
X17780Y17145
X17780Y19685
X49530Y26670
X52070Y29210
X49530Y29210
X29210Y15875
X26670Y15875
X17780Y14605
T3
X25400Y3175
X22860Y3175
X22860Y5715
X25400Y5715
X27940Y3175
X27940Y5715
X30480Y3175
X33020Y5715
X33020Y3175
X30480Y5715
T4
X10795Y6985
X45085Y4445
X45085Y6985
X10795Y4445
X15240Y9525
X15240Y1905
X40640Y1905
X40640Y9525
T5
X20320Y17145
X35560Y14605
M30