G04 EAGLE Gerber RS-274X export*
G75*
%MOMM*%
%FSLAX34Y34*%
%LPD*%
%INSilkscreen Top*%
%IPPOS*%
%AMOC8*
5,1,8,0,0,1.08239X$1,22.5*%
G01*
%ADD10C,0.101600*%
%ADD11C,0.152400*%
%ADD12C,0.254000*%
%ADD13C,0.127000*%
%ADD14C,0.050800*%


D10*
X19756Y184658D02*
X19756Y193463D01*
X14619Y199047D02*
X11684Y202716D01*
X24892Y202716D01*
X24892Y199047D02*
X24892Y206385D01*
X14986Y219186D02*
X14873Y219184D01*
X14761Y219178D01*
X14648Y219169D01*
X14536Y219155D01*
X14425Y219138D01*
X14314Y219117D01*
X14204Y219092D01*
X14095Y219064D01*
X13987Y219031D01*
X13880Y218995D01*
X13775Y218956D01*
X13670Y218913D01*
X13568Y218866D01*
X13467Y218816D01*
X13368Y218762D01*
X13270Y218705D01*
X13175Y218645D01*
X13082Y218582D01*
X12991Y218515D01*
X12902Y218445D01*
X12816Y218373D01*
X12732Y218297D01*
X12651Y218219D01*
X12573Y218138D01*
X12497Y218054D01*
X12425Y217968D01*
X12355Y217879D01*
X12288Y217788D01*
X12225Y217695D01*
X12165Y217600D01*
X12108Y217502D01*
X12054Y217403D01*
X12004Y217302D01*
X11957Y217200D01*
X11914Y217095D01*
X11875Y216990D01*
X11839Y216883D01*
X11806Y216775D01*
X11778Y216666D01*
X11753Y216556D01*
X11732Y216445D01*
X11715Y216334D01*
X11701Y216222D01*
X11692Y216109D01*
X11686Y215997D01*
X11684Y215884D01*
X11686Y215757D01*
X11692Y215630D01*
X11701Y215503D01*
X11714Y215377D01*
X11731Y215251D01*
X11752Y215126D01*
X11777Y215001D01*
X11805Y214878D01*
X11837Y214755D01*
X11873Y214633D01*
X11912Y214512D01*
X11955Y214392D01*
X12001Y214274D01*
X12051Y214157D01*
X12105Y214042D01*
X12162Y213929D01*
X12222Y213817D01*
X12285Y213707D01*
X12352Y213599D01*
X12422Y213493D01*
X12495Y213389D01*
X12572Y213287D01*
X12651Y213188D01*
X12733Y213091D01*
X12818Y212997D01*
X12906Y212905D01*
X12996Y212816D01*
X13090Y212730D01*
X13185Y212646D01*
X13283Y212566D01*
X13384Y212488D01*
X13487Y212413D01*
X13592Y212342D01*
X13699Y212274D01*
X13808Y212209D01*
X13919Y212147D01*
X14032Y212088D01*
X14146Y212033D01*
X14262Y211982D01*
X14380Y211934D01*
X14499Y211889D01*
X14619Y211848D01*
X17554Y218085D02*
X17474Y218167D01*
X17391Y218246D01*
X17305Y218323D01*
X17217Y218397D01*
X17126Y218467D01*
X17034Y218535D01*
X16939Y218600D01*
X16842Y218662D01*
X16743Y218720D01*
X16642Y218776D01*
X16540Y218828D01*
X16436Y218876D01*
X16330Y218921D01*
X16223Y218963D01*
X16115Y219002D01*
X16005Y219036D01*
X15895Y219068D01*
X15783Y219095D01*
X15671Y219119D01*
X15558Y219140D01*
X15444Y219156D01*
X15330Y219169D01*
X15216Y219179D01*
X15101Y219184D01*
X14986Y219186D01*
X17554Y218085D02*
X24892Y211848D01*
X24892Y219186D01*
X24892Y228319D02*
X11684Y223916D01*
X11684Y232721D02*
X24892Y228319D01*
X74704Y179296D02*
X74704Y177094D01*
X74704Y179296D02*
X82042Y179296D01*
X82042Y174893D01*
X82040Y174786D01*
X82034Y174679D01*
X82024Y174572D01*
X82011Y174466D01*
X81993Y174360D01*
X81972Y174255D01*
X81947Y174151D01*
X81918Y174047D01*
X81885Y173945D01*
X81848Y173845D01*
X81808Y173745D01*
X81764Y173647D01*
X81717Y173551D01*
X81666Y173457D01*
X81612Y173364D01*
X81555Y173274D01*
X81494Y173185D01*
X81430Y173099D01*
X81363Y173016D01*
X81293Y172934D01*
X81220Y172856D01*
X81144Y172780D01*
X81066Y172707D01*
X80984Y172637D01*
X80901Y172570D01*
X80815Y172506D01*
X80726Y172445D01*
X80636Y172388D01*
X80543Y172334D01*
X80449Y172283D01*
X80353Y172236D01*
X80255Y172192D01*
X80155Y172152D01*
X80055Y172115D01*
X79953Y172082D01*
X79849Y172053D01*
X79745Y172028D01*
X79640Y172007D01*
X79534Y171989D01*
X79428Y171976D01*
X79321Y171966D01*
X79214Y171960D01*
X79107Y171958D01*
X71769Y171958D01*
X71662Y171960D01*
X71555Y171966D01*
X71448Y171976D01*
X71342Y171989D01*
X71236Y172007D01*
X71131Y172028D01*
X71027Y172053D01*
X70923Y172082D01*
X70821Y172115D01*
X70721Y172152D01*
X70621Y172192D01*
X70523Y172236D01*
X70427Y172283D01*
X70333Y172334D01*
X70240Y172388D01*
X70150Y172445D01*
X70061Y172506D01*
X69975Y172570D01*
X69892Y172637D01*
X69810Y172707D01*
X69732Y172780D01*
X69656Y172856D01*
X69583Y172934D01*
X69513Y173016D01*
X69446Y173099D01*
X69382Y173185D01*
X69321Y173274D01*
X69264Y173364D01*
X69210Y173457D01*
X69159Y173551D01*
X69112Y173647D01*
X69068Y173745D01*
X69028Y173845D01*
X68991Y173945D01*
X68958Y174047D01*
X68929Y174151D01*
X68904Y174255D01*
X68883Y174360D01*
X68865Y174466D01*
X68852Y174572D01*
X68842Y174679D01*
X68836Y174786D01*
X68834Y174893D01*
X68834Y179296D01*
X68834Y185613D02*
X82042Y185613D01*
X82042Y192951D02*
X68834Y185613D01*
X68834Y192951D02*
X82042Y192951D01*
X82042Y199268D02*
X68834Y199268D01*
X68834Y202937D01*
X68836Y203057D01*
X68842Y203177D01*
X68852Y203297D01*
X68865Y203416D01*
X68883Y203535D01*
X68904Y203653D01*
X68930Y203770D01*
X68959Y203887D01*
X68992Y204002D01*
X69029Y204116D01*
X69069Y204229D01*
X69113Y204341D01*
X69161Y204451D01*
X69212Y204560D01*
X69267Y204667D01*
X69326Y204772D01*
X69387Y204874D01*
X69452Y204975D01*
X69521Y205074D01*
X69592Y205171D01*
X69667Y205265D01*
X69745Y205356D01*
X69825Y205445D01*
X69909Y205531D01*
X69995Y205615D01*
X70084Y205696D01*
X70175Y205773D01*
X70269Y205848D01*
X70366Y205919D01*
X70465Y205988D01*
X70566Y206053D01*
X70669Y206114D01*
X70773Y206173D01*
X70880Y206228D01*
X70989Y206279D01*
X71099Y206327D01*
X71211Y206371D01*
X71324Y206411D01*
X71438Y206448D01*
X71553Y206481D01*
X71670Y206510D01*
X71787Y206536D01*
X71905Y206557D01*
X72024Y206575D01*
X72143Y206588D01*
X72263Y206598D01*
X72383Y206604D01*
X72503Y206606D01*
X78373Y206606D01*
X78493Y206604D01*
X78613Y206598D01*
X78733Y206588D01*
X78852Y206575D01*
X78971Y206557D01*
X79089Y206536D01*
X79206Y206510D01*
X79323Y206481D01*
X79438Y206448D01*
X79552Y206411D01*
X79665Y206371D01*
X79777Y206327D01*
X79887Y206279D01*
X79996Y206228D01*
X80103Y206173D01*
X80208Y206114D01*
X80310Y206053D01*
X80411Y205988D01*
X80510Y205919D01*
X80607Y205848D01*
X80701Y205773D01*
X80792Y205696D01*
X80881Y205615D01*
X80967Y205531D01*
X81051Y205445D01*
X81132Y205356D01*
X81209Y205265D01*
X81284Y205171D01*
X81355Y205074D01*
X81424Y204975D01*
X81489Y204874D01*
X81550Y204772D01*
X81609Y204667D01*
X81664Y204560D01*
X81715Y204451D01*
X81763Y204341D01*
X81807Y204229D01*
X81847Y204116D01*
X81884Y204002D01*
X81917Y203887D01*
X81946Y203770D01*
X81972Y203653D01*
X81993Y203535D01*
X82011Y203416D01*
X82024Y203297D01*
X82034Y203177D01*
X82040Y203057D01*
X82042Y202937D01*
X82042Y199268D01*
X253294Y134846D02*
X255496Y134846D01*
X255496Y127508D01*
X251093Y127508D01*
X250986Y127510D01*
X250879Y127516D01*
X250772Y127526D01*
X250666Y127539D01*
X250560Y127557D01*
X250455Y127578D01*
X250351Y127603D01*
X250247Y127632D01*
X250145Y127665D01*
X250045Y127702D01*
X249945Y127742D01*
X249847Y127786D01*
X249751Y127833D01*
X249657Y127884D01*
X249564Y127938D01*
X249474Y127995D01*
X249385Y128056D01*
X249299Y128120D01*
X249216Y128187D01*
X249134Y128257D01*
X249056Y128330D01*
X248980Y128406D01*
X248907Y128484D01*
X248837Y128566D01*
X248770Y128649D01*
X248706Y128735D01*
X248645Y128824D01*
X248588Y128914D01*
X248534Y129007D01*
X248483Y129101D01*
X248436Y129197D01*
X248392Y129295D01*
X248352Y129395D01*
X248315Y129495D01*
X248282Y129597D01*
X248253Y129701D01*
X248228Y129805D01*
X248207Y129910D01*
X248189Y130016D01*
X248176Y130122D01*
X248166Y130229D01*
X248160Y130336D01*
X248158Y130443D01*
X248158Y137781D01*
X248160Y137888D01*
X248166Y137995D01*
X248176Y138102D01*
X248189Y138208D01*
X248207Y138314D01*
X248228Y138419D01*
X248253Y138523D01*
X248282Y138627D01*
X248315Y138729D01*
X248352Y138829D01*
X248392Y138929D01*
X248436Y139027D01*
X248483Y139123D01*
X248534Y139217D01*
X248588Y139310D01*
X248645Y139400D01*
X248706Y139489D01*
X248770Y139575D01*
X248837Y139658D01*
X248907Y139740D01*
X248980Y139818D01*
X249056Y139894D01*
X249134Y139967D01*
X249216Y140037D01*
X249299Y140104D01*
X249385Y140168D01*
X249474Y140229D01*
X249564Y140286D01*
X249657Y140340D01*
X249751Y140391D01*
X249847Y140438D01*
X249945Y140482D01*
X250045Y140522D01*
X250145Y140559D01*
X250247Y140592D01*
X250351Y140621D01*
X250455Y140646D01*
X250560Y140667D01*
X250666Y140685D01*
X250772Y140698D01*
X250879Y140708D01*
X250986Y140714D01*
X251093Y140716D01*
X255496Y140716D01*
X261813Y140716D02*
X261813Y127508D01*
X269151Y127508D02*
X261813Y140716D01*
X269151Y140716D02*
X269151Y127508D01*
X275468Y127508D02*
X275468Y140716D01*
X279137Y140716D01*
X279257Y140714D01*
X279377Y140708D01*
X279497Y140698D01*
X279616Y140685D01*
X279735Y140667D01*
X279853Y140646D01*
X279970Y140620D01*
X280087Y140591D01*
X280202Y140558D01*
X280316Y140521D01*
X280429Y140481D01*
X280541Y140437D01*
X280651Y140389D01*
X280760Y140338D01*
X280867Y140283D01*
X280972Y140224D01*
X281074Y140163D01*
X281175Y140098D01*
X281274Y140029D01*
X281371Y139958D01*
X281465Y139883D01*
X281556Y139806D01*
X281645Y139725D01*
X281731Y139641D01*
X281815Y139555D01*
X281896Y139466D01*
X281973Y139375D01*
X282048Y139281D01*
X282119Y139184D01*
X282188Y139085D01*
X282253Y138984D01*
X282314Y138882D01*
X282373Y138777D01*
X282428Y138670D01*
X282479Y138561D01*
X282527Y138451D01*
X282571Y138339D01*
X282611Y138226D01*
X282648Y138112D01*
X282681Y137997D01*
X282710Y137880D01*
X282736Y137763D01*
X282757Y137645D01*
X282775Y137526D01*
X282788Y137407D01*
X282798Y137287D01*
X282804Y137167D01*
X282806Y137047D01*
X282806Y131177D01*
X282804Y131057D01*
X282798Y130937D01*
X282788Y130817D01*
X282775Y130698D01*
X282757Y130579D01*
X282736Y130461D01*
X282710Y130344D01*
X282681Y130227D01*
X282648Y130112D01*
X282611Y129998D01*
X282571Y129885D01*
X282527Y129773D01*
X282479Y129663D01*
X282428Y129554D01*
X282373Y129447D01*
X282314Y129343D01*
X282253Y129240D01*
X282188Y129139D01*
X282119Y129040D01*
X282048Y128943D01*
X281973Y128849D01*
X281896Y128758D01*
X281815Y128669D01*
X281731Y128583D01*
X281645Y128499D01*
X281556Y128418D01*
X281465Y128341D01*
X281371Y128266D01*
X281274Y128195D01*
X281175Y128126D01*
X281074Y128061D01*
X280972Y128000D01*
X280867Y127941D01*
X280760Y127886D01*
X280651Y127835D01*
X280541Y127787D01*
X280429Y127743D01*
X280316Y127703D01*
X280202Y127666D01*
X280087Y127633D01*
X279970Y127604D01*
X279853Y127578D01*
X279735Y127557D01*
X279616Y127539D01*
X279497Y127526D01*
X279377Y127516D01*
X279257Y127510D01*
X279137Y127508D01*
X275468Y127508D01*
X449354Y177094D02*
X449354Y179296D01*
X456692Y179296D01*
X456692Y174893D01*
X456690Y174786D01*
X456684Y174679D01*
X456674Y174572D01*
X456661Y174466D01*
X456643Y174360D01*
X456622Y174255D01*
X456597Y174151D01*
X456568Y174047D01*
X456535Y173945D01*
X456498Y173845D01*
X456458Y173745D01*
X456414Y173647D01*
X456367Y173551D01*
X456316Y173457D01*
X456262Y173364D01*
X456205Y173274D01*
X456144Y173185D01*
X456080Y173099D01*
X456013Y173016D01*
X455943Y172934D01*
X455870Y172856D01*
X455794Y172780D01*
X455716Y172707D01*
X455634Y172637D01*
X455551Y172570D01*
X455465Y172506D01*
X455376Y172445D01*
X455286Y172388D01*
X455193Y172334D01*
X455099Y172283D01*
X455003Y172236D01*
X454905Y172192D01*
X454805Y172152D01*
X454705Y172115D01*
X454603Y172082D01*
X454499Y172053D01*
X454395Y172028D01*
X454290Y172007D01*
X454184Y171989D01*
X454078Y171976D01*
X453971Y171966D01*
X453864Y171960D01*
X453757Y171958D01*
X446419Y171958D01*
X446312Y171960D01*
X446205Y171966D01*
X446098Y171976D01*
X445992Y171989D01*
X445886Y172007D01*
X445781Y172028D01*
X445677Y172053D01*
X445573Y172082D01*
X445471Y172115D01*
X445371Y172152D01*
X445271Y172192D01*
X445173Y172236D01*
X445077Y172283D01*
X444983Y172334D01*
X444890Y172388D01*
X444800Y172445D01*
X444711Y172506D01*
X444625Y172570D01*
X444542Y172637D01*
X444460Y172707D01*
X444382Y172780D01*
X444306Y172856D01*
X444233Y172934D01*
X444163Y173016D01*
X444096Y173099D01*
X444032Y173185D01*
X443971Y173274D01*
X443914Y173364D01*
X443860Y173457D01*
X443809Y173551D01*
X443762Y173647D01*
X443718Y173745D01*
X443678Y173845D01*
X443641Y173945D01*
X443608Y174047D01*
X443579Y174151D01*
X443554Y174255D01*
X443533Y174360D01*
X443515Y174466D01*
X443502Y174572D01*
X443492Y174679D01*
X443486Y174786D01*
X443484Y174893D01*
X443484Y179296D01*
X443484Y185613D02*
X456692Y185613D01*
X456692Y192951D02*
X443484Y185613D01*
X443484Y192951D02*
X456692Y192951D01*
X456692Y199268D02*
X443484Y199268D01*
X443484Y202937D01*
X443486Y203057D01*
X443492Y203177D01*
X443502Y203297D01*
X443515Y203416D01*
X443533Y203535D01*
X443554Y203653D01*
X443580Y203770D01*
X443609Y203887D01*
X443642Y204002D01*
X443679Y204116D01*
X443719Y204229D01*
X443763Y204341D01*
X443811Y204451D01*
X443862Y204560D01*
X443917Y204667D01*
X443976Y204772D01*
X444037Y204874D01*
X444102Y204975D01*
X444171Y205074D01*
X444242Y205171D01*
X444317Y205265D01*
X444395Y205356D01*
X444475Y205445D01*
X444559Y205531D01*
X444645Y205615D01*
X444734Y205696D01*
X444825Y205773D01*
X444919Y205848D01*
X445016Y205919D01*
X445115Y205988D01*
X445216Y206053D01*
X445319Y206114D01*
X445423Y206173D01*
X445530Y206228D01*
X445639Y206279D01*
X445749Y206327D01*
X445861Y206371D01*
X445974Y206411D01*
X446088Y206448D01*
X446203Y206481D01*
X446320Y206510D01*
X446437Y206536D01*
X446555Y206557D01*
X446674Y206575D01*
X446793Y206588D01*
X446913Y206598D01*
X447033Y206604D01*
X447153Y206606D01*
X453023Y206606D01*
X453143Y206604D01*
X453263Y206598D01*
X453383Y206588D01*
X453502Y206575D01*
X453621Y206557D01*
X453739Y206536D01*
X453856Y206510D01*
X453973Y206481D01*
X454088Y206448D01*
X454202Y206411D01*
X454315Y206371D01*
X454427Y206327D01*
X454537Y206279D01*
X454646Y206228D01*
X454753Y206173D01*
X454858Y206114D01*
X454960Y206053D01*
X455061Y205988D01*
X455160Y205919D01*
X455257Y205848D01*
X455351Y205773D01*
X455442Y205696D01*
X455531Y205615D01*
X455617Y205531D01*
X455701Y205445D01*
X455782Y205356D01*
X455859Y205265D01*
X455934Y205171D01*
X456005Y205074D01*
X456074Y204975D01*
X456139Y204874D01*
X456200Y204772D01*
X456259Y204667D01*
X456314Y204560D01*
X456365Y204451D01*
X456413Y204341D01*
X456457Y204229D01*
X456497Y204116D01*
X456534Y204002D01*
X456567Y203887D01*
X456596Y203770D01*
X456622Y203653D01*
X456643Y203535D01*
X456661Y203416D01*
X456674Y203297D01*
X456684Y203177D01*
X456690Y203057D01*
X456692Y202937D01*
X456692Y199268D01*
X101600Y216154D02*
X97931Y213219D01*
X101600Y216154D02*
X101600Y202946D01*
X97931Y202946D02*
X105269Y202946D01*
X235317Y216154D02*
X235430Y216152D01*
X235542Y216146D01*
X235655Y216137D01*
X235767Y216123D01*
X235878Y216106D01*
X235989Y216085D01*
X236099Y216060D01*
X236208Y216032D01*
X236316Y215999D01*
X236423Y215963D01*
X236528Y215924D01*
X236633Y215881D01*
X236735Y215834D01*
X236836Y215784D01*
X236935Y215730D01*
X237033Y215673D01*
X237128Y215613D01*
X237221Y215550D01*
X237312Y215483D01*
X237401Y215413D01*
X237487Y215341D01*
X237571Y215265D01*
X237652Y215187D01*
X237730Y215106D01*
X237806Y215022D01*
X237878Y214936D01*
X237948Y214847D01*
X238015Y214756D01*
X238078Y214663D01*
X238138Y214568D01*
X238195Y214470D01*
X238249Y214371D01*
X238299Y214270D01*
X238346Y214168D01*
X238389Y214063D01*
X238428Y213958D01*
X238464Y213851D01*
X238497Y213743D01*
X238525Y213634D01*
X238550Y213524D01*
X238571Y213413D01*
X238588Y213302D01*
X238602Y213190D01*
X238611Y213077D01*
X238617Y212965D01*
X238619Y212852D01*
X235317Y216154D02*
X235190Y216152D01*
X235063Y216146D01*
X234936Y216137D01*
X234810Y216124D01*
X234684Y216107D01*
X234559Y216086D01*
X234434Y216061D01*
X234311Y216033D01*
X234188Y216001D01*
X234066Y215965D01*
X233945Y215926D01*
X233825Y215883D01*
X233707Y215837D01*
X233590Y215787D01*
X233475Y215733D01*
X233362Y215676D01*
X233250Y215616D01*
X233140Y215553D01*
X233032Y215486D01*
X232926Y215416D01*
X232822Y215343D01*
X232720Y215266D01*
X232621Y215187D01*
X232524Y215105D01*
X232430Y215020D01*
X232338Y214932D01*
X232249Y214842D01*
X232163Y214748D01*
X232079Y214653D01*
X231999Y214555D01*
X231921Y214454D01*
X231846Y214351D01*
X231775Y214246D01*
X231707Y214139D01*
X231642Y214030D01*
X231580Y213919D01*
X231521Y213806D01*
X231466Y213692D01*
X231415Y213576D01*
X231367Y213458D01*
X231322Y213339D01*
X231281Y213219D01*
X237518Y210284D02*
X237600Y210364D01*
X237679Y210447D01*
X237756Y210533D01*
X237830Y210621D01*
X237900Y210712D01*
X237968Y210804D01*
X238033Y210899D01*
X238095Y210996D01*
X238153Y211095D01*
X238209Y211196D01*
X238261Y211298D01*
X238309Y211402D01*
X238354Y211508D01*
X238396Y211615D01*
X238435Y211723D01*
X238469Y211833D01*
X238501Y211943D01*
X238528Y212055D01*
X238552Y212167D01*
X238573Y212280D01*
X238589Y212394D01*
X238602Y212508D01*
X238612Y212622D01*
X238617Y212737D01*
X238619Y212852D01*
X237518Y210284D02*
X231281Y202946D01*
X238619Y202946D01*
X288431Y202946D02*
X292100Y202946D01*
X292220Y202948D01*
X292340Y202954D01*
X292460Y202964D01*
X292579Y202977D01*
X292698Y202995D01*
X292816Y203016D01*
X292933Y203042D01*
X293050Y203071D01*
X293165Y203104D01*
X293279Y203141D01*
X293392Y203181D01*
X293504Y203225D01*
X293614Y203273D01*
X293723Y203324D01*
X293830Y203379D01*
X293935Y203438D01*
X294037Y203499D01*
X294138Y203564D01*
X294237Y203633D01*
X294334Y203704D01*
X294428Y203779D01*
X294519Y203856D01*
X294608Y203937D01*
X294694Y204021D01*
X294778Y204107D01*
X294859Y204196D01*
X294936Y204287D01*
X295011Y204381D01*
X295082Y204478D01*
X295151Y204577D01*
X295216Y204678D01*
X295277Y204781D01*
X295336Y204885D01*
X295391Y204992D01*
X295442Y205101D01*
X295490Y205211D01*
X295534Y205323D01*
X295574Y205436D01*
X295611Y205550D01*
X295644Y205665D01*
X295673Y205782D01*
X295699Y205899D01*
X295720Y206017D01*
X295738Y206136D01*
X295751Y206255D01*
X295761Y206375D01*
X295767Y206495D01*
X295769Y206615D01*
X295767Y206735D01*
X295761Y206855D01*
X295751Y206975D01*
X295738Y207094D01*
X295720Y207213D01*
X295699Y207331D01*
X295673Y207448D01*
X295644Y207565D01*
X295611Y207680D01*
X295574Y207794D01*
X295534Y207907D01*
X295490Y208019D01*
X295442Y208129D01*
X295391Y208238D01*
X295336Y208345D01*
X295277Y208450D01*
X295216Y208552D01*
X295151Y208653D01*
X295082Y208752D01*
X295011Y208849D01*
X294936Y208943D01*
X294859Y209034D01*
X294778Y209123D01*
X294694Y209209D01*
X294608Y209293D01*
X294519Y209374D01*
X294428Y209451D01*
X294334Y209526D01*
X294237Y209597D01*
X294138Y209666D01*
X294037Y209731D01*
X293934Y209792D01*
X293830Y209851D01*
X293723Y209906D01*
X293614Y209957D01*
X293504Y210005D01*
X293392Y210049D01*
X293279Y210089D01*
X293165Y210126D01*
X293050Y210159D01*
X292933Y210188D01*
X292816Y210214D01*
X292698Y210235D01*
X292579Y210253D01*
X292460Y210266D01*
X292340Y210276D01*
X292220Y210282D01*
X292100Y210284D01*
X292834Y216154D02*
X288431Y216154D01*
X292834Y216154D02*
X292941Y216152D01*
X293048Y216146D01*
X293155Y216136D01*
X293261Y216123D01*
X293367Y216105D01*
X293472Y216084D01*
X293576Y216059D01*
X293680Y216030D01*
X293782Y215997D01*
X293882Y215960D01*
X293982Y215920D01*
X294080Y215876D01*
X294176Y215829D01*
X294270Y215778D01*
X294363Y215724D01*
X294453Y215667D01*
X294542Y215606D01*
X294628Y215542D01*
X294711Y215475D01*
X294793Y215405D01*
X294871Y215332D01*
X294947Y215256D01*
X295020Y215178D01*
X295090Y215096D01*
X295157Y215013D01*
X295221Y214927D01*
X295282Y214838D01*
X295339Y214748D01*
X295393Y214655D01*
X295444Y214561D01*
X295491Y214465D01*
X295535Y214367D01*
X295575Y214267D01*
X295612Y214167D01*
X295645Y214065D01*
X295674Y213961D01*
X295699Y213857D01*
X295720Y213752D01*
X295738Y213646D01*
X295751Y213540D01*
X295761Y213433D01*
X295767Y213326D01*
X295769Y213219D01*
X295767Y213112D01*
X295761Y213005D01*
X295751Y212898D01*
X295738Y212792D01*
X295720Y212686D01*
X295699Y212581D01*
X295674Y212477D01*
X295645Y212373D01*
X295612Y212271D01*
X295575Y212171D01*
X295535Y212071D01*
X295491Y211973D01*
X295444Y211877D01*
X295393Y211783D01*
X295339Y211690D01*
X295282Y211600D01*
X295221Y211511D01*
X295157Y211425D01*
X295090Y211342D01*
X295020Y211260D01*
X294947Y211182D01*
X294871Y211106D01*
X294793Y211033D01*
X294711Y210963D01*
X294628Y210896D01*
X294542Y210832D01*
X294453Y210771D01*
X294363Y210714D01*
X294270Y210660D01*
X294176Y210609D01*
X294080Y210562D01*
X293982Y210518D01*
X293882Y210478D01*
X293782Y210441D01*
X293680Y210408D01*
X293576Y210379D01*
X293472Y210354D01*
X293367Y210333D01*
X293261Y210315D01*
X293155Y210302D01*
X293048Y210292D01*
X292941Y210286D01*
X292834Y210284D01*
X289899Y210284D01*
X421781Y205881D02*
X424716Y216154D01*
X421781Y205881D02*
X429119Y205881D01*
X426918Y208816D02*
X426918Y202946D01*
X136031Y193181D02*
X133096Y196850D01*
X146304Y196850D01*
X146304Y193181D02*
X146304Y200519D01*
X380746Y196850D02*
X383681Y193181D01*
X380746Y196850D02*
X393954Y196850D01*
X393954Y193181D02*
X393954Y200519D01*
X136398Y175119D02*
X136285Y175117D01*
X136173Y175111D01*
X136060Y175102D01*
X135948Y175088D01*
X135837Y175071D01*
X135726Y175050D01*
X135616Y175025D01*
X135507Y174997D01*
X135399Y174964D01*
X135292Y174928D01*
X135187Y174889D01*
X135082Y174846D01*
X134980Y174799D01*
X134879Y174749D01*
X134780Y174695D01*
X134682Y174638D01*
X134587Y174578D01*
X134494Y174515D01*
X134403Y174448D01*
X134314Y174378D01*
X134228Y174306D01*
X134144Y174230D01*
X134063Y174152D01*
X133985Y174071D01*
X133909Y173987D01*
X133837Y173901D01*
X133767Y173812D01*
X133700Y173721D01*
X133637Y173628D01*
X133577Y173533D01*
X133520Y173435D01*
X133466Y173336D01*
X133416Y173235D01*
X133369Y173133D01*
X133326Y173028D01*
X133287Y172923D01*
X133251Y172816D01*
X133218Y172708D01*
X133190Y172599D01*
X133165Y172489D01*
X133144Y172378D01*
X133127Y172267D01*
X133113Y172155D01*
X133104Y172042D01*
X133098Y171930D01*
X133096Y171817D01*
X133098Y171690D01*
X133104Y171563D01*
X133113Y171436D01*
X133126Y171310D01*
X133143Y171184D01*
X133164Y171059D01*
X133189Y170934D01*
X133217Y170811D01*
X133249Y170688D01*
X133285Y170566D01*
X133324Y170445D01*
X133367Y170325D01*
X133413Y170207D01*
X133463Y170090D01*
X133517Y169975D01*
X133574Y169862D01*
X133634Y169750D01*
X133697Y169640D01*
X133764Y169532D01*
X133834Y169426D01*
X133907Y169322D01*
X133984Y169220D01*
X134063Y169121D01*
X134145Y169024D01*
X134230Y168930D01*
X134318Y168838D01*
X134408Y168749D01*
X134502Y168663D01*
X134597Y168579D01*
X134695Y168499D01*
X134796Y168421D01*
X134899Y168346D01*
X135004Y168275D01*
X135111Y168207D01*
X135220Y168142D01*
X135331Y168080D01*
X135444Y168021D01*
X135558Y167966D01*
X135674Y167915D01*
X135792Y167867D01*
X135911Y167822D01*
X136031Y167781D01*
X138966Y174018D02*
X138886Y174100D01*
X138803Y174179D01*
X138717Y174256D01*
X138629Y174330D01*
X138538Y174400D01*
X138446Y174468D01*
X138351Y174533D01*
X138254Y174595D01*
X138155Y174653D01*
X138054Y174709D01*
X137952Y174761D01*
X137848Y174809D01*
X137742Y174854D01*
X137635Y174896D01*
X137527Y174935D01*
X137417Y174969D01*
X137307Y175001D01*
X137195Y175028D01*
X137083Y175052D01*
X136970Y175073D01*
X136856Y175089D01*
X136742Y175102D01*
X136628Y175112D01*
X136513Y175117D01*
X136398Y175119D01*
X138966Y174018D02*
X146304Y167781D01*
X146304Y175119D01*
X380746Y171817D02*
X380748Y171930D01*
X380754Y172042D01*
X380763Y172155D01*
X380777Y172267D01*
X380794Y172378D01*
X380815Y172489D01*
X380840Y172599D01*
X380868Y172708D01*
X380901Y172816D01*
X380937Y172923D01*
X380976Y173028D01*
X381019Y173133D01*
X381066Y173235D01*
X381116Y173336D01*
X381170Y173435D01*
X381227Y173533D01*
X381287Y173628D01*
X381350Y173721D01*
X381417Y173812D01*
X381487Y173901D01*
X381559Y173987D01*
X381635Y174071D01*
X381713Y174152D01*
X381794Y174230D01*
X381878Y174306D01*
X381964Y174378D01*
X382053Y174448D01*
X382144Y174515D01*
X382237Y174578D01*
X382332Y174638D01*
X382430Y174695D01*
X382529Y174749D01*
X382630Y174799D01*
X382732Y174846D01*
X382837Y174889D01*
X382942Y174928D01*
X383049Y174964D01*
X383157Y174997D01*
X383266Y175025D01*
X383376Y175050D01*
X383487Y175071D01*
X383598Y175088D01*
X383710Y175102D01*
X383823Y175111D01*
X383935Y175117D01*
X384048Y175119D01*
X380746Y171817D02*
X380748Y171690D01*
X380754Y171563D01*
X380763Y171436D01*
X380776Y171310D01*
X380793Y171184D01*
X380814Y171059D01*
X380839Y170934D01*
X380867Y170811D01*
X380899Y170688D01*
X380935Y170566D01*
X380974Y170445D01*
X381017Y170325D01*
X381063Y170207D01*
X381113Y170090D01*
X381167Y169975D01*
X381224Y169862D01*
X381284Y169750D01*
X381347Y169640D01*
X381414Y169532D01*
X381484Y169426D01*
X381557Y169322D01*
X381634Y169220D01*
X381713Y169121D01*
X381795Y169024D01*
X381880Y168930D01*
X381968Y168838D01*
X382058Y168749D01*
X382152Y168663D01*
X382247Y168579D01*
X382345Y168499D01*
X382446Y168421D01*
X382549Y168346D01*
X382654Y168275D01*
X382761Y168207D01*
X382870Y168142D01*
X382981Y168080D01*
X383094Y168021D01*
X383208Y167966D01*
X383324Y167915D01*
X383442Y167867D01*
X383561Y167822D01*
X383681Y167781D01*
X386616Y174018D02*
X386536Y174100D01*
X386453Y174179D01*
X386367Y174256D01*
X386279Y174330D01*
X386188Y174400D01*
X386096Y174468D01*
X386001Y174533D01*
X385904Y174595D01*
X385805Y174653D01*
X385704Y174709D01*
X385602Y174761D01*
X385498Y174809D01*
X385392Y174854D01*
X385285Y174896D01*
X385177Y174935D01*
X385067Y174969D01*
X384957Y175001D01*
X384845Y175028D01*
X384733Y175052D01*
X384620Y175073D01*
X384506Y175089D01*
X384392Y175102D01*
X384278Y175112D01*
X384163Y175117D01*
X384048Y175119D01*
X386616Y174018D02*
X393954Y167781D01*
X393954Y175119D01*
X393954Y146050D02*
X393954Y142381D01*
X393954Y146050D02*
X393952Y146170D01*
X393946Y146290D01*
X393936Y146410D01*
X393923Y146529D01*
X393905Y146648D01*
X393884Y146766D01*
X393858Y146883D01*
X393829Y147000D01*
X393796Y147115D01*
X393759Y147229D01*
X393719Y147342D01*
X393675Y147454D01*
X393627Y147564D01*
X393576Y147673D01*
X393521Y147780D01*
X393462Y147885D01*
X393401Y147987D01*
X393336Y148088D01*
X393267Y148187D01*
X393196Y148284D01*
X393121Y148378D01*
X393044Y148469D01*
X392963Y148558D01*
X392879Y148644D01*
X392793Y148728D01*
X392704Y148809D01*
X392613Y148886D01*
X392519Y148961D01*
X392422Y149032D01*
X392323Y149101D01*
X392222Y149166D01*
X392120Y149227D01*
X392015Y149286D01*
X391908Y149341D01*
X391799Y149392D01*
X391689Y149440D01*
X391577Y149484D01*
X391464Y149524D01*
X391350Y149561D01*
X391235Y149594D01*
X391118Y149623D01*
X391001Y149649D01*
X390883Y149670D01*
X390764Y149688D01*
X390645Y149701D01*
X390525Y149711D01*
X390405Y149717D01*
X390285Y149719D01*
X390165Y149717D01*
X390045Y149711D01*
X389925Y149701D01*
X389806Y149688D01*
X389687Y149670D01*
X389569Y149649D01*
X389452Y149623D01*
X389335Y149594D01*
X389220Y149561D01*
X389106Y149524D01*
X388993Y149484D01*
X388881Y149440D01*
X388771Y149392D01*
X388662Y149341D01*
X388555Y149286D01*
X388451Y149227D01*
X388348Y149166D01*
X388247Y149101D01*
X388148Y149032D01*
X388051Y148961D01*
X387957Y148886D01*
X387866Y148809D01*
X387777Y148728D01*
X387691Y148644D01*
X387607Y148558D01*
X387526Y148469D01*
X387449Y148378D01*
X387374Y148284D01*
X387303Y148187D01*
X387234Y148088D01*
X387169Y147987D01*
X387108Y147885D01*
X387049Y147780D01*
X386994Y147673D01*
X386943Y147564D01*
X386895Y147454D01*
X386851Y147342D01*
X386811Y147229D01*
X386774Y147115D01*
X386741Y147000D01*
X386712Y146883D01*
X386686Y146766D01*
X386665Y146648D01*
X386647Y146529D01*
X386634Y146410D01*
X386624Y146290D01*
X386618Y146170D01*
X386616Y146050D01*
X380746Y146784D02*
X380746Y142381D01*
X380746Y146784D02*
X380748Y146891D01*
X380754Y146998D01*
X380764Y147105D01*
X380777Y147211D01*
X380795Y147317D01*
X380816Y147422D01*
X380841Y147526D01*
X380870Y147630D01*
X380903Y147732D01*
X380940Y147832D01*
X380980Y147932D01*
X381024Y148030D01*
X381071Y148126D01*
X381122Y148220D01*
X381176Y148313D01*
X381233Y148403D01*
X381294Y148492D01*
X381358Y148578D01*
X381425Y148661D01*
X381495Y148743D01*
X381568Y148821D01*
X381644Y148897D01*
X381722Y148970D01*
X381804Y149040D01*
X381887Y149107D01*
X381973Y149171D01*
X382062Y149232D01*
X382152Y149289D01*
X382245Y149343D01*
X382339Y149394D01*
X382435Y149441D01*
X382533Y149485D01*
X382633Y149525D01*
X382733Y149562D01*
X382835Y149595D01*
X382939Y149624D01*
X383043Y149649D01*
X383148Y149670D01*
X383254Y149688D01*
X383360Y149701D01*
X383467Y149711D01*
X383574Y149717D01*
X383681Y149719D01*
X383788Y149717D01*
X383895Y149711D01*
X384002Y149701D01*
X384108Y149688D01*
X384214Y149670D01*
X384319Y149649D01*
X384423Y149624D01*
X384527Y149595D01*
X384629Y149562D01*
X384729Y149525D01*
X384829Y149485D01*
X384927Y149441D01*
X385023Y149394D01*
X385117Y149343D01*
X385210Y149289D01*
X385300Y149232D01*
X385389Y149171D01*
X385475Y149107D01*
X385558Y149040D01*
X385640Y148970D01*
X385718Y148897D01*
X385794Y148821D01*
X385867Y148743D01*
X385937Y148661D01*
X386004Y148578D01*
X386068Y148492D01*
X386129Y148403D01*
X386186Y148313D01*
X386240Y148220D01*
X386291Y148126D01*
X386338Y148030D01*
X386382Y147932D01*
X386422Y147832D01*
X386459Y147732D01*
X386492Y147630D01*
X386521Y147526D01*
X386546Y147422D01*
X386567Y147317D01*
X386585Y147211D01*
X386598Y147105D01*
X386608Y146998D01*
X386614Y146891D01*
X386616Y146784D01*
X386616Y143849D01*
X146304Y142381D02*
X146304Y146050D01*
X146302Y146170D01*
X146296Y146290D01*
X146286Y146410D01*
X146273Y146529D01*
X146255Y146648D01*
X146234Y146766D01*
X146208Y146883D01*
X146179Y147000D01*
X146146Y147115D01*
X146109Y147229D01*
X146069Y147342D01*
X146025Y147454D01*
X145977Y147564D01*
X145926Y147673D01*
X145871Y147780D01*
X145812Y147885D01*
X145751Y147987D01*
X145686Y148088D01*
X145617Y148187D01*
X145546Y148284D01*
X145471Y148378D01*
X145394Y148469D01*
X145313Y148558D01*
X145229Y148644D01*
X145143Y148728D01*
X145054Y148809D01*
X144963Y148886D01*
X144869Y148961D01*
X144772Y149032D01*
X144673Y149101D01*
X144572Y149166D01*
X144470Y149227D01*
X144365Y149286D01*
X144258Y149341D01*
X144149Y149392D01*
X144039Y149440D01*
X143927Y149484D01*
X143814Y149524D01*
X143700Y149561D01*
X143585Y149594D01*
X143468Y149623D01*
X143351Y149649D01*
X143233Y149670D01*
X143114Y149688D01*
X142995Y149701D01*
X142875Y149711D01*
X142755Y149717D01*
X142635Y149719D01*
X142515Y149717D01*
X142395Y149711D01*
X142275Y149701D01*
X142156Y149688D01*
X142037Y149670D01*
X141919Y149649D01*
X141802Y149623D01*
X141685Y149594D01*
X141570Y149561D01*
X141456Y149524D01*
X141343Y149484D01*
X141231Y149440D01*
X141121Y149392D01*
X141012Y149341D01*
X140905Y149286D01*
X140801Y149227D01*
X140698Y149166D01*
X140597Y149101D01*
X140498Y149032D01*
X140401Y148961D01*
X140307Y148886D01*
X140216Y148809D01*
X140127Y148728D01*
X140041Y148644D01*
X139957Y148558D01*
X139876Y148469D01*
X139799Y148378D01*
X139724Y148284D01*
X139653Y148187D01*
X139584Y148088D01*
X139519Y147987D01*
X139458Y147885D01*
X139399Y147780D01*
X139344Y147673D01*
X139293Y147564D01*
X139245Y147454D01*
X139201Y147342D01*
X139161Y147229D01*
X139124Y147115D01*
X139091Y147000D01*
X139062Y146883D01*
X139036Y146766D01*
X139015Y146648D01*
X138997Y146529D01*
X138984Y146410D01*
X138974Y146290D01*
X138968Y146170D01*
X138966Y146050D01*
X133096Y146784D02*
X133096Y142381D01*
X133096Y146784D02*
X133098Y146891D01*
X133104Y146998D01*
X133114Y147105D01*
X133127Y147211D01*
X133145Y147317D01*
X133166Y147422D01*
X133191Y147526D01*
X133220Y147630D01*
X133253Y147732D01*
X133290Y147832D01*
X133330Y147932D01*
X133374Y148030D01*
X133421Y148126D01*
X133472Y148220D01*
X133526Y148313D01*
X133583Y148403D01*
X133644Y148492D01*
X133708Y148578D01*
X133775Y148661D01*
X133845Y148743D01*
X133918Y148821D01*
X133994Y148897D01*
X134072Y148970D01*
X134154Y149040D01*
X134237Y149107D01*
X134323Y149171D01*
X134412Y149232D01*
X134502Y149289D01*
X134595Y149343D01*
X134689Y149394D01*
X134785Y149441D01*
X134883Y149485D01*
X134983Y149525D01*
X135083Y149562D01*
X135185Y149595D01*
X135289Y149624D01*
X135393Y149649D01*
X135498Y149670D01*
X135604Y149688D01*
X135710Y149701D01*
X135817Y149711D01*
X135924Y149717D01*
X136031Y149719D01*
X136138Y149717D01*
X136245Y149711D01*
X136352Y149701D01*
X136458Y149688D01*
X136564Y149670D01*
X136669Y149649D01*
X136773Y149624D01*
X136877Y149595D01*
X136979Y149562D01*
X137079Y149525D01*
X137179Y149485D01*
X137277Y149441D01*
X137373Y149394D01*
X137467Y149343D01*
X137560Y149289D01*
X137650Y149232D01*
X137739Y149171D01*
X137825Y149107D01*
X137908Y149040D01*
X137990Y148970D01*
X138068Y148897D01*
X138144Y148821D01*
X138217Y148743D01*
X138287Y148661D01*
X138354Y148578D01*
X138418Y148492D01*
X138479Y148403D01*
X138536Y148313D01*
X138590Y148220D01*
X138641Y148126D01*
X138688Y148030D01*
X138732Y147932D01*
X138772Y147832D01*
X138809Y147732D01*
X138842Y147630D01*
X138871Y147526D01*
X138896Y147422D01*
X138917Y147317D01*
X138935Y147211D01*
X138948Y147105D01*
X138958Y146998D01*
X138964Y146891D01*
X138966Y146784D01*
X138966Y143849D01*
X380746Y119916D02*
X391019Y116981D01*
X391019Y124319D01*
X388084Y122118D02*
X393954Y122118D01*
X143369Y116981D02*
X133096Y119916D01*
X143369Y116981D02*
X143369Y124319D01*
X140434Y122118D02*
X146304Y122118D01*
X191008Y100894D02*
X199813Y100894D01*
X205397Y106031D02*
X209066Y108966D01*
X209066Y95758D01*
X205397Y95758D02*
X212735Y95758D01*
X225536Y105664D02*
X225534Y105777D01*
X225528Y105889D01*
X225519Y106002D01*
X225505Y106114D01*
X225488Y106225D01*
X225467Y106336D01*
X225442Y106446D01*
X225414Y106555D01*
X225381Y106663D01*
X225345Y106770D01*
X225306Y106875D01*
X225263Y106980D01*
X225216Y107082D01*
X225166Y107183D01*
X225112Y107282D01*
X225055Y107380D01*
X224995Y107475D01*
X224932Y107568D01*
X224865Y107659D01*
X224795Y107748D01*
X224723Y107834D01*
X224647Y107918D01*
X224569Y107999D01*
X224488Y108077D01*
X224404Y108153D01*
X224318Y108225D01*
X224229Y108295D01*
X224138Y108362D01*
X224045Y108425D01*
X223950Y108485D01*
X223852Y108542D01*
X223753Y108596D01*
X223652Y108646D01*
X223550Y108693D01*
X223445Y108736D01*
X223340Y108775D01*
X223233Y108811D01*
X223125Y108844D01*
X223016Y108872D01*
X222906Y108897D01*
X222795Y108918D01*
X222684Y108935D01*
X222572Y108949D01*
X222459Y108958D01*
X222347Y108964D01*
X222234Y108966D01*
X222107Y108964D01*
X221980Y108958D01*
X221853Y108949D01*
X221727Y108936D01*
X221601Y108919D01*
X221476Y108898D01*
X221351Y108873D01*
X221228Y108845D01*
X221105Y108813D01*
X220983Y108777D01*
X220862Y108738D01*
X220742Y108695D01*
X220624Y108649D01*
X220507Y108599D01*
X220392Y108545D01*
X220279Y108488D01*
X220167Y108428D01*
X220057Y108365D01*
X219949Y108298D01*
X219843Y108228D01*
X219739Y108155D01*
X219637Y108078D01*
X219538Y107999D01*
X219441Y107917D01*
X219347Y107832D01*
X219255Y107744D01*
X219166Y107654D01*
X219080Y107560D01*
X218996Y107465D01*
X218916Y107367D01*
X218838Y107266D01*
X218763Y107163D01*
X218692Y107058D01*
X218624Y106951D01*
X218559Y106842D01*
X218497Y106731D01*
X218438Y106618D01*
X218383Y106504D01*
X218332Y106388D01*
X218284Y106270D01*
X218239Y106151D01*
X218198Y106031D01*
X224435Y103096D02*
X224517Y103176D01*
X224596Y103259D01*
X224673Y103345D01*
X224747Y103433D01*
X224817Y103524D01*
X224885Y103616D01*
X224950Y103711D01*
X225012Y103808D01*
X225070Y103907D01*
X225126Y104008D01*
X225178Y104110D01*
X225226Y104214D01*
X225271Y104320D01*
X225313Y104427D01*
X225352Y104535D01*
X225386Y104645D01*
X225418Y104755D01*
X225445Y104867D01*
X225469Y104979D01*
X225490Y105092D01*
X225506Y105206D01*
X225519Y105320D01*
X225529Y105434D01*
X225534Y105549D01*
X225536Y105664D01*
X224435Y103096D02*
X218198Y95758D01*
X225536Y95758D01*
X234669Y95758D02*
X230266Y108966D01*
X239071Y108966D02*
X234669Y95758D01*
X508706Y184658D02*
X508706Y193463D01*
X513108Y189061D02*
X504303Y189061D01*
X503569Y199047D02*
X500634Y202716D01*
X513842Y202716D01*
X513842Y199047D02*
X513842Y206385D01*
X503936Y219186D02*
X503823Y219184D01*
X503711Y219178D01*
X503598Y219169D01*
X503486Y219155D01*
X503375Y219138D01*
X503264Y219117D01*
X503154Y219092D01*
X503045Y219064D01*
X502937Y219031D01*
X502830Y218995D01*
X502725Y218956D01*
X502620Y218913D01*
X502518Y218866D01*
X502417Y218816D01*
X502318Y218762D01*
X502220Y218705D01*
X502125Y218645D01*
X502032Y218582D01*
X501941Y218515D01*
X501852Y218445D01*
X501766Y218373D01*
X501682Y218297D01*
X501601Y218219D01*
X501523Y218138D01*
X501447Y218054D01*
X501375Y217968D01*
X501305Y217879D01*
X501238Y217788D01*
X501175Y217695D01*
X501115Y217600D01*
X501058Y217502D01*
X501004Y217403D01*
X500954Y217302D01*
X500907Y217200D01*
X500864Y217095D01*
X500825Y216990D01*
X500789Y216883D01*
X500756Y216775D01*
X500728Y216666D01*
X500703Y216556D01*
X500682Y216445D01*
X500665Y216334D01*
X500651Y216222D01*
X500642Y216109D01*
X500636Y215997D01*
X500634Y215884D01*
X500636Y215757D01*
X500642Y215630D01*
X500651Y215503D01*
X500664Y215377D01*
X500681Y215251D01*
X500702Y215126D01*
X500727Y215001D01*
X500755Y214878D01*
X500787Y214755D01*
X500823Y214633D01*
X500862Y214512D01*
X500905Y214392D01*
X500951Y214274D01*
X501001Y214157D01*
X501055Y214042D01*
X501112Y213929D01*
X501172Y213817D01*
X501235Y213707D01*
X501302Y213599D01*
X501372Y213493D01*
X501445Y213389D01*
X501522Y213287D01*
X501601Y213188D01*
X501683Y213091D01*
X501768Y212997D01*
X501856Y212905D01*
X501946Y212816D01*
X502040Y212730D01*
X502135Y212646D01*
X502233Y212566D01*
X502334Y212488D01*
X502437Y212413D01*
X502542Y212342D01*
X502649Y212274D01*
X502758Y212209D01*
X502869Y212147D01*
X502982Y212088D01*
X503096Y212033D01*
X503212Y211982D01*
X503330Y211934D01*
X503449Y211889D01*
X503569Y211848D01*
X506504Y218085D02*
X506424Y218167D01*
X506341Y218246D01*
X506255Y218323D01*
X506167Y218397D01*
X506076Y218467D01*
X505984Y218535D01*
X505889Y218600D01*
X505792Y218662D01*
X505693Y218720D01*
X505592Y218776D01*
X505490Y218828D01*
X505386Y218876D01*
X505280Y218921D01*
X505173Y218963D01*
X505065Y219002D01*
X504955Y219036D01*
X504845Y219068D01*
X504733Y219095D01*
X504621Y219119D01*
X504508Y219140D01*
X504394Y219156D01*
X504280Y219169D01*
X504166Y219179D01*
X504051Y219184D01*
X503936Y219186D01*
X506504Y218085D02*
X513842Y211848D01*
X513842Y219186D01*
X513842Y228319D02*
X500634Y223916D01*
X500634Y232721D02*
X513842Y228319D01*
X301413Y100894D02*
X292608Y100894D01*
X297011Y96492D02*
X297011Y105297D01*
X306997Y106031D02*
X310666Y108966D01*
X310666Y95758D01*
X306997Y95758D02*
X314335Y95758D01*
X327136Y105664D02*
X327134Y105777D01*
X327128Y105889D01*
X327119Y106002D01*
X327105Y106114D01*
X327088Y106225D01*
X327067Y106336D01*
X327042Y106446D01*
X327014Y106555D01*
X326981Y106663D01*
X326945Y106770D01*
X326906Y106875D01*
X326863Y106980D01*
X326816Y107082D01*
X326766Y107183D01*
X326712Y107282D01*
X326655Y107380D01*
X326595Y107475D01*
X326532Y107568D01*
X326465Y107659D01*
X326395Y107748D01*
X326323Y107834D01*
X326247Y107918D01*
X326169Y107999D01*
X326088Y108077D01*
X326004Y108153D01*
X325918Y108225D01*
X325829Y108295D01*
X325738Y108362D01*
X325645Y108425D01*
X325550Y108485D01*
X325452Y108542D01*
X325353Y108596D01*
X325252Y108646D01*
X325150Y108693D01*
X325045Y108736D01*
X324940Y108775D01*
X324833Y108811D01*
X324725Y108844D01*
X324616Y108872D01*
X324506Y108897D01*
X324395Y108918D01*
X324284Y108935D01*
X324172Y108949D01*
X324059Y108958D01*
X323947Y108964D01*
X323834Y108966D01*
X323707Y108964D01*
X323580Y108958D01*
X323453Y108949D01*
X323327Y108936D01*
X323201Y108919D01*
X323076Y108898D01*
X322951Y108873D01*
X322828Y108845D01*
X322705Y108813D01*
X322583Y108777D01*
X322462Y108738D01*
X322342Y108695D01*
X322224Y108649D01*
X322107Y108599D01*
X321992Y108545D01*
X321879Y108488D01*
X321767Y108428D01*
X321657Y108365D01*
X321549Y108298D01*
X321443Y108228D01*
X321339Y108155D01*
X321237Y108078D01*
X321138Y107999D01*
X321041Y107917D01*
X320947Y107832D01*
X320855Y107744D01*
X320766Y107654D01*
X320680Y107560D01*
X320596Y107465D01*
X320516Y107367D01*
X320438Y107266D01*
X320363Y107163D01*
X320292Y107058D01*
X320224Y106951D01*
X320159Y106842D01*
X320097Y106731D01*
X320038Y106618D01*
X319983Y106504D01*
X319932Y106388D01*
X319884Y106270D01*
X319839Y106151D01*
X319798Y106031D01*
X326035Y103096D02*
X326117Y103176D01*
X326196Y103259D01*
X326273Y103345D01*
X326347Y103433D01*
X326417Y103524D01*
X326485Y103616D01*
X326550Y103711D01*
X326612Y103808D01*
X326670Y103907D01*
X326726Y104008D01*
X326778Y104110D01*
X326826Y104214D01*
X326871Y104320D01*
X326913Y104427D01*
X326952Y104535D01*
X326986Y104645D01*
X327018Y104755D01*
X327045Y104867D01*
X327069Y104979D01*
X327090Y105092D01*
X327106Y105206D01*
X327119Y105320D01*
X327129Y105434D01*
X327134Y105549D01*
X327136Y105664D01*
X326035Y103096D02*
X319798Y95758D01*
X327136Y95758D01*
X336269Y95758D02*
X331866Y108966D01*
X340671Y108966D02*
X336269Y95758D01*
X45099Y153049D02*
X43152Y153049D01*
X45099Y153049D02*
X45099Y146558D01*
X41204Y146558D01*
X41105Y146560D01*
X41005Y146566D01*
X40906Y146575D01*
X40808Y146588D01*
X40710Y146605D01*
X40612Y146626D01*
X40516Y146651D01*
X40421Y146679D01*
X40327Y146711D01*
X40234Y146746D01*
X40142Y146785D01*
X40052Y146828D01*
X39964Y146873D01*
X39877Y146923D01*
X39793Y146975D01*
X39710Y147031D01*
X39630Y147089D01*
X39552Y147151D01*
X39477Y147216D01*
X39404Y147284D01*
X39334Y147354D01*
X39266Y147427D01*
X39201Y147502D01*
X39139Y147580D01*
X39081Y147660D01*
X39025Y147743D01*
X38973Y147827D01*
X38923Y147914D01*
X38878Y148002D01*
X38835Y148092D01*
X38796Y148184D01*
X38761Y148277D01*
X38729Y148371D01*
X38701Y148466D01*
X38676Y148562D01*
X38655Y148660D01*
X38638Y148758D01*
X38625Y148856D01*
X38616Y148955D01*
X38610Y149055D01*
X38608Y149154D01*
X38608Y155646D01*
X38610Y155745D01*
X38616Y155845D01*
X38625Y155944D01*
X38638Y156042D01*
X38655Y156140D01*
X38676Y156238D01*
X38701Y156334D01*
X38729Y156429D01*
X38761Y156523D01*
X38796Y156616D01*
X38835Y156708D01*
X38878Y156798D01*
X38923Y156886D01*
X38973Y156973D01*
X39025Y157057D01*
X39081Y157140D01*
X39139Y157220D01*
X39201Y157298D01*
X39266Y157373D01*
X39334Y157446D01*
X39404Y157516D01*
X39477Y157584D01*
X39552Y157649D01*
X39630Y157711D01*
X39710Y157769D01*
X39793Y157825D01*
X39877Y157877D01*
X39964Y157927D01*
X40052Y157972D01*
X40142Y158015D01*
X40234Y158054D01*
X40326Y158089D01*
X40421Y158121D01*
X40516Y158149D01*
X40612Y158174D01*
X40710Y158195D01*
X40808Y158212D01*
X40906Y158225D01*
X41005Y158234D01*
X41105Y158240D01*
X41204Y158242D01*
X45099Y158242D01*
X50823Y146558D02*
X56015Y146558D01*
X50823Y146558D02*
X50823Y158242D01*
X56015Y158242D01*
X54717Y153049D02*
X50823Y153049D01*
X60780Y158242D02*
X60780Y146558D01*
X60780Y158242D02*
X64025Y158242D01*
X64138Y158240D01*
X64251Y158234D01*
X64364Y158224D01*
X64477Y158210D01*
X64589Y158193D01*
X64700Y158171D01*
X64810Y158146D01*
X64920Y158116D01*
X65028Y158083D01*
X65135Y158046D01*
X65241Y158006D01*
X65345Y157961D01*
X65448Y157913D01*
X65549Y157862D01*
X65648Y157807D01*
X65745Y157749D01*
X65840Y157687D01*
X65933Y157622D01*
X66023Y157554D01*
X66111Y157483D01*
X66197Y157408D01*
X66280Y157331D01*
X66360Y157251D01*
X66437Y157168D01*
X66512Y157082D01*
X66583Y156994D01*
X66651Y156904D01*
X66716Y156811D01*
X66778Y156716D01*
X66836Y156619D01*
X66891Y156520D01*
X66942Y156419D01*
X66990Y156316D01*
X67035Y156212D01*
X67075Y156106D01*
X67112Y155999D01*
X67145Y155891D01*
X67175Y155781D01*
X67200Y155671D01*
X67222Y155560D01*
X67239Y155448D01*
X67253Y155335D01*
X67263Y155222D01*
X67269Y155109D01*
X67271Y154996D01*
X67269Y154883D01*
X67263Y154770D01*
X67253Y154657D01*
X67239Y154544D01*
X67222Y154432D01*
X67200Y154321D01*
X67175Y154211D01*
X67145Y154101D01*
X67112Y153993D01*
X67075Y153886D01*
X67035Y153780D01*
X66990Y153676D01*
X66942Y153573D01*
X66891Y153472D01*
X66836Y153373D01*
X66778Y153276D01*
X66716Y153181D01*
X66651Y153088D01*
X66583Y152998D01*
X66512Y152910D01*
X66437Y152824D01*
X66360Y152741D01*
X66280Y152661D01*
X66197Y152584D01*
X66111Y152509D01*
X66023Y152438D01*
X65933Y152370D01*
X65840Y152305D01*
X65745Y152243D01*
X65648Y152185D01*
X65549Y152130D01*
X65448Y152079D01*
X65345Y152031D01*
X65241Y151986D01*
X65135Y151946D01*
X65028Y151909D01*
X64920Y151876D01*
X64810Y151846D01*
X64700Y151821D01*
X64589Y151799D01*
X64477Y151782D01*
X64364Y151768D01*
X64251Y151758D01*
X64138Y151752D01*
X64025Y151750D01*
X64025Y151751D02*
X60780Y151751D01*
X64674Y151751D02*
X67271Y146558D01*
X72686Y153049D02*
X75932Y153049D01*
X75932Y153050D02*
X76045Y153048D01*
X76158Y153042D01*
X76271Y153032D01*
X76384Y153018D01*
X76496Y153001D01*
X76607Y152979D01*
X76717Y152954D01*
X76827Y152924D01*
X76935Y152891D01*
X77042Y152854D01*
X77148Y152814D01*
X77252Y152769D01*
X77355Y152721D01*
X77456Y152670D01*
X77555Y152615D01*
X77652Y152557D01*
X77747Y152495D01*
X77840Y152430D01*
X77930Y152362D01*
X78018Y152291D01*
X78104Y152216D01*
X78187Y152139D01*
X78267Y152059D01*
X78344Y151976D01*
X78419Y151890D01*
X78490Y151802D01*
X78558Y151712D01*
X78623Y151619D01*
X78685Y151524D01*
X78743Y151427D01*
X78798Y151328D01*
X78849Y151227D01*
X78897Y151124D01*
X78942Y151020D01*
X78982Y150914D01*
X79019Y150807D01*
X79052Y150699D01*
X79082Y150589D01*
X79107Y150479D01*
X79129Y150368D01*
X79146Y150256D01*
X79160Y150143D01*
X79170Y150030D01*
X79176Y149917D01*
X79178Y149804D01*
X79176Y149691D01*
X79170Y149578D01*
X79160Y149465D01*
X79146Y149352D01*
X79129Y149240D01*
X79107Y149129D01*
X79082Y149019D01*
X79052Y148909D01*
X79019Y148801D01*
X78982Y148694D01*
X78942Y148588D01*
X78897Y148484D01*
X78849Y148381D01*
X78798Y148280D01*
X78743Y148181D01*
X78685Y148084D01*
X78623Y147989D01*
X78558Y147896D01*
X78490Y147806D01*
X78419Y147718D01*
X78344Y147632D01*
X78267Y147549D01*
X78187Y147469D01*
X78104Y147392D01*
X78018Y147317D01*
X77930Y147246D01*
X77840Y147178D01*
X77747Y147113D01*
X77652Y147051D01*
X77555Y146993D01*
X77456Y146938D01*
X77355Y146887D01*
X77252Y146839D01*
X77148Y146794D01*
X77042Y146754D01*
X76935Y146717D01*
X76827Y146684D01*
X76717Y146654D01*
X76607Y146629D01*
X76496Y146607D01*
X76384Y146590D01*
X76271Y146576D01*
X76158Y146566D01*
X76045Y146560D01*
X75932Y146558D01*
X72686Y146558D01*
X72686Y158242D01*
X75932Y158242D01*
X76033Y158240D01*
X76133Y158234D01*
X76233Y158224D01*
X76333Y158211D01*
X76432Y158193D01*
X76531Y158172D01*
X76628Y158147D01*
X76725Y158118D01*
X76820Y158085D01*
X76914Y158049D01*
X77006Y158009D01*
X77097Y157966D01*
X77186Y157919D01*
X77273Y157869D01*
X77359Y157815D01*
X77442Y157758D01*
X77522Y157698D01*
X77601Y157635D01*
X77677Y157568D01*
X77750Y157499D01*
X77820Y157427D01*
X77888Y157353D01*
X77953Y157276D01*
X78014Y157196D01*
X78073Y157114D01*
X78128Y157030D01*
X78180Y156944D01*
X78229Y156856D01*
X78274Y156766D01*
X78316Y156674D01*
X78354Y156581D01*
X78388Y156486D01*
X78419Y156391D01*
X78446Y156294D01*
X78469Y156196D01*
X78489Y156097D01*
X78504Y155997D01*
X78516Y155897D01*
X78524Y155797D01*
X78528Y155696D01*
X78528Y155596D01*
X78524Y155495D01*
X78516Y155395D01*
X78504Y155295D01*
X78489Y155195D01*
X78469Y155096D01*
X78446Y154998D01*
X78419Y154901D01*
X78388Y154806D01*
X78354Y154711D01*
X78316Y154618D01*
X78274Y154526D01*
X78229Y154436D01*
X78180Y154348D01*
X78128Y154262D01*
X78073Y154178D01*
X78014Y154096D01*
X77953Y154016D01*
X77888Y153939D01*
X77820Y153865D01*
X77750Y153793D01*
X77677Y153724D01*
X77601Y153657D01*
X77522Y153594D01*
X77442Y153534D01*
X77359Y153477D01*
X77273Y153423D01*
X77186Y153373D01*
X77097Y153326D01*
X77006Y153283D01*
X76914Y153243D01*
X76820Y153207D01*
X76725Y153174D01*
X76628Y153145D01*
X76531Y153120D01*
X76432Y153099D01*
X76333Y153081D01*
X76233Y153068D01*
X76133Y153058D01*
X76033Y153052D01*
X75932Y153050D01*
X45099Y130104D02*
X45097Y130005D01*
X45091Y129905D01*
X45082Y129806D01*
X45069Y129708D01*
X45052Y129610D01*
X45031Y129512D01*
X45006Y129416D01*
X44978Y129321D01*
X44946Y129227D01*
X44911Y129134D01*
X44872Y129042D01*
X44829Y128952D01*
X44784Y128864D01*
X44734Y128777D01*
X44682Y128693D01*
X44626Y128610D01*
X44568Y128530D01*
X44506Y128452D01*
X44441Y128377D01*
X44373Y128304D01*
X44303Y128234D01*
X44230Y128166D01*
X44155Y128101D01*
X44077Y128039D01*
X43997Y127981D01*
X43914Y127925D01*
X43830Y127873D01*
X43743Y127823D01*
X43655Y127778D01*
X43565Y127735D01*
X43473Y127696D01*
X43380Y127661D01*
X43286Y127629D01*
X43191Y127601D01*
X43095Y127576D01*
X42997Y127555D01*
X42899Y127538D01*
X42801Y127525D01*
X42702Y127516D01*
X42602Y127510D01*
X42503Y127508D01*
X42359Y127510D01*
X42214Y127516D01*
X42070Y127525D01*
X41927Y127538D01*
X41783Y127555D01*
X41640Y127576D01*
X41498Y127601D01*
X41357Y127629D01*
X41216Y127661D01*
X41076Y127697D01*
X40937Y127736D01*
X40799Y127779D01*
X40663Y127826D01*
X40527Y127876D01*
X40393Y127930D01*
X40261Y127987D01*
X40130Y128048D01*
X40001Y128112D01*
X39873Y128180D01*
X39747Y128250D01*
X39623Y128325D01*
X39502Y128402D01*
X39382Y128483D01*
X39264Y128566D01*
X39149Y128653D01*
X39036Y128743D01*
X38925Y128836D01*
X38817Y128931D01*
X38711Y129030D01*
X38608Y129131D01*
X38933Y136596D02*
X38935Y136695D01*
X38941Y136795D01*
X38950Y136894D01*
X38963Y136992D01*
X38980Y137090D01*
X39001Y137188D01*
X39026Y137284D01*
X39054Y137379D01*
X39086Y137473D01*
X39121Y137566D01*
X39160Y137658D01*
X39203Y137748D01*
X39248Y137836D01*
X39298Y137923D01*
X39350Y138007D01*
X39406Y138090D01*
X39464Y138170D01*
X39526Y138248D01*
X39591Y138323D01*
X39659Y138396D01*
X39729Y138466D01*
X39802Y138534D01*
X39877Y138599D01*
X39955Y138661D01*
X40035Y138719D01*
X40118Y138775D01*
X40202Y138827D01*
X40289Y138877D01*
X40377Y138922D01*
X40467Y138965D01*
X40559Y139004D01*
X40652Y139039D01*
X40746Y139071D01*
X40841Y139099D01*
X40938Y139124D01*
X41035Y139145D01*
X41133Y139162D01*
X41231Y139175D01*
X41330Y139184D01*
X41430Y139190D01*
X41529Y139192D01*
X41665Y139190D01*
X41801Y139184D01*
X41937Y139175D01*
X42073Y139162D01*
X42208Y139144D01*
X42342Y139124D01*
X42476Y139099D01*
X42610Y139071D01*
X42742Y139038D01*
X42873Y139003D01*
X43004Y138963D01*
X43133Y138920D01*
X43261Y138874D01*
X43387Y138823D01*
X43513Y138770D01*
X43636Y138712D01*
X43758Y138652D01*
X43878Y138588D01*
X43997Y138520D01*
X44113Y138450D01*
X44227Y138376D01*
X44340Y138299D01*
X44450Y138218D01*
X40231Y134324D02*
X40145Y134377D01*
X40061Y134434D01*
X39979Y134493D01*
X39899Y134556D01*
X39822Y134622D01*
X39747Y134690D01*
X39675Y134762D01*
X39606Y134836D01*
X39540Y134913D01*
X39477Y134992D01*
X39417Y135074D01*
X39360Y135158D01*
X39306Y135244D01*
X39256Y135332D01*
X39209Y135422D01*
X39165Y135513D01*
X39126Y135607D01*
X39089Y135701D01*
X39057Y135797D01*
X39028Y135895D01*
X39003Y135993D01*
X38982Y136092D01*
X38964Y136192D01*
X38951Y136292D01*
X38941Y136393D01*
X38935Y136495D01*
X38933Y136596D01*
X43801Y132376D02*
X43887Y132323D01*
X43971Y132266D01*
X44053Y132207D01*
X44133Y132144D01*
X44210Y132078D01*
X44285Y132010D01*
X44357Y131938D01*
X44426Y131864D01*
X44492Y131787D01*
X44555Y131708D01*
X44615Y131626D01*
X44672Y131542D01*
X44726Y131456D01*
X44776Y131368D01*
X44823Y131278D01*
X44867Y131187D01*
X44906Y131093D01*
X44943Y130999D01*
X44975Y130903D01*
X45004Y130805D01*
X45029Y130707D01*
X45050Y130608D01*
X45068Y130508D01*
X45081Y130408D01*
X45091Y130307D01*
X45097Y130205D01*
X45099Y130104D01*
X43801Y132376D02*
X40231Y134324D01*
X52141Y139192D02*
X52141Y127508D01*
X48895Y139192D02*
X55386Y139192D01*
X59967Y127508D02*
X65159Y127508D01*
X59967Y127508D02*
X59967Y139192D01*
X65159Y139192D01*
X63861Y133999D02*
X59967Y133999D01*
X69924Y139192D02*
X69924Y127508D01*
X69924Y139192D02*
X73169Y139192D01*
X73282Y139190D01*
X73395Y139184D01*
X73508Y139174D01*
X73621Y139160D01*
X73733Y139143D01*
X73844Y139121D01*
X73954Y139096D01*
X74064Y139066D01*
X74172Y139033D01*
X74279Y138996D01*
X74385Y138956D01*
X74489Y138911D01*
X74592Y138863D01*
X74693Y138812D01*
X74792Y138757D01*
X74889Y138699D01*
X74984Y138637D01*
X75077Y138572D01*
X75167Y138504D01*
X75255Y138433D01*
X75341Y138358D01*
X75424Y138281D01*
X75504Y138201D01*
X75581Y138118D01*
X75656Y138032D01*
X75727Y137944D01*
X75795Y137854D01*
X75860Y137761D01*
X75922Y137666D01*
X75980Y137569D01*
X76035Y137470D01*
X76086Y137369D01*
X76134Y137266D01*
X76179Y137162D01*
X76219Y137056D01*
X76256Y136949D01*
X76289Y136841D01*
X76319Y136731D01*
X76344Y136621D01*
X76366Y136510D01*
X76383Y136398D01*
X76397Y136285D01*
X76407Y136172D01*
X76413Y136059D01*
X76415Y135946D01*
X76413Y135833D01*
X76407Y135720D01*
X76397Y135607D01*
X76383Y135494D01*
X76366Y135382D01*
X76344Y135271D01*
X76319Y135161D01*
X76289Y135051D01*
X76256Y134943D01*
X76219Y134836D01*
X76179Y134730D01*
X76134Y134626D01*
X76086Y134523D01*
X76035Y134422D01*
X75980Y134323D01*
X75922Y134226D01*
X75860Y134131D01*
X75795Y134038D01*
X75727Y133948D01*
X75656Y133860D01*
X75581Y133774D01*
X75504Y133691D01*
X75424Y133611D01*
X75341Y133534D01*
X75255Y133459D01*
X75167Y133388D01*
X75077Y133320D01*
X74984Y133255D01*
X74889Y133193D01*
X74792Y133135D01*
X74693Y133080D01*
X74592Y133029D01*
X74489Y132981D01*
X74385Y132936D01*
X74279Y132896D01*
X74172Y132859D01*
X74064Y132826D01*
X73954Y132796D01*
X73844Y132771D01*
X73733Y132749D01*
X73621Y132732D01*
X73508Y132718D01*
X73395Y132708D01*
X73282Y132702D01*
X73169Y132700D01*
X73169Y132701D02*
X69924Y132701D01*
X73818Y132701D02*
X76415Y127508D01*
X45099Y117221D02*
X45097Y117328D01*
X45091Y117434D01*
X45081Y117540D01*
X45068Y117646D01*
X45050Y117752D01*
X45029Y117856D01*
X45004Y117960D01*
X44975Y118063D01*
X44943Y118164D01*
X44906Y118264D01*
X44866Y118363D01*
X44823Y118461D01*
X44776Y118557D01*
X44725Y118651D01*
X44671Y118743D01*
X44614Y118833D01*
X44554Y118921D01*
X44490Y119006D01*
X44423Y119089D01*
X44353Y119170D01*
X44281Y119248D01*
X44205Y119324D01*
X44127Y119396D01*
X44046Y119466D01*
X43963Y119533D01*
X43878Y119597D01*
X43790Y119657D01*
X43700Y119714D01*
X43608Y119768D01*
X43514Y119819D01*
X43418Y119866D01*
X43320Y119909D01*
X43221Y119949D01*
X43121Y119986D01*
X43020Y120018D01*
X42917Y120047D01*
X42813Y120072D01*
X42709Y120093D01*
X42603Y120111D01*
X42497Y120124D01*
X42391Y120134D01*
X42285Y120140D01*
X42178Y120142D01*
X42057Y120140D01*
X41936Y120134D01*
X41816Y120124D01*
X41695Y120111D01*
X41576Y120093D01*
X41456Y120072D01*
X41338Y120047D01*
X41221Y120018D01*
X41104Y119985D01*
X40989Y119949D01*
X40875Y119908D01*
X40762Y119865D01*
X40650Y119817D01*
X40541Y119766D01*
X40433Y119711D01*
X40326Y119653D01*
X40222Y119592D01*
X40120Y119527D01*
X40020Y119459D01*
X39922Y119388D01*
X39826Y119314D01*
X39733Y119237D01*
X39643Y119156D01*
X39555Y119073D01*
X39470Y118987D01*
X39387Y118898D01*
X39308Y118807D01*
X39231Y118713D01*
X39158Y118617D01*
X39088Y118519D01*
X39021Y118418D01*
X38957Y118315D01*
X38897Y118210D01*
X38840Y118103D01*
X38786Y117995D01*
X38736Y117885D01*
X38690Y117773D01*
X38647Y117660D01*
X38608Y117545D01*
X44126Y114949D02*
X44205Y115026D01*
X44281Y115107D01*
X44354Y115190D01*
X44424Y115275D01*
X44491Y115363D01*
X44555Y115453D01*
X44615Y115545D01*
X44672Y115640D01*
X44726Y115736D01*
X44777Y115834D01*
X44824Y115934D01*
X44868Y116036D01*
X44908Y116139D01*
X44944Y116243D01*
X44976Y116349D01*
X45005Y116455D01*
X45030Y116563D01*
X45052Y116671D01*
X45069Y116781D01*
X45083Y116890D01*
X45092Y117000D01*
X45098Y117111D01*
X45100Y117221D01*
X44125Y114949D02*
X38608Y108458D01*
X45099Y108458D01*
X50038Y114300D02*
X50041Y114530D01*
X50049Y114760D01*
X50063Y114989D01*
X50082Y115218D01*
X50107Y115447D01*
X50137Y115674D01*
X50172Y115902D01*
X50213Y116128D01*
X50259Y116353D01*
X50311Y116577D01*
X50368Y116799D01*
X50430Y117021D01*
X50498Y117240D01*
X50571Y117458D01*
X50649Y117675D01*
X50732Y117889D01*
X50820Y118101D01*
X50913Y118311D01*
X51012Y118519D01*
X51045Y118609D01*
X51081Y118698D01*
X51121Y118786D01*
X51165Y118871D01*
X51212Y118955D01*
X51262Y119037D01*
X51316Y119117D01*
X51372Y119194D01*
X51432Y119270D01*
X51495Y119343D01*
X51560Y119413D01*
X51629Y119481D01*
X51700Y119545D01*
X51773Y119607D01*
X51849Y119666D01*
X51927Y119722D01*
X52008Y119775D01*
X52090Y119824D01*
X52174Y119870D01*
X52261Y119913D01*
X52348Y119952D01*
X52438Y119988D01*
X52528Y120020D01*
X52620Y120048D01*
X52713Y120073D01*
X52807Y120094D01*
X52901Y120111D01*
X52996Y120125D01*
X53092Y120134D01*
X53188Y120140D01*
X53284Y120142D01*
X53380Y120140D01*
X53476Y120134D01*
X53572Y120125D01*
X53667Y120111D01*
X53761Y120094D01*
X53855Y120073D01*
X53948Y120048D01*
X54040Y120020D01*
X54130Y119988D01*
X54220Y119952D01*
X54307Y119913D01*
X54394Y119870D01*
X54478Y119824D01*
X54560Y119775D01*
X54641Y119722D01*
X54719Y119666D01*
X54795Y119607D01*
X54868Y119545D01*
X54939Y119481D01*
X55008Y119413D01*
X55073Y119343D01*
X55136Y119270D01*
X55196Y119194D01*
X55252Y119117D01*
X55306Y119037D01*
X55356Y118955D01*
X55403Y118871D01*
X55447Y118786D01*
X55487Y118698D01*
X55523Y118609D01*
X55556Y118519D01*
X55655Y118312D01*
X55748Y118102D01*
X55836Y117889D01*
X55919Y117675D01*
X55997Y117459D01*
X56070Y117241D01*
X56138Y117021D01*
X56200Y116800D01*
X56257Y116577D01*
X56309Y116353D01*
X56355Y116128D01*
X56396Y115902D01*
X56431Y115675D01*
X56461Y115447D01*
X56486Y115218D01*
X56505Y114989D01*
X56519Y114760D01*
X56527Y114530D01*
X56530Y114300D01*
X50038Y114300D02*
X50041Y114070D01*
X50049Y113840D01*
X50063Y113611D01*
X50082Y113382D01*
X50107Y113153D01*
X50137Y112925D01*
X50172Y112698D01*
X50213Y112472D01*
X50259Y112247D01*
X50311Y112023D01*
X50368Y111800D01*
X50430Y111579D01*
X50498Y111359D01*
X50571Y111141D01*
X50649Y110925D01*
X50732Y110711D01*
X50820Y110499D01*
X50913Y110288D01*
X51012Y110081D01*
X51045Y109991D01*
X51081Y109902D01*
X51122Y109814D01*
X51165Y109729D01*
X51212Y109645D01*
X51262Y109563D01*
X51316Y109483D01*
X51372Y109406D01*
X51432Y109330D01*
X51495Y109257D01*
X51560Y109187D01*
X51629Y109119D01*
X51700Y109055D01*
X51773Y108993D01*
X51849Y108934D01*
X51927Y108878D01*
X52008Y108825D01*
X52090Y108776D01*
X52174Y108730D01*
X52261Y108687D01*
X52348Y108648D01*
X52438Y108612D01*
X52528Y108580D01*
X52620Y108552D01*
X52713Y108527D01*
X52807Y108506D01*
X52901Y108489D01*
X52996Y108475D01*
X53092Y108466D01*
X53188Y108460D01*
X53284Y108458D01*
X55555Y110081D02*
X55654Y110288D01*
X55747Y110499D01*
X55835Y110711D01*
X55918Y110925D01*
X55996Y111141D01*
X56069Y111359D01*
X56137Y111579D01*
X56199Y111800D01*
X56256Y112023D01*
X56308Y112247D01*
X56354Y112472D01*
X56395Y112698D01*
X56430Y112925D01*
X56460Y113153D01*
X56485Y113382D01*
X56504Y113611D01*
X56518Y113840D01*
X56526Y114070D01*
X56529Y114300D01*
X55556Y110081D02*
X55523Y109991D01*
X55487Y109902D01*
X55447Y109814D01*
X55403Y109729D01*
X55356Y109645D01*
X55306Y109563D01*
X55252Y109483D01*
X55196Y109406D01*
X55136Y109330D01*
X55073Y109257D01*
X55008Y109187D01*
X54939Y109119D01*
X54868Y109055D01*
X54795Y108993D01*
X54719Y108934D01*
X54641Y108878D01*
X54560Y108825D01*
X54478Y108776D01*
X54394Y108730D01*
X54307Y108687D01*
X54220Y108648D01*
X54130Y108612D01*
X54040Y108580D01*
X53948Y108552D01*
X53855Y108527D01*
X53761Y108506D01*
X53667Y108489D01*
X53572Y108475D01*
X53476Y108466D01*
X53380Y108460D01*
X53284Y108458D01*
X50687Y111054D02*
X55880Y117546D01*
X65038Y120142D02*
X65145Y120140D01*
X65251Y120134D01*
X65357Y120124D01*
X65463Y120111D01*
X65569Y120093D01*
X65673Y120072D01*
X65777Y120047D01*
X65880Y120018D01*
X65981Y119986D01*
X66081Y119949D01*
X66180Y119909D01*
X66278Y119866D01*
X66374Y119819D01*
X66468Y119768D01*
X66560Y119714D01*
X66650Y119657D01*
X66738Y119597D01*
X66823Y119533D01*
X66906Y119466D01*
X66987Y119396D01*
X67065Y119324D01*
X67141Y119248D01*
X67213Y119170D01*
X67283Y119089D01*
X67350Y119006D01*
X67414Y118921D01*
X67474Y118833D01*
X67531Y118743D01*
X67585Y118651D01*
X67636Y118557D01*
X67683Y118461D01*
X67726Y118363D01*
X67766Y118264D01*
X67803Y118164D01*
X67835Y118063D01*
X67864Y117960D01*
X67889Y117856D01*
X67910Y117752D01*
X67928Y117646D01*
X67941Y117540D01*
X67951Y117434D01*
X67957Y117328D01*
X67959Y117221D01*
X65038Y120142D02*
X64917Y120140D01*
X64796Y120134D01*
X64676Y120124D01*
X64555Y120111D01*
X64436Y120093D01*
X64316Y120072D01*
X64198Y120047D01*
X64081Y120018D01*
X63964Y119985D01*
X63849Y119949D01*
X63735Y119908D01*
X63622Y119865D01*
X63510Y119817D01*
X63401Y119766D01*
X63293Y119711D01*
X63186Y119653D01*
X63082Y119592D01*
X62980Y119527D01*
X62880Y119459D01*
X62782Y119388D01*
X62686Y119314D01*
X62593Y119237D01*
X62503Y119156D01*
X62415Y119073D01*
X62330Y118987D01*
X62247Y118898D01*
X62168Y118807D01*
X62091Y118713D01*
X62018Y118617D01*
X61948Y118519D01*
X61881Y118418D01*
X61817Y118315D01*
X61757Y118210D01*
X61700Y118103D01*
X61646Y117995D01*
X61596Y117885D01*
X61550Y117773D01*
X61507Y117660D01*
X61468Y117545D01*
X66986Y114949D02*
X67065Y115026D01*
X67141Y115107D01*
X67214Y115190D01*
X67284Y115275D01*
X67351Y115363D01*
X67415Y115453D01*
X67475Y115545D01*
X67532Y115640D01*
X67586Y115736D01*
X67637Y115834D01*
X67684Y115934D01*
X67728Y116036D01*
X67768Y116139D01*
X67804Y116243D01*
X67836Y116349D01*
X67865Y116455D01*
X67890Y116563D01*
X67912Y116671D01*
X67929Y116781D01*
X67943Y116890D01*
X67952Y117000D01*
X67958Y117111D01*
X67960Y117221D01*
X66985Y114949D02*
X61468Y108458D01*
X67959Y108458D01*
X79389Y117221D02*
X79387Y117328D01*
X79381Y117434D01*
X79371Y117540D01*
X79358Y117646D01*
X79340Y117752D01*
X79319Y117856D01*
X79294Y117960D01*
X79265Y118063D01*
X79233Y118164D01*
X79196Y118264D01*
X79156Y118363D01*
X79113Y118461D01*
X79066Y118557D01*
X79015Y118651D01*
X78961Y118743D01*
X78904Y118833D01*
X78844Y118921D01*
X78780Y119006D01*
X78713Y119089D01*
X78643Y119170D01*
X78571Y119248D01*
X78495Y119324D01*
X78417Y119396D01*
X78336Y119466D01*
X78253Y119533D01*
X78168Y119597D01*
X78080Y119657D01*
X77990Y119714D01*
X77898Y119768D01*
X77804Y119819D01*
X77708Y119866D01*
X77610Y119909D01*
X77511Y119949D01*
X77411Y119986D01*
X77310Y120018D01*
X77207Y120047D01*
X77103Y120072D01*
X76999Y120093D01*
X76893Y120111D01*
X76787Y120124D01*
X76681Y120134D01*
X76575Y120140D01*
X76468Y120142D01*
X76347Y120140D01*
X76226Y120134D01*
X76106Y120124D01*
X75985Y120111D01*
X75866Y120093D01*
X75746Y120072D01*
X75628Y120047D01*
X75511Y120018D01*
X75394Y119985D01*
X75279Y119949D01*
X75165Y119908D01*
X75052Y119865D01*
X74940Y119817D01*
X74831Y119766D01*
X74723Y119711D01*
X74616Y119653D01*
X74512Y119592D01*
X74410Y119527D01*
X74310Y119459D01*
X74212Y119388D01*
X74116Y119314D01*
X74023Y119237D01*
X73933Y119156D01*
X73845Y119073D01*
X73760Y118987D01*
X73677Y118898D01*
X73598Y118807D01*
X73521Y118713D01*
X73448Y118617D01*
X73378Y118519D01*
X73311Y118418D01*
X73247Y118315D01*
X73187Y118210D01*
X73130Y118103D01*
X73076Y117995D01*
X73026Y117885D01*
X72980Y117773D01*
X72937Y117660D01*
X72898Y117545D01*
X78416Y114949D02*
X78495Y115026D01*
X78571Y115107D01*
X78644Y115190D01*
X78714Y115275D01*
X78781Y115363D01*
X78845Y115453D01*
X78905Y115545D01*
X78962Y115640D01*
X79016Y115736D01*
X79067Y115834D01*
X79114Y115934D01*
X79158Y116036D01*
X79198Y116139D01*
X79234Y116243D01*
X79266Y116349D01*
X79295Y116455D01*
X79320Y116563D01*
X79342Y116671D01*
X79359Y116781D01*
X79373Y116890D01*
X79382Y117000D01*
X79388Y117111D01*
X79390Y117221D01*
X78415Y114949D02*
X72898Y108458D01*
X79389Y108458D01*
D11*
X440658Y44749D02*
X440958Y44968D01*
X441252Y45195D01*
X441540Y45429D01*
X441823Y45670D01*
X442100Y45917D01*
X442371Y46172D01*
X442635Y46433D01*
X442893Y46700D01*
X443144Y46973D01*
X443389Y47253D01*
X443627Y47538D01*
X443857Y47829D01*
X444081Y48126D01*
X444297Y48428D01*
X444506Y48735D01*
X444707Y49047D01*
X444901Y49364D01*
X445087Y49686D01*
X445265Y50012D01*
X445435Y50342D01*
X445597Y50676D01*
X445750Y51014D01*
X445896Y51356D01*
X446033Y51701D01*
X446161Y52050D01*
X446281Y52401D01*
X446393Y52756D01*
X446495Y53113D01*
X446590Y53472D01*
X446675Y53833D01*
X446751Y54197D01*
X446819Y54562D01*
X446877Y54929D01*
X446927Y55297D01*
X446968Y55666D01*
X446999Y56036D01*
X447022Y56407D01*
X447035Y56778D01*
X447040Y57150D01*
X447035Y57522D01*
X447022Y57893D01*
X446999Y58265D01*
X446967Y58635D01*
X446927Y59005D01*
X446877Y59373D01*
X446818Y59741D01*
X446751Y60106D01*
X446674Y60470D01*
X446588Y60832D01*
X446494Y61192D01*
X446391Y61549D01*
X446280Y61904D01*
X446159Y62256D01*
X446030Y62605D01*
X445893Y62950D01*
X445747Y63292D01*
X445593Y63631D01*
X445431Y63966D01*
X445261Y64296D01*
X445082Y64622D01*
X444896Y64944D01*
X444702Y65262D01*
X444500Y65574D01*
X444291Y65881D01*
X444074Y66183D01*
X443850Y66480D01*
X443619Y66772D01*
X443381Y67057D01*
X443135Y67337D01*
X442883Y67610D01*
X442625Y67878D01*
X442360Y68138D01*
X442089Y68393D01*
X441811Y68641D01*
X441528Y68881D01*
X441239Y69115D01*
X440944Y69342D01*
X416560Y57150D02*
X416564Y56785D01*
X416577Y56420D01*
X416599Y56056D01*
X416630Y55693D01*
X416669Y55330D01*
X416717Y54968D01*
X416774Y54608D01*
X416839Y54249D01*
X416912Y53891D01*
X416995Y53536D01*
X417085Y53183D01*
X417185Y52831D01*
X417292Y52483D01*
X417408Y52137D01*
X417532Y51794D01*
X417665Y51454D01*
X417805Y51117D01*
X417953Y50784D01*
X418110Y50454D01*
X418274Y50128D01*
X418446Y49806D01*
X418626Y49489D01*
X418813Y49176D01*
X419007Y48867D01*
X419209Y48563D01*
X419419Y48264D01*
X419635Y47970D01*
X419858Y47682D01*
X420088Y47399D01*
X420325Y47121D01*
X420568Y46849D01*
X420818Y46583D01*
X421074Y46323D01*
X421337Y46070D01*
X421605Y45822D01*
X421879Y45582D01*
X422159Y45347D01*
X422444Y45120D01*
X416560Y57150D02*
X416564Y57515D01*
X416577Y57880D01*
X416599Y58244D01*
X416630Y58607D01*
X416669Y58970D01*
X416717Y59332D01*
X416774Y59692D01*
X416839Y60051D01*
X416912Y60409D01*
X416995Y60764D01*
X417085Y61117D01*
X417185Y61469D01*
X417292Y61817D01*
X417408Y62163D01*
X417532Y62506D01*
X417665Y62846D01*
X417805Y63183D01*
X417953Y63516D01*
X418110Y63846D01*
X418274Y64172D01*
X418446Y64494D01*
X418626Y64811D01*
X418813Y65124D01*
X419007Y65433D01*
X419209Y65737D01*
X419419Y66036D01*
X419635Y66330D01*
X419858Y66618D01*
X420088Y66901D01*
X420325Y67179D01*
X420568Y67451D01*
X420818Y67717D01*
X421074Y67977D01*
X421337Y68230D01*
X421605Y68478D01*
X421879Y68718D01*
X422159Y68953D01*
X422444Y69180D01*
D12*
X452120Y57150D02*
X452114Y56656D01*
X452096Y56162D01*
X452066Y55668D01*
X452024Y55175D01*
X451970Y54684D01*
X451904Y54194D01*
X451826Y53706D01*
X451736Y53219D01*
X451635Y52735D01*
X451521Y52254D01*
X451396Y51776D01*
X451260Y51300D01*
X451112Y50829D01*
X450952Y50361D01*
X450781Y49897D01*
X450599Y49437D01*
X450406Y48982D01*
X450202Y48531D01*
X449987Y48086D01*
X449761Y47646D01*
X449524Y47212D01*
X449277Y46784D01*
X449020Y46362D01*
X448752Y45946D01*
X448474Y45537D01*
X448187Y45135D01*
X447890Y44739D01*
X447583Y44352D01*
X447267Y43971D01*
X446942Y43599D01*
X446607Y43234D01*
X446264Y42878D01*
X445913Y42531D01*
X445553Y42191D01*
X445185Y41861D01*
X444809Y41540D01*
X452120Y57150D02*
X452114Y57638D01*
X452097Y58125D01*
X452067Y58612D01*
X452026Y59099D01*
X451974Y59584D01*
X451909Y60068D01*
X451833Y60550D01*
X451746Y61030D01*
X451647Y61508D01*
X451537Y61983D01*
X451415Y62456D01*
X451282Y62925D01*
X451137Y63392D01*
X450982Y63854D01*
X450815Y64313D01*
X450638Y64768D01*
X450449Y65218D01*
X450250Y65663D01*
X450040Y66104D01*
X449820Y66540D01*
X449589Y66970D01*
X449348Y67394D01*
X449097Y67812D01*
X448836Y68225D01*
X448565Y68631D01*
X448285Y69030D01*
X447995Y69423D01*
X447695Y69808D01*
X447386Y70186D01*
X447069Y70557D01*
X446742Y70919D01*
X446407Y71274D01*
X446064Y71621D01*
X445712Y71959D01*
X445353Y72289D01*
X444985Y72610D01*
X444610Y72923D01*
X444227Y73226D01*
X443838Y73520D01*
X443441Y73804D01*
X443038Y74079D01*
X442628Y74344D01*
X442212Y74599D01*
X441790Y74844D01*
X441362Y75079D01*
X411480Y57150D02*
X411486Y56660D01*
X411504Y56170D01*
X411533Y55681D01*
X411575Y55192D01*
X411628Y54705D01*
X411692Y54219D01*
X411769Y53735D01*
X411857Y53253D01*
X411957Y52773D01*
X412068Y52295D01*
X412191Y51821D01*
X412326Y51349D01*
X412471Y50881D01*
X412628Y50417D01*
X412796Y49956D01*
X412975Y49500D01*
X413165Y49048D01*
X413366Y48601D01*
X413578Y48159D01*
X413800Y47722D01*
X414032Y47290D01*
X414275Y46864D01*
X414529Y46445D01*
X414792Y46031D01*
X415065Y45624D01*
X415348Y45224D01*
X415641Y44830D01*
X415942Y44444D01*
X416254Y44065D01*
X416574Y43694D01*
X416903Y43331D01*
X417240Y42975D01*
X417587Y42628D01*
X417941Y42290D01*
X418304Y41960D01*
X418674Y41638D01*
X411480Y57150D02*
X411486Y57647D01*
X411504Y58144D01*
X411535Y58640D01*
X411577Y59135D01*
X411632Y59629D01*
X411698Y60122D01*
X411777Y60612D01*
X411868Y61101D01*
X411970Y61587D01*
X412085Y62071D01*
X412211Y62551D01*
X412349Y63029D01*
X412498Y63503D01*
X412659Y63973D01*
X412832Y64439D01*
X413016Y64901D01*
X413211Y65358D01*
X413417Y65810D01*
X413634Y66257D01*
X413863Y66698D01*
X414101Y67134D01*
X414351Y67564D01*
X414611Y67987D01*
X414881Y68405D01*
X415161Y68815D01*
X415451Y69218D01*
X415751Y69615D01*
X416061Y70003D01*
X416380Y70384D01*
X416708Y70757D01*
X417045Y71122D01*
X417391Y71479D01*
X417746Y71827D01*
X418109Y72166D01*
X418480Y72497D01*
X418860Y72818D01*
X419247Y73130D01*
X419641Y73432D01*
X420043Y73724D01*
X420452Y74007D01*
X420867Y74279D01*
X421290Y74542D01*
X421718Y74793D01*
D13*
X426085Y89535D02*
X437515Y89535D01*
X426085Y89535D02*
X426085Y92710D01*
X426087Y92821D01*
X426093Y92931D01*
X426102Y93042D01*
X426116Y93152D01*
X426133Y93261D01*
X426154Y93370D01*
X426179Y93478D01*
X426208Y93585D01*
X426240Y93691D01*
X426276Y93796D01*
X426316Y93899D01*
X426359Y94001D01*
X426406Y94102D01*
X426457Y94201D01*
X426510Y94297D01*
X426567Y94392D01*
X426628Y94485D01*
X426691Y94576D01*
X426758Y94665D01*
X426828Y94751D01*
X426901Y94834D01*
X426976Y94916D01*
X427054Y94994D01*
X427136Y95069D01*
X427219Y95142D01*
X427305Y95212D01*
X427394Y95279D01*
X427485Y95342D01*
X427578Y95403D01*
X427673Y95460D01*
X427769Y95513D01*
X427868Y95564D01*
X427969Y95611D01*
X428071Y95654D01*
X428174Y95694D01*
X428279Y95730D01*
X428385Y95762D01*
X428492Y95791D01*
X428600Y95816D01*
X428709Y95837D01*
X428818Y95854D01*
X428928Y95868D01*
X429039Y95877D01*
X429149Y95883D01*
X429260Y95885D01*
X429371Y95883D01*
X429481Y95877D01*
X429592Y95868D01*
X429702Y95854D01*
X429811Y95837D01*
X429920Y95816D01*
X430028Y95791D01*
X430135Y95762D01*
X430241Y95730D01*
X430346Y95694D01*
X430449Y95654D01*
X430551Y95611D01*
X430652Y95564D01*
X430751Y95513D01*
X430848Y95460D01*
X430942Y95403D01*
X431035Y95342D01*
X431126Y95279D01*
X431215Y95212D01*
X431301Y95142D01*
X431384Y95069D01*
X431466Y94994D01*
X431544Y94916D01*
X431619Y94834D01*
X431692Y94751D01*
X431762Y94665D01*
X431829Y94576D01*
X431892Y94485D01*
X431953Y94392D01*
X432010Y94298D01*
X432063Y94201D01*
X432114Y94102D01*
X432161Y94001D01*
X432204Y93899D01*
X432244Y93796D01*
X432280Y93691D01*
X432312Y93585D01*
X432341Y93478D01*
X432366Y93370D01*
X432387Y93261D01*
X432404Y93152D01*
X432418Y93042D01*
X432427Y92931D01*
X432433Y92821D01*
X432435Y92710D01*
X432435Y89535D01*
X434340Y100394D02*
X429260Y100394D01*
X429149Y100396D01*
X429039Y100402D01*
X428928Y100411D01*
X428818Y100425D01*
X428709Y100442D01*
X428600Y100463D01*
X428492Y100488D01*
X428385Y100517D01*
X428279Y100549D01*
X428174Y100585D01*
X428071Y100625D01*
X427969Y100668D01*
X427868Y100715D01*
X427769Y100766D01*
X427673Y100819D01*
X427578Y100876D01*
X427485Y100937D01*
X427394Y101000D01*
X427305Y101067D01*
X427219Y101137D01*
X427136Y101210D01*
X427054Y101285D01*
X426976Y101363D01*
X426901Y101445D01*
X426828Y101528D01*
X426758Y101614D01*
X426691Y101703D01*
X426628Y101794D01*
X426567Y101887D01*
X426510Y101981D01*
X426457Y102078D01*
X426406Y102177D01*
X426359Y102278D01*
X426316Y102380D01*
X426276Y102483D01*
X426240Y102588D01*
X426208Y102694D01*
X426179Y102801D01*
X426154Y102909D01*
X426133Y103018D01*
X426116Y103127D01*
X426102Y103237D01*
X426093Y103348D01*
X426087Y103458D01*
X426085Y103569D01*
X426087Y103680D01*
X426093Y103790D01*
X426102Y103901D01*
X426116Y104011D01*
X426133Y104120D01*
X426154Y104229D01*
X426179Y104337D01*
X426208Y104444D01*
X426240Y104550D01*
X426276Y104655D01*
X426316Y104758D01*
X426359Y104860D01*
X426406Y104961D01*
X426457Y105060D01*
X426510Y105157D01*
X426567Y105251D01*
X426628Y105344D01*
X426691Y105435D01*
X426758Y105524D01*
X426828Y105610D01*
X426901Y105693D01*
X426976Y105775D01*
X427054Y105853D01*
X427136Y105928D01*
X427219Y106001D01*
X427305Y106071D01*
X427394Y106138D01*
X427485Y106201D01*
X427578Y106262D01*
X427673Y106319D01*
X427769Y106372D01*
X427868Y106423D01*
X427969Y106470D01*
X428071Y106513D01*
X428174Y106553D01*
X428279Y106589D01*
X428385Y106621D01*
X428492Y106650D01*
X428600Y106675D01*
X428709Y106696D01*
X428818Y106713D01*
X428928Y106727D01*
X429039Y106736D01*
X429149Y106742D01*
X429260Y106744D01*
X434340Y106744D01*
X434451Y106742D01*
X434561Y106736D01*
X434672Y106727D01*
X434782Y106713D01*
X434891Y106696D01*
X435000Y106675D01*
X435108Y106650D01*
X435215Y106621D01*
X435321Y106589D01*
X435426Y106553D01*
X435529Y106513D01*
X435631Y106470D01*
X435732Y106423D01*
X435831Y106372D01*
X435928Y106319D01*
X436022Y106262D01*
X436115Y106201D01*
X436206Y106138D01*
X436295Y106071D01*
X436381Y106001D01*
X436464Y105928D01*
X436546Y105853D01*
X436624Y105775D01*
X436699Y105693D01*
X436772Y105610D01*
X436842Y105524D01*
X436909Y105435D01*
X436972Y105344D01*
X437033Y105251D01*
X437090Y105156D01*
X437143Y105060D01*
X437194Y104961D01*
X437241Y104860D01*
X437284Y104758D01*
X437324Y104655D01*
X437360Y104550D01*
X437392Y104444D01*
X437421Y104337D01*
X437446Y104229D01*
X437467Y104120D01*
X437484Y104011D01*
X437498Y103901D01*
X437507Y103790D01*
X437513Y103680D01*
X437515Y103569D01*
X437513Y103458D01*
X437507Y103348D01*
X437498Y103237D01*
X437484Y103127D01*
X437467Y103018D01*
X437446Y102909D01*
X437421Y102801D01*
X437392Y102694D01*
X437360Y102588D01*
X437324Y102483D01*
X437284Y102380D01*
X437241Y102278D01*
X437194Y102177D01*
X437143Y102078D01*
X437090Y101981D01*
X437033Y101887D01*
X436972Y101794D01*
X436909Y101703D01*
X436842Y101614D01*
X436772Y101528D01*
X436699Y101445D01*
X436624Y101363D01*
X436546Y101285D01*
X436464Y101210D01*
X436381Y101137D01*
X436295Y101067D01*
X436206Y101000D01*
X436115Y100937D01*
X436022Y100876D01*
X435928Y100819D01*
X435831Y100766D01*
X435732Y100715D01*
X435631Y100668D01*
X435529Y100625D01*
X435426Y100585D01*
X435321Y100549D01*
X435215Y100517D01*
X435108Y100488D01*
X435000Y100463D01*
X434891Y100442D01*
X434782Y100425D01*
X434672Y100411D01*
X434561Y100402D01*
X434451Y100396D01*
X434340Y100394D01*
X437515Y115253D02*
X437513Y115353D01*
X437507Y115452D01*
X437497Y115552D01*
X437484Y115650D01*
X437466Y115749D01*
X437445Y115846D01*
X437420Y115942D01*
X437391Y116038D01*
X437358Y116132D01*
X437322Y116225D01*
X437282Y116316D01*
X437238Y116406D01*
X437191Y116494D01*
X437141Y116580D01*
X437087Y116664D01*
X437030Y116746D01*
X436970Y116825D01*
X436906Y116903D01*
X436840Y116977D01*
X436771Y117049D01*
X436699Y117118D01*
X436625Y117184D01*
X436547Y117248D01*
X436468Y117308D01*
X436386Y117365D01*
X436302Y117419D01*
X436216Y117469D01*
X436128Y117516D01*
X436038Y117560D01*
X435947Y117600D01*
X435854Y117636D01*
X435760Y117669D01*
X435664Y117698D01*
X435568Y117723D01*
X435471Y117744D01*
X435372Y117762D01*
X435274Y117775D01*
X435174Y117785D01*
X435075Y117791D01*
X434975Y117793D01*
X437515Y115253D02*
X437513Y115112D01*
X437508Y114971D01*
X437498Y114830D01*
X437485Y114689D01*
X437469Y114549D01*
X437448Y114409D01*
X437424Y114270D01*
X437396Y114131D01*
X437365Y113994D01*
X437330Y113857D01*
X437292Y113721D01*
X437250Y113586D01*
X437204Y113453D01*
X437155Y113320D01*
X437102Y113189D01*
X437046Y113060D01*
X436987Y112931D01*
X436924Y112805D01*
X436858Y112680D01*
X436789Y112557D01*
X436716Y112436D01*
X436640Y112317D01*
X436561Y112199D01*
X436480Y112084D01*
X436395Y111972D01*
X436307Y111861D01*
X436216Y111753D01*
X436123Y111647D01*
X436026Y111544D01*
X435927Y111443D01*
X428625Y111760D02*
X428525Y111762D01*
X428426Y111768D01*
X428326Y111778D01*
X428228Y111791D01*
X428129Y111809D01*
X428032Y111830D01*
X427936Y111855D01*
X427840Y111884D01*
X427746Y111917D01*
X427653Y111953D01*
X427562Y111993D01*
X427472Y112037D01*
X427384Y112084D01*
X427298Y112134D01*
X427214Y112188D01*
X427132Y112245D01*
X427053Y112305D01*
X426975Y112369D01*
X426901Y112435D01*
X426829Y112504D01*
X426760Y112576D01*
X426694Y112650D01*
X426630Y112728D01*
X426570Y112807D01*
X426513Y112889D01*
X426459Y112973D01*
X426409Y113059D01*
X426362Y113147D01*
X426318Y113237D01*
X426278Y113328D01*
X426242Y113421D01*
X426209Y113515D01*
X426180Y113611D01*
X426155Y113707D01*
X426134Y113804D01*
X426116Y113903D01*
X426103Y114001D01*
X426093Y114101D01*
X426087Y114200D01*
X426085Y114300D01*
X426087Y114433D01*
X426092Y114566D01*
X426102Y114699D01*
X426115Y114832D01*
X426132Y114964D01*
X426152Y115096D01*
X426176Y115227D01*
X426204Y115357D01*
X426235Y115487D01*
X426270Y115615D01*
X426309Y115743D01*
X426351Y115869D01*
X426397Y115994D01*
X426446Y116118D01*
X426498Y116241D01*
X426554Y116362D01*
X426614Y116481D01*
X426676Y116599D01*
X426742Y116714D01*
X426811Y116828D01*
X426884Y116940D01*
X426959Y117050D01*
X427038Y117158D01*
X430848Y113030D02*
X430796Y112946D01*
X430741Y112863D01*
X430682Y112783D01*
X430621Y112705D01*
X430557Y112630D01*
X430489Y112557D01*
X430419Y112486D01*
X430347Y112419D01*
X430272Y112354D01*
X430194Y112292D01*
X430114Y112233D01*
X430032Y112177D01*
X429948Y112125D01*
X429862Y112076D01*
X429774Y112030D01*
X429684Y111987D01*
X429593Y111948D01*
X429500Y111913D01*
X429406Y111881D01*
X429311Y111853D01*
X429215Y111828D01*
X429118Y111808D01*
X429020Y111790D01*
X428922Y111777D01*
X428823Y111768D01*
X428724Y111762D01*
X428625Y111760D01*
X432752Y116523D02*
X432804Y116607D01*
X432859Y116690D01*
X432918Y116770D01*
X432979Y116848D01*
X433043Y116923D01*
X433111Y116996D01*
X433181Y117067D01*
X433253Y117134D01*
X433328Y117199D01*
X433406Y117261D01*
X433486Y117320D01*
X433568Y117376D01*
X433652Y117428D01*
X433738Y117477D01*
X433826Y117523D01*
X433916Y117566D01*
X434007Y117605D01*
X434100Y117640D01*
X434194Y117672D01*
X434289Y117700D01*
X434385Y117725D01*
X434482Y117745D01*
X434580Y117763D01*
X434678Y117776D01*
X434777Y117785D01*
X434876Y117791D01*
X434975Y117793D01*
X432753Y116523D02*
X430848Y113030D01*
X438785Y121984D02*
X438785Y127064D01*
X437515Y132042D02*
X426085Y132042D01*
X437515Y132042D02*
X437515Y137122D01*
X437515Y141948D02*
X437515Y147028D01*
X437515Y141948D02*
X426085Y141948D01*
X426085Y147028D01*
X431165Y145758D02*
X431165Y141948D01*
X426085Y151828D02*
X437515Y151828D01*
X426085Y151828D02*
X426085Y155003D01*
X426087Y155114D01*
X426093Y155224D01*
X426102Y155335D01*
X426116Y155445D01*
X426133Y155554D01*
X426154Y155663D01*
X426179Y155771D01*
X426208Y155878D01*
X426240Y155984D01*
X426276Y156089D01*
X426316Y156192D01*
X426359Y156294D01*
X426406Y156395D01*
X426457Y156494D01*
X426510Y156591D01*
X426567Y156685D01*
X426628Y156778D01*
X426691Y156869D01*
X426758Y156958D01*
X426828Y157044D01*
X426901Y157127D01*
X426976Y157209D01*
X427054Y157287D01*
X427136Y157362D01*
X427219Y157435D01*
X427305Y157505D01*
X427394Y157572D01*
X427485Y157635D01*
X427578Y157696D01*
X427673Y157753D01*
X427769Y157806D01*
X427868Y157857D01*
X427969Y157904D01*
X428071Y157947D01*
X428174Y157987D01*
X428279Y158023D01*
X428385Y158055D01*
X428492Y158084D01*
X428600Y158109D01*
X428709Y158130D01*
X428818Y158147D01*
X428928Y158161D01*
X429039Y158170D01*
X429149Y158176D01*
X429260Y158178D01*
X434340Y158178D01*
X434451Y158176D01*
X434561Y158170D01*
X434672Y158161D01*
X434782Y158147D01*
X434891Y158130D01*
X435000Y158109D01*
X435108Y158084D01*
X435215Y158055D01*
X435321Y158023D01*
X435426Y157987D01*
X435529Y157947D01*
X435631Y157904D01*
X435732Y157857D01*
X435831Y157806D01*
X435928Y157753D01*
X436022Y157696D01*
X436115Y157635D01*
X436206Y157572D01*
X436295Y157505D01*
X436381Y157435D01*
X436464Y157362D01*
X436546Y157287D01*
X436624Y157209D01*
X436699Y157127D01*
X436772Y157044D01*
X436842Y156958D01*
X436909Y156869D01*
X436972Y156778D01*
X437033Y156685D01*
X437090Y156591D01*
X437143Y156494D01*
X437194Y156395D01*
X437241Y156294D01*
X437284Y156192D01*
X437324Y156089D01*
X437360Y155984D01*
X437392Y155878D01*
X437421Y155771D01*
X437446Y155663D01*
X437467Y155554D01*
X437484Y155445D01*
X437498Y155335D01*
X437507Y155224D01*
X437513Y155114D01*
X437515Y155003D01*
X437515Y151828D01*
D11*
X110490Y57150D02*
X110485Y56778D01*
X110472Y56407D01*
X110449Y56036D01*
X110418Y55666D01*
X110377Y55297D01*
X110327Y54929D01*
X110269Y54562D01*
X110201Y54197D01*
X110125Y53833D01*
X110040Y53472D01*
X109945Y53113D01*
X109843Y52756D01*
X109731Y52401D01*
X109611Y52050D01*
X109483Y51701D01*
X109346Y51356D01*
X109200Y51014D01*
X109047Y50676D01*
X108885Y50342D01*
X108715Y50012D01*
X108537Y49686D01*
X108351Y49364D01*
X108157Y49047D01*
X107956Y48735D01*
X107747Y48428D01*
X107531Y48126D01*
X107307Y47829D01*
X107077Y47538D01*
X106839Y47253D01*
X106594Y46973D01*
X106343Y46700D01*
X106085Y46433D01*
X105821Y46172D01*
X105550Y45917D01*
X105273Y45670D01*
X104990Y45429D01*
X104702Y45195D01*
X104408Y44968D01*
X104108Y44749D01*
X110490Y57150D02*
X110485Y57522D01*
X110472Y57893D01*
X110449Y58265D01*
X110417Y58635D01*
X110377Y59005D01*
X110327Y59373D01*
X110268Y59741D01*
X110201Y60106D01*
X110124Y60470D01*
X110038Y60832D01*
X109944Y61192D01*
X109841Y61549D01*
X109730Y61904D01*
X109609Y62256D01*
X109480Y62605D01*
X109343Y62950D01*
X109197Y63292D01*
X109043Y63631D01*
X108881Y63966D01*
X108711Y64296D01*
X108532Y64622D01*
X108346Y64944D01*
X108152Y65262D01*
X107950Y65574D01*
X107741Y65881D01*
X107524Y66183D01*
X107300Y66480D01*
X107069Y66772D01*
X106831Y67057D01*
X106585Y67337D01*
X106333Y67610D01*
X106075Y67878D01*
X105810Y68138D01*
X105539Y68393D01*
X105261Y68641D01*
X104978Y68881D01*
X104689Y69115D01*
X104394Y69342D01*
X80010Y57150D02*
X80014Y56785D01*
X80027Y56420D01*
X80049Y56056D01*
X80080Y55693D01*
X80119Y55330D01*
X80167Y54968D01*
X80224Y54608D01*
X80289Y54249D01*
X80362Y53891D01*
X80445Y53536D01*
X80535Y53183D01*
X80635Y52831D01*
X80742Y52483D01*
X80858Y52137D01*
X80982Y51794D01*
X81115Y51454D01*
X81255Y51117D01*
X81403Y50784D01*
X81560Y50454D01*
X81724Y50128D01*
X81896Y49806D01*
X82076Y49489D01*
X82263Y49176D01*
X82457Y48867D01*
X82659Y48563D01*
X82869Y48264D01*
X83085Y47970D01*
X83308Y47682D01*
X83538Y47399D01*
X83775Y47121D01*
X84018Y46849D01*
X84268Y46583D01*
X84524Y46323D01*
X84787Y46070D01*
X85055Y45822D01*
X85329Y45582D01*
X85609Y45347D01*
X85894Y45120D01*
X80010Y57150D02*
X80014Y57515D01*
X80027Y57880D01*
X80049Y58244D01*
X80080Y58607D01*
X80119Y58970D01*
X80167Y59332D01*
X80224Y59692D01*
X80289Y60051D01*
X80362Y60409D01*
X80445Y60764D01*
X80535Y61117D01*
X80635Y61469D01*
X80742Y61817D01*
X80858Y62163D01*
X80982Y62506D01*
X81115Y62846D01*
X81255Y63183D01*
X81403Y63516D01*
X81560Y63846D01*
X81724Y64172D01*
X81896Y64494D01*
X82076Y64811D01*
X82263Y65124D01*
X82457Y65433D01*
X82659Y65737D01*
X82869Y66036D01*
X83085Y66330D01*
X83308Y66618D01*
X83538Y66901D01*
X83775Y67179D01*
X84018Y67451D01*
X84268Y67717D01*
X84524Y67977D01*
X84787Y68230D01*
X85055Y68478D01*
X85329Y68718D01*
X85609Y68953D01*
X85894Y69180D01*
D12*
X115570Y57150D02*
X115564Y56656D01*
X115546Y56162D01*
X115516Y55668D01*
X115474Y55175D01*
X115420Y54684D01*
X115354Y54194D01*
X115276Y53706D01*
X115186Y53219D01*
X115085Y52735D01*
X114971Y52254D01*
X114846Y51776D01*
X114710Y51300D01*
X114562Y50829D01*
X114402Y50361D01*
X114231Y49897D01*
X114049Y49437D01*
X113856Y48982D01*
X113652Y48531D01*
X113437Y48086D01*
X113211Y47646D01*
X112974Y47212D01*
X112727Y46784D01*
X112470Y46362D01*
X112202Y45946D01*
X111924Y45537D01*
X111637Y45135D01*
X111340Y44739D01*
X111033Y44352D01*
X110717Y43971D01*
X110392Y43599D01*
X110057Y43234D01*
X109714Y42878D01*
X109363Y42531D01*
X109003Y42191D01*
X108635Y41861D01*
X108259Y41540D01*
X115570Y57150D02*
X115564Y57638D01*
X115547Y58125D01*
X115517Y58612D01*
X115476Y59099D01*
X115424Y59584D01*
X115359Y60068D01*
X115283Y60550D01*
X115196Y61030D01*
X115097Y61508D01*
X114987Y61983D01*
X114865Y62456D01*
X114732Y62925D01*
X114587Y63392D01*
X114432Y63854D01*
X114265Y64313D01*
X114088Y64768D01*
X113899Y65218D01*
X113700Y65663D01*
X113490Y66104D01*
X113270Y66540D01*
X113039Y66970D01*
X112798Y67394D01*
X112547Y67812D01*
X112286Y68225D01*
X112015Y68631D01*
X111735Y69030D01*
X111445Y69423D01*
X111145Y69808D01*
X110836Y70186D01*
X110519Y70557D01*
X110192Y70919D01*
X109857Y71274D01*
X109514Y71621D01*
X109162Y71959D01*
X108803Y72289D01*
X108435Y72610D01*
X108060Y72923D01*
X107677Y73226D01*
X107288Y73520D01*
X106891Y73804D01*
X106488Y74079D01*
X106078Y74344D01*
X105662Y74599D01*
X105240Y74844D01*
X104812Y75079D01*
X74930Y57150D02*
X74936Y56660D01*
X74954Y56170D01*
X74983Y55681D01*
X75025Y55192D01*
X75078Y54705D01*
X75142Y54219D01*
X75219Y53735D01*
X75307Y53253D01*
X75407Y52773D01*
X75518Y52295D01*
X75641Y51821D01*
X75776Y51349D01*
X75921Y50881D01*
X76078Y50417D01*
X76246Y49956D01*
X76425Y49500D01*
X76615Y49048D01*
X76816Y48601D01*
X77028Y48159D01*
X77250Y47722D01*
X77482Y47290D01*
X77725Y46864D01*
X77979Y46445D01*
X78242Y46031D01*
X78515Y45624D01*
X78798Y45224D01*
X79091Y44830D01*
X79392Y44444D01*
X79704Y44065D01*
X80024Y43694D01*
X80353Y43331D01*
X80690Y42975D01*
X81037Y42628D01*
X81391Y42290D01*
X81754Y41960D01*
X82124Y41638D01*
X74930Y57150D02*
X74936Y57647D01*
X74954Y58144D01*
X74985Y58640D01*
X75027Y59135D01*
X75082Y59629D01*
X75148Y60122D01*
X75227Y60612D01*
X75318Y61101D01*
X75420Y61587D01*
X75535Y62071D01*
X75661Y62551D01*
X75799Y63029D01*
X75948Y63503D01*
X76109Y63973D01*
X76282Y64439D01*
X76466Y64901D01*
X76661Y65358D01*
X76867Y65810D01*
X77084Y66257D01*
X77313Y66698D01*
X77551Y67134D01*
X77801Y67564D01*
X78061Y67987D01*
X78331Y68405D01*
X78611Y68815D01*
X78901Y69218D01*
X79201Y69615D01*
X79511Y70003D01*
X79830Y70384D01*
X80158Y70757D01*
X80495Y71122D01*
X80841Y71479D01*
X81196Y71827D01*
X81559Y72166D01*
X81930Y72497D01*
X82310Y72818D01*
X82697Y73130D01*
X83091Y73432D01*
X83493Y73724D01*
X83902Y74007D01*
X84317Y74279D01*
X84740Y74542D01*
X85168Y74793D01*
D13*
X89535Y83185D02*
X100965Y83185D01*
X100965Y89535D02*
X89535Y83185D01*
X89535Y89535D02*
X100965Y89535D01*
X100965Y95402D02*
X100965Y100482D01*
X100965Y95402D02*
X89535Y95402D01*
X89535Y100482D01*
X94615Y99212D02*
X94615Y95402D01*
X94615Y109728D02*
X94615Y111633D01*
X100965Y111633D01*
X100965Y107823D01*
X100963Y107723D01*
X100957Y107624D01*
X100947Y107524D01*
X100934Y107426D01*
X100916Y107327D01*
X100895Y107230D01*
X100870Y107134D01*
X100841Y107038D01*
X100808Y106944D01*
X100772Y106851D01*
X100732Y106760D01*
X100688Y106670D01*
X100641Y106582D01*
X100591Y106496D01*
X100537Y106412D01*
X100480Y106330D01*
X100420Y106251D01*
X100356Y106173D01*
X100290Y106099D01*
X100221Y106027D01*
X100149Y105958D01*
X100075Y105892D01*
X99997Y105828D01*
X99918Y105768D01*
X99836Y105711D01*
X99752Y105657D01*
X99666Y105607D01*
X99578Y105560D01*
X99488Y105516D01*
X99397Y105476D01*
X99304Y105440D01*
X99210Y105407D01*
X99114Y105378D01*
X99018Y105353D01*
X98921Y105332D01*
X98822Y105314D01*
X98724Y105301D01*
X98624Y105291D01*
X98525Y105285D01*
X98425Y105283D01*
X92075Y105283D01*
X91975Y105285D01*
X91876Y105291D01*
X91776Y105301D01*
X91678Y105314D01*
X91579Y105332D01*
X91482Y105353D01*
X91386Y105378D01*
X91290Y105407D01*
X91196Y105440D01*
X91103Y105476D01*
X91012Y105516D01*
X90922Y105560D01*
X90834Y105607D01*
X90748Y105657D01*
X90664Y105711D01*
X90582Y105768D01*
X90503Y105828D01*
X90425Y105892D01*
X90351Y105958D01*
X90279Y106027D01*
X90210Y106099D01*
X90144Y106173D01*
X90080Y106251D01*
X90020Y106330D01*
X89963Y106412D01*
X89909Y106496D01*
X89859Y106582D01*
X89812Y106670D01*
X89768Y106760D01*
X89728Y106851D01*
X89692Y106944D01*
X89659Y107038D01*
X89630Y107134D01*
X89605Y107230D01*
X89584Y107327D01*
X89566Y107426D01*
X89553Y107524D01*
X89543Y107624D01*
X89537Y107723D01*
X89535Y107823D01*
X89535Y111633D01*
X102235Y116586D02*
X102235Y121666D01*
X100965Y126644D02*
X89535Y126644D01*
X100965Y126644D02*
X100965Y131724D01*
X100965Y136550D02*
X100965Y141630D01*
X100965Y136550D02*
X89535Y136550D01*
X89535Y141630D01*
X94615Y140360D02*
X94615Y136550D01*
X89535Y146431D02*
X100965Y146431D01*
X89535Y146431D02*
X89535Y149606D01*
X89537Y149717D01*
X89543Y149827D01*
X89552Y149938D01*
X89566Y150048D01*
X89583Y150157D01*
X89604Y150266D01*
X89629Y150374D01*
X89658Y150481D01*
X89690Y150587D01*
X89726Y150692D01*
X89766Y150795D01*
X89809Y150897D01*
X89856Y150998D01*
X89907Y151097D01*
X89960Y151194D01*
X90017Y151288D01*
X90078Y151381D01*
X90141Y151472D01*
X90208Y151561D01*
X90278Y151647D01*
X90351Y151730D01*
X90426Y151812D01*
X90504Y151890D01*
X90586Y151965D01*
X90669Y152038D01*
X90755Y152108D01*
X90844Y152175D01*
X90935Y152238D01*
X91028Y152299D01*
X91123Y152356D01*
X91219Y152409D01*
X91318Y152460D01*
X91419Y152507D01*
X91521Y152550D01*
X91624Y152590D01*
X91729Y152626D01*
X91835Y152658D01*
X91942Y152687D01*
X92050Y152712D01*
X92159Y152733D01*
X92268Y152750D01*
X92378Y152764D01*
X92489Y152773D01*
X92599Y152779D01*
X92710Y152781D01*
X97790Y152781D01*
X97901Y152779D01*
X98011Y152773D01*
X98122Y152764D01*
X98232Y152750D01*
X98341Y152733D01*
X98450Y152712D01*
X98558Y152687D01*
X98665Y152658D01*
X98771Y152626D01*
X98876Y152590D01*
X98979Y152550D01*
X99081Y152507D01*
X99182Y152460D01*
X99281Y152409D01*
X99378Y152356D01*
X99472Y152299D01*
X99565Y152238D01*
X99656Y152175D01*
X99745Y152108D01*
X99831Y152038D01*
X99914Y151965D01*
X99996Y151890D01*
X100074Y151812D01*
X100149Y151730D01*
X100222Y151647D01*
X100292Y151561D01*
X100359Y151472D01*
X100422Y151381D01*
X100483Y151288D01*
X100540Y151194D01*
X100593Y151097D01*
X100644Y150998D01*
X100691Y150897D01*
X100734Y150795D01*
X100774Y150692D01*
X100810Y150587D01*
X100842Y150481D01*
X100871Y150374D01*
X100896Y150266D01*
X100917Y150157D01*
X100934Y150048D01*
X100948Y149938D01*
X100957Y149827D01*
X100963Y149717D01*
X100965Y149606D01*
X100965Y146431D01*
X177800Y76200D02*
X355600Y76200D01*
X355600Y12700D01*
X177800Y12700D02*
X177800Y76200D01*
X177800Y88900D02*
X165100Y88900D01*
X321310Y0D02*
X368300Y0D01*
X368300Y88900D01*
X165100Y88900D02*
X165100Y0D01*
X312420Y12700D02*
X355600Y12700D01*
X287020Y20320D02*
X246380Y20320D01*
X246380Y12700D01*
X177800Y12700D01*
X246380Y12700D02*
X246380Y10160D01*
X287020Y12700D02*
X287020Y20320D01*
X287020Y12700D02*
X287020Y10160D01*
X355600Y88900D02*
X355600Y91440D01*
X342900Y91440D01*
X342900Y88900D01*
X355600Y88900D02*
X368300Y88900D01*
X273050Y91440D02*
X260350Y91440D01*
X273050Y91440D02*
X273050Y88900D01*
X342900Y88900D01*
X260350Y88900D02*
X260350Y91440D01*
X190500Y91440D02*
X177800Y91440D01*
X177800Y88900D01*
X190500Y88900D02*
X190500Y91440D01*
X190500Y88900D02*
X260350Y88900D01*
X287020Y0D02*
X288290Y0D01*
X287020Y0D02*
X246380Y0D01*
X297180Y10160D02*
X297180Y12700D01*
X287020Y12700D01*
X312420Y12700D02*
X312420Y10160D01*
X312420Y12700D02*
X297180Y12700D01*
X292100Y5080D02*
X288290Y0D01*
X317500Y5080D02*
X321310Y0D01*
X317500Y5080D02*
X312420Y5080D01*
D14*
X297180Y10160D02*
X287020Y10160D01*
D13*
X287020Y0D01*
D14*
X312420Y10160D02*
X358140Y10160D01*
X358140Y78740D01*
X175260Y78740D01*
X175260Y10160D01*
X246380Y10160D01*
D13*
X246380Y0D01*
X297180Y5080D02*
X297180Y10160D01*
X297180Y5080D02*
X292100Y5080D01*
X312420Y5080D02*
X312420Y10160D01*
X312420Y5080D02*
X297180Y5080D01*
X246380Y0D02*
X222250Y0D01*
X222250Y1270D01*
X209550Y1270D01*
X209550Y0D01*
X165100Y0D01*
X257175Y13335D02*
X260350Y15875D01*
X260350Y4445D01*
X257175Y4445D02*
X263525Y4445D01*
X268605Y10160D02*
X268608Y10385D01*
X268616Y10610D01*
X268629Y10834D01*
X268648Y11058D01*
X268672Y11282D01*
X268701Y11505D01*
X268736Y11727D01*
X268776Y11948D01*
X268822Y12168D01*
X268872Y12387D01*
X268928Y12605D01*
X268989Y12822D01*
X269055Y13037D01*
X269126Y13250D01*
X269203Y13461D01*
X269284Y13671D01*
X269370Y13879D01*
X269461Y14084D01*
X269557Y14287D01*
X269557Y14288D02*
X269589Y14376D01*
X269625Y14463D01*
X269664Y14549D01*
X269707Y14633D01*
X269753Y14715D01*
X269802Y14795D01*
X269854Y14873D01*
X269910Y14949D01*
X269968Y15023D01*
X270030Y15094D01*
X270094Y15163D01*
X270161Y15229D01*
X270230Y15292D01*
X270302Y15353D01*
X270376Y15411D01*
X270453Y15465D01*
X270531Y15517D01*
X270612Y15565D01*
X270694Y15610D01*
X270779Y15652D01*
X270865Y15690D01*
X270952Y15725D01*
X271040Y15757D01*
X271130Y15784D01*
X271221Y15809D01*
X271313Y15829D01*
X271405Y15846D01*
X271499Y15859D01*
X271592Y15868D01*
X271686Y15874D01*
X271780Y15876D01*
X271874Y15874D01*
X271968Y15868D01*
X272061Y15859D01*
X272155Y15846D01*
X272247Y15829D01*
X272339Y15809D01*
X272430Y15784D01*
X272520Y15757D01*
X272608Y15725D01*
X272695Y15690D01*
X272781Y15652D01*
X272866Y15610D01*
X272948Y15565D01*
X273029Y15517D01*
X273107Y15465D01*
X273184Y15411D01*
X273258Y15353D01*
X273330Y15292D01*
X273399Y15229D01*
X273466Y15163D01*
X273530Y15094D01*
X273592Y15023D01*
X273650Y14949D01*
X273706Y14873D01*
X273758Y14795D01*
X273807Y14715D01*
X273853Y14633D01*
X273896Y14549D01*
X273935Y14463D01*
X273971Y14376D01*
X274003Y14288D01*
X274003Y14287D02*
X274099Y14084D01*
X274190Y13879D01*
X274276Y13671D01*
X274357Y13461D01*
X274434Y13250D01*
X274505Y13037D01*
X274571Y12822D01*
X274632Y12605D01*
X274688Y12387D01*
X274738Y12168D01*
X274784Y11948D01*
X274824Y11727D01*
X274859Y11505D01*
X274888Y11282D01*
X274912Y11058D01*
X274931Y10834D01*
X274944Y10610D01*
X274952Y10385D01*
X274955Y10160D01*
X268605Y10160D02*
X268608Y9935D01*
X268616Y9710D01*
X268629Y9486D01*
X268648Y9262D01*
X268672Y9038D01*
X268701Y8815D01*
X268736Y8593D01*
X268776Y8372D01*
X268822Y8152D01*
X268872Y7933D01*
X268928Y7715D01*
X268989Y7498D01*
X269055Y7283D01*
X269126Y7070D01*
X269203Y6859D01*
X269284Y6649D01*
X269370Y6441D01*
X269461Y6236D01*
X269557Y6033D01*
X269589Y5945D01*
X269625Y5858D01*
X269664Y5772D01*
X269707Y5688D01*
X269753Y5606D01*
X269802Y5526D01*
X269854Y5448D01*
X269910Y5372D01*
X269968Y5298D01*
X270030Y5227D01*
X270094Y5158D01*
X270161Y5092D01*
X270230Y5029D01*
X270302Y4968D01*
X270376Y4910D01*
X270453Y4856D01*
X270531Y4804D01*
X270612Y4756D01*
X270694Y4711D01*
X270779Y4669D01*
X270865Y4631D01*
X270952Y4596D01*
X271040Y4564D01*
X271130Y4537D01*
X271221Y4512D01*
X271313Y4492D01*
X271405Y4475D01*
X271499Y4462D01*
X271592Y4453D01*
X271686Y4447D01*
X271780Y4445D01*
X274003Y6033D02*
X274099Y6236D01*
X274190Y6441D01*
X274276Y6649D01*
X274357Y6859D01*
X274434Y7070D01*
X274505Y7283D01*
X274571Y7498D01*
X274632Y7715D01*
X274688Y7933D01*
X274738Y8152D01*
X274784Y8372D01*
X274824Y8593D01*
X274859Y8815D01*
X274888Y9038D01*
X274912Y9262D01*
X274931Y9486D01*
X274944Y9710D01*
X274952Y9935D01*
X274955Y10160D01*
X274003Y6033D02*
X273971Y5945D01*
X273935Y5858D01*
X273896Y5772D01*
X273853Y5688D01*
X273807Y5606D01*
X273758Y5526D01*
X273706Y5448D01*
X273650Y5372D01*
X273592Y5298D01*
X273530Y5227D01*
X273466Y5158D01*
X273399Y5092D01*
X273330Y5029D01*
X273258Y4968D01*
X273184Y4910D01*
X273107Y4856D01*
X273029Y4804D01*
X272948Y4756D01*
X272866Y4711D01*
X272781Y4669D01*
X272695Y4631D01*
X272608Y4596D01*
X272520Y4564D01*
X272430Y4537D01*
X272339Y4512D01*
X272247Y4492D01*
X272155Y4475D01*
X272061Y4462D01*
X271968Y4453D01*
X271874Y4447D01*
X271780Y4445D01*
X269240Y6985D02*
X274320Y13335D01*
X194310Y37465D02*
X191135Y34925D01*
X194310Y37465D02*
X194310Y26035D01*
X191135Y26035D02*
X197485Y26035D01*
X197486Y60008D02*
X197484Y60112D01*
X197478Y60217D01*
X197469Y60321D01*
X197456Y60424D01*
X197438Y60527D01*
X197418Y60629D01*
X197393Y60731D01*
X197365Y60831D01*
X197333Y60931D01*
X197297Y61029D01*
X197258Y61126D01*
X197216Y61221D01*
X197170Y61315D01*
X197120Y61407D01*
X197068Y61497D01*
X197012Y61585D01*
X196952Y61671D01*
X196890Y61755D01*
X196825Y61836D01*
X196757Y61915D01*
X196685Y61992D01*
X196612Y62065D01*
X196535Y62137D01*
X196456Y62205D01*
X196375Y62270D01*
X196291Y62332D01*
X196205Y62392D01*
X196117Y62448D01*
X196027Y62500D01*
X195935Y62550D01*
X195841Y62596D01*
X195746Y62638D01*
X195649Y62677D01*
X195551Y62713D01*
X195451Y62745D01*
X195351Y62773D01*
X195249Y62798D01*
X195147Y62818D01*
X195044Y62836D01*
X194941Y62849D01*
X194837Y62858D01*
X194732Y62864D01*
X194628Y62866D01*
X194628Y62865D02*
X194510Y62863D01*
X194391Y62857D01*
X194273Y62848D01*
X194156Y62835D01*
X194039Y62817D01*
X193922Y62797D01*
X193806Y62772D01*
X193691Y62744D01*
X193578Y62711D01*
X193465Y62676D01*
X193353Y62636D01*
X193243Y62594D01*
X193134Y62547D01*
X193026Y62497D01*
X192921Y62444D01*
X192817Y62387D01*
X192715Y62327D01*
X192615Y62264D01*
X192517Y62197D01*
X192421Y62128D01*
X192328Y62055D01*
X192237Y61979D01*
X192148Y61901D01*
X192062Y61819D01*
X191979Y61735D01*
X191898Y61649D01*
X191821Y61559D01*
X191746Y61468D01*
X191674Y61374D01*
X191605Y61277D01*
X191540Y61179D01*
X191477Y61078D01*
X191418Y60975D01*
X191362Y60871D01*
X191310Y60765D01*
X191261Y60657D01*
X191216Y60548D01*
X191174Y60437D01*
X191136Y60325D01*
X196533Y57786D02*
X196609Y57861D01*
X196684Y57940D01*
X196755Y58021D01*
X196824Y58105D01*
X196889Y58191D01*
X196951Y58279D01*
X197011Y58369D01*
X197067Y58461D01*
X197120Y58556D01*
X197169Y58652D01*
X197215Y58750D01*
X197258Y58849D01*
X197297Y58950D01*
X197332Y59052D01*
X197364Y59155D01*
X197392Y59259D01*
X197417Y59364D01*
X197438Y59471D01*
X197455Y59577D01*
X197468Y59684D01*
X197477Y59792D01*
X197483Y59900D01*
X197485Y60008D01*
X196533Y57785D02*
X191135Y51435D01*
X197485Y51435D01*
D11*
X402590Y88900D02*
X402690Y88898D01*
X402789Y88892D01*
X402889Y88882D01*
X402987Y88869D01*
X403086Y88851D01*
X403183Y88830D01*
X403279Y88805D01*
X403375Y88776D01*
X403469Y88743D01*
X403562Y88707D01*
X403653Y88667D01*
X403743Y88623D01*
X403831Y88576D01*
X403917Y88526D01*
X404001Y88472D01*
X404083Y88415D01*
X404162Y88355D01*
X404240Y88291D01*
X404314Y88225D01*
X404386Y88156D01*
X404455Y88084D01*
X404521Y88010D01*
X404585Y87932D01*
X404645Y87853D01*
X404702Y87771D01*
X404756Y87687D01*
X404806Y87601D01*
X404853Y87513D01*
X404897Y87423D01*
X404937Y87332D01*
X404973Y87239D01*
X405006Y87145D01*
X405035Y87049D01*
X405060Y86953D01*
X405081Y86856D01*
X405099Y86757D01*
X405112Y86659D01*
X405122Y86559D01*
X405128Y86460D01*
X405130Y86360D01*
X384810Y88900D02*
X384710Y88898D01*
X384611Y88892D01*
X384511Y88882D01*
X384413Y88869D01*
X384314Y88851D01*
X384217Y88830D01*
X384121Y88805D01*
X384025Y88776D01*
X383931Y88743D01*
X383838Y88707D01*
X383747Y88667D01*
X383657Y88623D01*
X383569Y88576D01*
X383483Y88526D01*
X383399Y88472D01*
X383317Y88415D01*
X383238Y88355D01*
X383160Y88291D01*
X383086Y88225D01*
X383014Y88156D01*
X382945Y88084D01*
X382879Y88010D01*
X382815Y87932D01*
X382755Y87853D01*
X382698Y87771D01*
X382644Y87687D01*
X382594Y87601D01*
X382547Y87513D01*
X382503Y87423D01*
X382463Y87332D01*
X382427Y87239D01*
X382394Y87145D01*
X382365Y87049D01*
X382340Y86953D01*
X382319Y86856D01*
X382301Y86757D01*
X382288Y86659D01*
X382278Y86559D01*
X382272Y86460D01*
X382270Y86360D01*
X382270Y27940D02*
X382272Y27840D01*
X382278Y27741D01*
X382288Y27641D01*
X382301Y27543D01*
X382319Y27444D01*
X382340Y27347D01*
X382365Y27251D01*
X382394Y27155D01*
X382427Y27061D01*
X382463Y26968D01*
X382503Y26877D01*
X382547Y26787D01*
X382594Y26699D01*
X382644Y26613D01*
X382698Y26529D01*
X382755Y26447D01*
X382815Y26368D01*
X382879Y26290D01*
X382945Y26216D01*
X383014Y26144D01*
X383086Y26075D01*
X383160Y26009D01*
X383238Y25945D01*
X383317Y25885D01*
X383399Y25828D01*
X383483Y25774D01*
X383569Y25724D01*
X383657Y25677D01*
X383747Y25633D01*
X383838Y25593D01*
X383931Y25557D01*
X384025Y25524D01*
X384121Y25495D01*
X384217Y25470D01*
X384314Y25449D01*
X384413Y25431D01*
X384511Y25418D01*
X384611Y25408D01*
X384710Y25402D01*
X384810Y25400D01*
X402590Y25400D02*
X402690Y25402D01*
X402789Y25408D01*
X402889Y25418D01*
X402987Y25431D01*
X403086Y25449D01*
X403183Y25470D01*
X403279Y25495D01*
X403375Y25524D01*
X403469Y25557D01*
X403562Y25593D01*
X403653Y25633D01*
X403743Y25677D01*
X403831Y25724D01*
X403917Y25774D01*
X404001Y25828D01*
X404083Y25885D01*
X404162Y25945D01*
X404240Y26009D01*
X404314Y26075D01*
X404386Y26144D01*
X404455Y26216D01*
X404521Y26290D01*
X404585Y26368D01*
X404645Y26447D01*
X404702Y26529D01*
X404756Y26613D01*
X404806Y26699D01*
X404853Y26787D01*
X404897Y26877D01*
X404937Y26968D01*
X404973Y27061D01*
X405006Y27155D01*
X405035Y27251D01*
X405060Y27347D01*
X405081Y27444D01*
X405099Y27543D01*
X405112Y27641D01*
X405122Y27741D01*
X405128Y27840D01*
X405130Y27940D01*
X405130Y82550D02*
X405130Y86360D01*
X405130Y82550D02*
X403860Y81280D01*
X382270Y82550D02*
X382270Y86360D01*
X382270Y82550D02*
X383540Y81280D01*
X403860Y33020D02*
X405130Y31750D01*
X403860Y33020D02*
X403860Y81280D01*
X383540Y33020D02*
X382270Y31750D01*
X383540Y33020D02*
X383540Y81280D01*
X405130Y31750D02*
X405130Y27940D01*
X382270Y27940D02*
X382270Y31750D01*
D13*
X387985Y64218D02*
X399415Y64218D01*
X387985Y64218D02*
X387985Y67393D01*
X387987Y67504D01*
X387993Y67614D01*
X388002Y67725D01*
X388016Y67835D01*
X388033Y67944D01*
X388054Y68053D01*
X388079Y68161D01*
X388108Y68268D01*
X388140Y68374D01*
X388176Y68479D01*
X388216Y68582D01*
X388259Y68684D01*
X388306Y68785D01*
X388357Y68884D01*
X388410Y68980D01*
X388467Y69075D01*
X388528Y69168D01*
X388591Y69259D01*
X388658Y69348D01*
X388728Y69434D01*
X388801Y69517D01*
X388876Y69599D01*
X388954Y69677D01*
X389036Y69752D01*
X389119Y69825D01*
X389205Y69895D01*
X389294Y69962D01*
X389385Y70025D01*
X389478Y70086D01*
X389573Y70143D01*
X389669Y70196D01*
X389768Y70247D01*
X389869Y70294D01*
X389971Y70337D01*
X390074Y70377D01*
X390179Y70413D01*
X390285Y70445D01*
X390392Y70474D01*
X390500Y70499D01*
X390609Y70520D01*
X390718Y70537D01*
X390828Y70551D01*
X390939Y70560D01*
X391049Y70566D01*
X391160Y70568D01*
X391271Y70566D01*
X391381Y70560D01*
X391492Y70551D01*
X391602Y70537D01*
X391711Y70520D01*
X391820Y70499D01*
X391928Y70474D01*
X392035Y70445D01*
X392141Y70413D01*
X392246Y70377D01*
X392349Y70337D01*
X392451Y70294D01*
X392552Y70247D01*
X392651Y70196D01*
X392748Y70143D01*
X392842Y70086D01*
X392935Y70025D01*
X393026Y69962D01*
X393115Y69895D01*
X393201Y69825D01*
X393284Y69752D01*
X393366Y69677D01*
X393444Y69599D01*
X393519Y69517D01*
X393592Y69434D01*
X393662Y69348D01*
X393729Y69259D01*
X393792Y69168D01*
X393853Y69075D01*
X393910Y68981D01*
X393963Y68884D01*
X394014Y68785D01*
X394061Y68684D01*
X394104Y68582D01*
X394144Y68479D01*
X394180Y68374D01*
X394212Y68268D01*
X394241Y68161D01*
X394266Y68053D01*
X394287Y67944D01*
X394304Y67835D01*
X394318Y67725D01*
X394327Y67614D01*
X394333Y67504D01*
X394335Y67393D01*
X394335Y64218D01*
X394335Y68028D02*
X399415Y70568D01*
X390525Y75565D02*
X387985Y78740D01*
X399415Y78740D01*
X399415Y75565D02*
X399415Y81915D01*
D11*
X130810Y25400D02*
X130710Y25402D01*
X130611Y25408D01*
X130511Y25418D01*
X130413Y25431D01*
X130314Y25449D01*
X130217Y25470D01*
X130121Y25495D01*
X130025Y25524D01*
X129931Y25557D01*
X129838Y25593D01*
X129747Y25633D01*
X129657Y25677D01*
X129569Y25724D01*
X129483Y25774D01*
X129399Y25828D01*
X129317Y25885D01*
X129238Y25945D01*
X129160Y26009D01*
X129086Y26075D01*
X129014Y26144D01*
X128945Y26216D01*
X128879Y26290D01*
X128815Y26368D01*
X128755Y26447D01*
X128698Y26529D01*
X128644Y26613D01*
X128594Y26699D01*
X128547Y26787D01*
X128503Y26877D01*
X128463Y26968D01*
X128427Y27061D01*
X128394Y27155D01*
X128365Y27251D01*
X128340Y27347D01*
X128319Y27444D01*
X128301Y27543D01*
X128288Y27641D01*
X128278Y27741D01*
X128272Y27840D01*
X128270Y27940D01*
X148590Y25400D02*
X148690Y25402D01*
X148789Y25408D01*
X148889Y25418D01*
X148987Y25431D01*
X149086Y25449D01*
X149183Y25470D01*
X149279Y25495D01*
X149375Y25524D01*
X149469Y25557D01*
X149562Y25593D01*
X149653Y25633D01*
X149743Y25677D01*
X149831Y25724D01*
X149917Y25774D01*
X150001Y25828D01*
X150083Y25885D01*
X150162Y25945D01*
X150240Y26009D01*
X150314Y26075D01*
X150386Y26144D01*
X150455Y26216D01*
X150521Y26290D01*
X150585Y26368D01*
X150645Y26447D01*
X150702Y26529D01*
X150756Y26613D01*
X150806Y26699D01*
X150853Y26787D01*
X150897Y26877D01*
X150937Y26968D01*
X150973Y27061D01*
X151006Y27155D01*
X151035Y27251D01*
X151060Y27347D01*
X151081Y27444D01*
X151099Y27543D01*
X151112Y27641D01*
X151122Y27741D01*
X151128Y27840D01*
X151130Y27940D01*
X151130Y86360D02*
X151128Y86460D01*
X151122Y86559D01*
X151112Y86659D01*
X151099Y86757D01*
X151081Y86856D01*
X151060Y86953D01*
X151035Y87049D01*
X151006Y87145D01*
X150973Y87239D01*
X150937Y87332D01*
X150897Y87423D01*
X150853Y87513D01*
X150806Y87601D01*
X150756Y87687D01*
X150702Y87771D01*
X150645Y87853D01*
X150585Y87932D01*
X150521Y88010D01*
X150455Y88084D01*
X150386Y88156D01*
X150314Y88225D01*
X150240Y88291D01*
X150162Y88355D01*
X150083Y88415D01*
X150001Y88472D01*
X149917Y88526D01*
X149831Y88576D01*
X149743Y88623D01*
X149653Y88667D01*
X149562Y88707D01*
X149469Y88743D01*
X149375Y88776D01*
X149279Y88805D01*
X149183Y88830D01*
X149086Y88851D01*
X148987Y88869D01*
X148889Y88882D01*
X148789Y88892D01*
X148690Y88898D01*
X148590Y88900D01*
X130810Y88900D02*
X130710Y88898D01*
X130611Y88892D01*
X130511Y88882D01*
X130413Y88869D01*
X130314Y88851D01*
X130217Y88830D01*
X130121Y88805D01*
X130025Y88776D01*
X129931Y88743D01*
X129838Y88707D01*
X129747Y88667D01*
X129657Y88623D01*
X129569Y88576D01*
X129483Y88526D01*
X129399Y88472D01*
X129317Y88415D01*
X129238Y88355D01*
X129160Y88291D01*
X129086Y88225D01*
X129014Y88156D01*
X128945Y88084D01*
X128879Y88010D01*
X128815Y87932D01*
X128755Y87853D01*
X128698Y87771D01*
X128644Y87687D01*
X128594Y87601D01*
X128547Y87513D01*
X128503Y87423D01*
X128463Y87332D01*
X128427Y87239D01*
X128394Y87145D01*
X128365Y87049D01*
X128340Y86953D01*
X128319Y86856D01*
X128301Y86757D01*
X128288Y86659D01*
X128278Y86559D01*
X128272Y86460D01*
X128270Y86360D01*
X128270Y31750D02*
X128270Y27940D01*
X128270Y31750D02*
X129540Y33020D01*
X151130Y31750D02*
X151130Y27940D01*
X151130Y31750D02*
X149860Y33020D01*
X129540Y81280D02*
X128270Y82550D01*
X129540Y81280D02*
X129540Y33020D01*
X149860Y81280D02*
X151130Y82550D01*
X149860Y81280D02*
X149860Y33020D01*
X128270Y82550D02*
X128270Y86360D01*
X151130Y86360D02*
X151130Y82550D01*
D13*
X145415Y64218D02*
X133985Y64218D01*
X133985Y67393D01*
X133987Y67504D01*
X133993Y67614D01*
X134002Y67725D01*
X134016Y67835D01*
X134033Y67944D01*
X134054Y68053D01*
X134079Y68161D01*
X134108Y68268D01*
X134140Y68374D01*
X134176Y68479D01*
X134216Y68582D01*
X134259Y68684D01*
X134306Y68785D01*
X134357Y68884D01*
X134410Y68980D01*
X134467Y69075D01*
X134528Y69168D01*
X134591Y69259D01*
X134658Y69348D01*
X134728Y69434D01*
X134801Y69517D01*
X134876Y69599D01*
X134954Y69677D01*
X135036Y69752D01*
X135119Y69825D01*
X135205Y69895D01*
X135294Y69962D01*
X135385Y70025D01*
X135478Y70086D01*
X135573Y70143D01*
X135669Y70196D01*
X135768Y70247D01*
X135869Y70294D01*
X135971Y70337D01*
X136074Y70377D01*
X136179Y70413D01*
X136285Y70445D01*
X136392Y70474D01*
X136500Y70499D01*
X136609Y70520D01*
X136718Y70537D01*
X136828Y70551D01*
X136939Y70560D01*
X137049Y70566D01*
X137160Y70568D01*
X137271Y70566D01*
X137381Y70560D01*
X137492Y70551D01*
X137602Y70537D01*
X137711Y70520D01*
X137820Y70499D01*
X137928Y70474D01*
X138035Y70445D01*
X138141Y70413D01*
X138246Y70377D01*
X138349Y70337D01*
X138451Y70294D01*
X138552Y70247D01*
X138651Y70196D01*
X138748Y70143D01*
X138842Y70086D01*
X138935Y70025D01*
X139026Y69962D01*
X139115Y69895D01*
X139201Y69825D01*
X139284Y69752D01*
X139366Y69677D01*
X139444Y69599D01*
X139519Y69517D01*
X139592Y69434D01*
X139662Y69348D01*
X139729Y69259D01*
X139792Y69168D01*
X139853Y69075D01*
X139910Y68981D01*
X139963Y68884D01*
X140014Y68785D01*
X140061Y68684D01*
X140104Y68582D01*
X140144Y68479D01*
X140180Y68374D01*
X140212Y68268D01*
X140241Y68161D01*
X140266Y68053D01*
X140287Y67944D01*
X140304Y67835D01*
X140318Y67725D01*
X140327Y67614D01*
X140333Y67504D01*
X140335Y67393D01*
X140335Y64218D01*
X140335Y68028D02*
X145415Y70568D01*
X136843Y81916D02*
X136739Y81914D01*
X136634Y81908D01*
X136530Y81899D01*
X136427Y81886D01*
X136324Y81868D01*
X136222Y81848D01*
X136120Y81823D01*
X136020Y81795D01*
X135920Y81763D01*
X135822Y81727D01*
X135725Y81688D01*
X135630Y81646D01*
X135536Y81600D01*
X135444Y81550D01*
X135354Y81498D01*
X135266Y81442D01*
X135180Y81382D01*
X135096Y81320D01*
X135015Y81255D01*
X134936Y81187D01*
X134859Y81115D01*
X134786Y81042D01*
X134714Y80965D01*
X134646Y80886D01*
X134581Y80805D01*
X134519Y80721D01*
X134459Y80635D01*
X134403Y80547D01*
X134351Y80457D01*
X134301Y80365D01*
X134255Y80271D01*
X134213Y80176D01*
X134174Y80079D01*
X134138Y79981D01*
X134106Y79881D01*
X134078Y79781D01*
X134053Y79679D01*
X134033Y79577D01*
X134015Y79474D01*
X134002Y79371D01*
X133993Y79267D01*
X133987Y79162D01*
X133985Y79058D01*
X133987Y78940D01*
X133993Y78821D01*
X134002Y78703D01*
X134015Y78586D01*
X134033Y78469D01*
X134053Y78352D01*
X134078Y78236D01*
X134106Y78121D01*
X134139Y78008D01*
X134174Y77895D01*
X134214Y77783D01*
X134256Y77673D01*
X134303Y77564D01*
X134353Y77456D01*
X134406Y77351D01*
X134463Y77247D01*
X134523Y77145D01*
X134586Y77045D01*
X134653Y76947D01*
X134722Y76851D01*
X134795Y76758D01*
X134871Y76667D01*
X134949Y76578D01*
X135031Y76492D01*
X135115Y76409D01*
X135201Y76328D01*
X135291Y76251D01*
X135382Y76176D01*
X135476Y76104D01*
X135573Y76035D01*
X135671Y75970D01*
X135772Y75907D01*
X135875Y75848D01*
X135979Y75792D01*
X136085Y75740D01*
X136193Y75691D01*
X136302Y75646D01*
X136413Y75604D01*
X136525Y75566D01*
X139065Y80963D02*
X138990Y81039D01*
X138911Y81114D01*
X138830Y81185D01*
X138746Y81254D01*
X138660Y81319D01*
X138572Y81381D01*
X138482Y81441D01*
X138390Y81497D01*
X138295Y81550D01*
X138199Y81599D01*
X138101Y81645D01*
X138002Y81688D01*
X137901Y81727D01*
X137799Y81762D01*
X137696Y81794D01*
X137592Y81822D01*
X137487Y81847D01*
X137380Y81868D01*
X137274Y81885D01*
X137167Y81898D01*
X137059Y81907D01*
X136951Y81913D01*
X136843Y81915D01*
X139065Y80963D02*
X145415Y75565D01*
X145415Y81915D01*
D11*
X349250Y165100D02*
X355600Y158750D01*
X349250Y165100D02*
X349250Y177800D01*
X355600Y184150D01*
X368300Y184150D01*
X374650Y177800D01*
X374650Y165100D01*
X368300Y158750D01*
X349250Y127000D02*
X349250Y114300D01*
X349250Y127000D02*
X355600Y133350D01*
X368300Y133350D01*
X374650Y127000D01*
X355600Y133350D02*
X349250Y139700D01*
X349250Y152400D01*
X355600Y158750D01*
X368300Y158750D01*
X374650Y152400D01*
X374650Y139700D01*
X368300Y133350D01*
X368300Y107950D02*
X355600Y107950D01*
X349250Y114300D01*
X368300Y107950D02*
X374650Y114300D01*
X374650Y127000D01*
X349250Y190500D02*
X349250Y203200D01*
X355600Y209550D01*
X368300Y209550D01*
X374650Y203200D01*
X355600Y184150D02*
X349250Y190500D01*
X368300Y184150D02*
X374650Y190500D01*
X374650Y203200D01*
X488950Y209550D02*
X488950Y196850D01*
X482600Y190500D01*
X469900Y190500D01*
X463550Y196850D01*
X469900Y215900D02*
X482600Y215900D01*
X488950Y209550D01*
X469900Y215900D02*
X463550Y209550D01*
X463550Y196850D01*
X482600Y190500D02*
X488950Y184150D01*
X488950Y171450D01*
X482600Y165100D01*
X469900Y165100D01*
X463550Y171450D01*
X463550Y184150D01*
X469900Y190500D01*
X63500Y196850D02*
X63500Y209550D01*
X63500Y196850D02*
X57150Y190500D01*
X44450Y190500D01*
X38100Y196850D01*
X44450Y215900D02*
X57150Y215900D01*
X63500Y209550D01*
X44450Y215900D02*
X38100Y209550D01*
X38100Y196850D01*
X57150Y190500D02*
X63500Y184150D01*
X63500Y171450D01*
X57150Y165100D01*
X44450Y165100D01*
X38100Y171450D01*
X38100Y184150D01*
X44450Y190500D01*
X152400Y165100D02*
X158750Y158750D01*
X152400Y165100D02*
X152400Y177800D01*
X158750Y184150D01*
X171450Y184150D01*
X177800Y177800D01*
X177800Y165100D01*
X171450Y158750D01*
X152400Y127000D02*
X152400Y114300D01*
X152400Y127000D02*
X158750Y133350D01*
X171450Y133350D01*
X177800Y127000D01*
X158750Y133350D02*
X152400Y139700D01*
X152400Y152400D01*
X158750Y158750D01*
X171450Y158750D01*
X177800Y152400D01*
X177800Y139700D01*
X171450Y133350D01*
X171450Y107950D02*
X158750Y107950D01*
X152400Y114300D01*
X171450Y107950D02*
X177800Y114300D01*
X177800Y127000D01*
X152400Y190500D02*
X152400Y203200D01*
X158750Y209550D01*
X171450Y209550D01*
X177800Y203200D01*
X158750Y184150D02*
X152400Y190500D01*
X171450Y184150D02*
X177800Y190500D01*
X177800Y203200D01*
D13*
X105650Y326700D02*
X75650Y326700D01*
X105650Y326700D02*
X135650Y326700D01*
X165650Y326700D01*
X75650Y326700D02*
X75650Y221700D01*
X122650Y221700D01*
X165650Y221700D01*
X165650Y326700D01*
X89027Y266700D02*
X89037Y267476D01*
X89065Y268252D01*
X89113Y269026D01*
X89179Y269800D01*
X89265Y270571D01*
X89369Y271340D01*
X89493Y272106D01*
X89635Y272869D01*
X89795Y273629D01*
X89975Y274384D01*
X90173Y275134D01*
X90389Y275880D01*
X90623Y276620D01*
X90876Y277353D01*
X91146Y278081D01*
X91434Y278802D01*
X91740Y279515D01*
X92063Y280221D01*
X92404Y280918D01*
X92761Y281607D01*
X93135Y282287D01*
X93526Y282957D01*
X93933Y283618D01*
X94356Y284269D01*
X94796Y284909D01*
X95250Y285538D01*
X95720Y286155D01*
X96205Y286761D01*
X96705Y287355D01*
X97219Y287937D01*
X97747Y288505D01*
X98289Y289061D01*
X98845Y289603D01*
X99413Y290131D01*
X99995Y290645D01*
X100589Y291145D01*
X101195Y291630D01*
X101812Y292100D01*
X102441Y292554D01*
X103081Y292994D01*
X103732Y293417D01*
X104393Y293824D01*
X105063Y294215D01*
X105743Y294589D01*
X106432Y294946D01*
X107129Y295287D01*
X107835Y295610D01*
X108548Y295916D01*
X109269Y296204D01*
X109997Y296474D01*
X110730Y296727D01*
X111470Y296961D01*
X112216Y297177D01*
X112966Y297375D01*
X113721Y297555D01*
X114481Y297715D01*
X115244Y297857D01*
X116010Y297981D01*
X116779Y298085D01*
X117550Y298171D01*
X118324Y298237D01*
X119098Y298285D01*
X119874Y298313D01*
X120650Y298323D01*
X121426Y298313D01*
X122202Y298285D01*
X122976Y298237D01*
X123750Y298171D01*
X124521Y298085D01*
X125290Y297981D01*
X126056Y297857D01*
X126819Y297715D01*
X127579Y297555D01*
X128334Y297375D01*
X129084Y297177D01*
X129830Y296961D01*
X130570Y296727D01*
X131303Y296474D01*
X132031Y296204D01*
X132752Y295916D01*
X133465Y295610D01*
X134171Y295287D01*
X134868Y294946D01*
X135557Y294589D01*
X136237Y294215D01*
X136907Y293824D01*
X137568Y293417D01*
X138219Y292994D01*
X138859Y292554D01*
X139488Y292100D01*
X140105Y291630D01*
X140711Y291145D01*
X141305Y290645D01*
X141887Y290131D01*
X142455Y289603D01*
X143011Y289061D01*
X143553Y288505D01*
X144081Y287937D01*
X144595Y287355D01*
X145095Y286761D01*
X145580Y286155D01*
X146050Y285538D01*
X146504Y284909D01*
X146944Y284269D01*
X147367Y283618D01*
X147774Y282957D01*
X148165Y282287D01*
X148539Y281607D01*
X148896Y280918D01*
X149237Y280221D01*
X149560Y279515D01*
X149866Y278802D01*
X150154Y278081D01*
X150424Y277353D01*
X150677Y276620D01*
X150911Y275880D01*
X151127Y275134D01*
X151325Y274384D01*
X151505Y273629D01*
X151665Y272869D01*
X151807Y272106D01*
X151931Y271340D01*
X152035Y270571D01*
X152121Y269800D01*
X152187Y269026D01*
X152235Y268252D01*
X152263Y267476D01*
X152273Y266700D01*
X152263Y265924D01*
X152235Y265148D01*
X152187Y264374D01*
X152121Y263600D01*
X152035Y262829D01*
X151931Y262060D01*
X151807Y261294D01*
X151665Y260531D01*
X151505Y259771D01*
X151325Y259016D01*
X151127Y258266D01*
X150911Y257520D01*
X150677Y256780D01*
X150424Y256047D01*
X150154Y255319D01*
X149866Y254598D01*
X149560Y253885D01*
X149237Y253179D01*
X148896Y252482D01*
X148539Y251793D01*
X148165Y251113D01*
X147774Y250443D01*
X147367Y249782D01*
X146944Y249131D01*
X146504Y248491D01*
X146050Y247862D01*
X145580Y247245D01*
X145095Y246639D01*
X144595Y246045D01*
X144081Y245463D01*
X143553Y244895D01*
X143011Y244339D01*
X142455Y243797D01*
X141887Y243269D01*
X141305Y242755D01*
X140711Y242255D01*
X140105Y241770D01*
X139488Y241300D01*
X138859Y240846D01*
X138219Y240406D01*
X137568Y239983D01*
X136907Y239576D01*
X136237Y239185D01*
X135557Y238811D01*
X134868Y238454D01*
X134171Y238113D01*
X133465Y237790D01*
X132752Y237484D01*
X132031Y237196D01*
X131303Y236926D01*
X130570Y236673D01*
X129830Y236439D01*
X129084Y236223D01*
X128334Y236025D01*
X127579Y235845D01*
X126819Y235685D01*
X126056Y235543D01*
X125290Y235419D01*
X124521Y235315D01*
X123750Y235229D01*
X122976Y235163D01*
X122202Y235115D01*
X121426Y235087D01*
X120650Y235077D01*
X119874Y235087D01*
X119098Y235115D01*
X118324Y235163D01*
X117550Y235229D01*
X116779Y235315D01*
X116010Y235419D01*
X115244Y235543D01*
X114481Y235685D01*
X113721Y235845D01*
X112966Y236025D01*
X112216Y236223D01*
X111470Y236439D01*
X110730Y236673D01*
X109997Y236926D01*
X109269Y237196D01*
X108548Y237484D01*
X107835Y237790D01*
X107129Y238113D01*
X106432Y238454D01*
X105743Y238811D01*
X105063Y239185D01*
X104393Y239576D01*
X103732Y239983D01*
X103081Y240406D01*
X102441Y240846D01*
X101812Y241300D01*
X101195Y241770D01*
X100589Y242255D01*
X99995Y242755D01*
X99413Y243269D01*
X98845Y243797D01*
X98289Y244339D01*
X97747Y244895D01*
X97219Y245463D01*
X96705Y246045D01*
X96205Y246639D01*
X95720Y247245D01*
X95250Y247862D01*
X94796Y248491D01*
X94356Y249131D01*
X93933Y249782D01*
X93526Y250443D01*
X93135Y251113D01*
X92761Y251793D01*
X92404Y252482D01*
X92063Y253179D01*
X91740Y253885D01*
X91434Y254598D01*
X91146Y255319D01*
X90876Y256047D01*
X90623Y256780D01*
X90389Y257520D01*
X90173Y258266D01*
X89975Y259016D01*
X89795Y259771D01*
X89635Y260531D01*
X89493Y261294D01*
X89369Y262060D01*
X89265Y262829D01*
X89179Y263600D01*
X89113Y264374D01*
X89065Y265148D01*
X89037Y265924D01*
X89027Y266700D01*
X105650Y306700D02*
X105650Y326700D01*
X105650Y306700D02*
X135650Y306700D01*
X135650Y326700D01*
X93743Y266700D02*
X93751Y267360D01*
X93775Y268020D01*
X93816Y268679D01*
X93873Y269337D01*
X93945Y269994D01*
X94034Y270648D01*
X94139Y271300D01*
X94260Y271949D01*
X94397Y272595D01*
X94549Y273238D01*
X94718Y273876D01*
X94902Y274511D01*
X95101Y275140D01*
X95316Y275765D01*
X95546Y276384D01*
X95791Y276997D01*
X96051Y277604D01*
X96326Y278204D01*
X96616Y278798D01*
X96920Y279384D01*
X97239Y279962D01*
X97571Y280533D01*
X97918Y281095D01*
X98278Y281649D01*
X98651Y282193D01*
X99038Y282728D01*
X99438Y283254D01*
X99851Y283770D01*
X100276Y284275D01*
X100713Y284770D01*
X101163Y285253D01*
X101624Y285726D01*
X102097Y286187D01*
X102580Y286637D01*
X103075Y287074D01*
X103580Y287499D01*
X104096Y287912D01*
X104622Y288312D01*
X105157Y288699D01*
X105701Y289072D01*
X106255Y289432D01*
X106817Y289779D01*
X107388Y290111D01*
X107966Y290430D01*
X108552Y290734D01*
X109146Y291024D01*
X109746Y291299D01*
X110353Y291559D01*
X110966Y291804D01*
X111585Y292034D01*
X112210Y292249D01*
X112839Y292448D01*
X113474Y292632D01*
X114112Y292801D01*
X114755Y292953D01*
X115401Y293090D01*
X116050Y293211D01*
X116702Y293316D01*
X117356Y293405D01*
X118013Y293477D01*
X118671Y293534D01*
X119330Y293575D01*
X119990Y293599D01*
X120650Y293607D01*
X121310Y293599D01*
X121970Y293575D01*
X122629Y293534D01*
X123287Y293477D01*
X123944Y293405D01*
X124598Y293316D01*
X125250Y293211D01*
X125899Y293090D01*
X126545Y292953D01*
X127188Y292801D01*
X127826Y292632D01*
X128461Y292448D01*
X129090Y292249D01*
X129715Y292034D01*
X130334Y291804D01*
X130947Y291559D01*
X131554Y291299D01*
X132154Y291024D01*
X132748Y290734D01*
X133334Y290430D01*
X133912Y290111D01*
X134483Y289779D01*
X135045Y289432D01*
X135599Y289072D01*
X136143Y288699D01*
X136678Y288312D01*
X137204Y287912D01*
X137720Y287499D01*
X138225Y287074D01*
X138720Y286637D01*
X139203Y286187D01*
X139676Y285726D01*
X140137Y285253D01*
X140587Y284770D01*
X141024Y284275D01*
X141449Y283770D01*
X141862Y283254D01*
X142262Y282728D01*
X142649Y282193D01*
X143022Y281649D01*
X143382Y281095D01*
X143729Y280533D01*
X144061Y279962D01*
X144380Y279384D01*
X144684Y278798D01*
X144974Y278204D01*
X145249Y277604D01*
X145509Y276997D01*
X145754Y276384D01*
X145984Y275765D01*
X146199Y275140D01*
X146398Y274511D01*
X146582Y273876D01*
X146751Y273238D01*
X146903Y272595D01*
X147040Y271949D01*
X147161Y271300D01*
X147266Y270648D01*
X147355Y269994D01*
X147427Y269337D01*
X147484Y268679D01*
X147525Y268020D01*
X147549Y267360D01*
X147557Y266700D01*
X147549Y266040D01*
X147525Y265380D01*
X147484Y264721D01*
X147427Y264063D01*
X147355Y263406D01*
X147266Y262752D01*
X147161Y262100D01*
X147040Y261451D01*
X146903Y260805D01*
X146751Y260162D01*
X146582Y259524D01*
X146398Y258889D01*
X146199Y258260D01*
X145984Y257635D01*
X145754Y257016D01*
X145509Y256403D01*
X145249Y255796D01*
X144974Y255196D01*
X144684Y254602D01*
X144380Y254016D01*
X144061Y253438D01*
X143729Y252867D01*
X143382Y252305D01*
X143022Y251751D01*
X142649Y251207D01*
X142262Y250672D01*
X141862Y250146D01*
X141449Y249630D01*
X141024Y249125D01*
X140587Y248630D01*
X140137Y248147D01*
X139676Y247674D01*
X139203Y247213D01*
X138720Y246763D01*
X138225Y246326D01*
X137720Y245901D01*
X137204Y245488D01*
X136678Y245088D01*
X136143Y244701D01*
X135599Y244328D01*
X135045Y243968D01*
X134483Y243621D01*
X133912Y243289D01*
X133334Y242970D01*
X132748Y242666D01*
X132154Y242376D01*
X131554Y242101D01*
X130947Y241841D01*
X130334Y241596D01*
X129715Y241366D01*
X129090Y241151D01*
X128461Y240952D01*
X127826Y240768D01*
X127188Y240599D01*
X126545Y240447D01*
X125899Y240310D01*
X125250Y240189D01*
X124598Y240084D01*
X123944Y239995D01*
X123287Y239923D01*
X122629Y239866D01*
X121970Y239825D01*
X121310Y239801D01*
X120650Y239793D01*
X119990Y239801D01*
X119330Y239825D01*
X118671Y239866D01*
X118013Y239923D01*
X117356Y239995D01*
X116702Y240084D01*
X116050Y240189D01*
X115401Y240310D01*
X114755Y240447D01*
X114112Y240599D01*
X113474Y240768D01*
X112839Y240952D01*
X112210Y241151D01*
X111585Y241366D01*
X110966Y241596D01*
X110353Y241841D01*
X109746Y242101D01*
X109146Y242376D01*
X108552Y242666D01*
X107966Y242970D01*
X107388Y243289D01*
X106817Y243621D01*
X106255Y243968D01*
X105701Y244328D01*
X105157Y244701D01*
X104622Y245088D01*
X104096Y245488D01*
X103580Y245901D01*
X103075Y246326D01*
X102580Y246763D01*
X102097Y247213D01*
X101624Y247674D01*
X101163Y248147D01*
X100713Y248630D01*
X100276Y249125D01*
X99851Y249630D01*
X99438Y250146D01*
X99038Y250672D01*
X98651Y251207D01*
X98278Y251751D01*
X97918Y252305D01*
X97571Y252867D01*
X97239Y253438D01*
X96920Y254016D01*
X96616Y254602D01*
X96326Y255196D01*
X96051Y255796D01*
X95791Y256403D01*
X95546Y257016D01*
X95316Y257635D01*
X95101Y258260D01*
X94902Y258889D01*
X94718Y259524D01*
X94549Y260162D01*
X94397Y260805D01*
X94260Y261451D01*
X94139Y262100D01*
X94034Y262752D01*
X93945Y263406D01*
X93873Y264063D01*
X93816Y264721D01*
X93775Y265380D01*
X93751Y266040D01*
X93743Y266700D01*
X118650Y220700D02*
X118650Y199700D01*
X122650Y199700D01*
X122650Y221700D01*
X170900Y326700D02*
X200900Y326700D01*
X230900Y326700D01*
X260900Y326700D01*
X170900Y326700D02*
X170900Y221700D01*
X217900Y221700D01*
X260900Y221700D01*
X260900Y326700D01*
X184277Y266700D02*
X184287Y267476D01*
X184315Y268252D01*
X184363Y269026D01*
X184429Y269800D01*
X184515Y270571D01*
X184619Y271340D01*
X184743Y272106D01*
X184885Y272869D01*
X185045Y273629D01*
X185225Y274384D01*
X185423Y275134D01*
X185639Y275880D01*
X185873Y276620D01*
X186126Y277353D01*
X186396Y278081D01*
X186684Y278802D01*
X186990Y279515D01*
X187313Y280221D01*
X187654Y280918D01*
X188011Y281607D01*
X188385Y282287D01*
X188776Y282957D01*
X189183Y283618D01*
X189606Y284269D01*
X190046Y284909D01*
X190500Y285538D01*
X190970Y286155D01*
X191455Y286761D01*
X191955Y287355D01*
X192469Y287937D01*
X192997Y288505D01*
X193539Y289061D01*
X194095Y289603D01*
X194663Y290131D01*
X195245Y290645D01*
X195839Y291145D01*
X196445Y291630D01*
X197062Y292100D01*
X197691Y292554D01*
X198331Y292994D01*
X198982Y293417D01*
X199643Y293824D01*
X200313Y294215D01*
X200993Y294589D01*
X201682Y294946D01*
X202379Y295287D01*
X203085Y295610D01*
X203798Y295916D01*
X204519Y296204D01*
X205247Y296474D01*
X205980Y296727D01*
X206720Y296961D01*
X207466Y297177D01*
X208216Y297375D01*
X208971Y297555D01*
X209731Y297715D01*
X210494Y297857D01*
X211260Y297981D01*
X212029Y298085D01*
X212800Y298171D01*
X213574Y298237D01*
X214348Y298285D01*
X215124Y298313D01*
X215900Y298323D01*
X216676Y298313D01*
X217452Y298285D01*
X218226Y298237D01*
X219000Y298171D01*
X219771Y298085D01*
X220540Y297981D01*
X221306Y297857D01*
X222069Y297715D01*
X222829Y297555D01*
X223584Y297375D01*
X224334Y297177D01*
X225080Y296961D01*
X225820Y296727D01*
X226553Y296474D01*
X227281Y296204D01*
X228002Y295916D01*
X228715Y295610D01*
X229421Y295287D01*
X230118Y294946D01*
X230807Y294589D01*
X231487Y294215D01*
X232157Y293824D01*
X232818Y293417D01*
X233469Y292994D01*
X234109Y292554D01*
X234738Y292100D01*
X235355Y291630D01*
X235961Y291145D01*
X236555Y290645D01*
X237137Y290131D01*
X237705Y289603D01*
X238261Y289061D01*
X238803Y288505D01*
X239331Y287937D01*
X239845Y287355D01*
X240345Y286761D01*
X240830Y286155D01*
X241300Y285538D01*
X241754Y284909D01*
X242194Y284269D01*
X242617Y283618D01*
X243024Y282957D01*
X243415Y282287D01*
X243789Y281607D01*
X244146Y280918D01*
X244487Y280221D01*
X244810Y279515D01*
X245116Y278802D01*
X245404Y278081D01*
X245674Y277353D01*
X245927Y276620D01*
X246161Y275880D01*
X246377Y275134D01*
X246575Y274384D01*
X246755Y273629D01*
X246915Y272869D01*
X247057Y272106D01*
X247181Y271340D01*
X247285Y270571D01*
X247371Y269800D01*
X247437Y269026D01*
X247485Y268252D01*
X247513Y267476D01*
X247523Y266700D01*
X247513Y265924D01*
X247485Y265148D01*
X247437Y264374D01*
X247371Y263600D01*
X247285Y262829D01*
X247181Y262060D01*
X247057Y261294D01*
X246915Y260531D01*
X246755Y259771D01*
X246575Y259016D01*
X246377Y258266D01*
X246161Y257520D01*
X245927Y256780D01*
X245674Y256047D01*
X245404Y255319D01*
X245116Y254598D01*
X244810Y253885D01*
X244487Y253179D01*
X244146Y252482D01*
X243789Y251793D01*
X243415Y251113D01*
X243024Y250443D01*
X242617Y249782D01*
X242194Y249131D01*
X241754Y248491D01*
X241300Y247862D01*
X240830Y247245D01*
X240345Y246639D01*
X239845Y246045D01*
X239331Y245463D01*
X238803Y244895D01*
X238261Y244339D01*
X237705Y243797D01*
X237137Y243269D01*
X236555Y242755D01*
X235961Y242255D01*
X235355Y241770D01*
X234738Y241300D01*
X234109Y240846D01*
X233469Y240406D01*
X232818Y239983D01*
X232157Y239576D01*
X231487Y239185D01*
X230807Y238811D01*
X230118Y238454D01*
X229421Y238113D01*
X228715Y237790D01*
X228002Y237484D01*
X227281Y237196D01*
X226553Y236926D01*
X225820Y236673D01*
X225080Y236439D01*
X224334Y236223D01*
X223584Y236025D01*
X222829Y235845D01*
X222069Y235685D01*
X221306Y235543D01*
X220540Y235419D01*
X219771Y235315D01*
X219000Y235229D01*
X218226Y235163D01*
X217452Y235115D01*
X216676Y235087D01*
X215900Y235077D01*
X215124Y235087D01*
X214348Y235115D01*
X213574Y235163D01*
X212800Y235229D01*
X212029Y235315D01*
X211260Y235419D01*
X210494Y235543D01*
X209731Y235685D01*
X208971Y235845D01*
X208216Y236025D01*
X207466Y236223D01*
X206720Y236439D01*
X205980Y236673D01*
X205247Y236926D01*
X204519Y237196D01*
X203798Y237484D01*
X203085Y237790D01*
X202379Y238113D01*
X201682Y238454D01*
X200993Y238811D01*
X200313Y239185D01*
X199643Y239576D01*
X198982Y239983D01*
X198331Y240406D01*
X197691Y240846D01*
X197062Y241300D01*
X196445Y241770D01*
X195839Y242255D01*
X195245Y242755D01*
X194663Y243269D01*
X194095Y243797D01*
X193539Y244339D01*
X192997Y244895D01*
X192469Y245463D01*
X191955Y246045D01*
X191455Y246639D01*
X190970Y247245D01*
X190500Y247862D01*
X190046Y248491D01*
X189606Y249131D01*
X189183Y249782D01*
X188776Y250443D01*
X188385Y251113D01*
X188011Y251793D01*
X187654Y252482D01*
X187313Y253179D01*
X186990Y253885D01*
X186684Y254598D01*
X186396Y255319D01*
X186126Y256047D01*
X185873Y256780D01*
X185639Y257520D01*
X185423Y258266D01*
X185225Y259016D01*
X185045Y259771D01*
X184885Y260531D01*
X184743Y261294D01*
X184619Y262060D01*
X184515Y262829D01*
X184429Y263600D01*
X184363Y264374D01*
X184315Y265148D01*
X184287Y265924D01*
X184277Y266700D01*
X200900Y306700D02*
X200900Y326700D01*
X200900Y306700D02*
X230900Y306700D01*
X230900Y326700D01*
X188993Y266700D02*
X189001Y267360D01*
X189025Y268020D01*
X189066Y268679D01*
X189123Y269337D01*
X189195Y269994D01*
X189284Y270648D01*
X189389Y271300D01*
X189510Y271949D01*
X189647Y272595D01*
X189799Y273238D01*
X189968Y273876D01*
X190152Y274511D01*
X190351Y275140D01*
X190566Y275765D01*
X190796Y276384D01*
X191041Y276997D01*
X191301Y277604D01*
X191576Y278204D01*
X191866Y278798D01*
X192170Y279384D01*
X192489Y279962D01*
X192821Y280533D01*
X193168Y281095D01*
X193528Y281649D01*
X193901Y282193D01*
X194288Y282728D01*
X194688Y283254D01*
X195101Y283770D01*
X195526Y284275D01*
X195963Y284770D01*
X196413Y285253D01*
X196874Y285726D01*
X197347Y286187D01*
X197830Y286637D01*
X198325Y287074D01*
X198830Y287499D01*
X199346Y287912D01*
X199872Y288312D01*
X200407Y288699D01*
X200951Y289072D01*
X201505Y289432D01*
X202067Y289779D01*
X202638Y290111D01*
X203216Y290430D01*
X203802Y290734D01*
X204396Y291024D01*
X204996Y291299D01*
X205603Y291559D01*
X206216Y291804D01*
X206835Y292034D01*
X207460Y292249D01*
X208089Y292448D01*
X208724Y292632D01*
X209362Y292801D01*
X210005Y292953D01*
X210651Y293090D01*
X211300Y293211D01*
X211952Y293316D01*
X212606Y293405D01*
X213263Y293477D01*
X213921Y293534D01*
X214580Y293575D01*
X215240Y293599D01*
X215900Y293607D01*
X216560Y293599D01*
X217220Y293575D01*
X217879Y293534D01*
X218537Y293477D01*
X219194Y293405D01*
X219848Y293316D01*
X220500Y293211D01*
X221149Y293090D01*
X221795Y292953D01*
X222438Y292801D01*
X223076Y292632D01*
X223711Y292448D01*
X224340Y292249D01*
X224965Y292034D01*
X225584Y291804D01*
X226197Y291559D01*
X226804Y291299D01*
X227404Y291024D01*
X227998Y290734D01*
X228584Y290430D01*
X229162Y290111D01*
X229733Y289779D01*
X230295Y289432D01*
X230849Y289072D01*
X231393Y288699D01*
X231928Y288312D01*
X232454Y287912D01*
X232970Y287499D01*
X233475Y287074D01*
X233970Y286637D01*
X234453Y286187D01*
X234926Y285726D01*
X235387Y285253D01*
X235837Y284770D01*
X236274Y284275D01*
X236699Y283770D01*
X237112Y283254D01*
X237512Y282728D01*
X237899Y282193D01*
X238272Y281649D01*
X238632Y281095D01*
X238979Y280533D01*
X239311Y279962D01*
X239630Y279384D01*
X239934Y278798D01*
X240224Y278204D01*
X240499Y277604D01*
X240759Y276997D01*
X241004Y276384D01*
X241234Y275765D01*
X241449Y275140D01*
X241648Y274511D01*
X241832Y273876D01*
X242001Y273238D01*
X242153Y272595D01*
X242290Y271949D01*
X242411Y271300D01*
X242516Y270648D01*
X242605Y269994D01*
X242677Y269337D01*
X242734Y268679D01*
X242775Y268020D01*
X242799Y267360D01*
X242807Y266700D01*
X242799Y266040D01*
X242775Y265380D01*
X242734Y264721D01*
X242677Y264063D01*
X242605Y263406D01*
X242516Y262752D01*
X242411Y262100D01*
X242290Y261451D01*
X242153Y260805D01*
X242001Y260162D01*
X241832Y259524D01*
X241648Y258889D01*
X241449Y258260D01*
X241234Y257635D01*
X241004Y257016D01*
X240759Y256403D01*
X240499Y255796D01*
X240224Y255196D01*
X239934Y254602D01*
X239630Y254016D01*
X239311Y253438D01*
X238979Y252867D01*
X238632Y252305D01*
X238272Y251751D01*
X237899Y251207D01*
X237512Y250672D01*
X237112Y250146D01*
X236699Y249630D01*
X236274Y249125D01*
X235837Y248630D01*
X235387Y248147D01*
X234926Y247674D01*
X234453Y247213D01*
X233970Y246763D01*
X233475Y246326D01*
X232970Y245901D01*
X232454Y245488D01*
X231928Y245088D01*
X231393Y244701D01*
X230849Y244328D01*
X230295Y243968D01*
X229733Y243621D01*
X229162Y243289D01*
X228584Y242970D01*
X227998Y242666D01*
X227404Y242376D01*
X226804Y242101D01*
X226197Y241841D01*
X225584Y241596D01*
X224965Y241366D01*
X224340Y241151D01*
X223711Y240952D01*
X223076Y240768D01*
X222438Y240599D01*
X221795Y240447D01*
X221149Y240310D01*
X220500Y240189D01*
X219848Y240084D01*
X219194Y239995D01*
X218537Y239923D01*
X217879Y239866D01*
X217220Y239825D01*
X216560Y239801D01*
X215900Y239793D01*
X215240Y239801D01*
X214580Y239825D01*
X213921Y239866D01*
X213263Y239923D01*
X212606Y239995D01*
X211952Y240084D01*
X211300Y240189D01*
X210651Y240310D01*
X210005Y240447D01*
X209362Y240599D01*
X208724Y240768D01*
X208089Y240952D01*
X207460Y241151D01*
X206835Y241366D01*
X206216Y241596D01*
X205603Y241841D01*
X204996Y242101D01*
X204396Y242376D01*
X203802Y242666D01*
X203216Y242970D01*
X202638Y243289D01*
X202067Y243621D01*
X201505Y243968D01*
X200951Y244328D01*
X200407Y244701D01*
X199872Y245088D01*
X199346Y245488D01*
X198830Y245901D01*
X198325Y246326D01*
X197830Y246763D01*
X197347Y247213D01*
X196874Y247674D01*
X196413Y248147D01*
X195963Y248630D01*
X195526Y249125D01*
X195101Y249630D01*
X194688Y250146D01*
X194288Y250672D01*
X193901Y251207D01*
X193528Y251751D01*
X193168Y252305D01*
X192821Y252867D01*
X192489Y253438D01*
X192170Y254016D01*
X191866Y254602D01*
X191576Y255196D01*
X191301Y255796D01*
X191041Y256403D01*
X190796Y257016D01*
X190566Y257635D01*
X190351Y258260D01*
X190152Y258889D01*
X189968Y259524D01*
X189799Y260162D01*
X189647Y260805D01*
X189510Y261451D01*
X189389Y262100D01*
X189284Y262752D01*
X189195Y263406D01*
X189123Y264063D01*
X189066Y264721D01*
X189025Y265380D01*
X189001Y266040D01*
X188993Y266700D01*
X213900Y220700D02*
X213900Y199700D01*
X217900Y199700D01*
X217900Y221700D01*
X266150Y326700D02*
X296150Y326700D01*
X326150Y326700D01*
X356150Y326700D01*
X266150Y326700D02*
X266150Y221700D01*
X313150Y221700D01*
X356150Y221700D01*
X356150Y326700D01*
X279527Y266700D02*
X279537Y267476D01*
X279565Y268252D01*
X279613Y269026D01*
X279679Y269800D01*
X279765Y270571D01*
X279869Y271340D01*
X279993Y272106D01*
X280135Y272869D01*
X280295Y273629D01*
X280475Y274384D01*
X280673Y275134D01*
X280889Y275880D01*
X281123Y276620D01*
X281376Y277353D01*
X281646Y278081D01*
X281934Y278802D01*
X282240Y279515D01*
X282563Y280221D01*
X282904Y280918D01*
X283261Y281607D01*
X283635Y282287D01*
X284026Y282957D01*
X284433Y283618D01*
X284856Y284269D01*
X285296Y284909D01*
X285750Y285538D01*
X286220Y286155D01*
X286705Y286761D01*
X287205Y287355D01*
X287719Y287937D01*
X288247Y288505D01*
X288789Y289061D01*
X289345Y289603D01*
X289913Y290131D01*
X290495Y290645D01*
X291089Y291145D01*
X291695Y291630D01*
X292312Y292100D01*
X292941Y292554D01*
X293581Y292994D01*
X294232Y293417D01*
X294893Y293824D01*
X295563Y294215D01*
X296243Y294589D01*
X296932Y294946D01*
X297629Y295287D01*
X298335Y295610D01*
X299048Y295916D01*
X299769Y296204D01*
X300497Y296474D01*
X301230Y296727D01*
X301970Y296961D01*
X302716Y297177D01*
X303466Y297375D01*
X304221Y297555D01*
X304981Y297715D01*
X305744Y297857D01*
X306510Y297981D01*
X307279Y298085D01*
X308050Y298171D01*
X308824Y298237D01*
X309598Y298285D01*
X310374Y298313D01*
X311150Y298323D01*
X311926Y298313D01*
X312702Y298285D01*
X313476Y298237D01*
X314250Y298171D01*
X315021Y298085D01*
X315790Y297981D01*
X316556Y297857D01*
X317319Y297715D01*
X318079Y297555D01*
X318834Y297375D01*
X319584Y297177D01*
X320330Y296961D01*
X321070Y296727D01*
X321803Y296474D01*
X322531Y296204D01*
X323252Y295916D01*
X323965Y295610D01*
X324671Y295287D01*
X325368Y294946D01*
X326057Y294589D01*
X326737Y294215D01*
X327407Y293824D01*
X328068Y293417D01*
X328719Y292994D01*
X329359Y292554D01*
X329988Y292100D01*
X330605Y291630D01*
X331211Y291145D01*
X331805Y290645D01*
X332387Y290131D01*
X332955Y289603D01*
X333511Y289061D01*
X334053Y288505D01*
X334581Y287937D01*
X335095Y287355D01*
X335595Y286761D01*
X336080Y286155D01*
X336550Y285538D01*
X337004Y284909D01*
X337444Y284269D01*
X337867Y283618D01*
X338274Y282957D01*
X338665Y282287D01*
X339039Y281607D01*
X339396Y280918D01*
X339737Y280221D01*
X340060Y279515D01*
X340366Y278802D01*
X340654Y278081D01*
X340924Y277353D01*
X341177Y276620D01*
X341411Y275880D01*
X341627Y275134D01*
X341825Y274384D01*
X342005Y273629D01*
X342165Y272869D01*
X342307Y272106D01*
X342431Y271340D01*
X342535Y270571D01*
X342621Y269800D01*
X342687Y269026D01*
X342735Y268252D01*
X342763Y267476D01*
X342773Y266700D01*
X342763Y265924D01*
X342735Y265148D01*
X342687Y264374D01*
X342621Y263600D01*
X342535Y262829D01*
X342431Y262060D01*
X342307Y261294D01*
X342165Y260531D01*
X342005Y259771D01*
X341825Y259016D01*
X341627Y258266D01*
X341411Y257520D01*
X341177Y256780D01*
X340924Y256047D01*
X340654Y255319D01*
X340366Y254598D01*
X340060Y253885D01*
X339737Y253179D01*
X339396Y252482D01*
X339039Y251793D01*
X338665Y251113D01*
X338274Y250443D01*
X337867Y249782D01*
X337444Y249131D01*
X337004Y248491D01*
X336550Y247862D01*
X336080Y247245D01*
X335595Y246639D01*
X335095Y246045D01*
X334581Y245463D01*
X334053Y244895D01*
X333511Y244339D01*
X332955Y243797D01*
X332387Y243269D01*
X331805Y242755D01*
X331211Y242255D01*
X330605Y241770D01*
X329988Y241300D01*
X329359Y240846D01*
X328719Y240406D01*
X328068Y239983D01*
X327407Y239576D01*
X326737Y239185D01*
X326057Y238811D01*
X325368Y238454D01*
X324671Y238113D01*
X323965Y237790D01*
X323252Y237484D01*
X322531Y237196D01*
X321803Y236926D01*
X321070Y236673D01*
X320330Y236439D01*
X319584Y236223D01*
X318834Y236025D01*
X318079Y235845D01*
X317319Y235685D01*
X316556Y235543D01*
X315790Y235419D01*
X315021Y235315D01*
X314250Y235229D01*
X313476Y235163D01*
X312702Y235115D01*
X311926Y235087D01*
X311150Y235077D01*
X310374Y235087D01*
X309598Y235115D01*
X308824Y235163D01*
X308050Y235229D01*
X307279Y235315D01*
X306510Y235419D01*
X305744Y235543D01*
X304981Y235685D01*
X304221Y235845D01*
X303466Y236025D01*
X302716Y236223D01*
X301970Y236439D01*
X301230Y236673D01*
X300497Y236926D01*
X299769Y237196D01*
X299048Y237484D01*
X298335Y237790D01*
X297629Y238113D01*
X296932Y238454D01*
X296243Y238811D01*
X295563Y239185D01*
X294893Y239576D01*
X294232Y239983D01*
X293581Y240406D01*
X292941Y240846D01*
X292312Y241300D01*
X291695Y241770D01*
X291089Y242255D01*
X290495Y242755D01*
X289913Y243269D01*
X289345Y243797D01*
X288789Y244339D01*
X288247Y244895D01*
X287719Y245463D01*
X287205Y246045D01*
X286705Y246639D01*
X286220Y247245D01*
X285750Y247862D01*
X285296Y248491D01*
X284856Y249131D01*
X284433Y249782D01*
X284026Y250443D01*
X283635Y251113D01*
X283261Y251793D01*
X282904Y252482D01*
X282563Y253179D01*
X282240Y253885D01*
X281934Y254598D01*
X281646Y255319D01*
X281376Y256047D01*
X281123Y256780D01*
X280889Y257520D01*
X280673Y258266D01*
X280475Y259016D01*
X280295Y259771D01*
X280135Y260531D01*
X279993Y261294D01*
X279869Y262060D01*
X279765Y262829D01*
X279679Y263600D01*
X279613Y264374D01*
X279565Y265148D01*
X279537Y265924D01*
X279527Y266700D01*
X296150Y306700D02*
X296150Y326700D01*
X296150Y306700D02*
X326150Y306700D01*
X326150Y326700D01*
X284243Y266700D02*
X284251Y267360D01*
X284275Y268020D01*
X284316Y268679D01*
X284373Y269337D01*
X284445Y269994D01*
X284534Y270648D01*
X284639Y271300D01*
X284760Y271949D01*
X284897Y272595D01*
X285049Y273238D01*
X285218Y273876D01*
X285402Y274511D01*
X285601Y275140D01*
X285816Y275765D01*
X286046Y276384D01*
X286291Y276997D01*
X286551Y277604D01*
X286826Y278204D01*
X287116Y278798D01*
X287420Y279384D01*
X287739Y279962D01*
X288071Y280533D01*
X288418Y281095D01*
X288778Y281649D01*
X289151Y282193D01*
X289538Y282728D01*
X289938Y283254D01*
X290351Y283770D01*
X290776Y284275D01*
X291213Y284770D01*
X291663Y285253D01*
X292124Y285726D01*
X292597Y286187D01*
X293080Y286637D01*
X293575Y287074D01*
X294080Y287499D01*
X294596Y287912D01*
X295122Y288312D01*
X295657Y288699D01*
X296201Y289072D01*
X296755Y289432D01*
X297317Y289779D01*
X297888Y290111D01*
X298466Y290430D01*
X299052Y290734D01*
X299646Y291024D01*
X300246Y291299D01*
X300853Y291559D01*
X301466Y291804D01*
X302085Y292034D01*
X302710Y292249D01*
X303339Y292448D01*
X303974Y292632D01*
X304612Y292801D01*
X305255Y292953D01*
X305901Y293090D01*
X306550Y293211D01*
X307202Y293316D01*
X307856Y293405D01*
X308513Y293477D01*
X309171Y293534D01*
X309830Y293575D01*
X310490Y293599D01*
X311150Y293607D01*
X311810Y293599D01*
X312470Y293575D01*
X313129Y293534D01*
X313787Y293477D01*
X314444Y293405D01*
X315098Y293316D01*
X315750Y293211D01*
X316399Y293090D01*
X317045Y292953D01*
X317688Y292801D01*
X318326Y292632D01*
X318961Y292448D01*
X319590Y292249D01*
X320215Y292034D01*
X320834Y291804D01*
X321447Y291559D01*
X322054Y291299D01*
X322654Y291024D01*
X323248Y290734D01*
X323834Y290430D01*
X324412Y290111D01*
X324983Y289779D01*
X325545Y289432D01*
X326099Y289072D01*
X326643Y288699D01*
X327178Y288312D01*
X327704Y287912D01*
X328220Y287499D01*
X328725Y287074D01*
X329220Y286637D01*
X329703Y286187D01*
X330176Y285726D01*
X330637Y285253D01*
X331087Y284770D01*
X331524Y284275D01*
X331949Y283770D01*
X332362Y283254D01*
X332762Y282728D01*
X333149Y282193D01*
X333522Y281649D01*
X333882Y281095D01*
X334229Y280533D01*
X334561Y279962D01*
X334880Y279384D01*
X335184Y278798D01*
X335474Y278204D01*
X335749Y277604D01*
X336009Y276997D01*
X336254Y276384D01*
X336484Y275765D01*
X336699Y275140D01*
X336898Y274511D01*
X337082Y273876D01*
X337251Y273238D01*
X337403Y272595D01*
X337540Y271949D01*
X337661Y271300D01*
X337766Y270648D01*
X337855Y269994D01*
X337927Y269337D01*
X337984Y268679D01*
X338025Y268020D01*
X338049Y267360D01*
X338057Y266700D01*
X338049Y266040D01*
X338025Y265380D01*
X337984Y264721D01*
X337927Y264063D01*
X337855Y263406D01*
X337766Y262752D01*
X337661Y262100D01*
X337540Y261451D01*
X337403Y260805D01*
X337251Y260162D01*
X337082Y259524D01*
X336898Y258889D01*
X336699Y258260D01*
X336484Y257635D01*
X336254Y257016D01*
X336009Y256403D01*
X335749Y255796D01*
X335474Y255196D01*
X335184Y254602D01*
X334880Y254016D01*
X334561Y253438D01*
X334229Y252867D01*
X333882Y252305D01*
X333522Y251751D01*
X333149Y251207D01*
X332762Y250672D01*
X332362Y250146D01*
X331949Y249630D01*
X331524Y249125D01*
X331087Y248630D01*
X330637Y248147D01*
X330176Y247674D01*
X329703Y247213D01*
X329220Y246763D01*
X328725Y246326D01*
X328220Y245901D01*
X327704Y245488D01*
X327178Y245088D01*
X326643Y244701D01*
X326099Y244328D01*
X325545Y243968D01*
X324983Y243621D01*
X324412Y243289D01*
X323834Y242970D01*
X323248Y242666D01*
X322654Y242376D01*
X322054Y242101D01*
X321447Y241841D01*
X320834Y241596D01*
X320215Y241366D01*
X319590Y241151D01*
X318961Y240952D01*
X318326Y240768D01*
X317688Y240599D01*
X317045Y240447D01*
X316399Y240310D01*
X315750Y240189D01*
X315098Y240084D01*
X314444Y239995D01*
X313787Y239923D01*
X313129Y239866D01*
X312470Y239825D01*
X311810Y239801D01*
X311150Y239793D01*
X310490Y239801D01*
X309830Y239825D01*
X309171Y239866D01*
X308513Y239923D01*
X307856Y239995D01*
X307202Y240084D01*
X306550Y240189D01*
X305901Y240310D01*
X305255Y240447D01*
X304612Y240599D01*
X303974Y240768D01*
X303339Y240952D01*
X302710Y241151D01*
X302085Y241366D01*
X301466Y241596D01*
X300853Y241841D01*
X300246Y242101D01*
X299646Y242376D01*
X299052Y242666D01*
X298466Y242970D01*
X297888Y243289D01*
X297317Y243621D01*
X296755Y243968D01*
X296201Y244328D01*
X295657Y244701D01*
X295122Y245088D01*
X294596Y245488D01*
X294080Y245901D01*
X293575Y246326D01*
X293080Y246763D01*
X292597Y247213D01*
X292124Y247674D01*
X291663Y248147D01*
X291213Y248630D01*
X290776Y249125D01*
X290351Y249630D01*
X289938Y250146D01*
X289538Y250672D01*
X289151Y251207D01*
X288778Y251751D01*
X288418Y252305D01*
X288071Y252867D01*
X287739Y253438D01*
X287420Y254016D01*
X287116Y254602D01*
X286826Y255196D01*
X286551Y255796D01*
X286291Y256403D01*
X286046Y257016D01*
X285816Y257635D01*
X285601Y258260D01*
X285402Y258889D01*
X285218Y259524D01*
X285049Y260162D01*
X284897Y260805D01*
X284760Y261451D01*
X284639Y262100D01*
X284534Y262752D01*
X284445Y263406D01*
X284373Y264063D01*
X284316Y264721D01*
X284275Y265380D01*
X284251Y266040D01*
X284243Y266700D01*
X309150Y220700D02*
X309150Y199700D01*
X313150Y199700D01*
X313150Y221700D01*
X361400Y326700D02*
X391400Y326700D01*
X421400Y326700D01*
X451400Y326700D01*
X361400Y326700D02*
X361400Y221700D01*
X408400Y221700D01*
X451400Y221700D01*
X451400Y326700D01*
X374777Y266700D02*
X374787Y267476D01*
X374815Y268252D01*
X374863Y269026D01*
X374929Y269800D01*
X375015Y270571D01*
X375119Y271340D01*
X375243Y272106D01*
X375385Y272869D01*
X375545Y273629D01*
X375725Y274384D01*
X375923Y275134D01*
X376139Y275880D01*
X376373Y276620D01*
X376626Y277353D01*
X376896Y278081D01*
X377184Y278802D01*
X377490Y279515D01*
X377813Y280221D01*
X378154Y280918D01*
X378511Y281607D01*
X378885Y282287D01*
X379276Y282957D01*
X379683Y283618D01*
X380106Y284269D01*
X380546Y284909D01*
X381000Y285538D01*
X381470Y286155D01*
X381955Y286761D01*
X382455Y287355D01*
X382969Y287937D01*
X383497Y288505D01*
X384039Y289061D01*
X384595Y289603D01*
X385163Y290131D01*
X385745Y290645D01*
X386339Y291145D01*
X386945Y291630D01*
X387562Y292100D01*
X388191Y292554D01*
X388831Y292994D01*
X389482Y293417D01*
X390143Y293824D01*
X390813Y294215D01*
X391493Y294589D01*
X392182Y294946D01*
X392879Y295287D01*
X393585Y295610D01*
X394298Y295916D01*
X395019Y296204D01*
X395747Y296474D01*
X396480Y296727D01*
X397220Y296961D01*
X397966Y297177D01*
X398716Y297375D01*
X399471Y297555D01*
X400231Y297715D01*
X400994Y297857D01*
X401760Y297981D01*
X402529Y298085D01*
X403300Y298171D01*
X404074Y298237D01*
X404848Y298285D01*
X405624Y298313D01*
X406400Y298323D01*
X407176Y298313D01*
X407952Y298285D01*
X408726Y298237D01*
X409500Y298171D01*
X410271Y298085D01*
X411040Y297981D01*
X411806Y297857D01*
X412569Y297715D01*
X413329Y297555D01*
X414084Y297375D01*
X414834Y297177D01*
X415580Y296961D01*
X416320Y296727D01*
X417053Y296474D01*
X417781Y296204D01*
X418502Y295916D01*
X419215Y295610D01*
X419921Y295287D01*
X420618Y294946D01*
X421307Y294589D01*
X421987Y294215D01*
X422657Y293824D01*
X423318Y293417D01*
X423969Y292994D01*
X424609Y292554D01*
X425238Y292100D01*
X425855Y291630D01*
X426461Y291145D01*
X427055Y290645D01*
X427637Y290131D01*
X428205Y289603D01*
X428761Y289061D01*
X429303Y288505D01*
X429831Y287937D01*
X430345Y287355D01*
X430845Y286761D01*
X431330Y286155D01*
X431800Y285538D01*
X432254Y284909D01*
X432694Y284269D01*
X433117Y283618D01*
X433524Y282957D01*
X433915Y282287D01*
X434289Y281607D01*
X434646Y280918D01*
X434987Y280221D01*
X435310Y279515D01*
X435616Y278802D01*
X435904Y278081D01*
X436174Y277353D01*
X436427Y276620D01*
X436661Y275880D01*
X436877Y275134D01*
X437075Y274384D01*
X437255Y273629D01*
X437415Y272869D01*
X437557Y272106D01*
X437681Y271340D01*
X437785Y270571D01*
X437871Y269800D01*
X437937Y269026D01*
X437985Y268252D01*
X438013Y267476D01*
X438023Y266700D01*
X438013Y265924D01*
X437985Y265148D01*
X437937Y264374D01*
X437871Y263600D01*
X437785Y262829D01*
X437681Y262060D01*
X437557Y261294D01*
X437415Y260531D01*
X437255Y259771D01*
X437075Y259016D01*
X436877Y258266D01*
X436661Y257520D01*
X436427Y256780D01*
X436174Y256047D01*
X435904Y255319D01*
X435616Y254598D01*
X435310Y253885D01*
X434987Y253179D01*
X434646Y252482D01*
X434289Y251793D01*
X433915Y251113D01*
X433524Y250443D01*
X433117Y249782D01*
X432694Y249131D01*
X432254Y248491D01*
X431800Y247862D01*
X431330Y247245D01*
X430845Y246639D01*
X430345Y246045D01*
X429831Y245463D01*
X429303Y244895D01*
X428761Y244339D01*
X428205Y243797D01*
X427637Y243269D01*
X427055Y242755D01*
X426461Y242255D01*
X425855Y241770D01*
X425238Y241300D01*
X424609Y240846D01*
X423969Y240406D01*
X423318Y239983D01*
X422657Y239576D01*
X421987Y239185D01*
X421307Y238811D01*
X420618Y238454D01*
X419921Y238113D01*
X419215Y237790D01*
X418502Y237484D01*
X417781Y237196D01*
X417053Y236926D01*
X416320Y236673D01*
X415580Y236439D01*
X414834Y236223D01*
X414084Y236025D01*
X413329Y235845D01*
X412569Y235685D01*
X411806Y235543D01*
X411040Y235419D01*
X410271Y235315D01*
X409500Y235229D01*
X408726Y235163D01*
X407952Y235115D01*
X407176Y235087D01*
X406400Y235077D01*
X405624Y235087D01*
X404848Y235115D01*
X404074Y235163D01*
X403300Y235229D01*
X402529Y235315D01*
X401760Y235419D01*
X400994Y235543D01*
X400231Y235685D01*
X399471Y235845D01*
X398716Y236025D01*
X397966Y236223D01*
X397220Y236439D01*
X396480Y236673D01*
X395747Y236926D01*
X395019Y237196D01*
X394298Y237484D01*
X393585Y237790D01*
X392879Y238113D01*
X392182Y238454D01*
X391493Y238811D01*
X390813Y239185D01*
X390143Y239576D01*
X389482Y239983D01*
X388831Y240406D01*
X388191Y240846D01*
X387562Y241300D01*
X386945Y241770D01*
X386339Y242255D01*
X385745Y242755D01*
X385163Y243269D01*
X384595Y243797D01*
X384039Y244339D01*
X383497Y244895D01*
X382969Y245463D01*
X382455Y246045D01*
X381955Y246639D01*
X381470Y247245D01*
X381000Y247862D01*
X380546Y248491D01*
X380106Y249131D01*
X379683Y249782D01*
X379276Y250443D01*
X378885Y251113D01*
X378511Y251793D01*
X378154Y252482D01*
X377813Y253179D01*
X377490Y253885D01*
X377184Y254598D01*
X376896Y255319D01*
X376626Y256047D01*
X376373Y256780D01*
X376139Y257520D01*
X375923Y258266D01*
X375725Y259016D01*
X375545Y259771D01*
X375385Y260531D01*
X375243Y261294D01*
X375119Y262060D01*
X375015Y262829D01*
X374929Y263600D01*
X374863Y264374D01*
X374815Y265148D01*
X374787Y265924D01*
X374777Y266700D01*
X391400Y306700D02*
X391400Y326700D01*
X391400Y306700D02*
X421400Y306700D01*
X421400Y326700D01*
X379493Y266700D02*
X379501Y267360D01*
X379525Y268020D01*
X379566Y268679D01*
X379623Y269337D01*
X379695Y269994D01*
X379784Y270648D01*
X379889Y271300D01*
X380010Y271949D01*
X380147Y272595D01*
X380299Y273238D01*
X380468Y273876D01*
X380652Y274511D01*
X380851Y275140D01*
X381066Y275765D01*
X381296Y276384D01*
X381541Y276997D01*
X381801Y277604D01*
X382076Y278204D01*
X382366Y278798D01*
X382670Y279384D01*
X382989Y279962D01*
X383321Y280533D01*
X383668Y281095D01*
X384028Y281649D01*
X384401Y282193D01*
X384788Y282728D01*
X385188Y283254D01*
X385601Y283770D01*
X386026Y284275D01*
X386463Y284770D01*
X386913Y285253D01*
X387374Y285726D01*
X387847Y286187D01*
X388330Y286637D01*
X388825Y287074D01*
X389330Y287499D01*
X389846Y287912D01*
X390372Y288312D01*
X390907Y288699D01*
X391451Y289072D01*
X392005Y289432D01*
X392567Y289779D01*
X393138Y290111D01*
X393716Y290430D01*
X394302Y290734D01*
X394896Y291024D01*
X395496Y291299D01*
X396103Y291559D01*
X396716Y291804D01*
X397335Y292034D01*
X397960Y292249D01*
X398589Y292448D01*
X399224Y292632D01*
X399862Y292801D01*
X400505Y292953D01*
X401151Y293090D01*
X401800Y293211D01*
X402452Y293316D01*
X403106Y293405D01*
X403763Y293477D01*
X404421Y293534D01*
X405080Y293575D01*
X405740Y293599D01*
X406400Y293607D01*
X407060Y293599D01*
X407720Y293575D01*
X408379Y293534D01*
X409037Y293477D01*
X409694Y293405D01*
X410348Y293316D01*
X411000Y293211D01*
X411649Y293090D01*
X412295Y292953D01*
X412938Y292801D01*
X413576Y292632D01*
X414211Y292448D01*
X414840Y292249D01*
X415465Y292034D01*
X416084Y291804D01*
X416697Y291559D01*
X417304Y291299D01*
X417904Y291024D01*
X418498Y290734D01*
X419084Y290430D01*
X419662Y290111D01*
X420233Y289779D01*
X420795Y289432D01*
X421349Y289072D01*
X421893Y288699D01*
X422428Y288312D01*
X422954Y287912D01*
X423470Y287499D01*
X423975Y287074D01*
X424470Y286637D01*
X424953Y286187D01*
X425426Y285726D01*
X425887Y285253D01*
X426337Y284770D01*
X426774Y284275D01*
X427199Y283770D01*
X427612Y283254D01*
X428012Y282728D01*
X428399Y282193D01*
X428772Y281649D01*
X429132Y281095D01*
X429479Y280533D01*
X429811Y279962D01*
X430130Y279384D01*
X430434Y278798D01*
X430724Y278204D01*
X430999Y277604D01*
X431259Y276997D01*
X431504Y276384D01*
X431734Y275765D01*
X431949Y275140D01*
X432148Y274511D01*
X432332Y273876D01*
X432501Y273238D01*
X432653Y272595D01*
X432790Y271949D01*
X432911Y271300D01*
X433016Y270648D01*
X433105Y269994D01*
X433177Y269337D01*
X433234Y268679D01*
X433275Y268020D01*
X433299Y267360D01*
X433307Y266700D01*
X433299Y266040D01*
X433275Y265380D01*
X433234Y264721D01*
X433177Y264063D01*
X433105Y263406D01*
X433016Y262752D01*
X432911Y262100D01*
X432790Y261451D01*
X432653Y260805D01*
X432501Y260162D01*
X432332Y259524D01*
X432148Y258889D01*
X431949Y258260D01*
X431734Y257635D01*
X431504Y257016D01*
X431259Y256403D01*
X430999Y255796D01*
X430724Y255196D01*
X430434Y254602D01*
X430130Y254016D01*
X429811Y253438D01*
X429479Y252867D01*
X429132Y252305D01*
X428772Y251751D01*
X428399Y251207D01*
X428012Y250672D01*
X427612Y250146D01*
X427199Y249630D01*
X426774Y249125D01*
X426337Y248630D01*
X425887Y248147D01*
X425426Y247674D01*
X424953Y247213D01*
X424470Y246763D01*
X423975Y246326D01*
X423470Y245901D01*
X422954Y245488D01*
X422428Y245088D01*
X421893Y244701D01*
X421349Y244328D01*
X420795Y243968D01*
X420233Y243621D01*
X419662Y243289D01*
X419084Y242970D01*
X418498Y242666D01*
X417904Y242376D01*
X417304Y242101D01*
X416697Y241841D01*
X416084Y241596D01*
X415465Y241366D01*
X414840Y241151D01*
X414211Y240952D01*
X413576Y240768D01*
X412938Y240599D01*
X412295Y240447D01*
X411649Y240310D01*
X411000Y240189D01*
X410348Y240084D01*
X409694Y239995D01*
X409037Y239923D01*
X408379Y239866D01*
X407720Y239825D01*
X407060Y239801D01*
X406400Y239793D01*
X405740Y239801D01*
X405080Y239825D01*
X404421Y239866D01*
X403763Y239923D01*
X403106Y239995D01*
X402452Y240084D01*
X401800Y240189D01*
X401151Y240310D01*
X400505Y240447D01*
X399862Y240599D01*
X399224Y240768D01*
X398589Y240952D01*
X397960Y241151D01*
X397335Y241366D01*
X396716Y241596D01*
X396103Y241841D01*
X395496Y242101D01*
X394896Y242376D01*
X394302Y242666D01*
X393716Y242970D01*
X393138Y243289D01*
X392567Y243621D01*
X392005Y243968D01*
X391451Y244328D01*
X390907Y244701D01*
X390372Y245088D01*
X389846Y245488D01*
X389330Y245901D01*
X388825Y246326D01*
X388330Y246763D01*
X387847Y247213D01*
X387374Y247674D01*
X386913Y248147D01*
X386463Y248630D01*
X386026Y249125D01*
X385601Y249630D01*
X385188Y250146D01*
X384788Y250672D01*
X384401Y251207D01*
X384028Y251751D01*
X383668Y252305D01*
X383321Y252867D01*
X382989Y253438D01*
X382670Y254016D01*
X382366Y254602D01*
X382076Y255196D01*
X381801Y255796D01*
X381541Y256403D01*
X381296Y257016D01*
X381066Y257635D01*
X380851Y258260D01*
X380652Y258889D01*
X380468Y259524D01*
X380299Y260162D01*
X380147Y260805D01*
X380010Y261451D01*
X379889Y262100D01*
X379784Y262752D01*
X379695Y263406D01*
X379623Y264063D01*
X379566Y264721D01*
X379525Y265380D01*
X379501Y266040D01*
X379493Y266700D01*
X404400Y220700D02*
X404400Y199700D01*
X408400Y199700D01*
X408400Y221700D01*
D11*
X260350Y171450D02*
X247650Y171450D01*
X260350Y171450D02*
X266700Y165100D01*
X266700Y152400D01*
X260350Y146050D01*
X241300Y152400D02*
X241300Y165100D01*
X247650Y171450D01*
X241300Y152400D02*
X247650Y146050D01*
X260350Y146050D01*
X266700Y165100D02*
X273050Y171450D01*
X285750Y171450D01*
X292100Y165100D01*
X292100Y152400D01*
X285750Y146050D01*
X273050Y146050D01*
X266700Y152400D01*
X463550Y311150D02*
X469900Y317500D01*
X463550Y298450D02*
X469900Y292100D01*
X463550Y285750D01*
X463550Y273050D02*
X469900Y266700D01*
X469900Y317500D02*
X508000Y317500D01*
X514350Y311150D01*
X514350Y298450D01*
X508000Y292100D01*
X514350Y285750D01*
X514350Y273050D01*
X508000Y266700D01*
X508000Y292100D02*
X469900Y292100D01*
X469900Y266700D02*
X508000Y266700D01*
X463550Y273050D02*
X463550Y285750D01*
X463550Y298450D02*
X463550Y311150D01*
X469900Y266700D02*
X463550Y260350D01*
X463550Y247650D02*
X469900Y241300D01*
X508000Y266700D02*
X514350Y260350D01*
X514350Y247650D01*
X508000Y241300D01*
X469900Y241300D01*
X463550Y247650D02*
X463550Y260350D01*
X19050Y317500D02*
X12700Y311150D01*
X12700Y298450D02*
X19050Y292100D01*
X12700Y285750D01*
X12700Y273050D02*
X19050Y266700D01*
X19050Y317500D02*
X57150Y317500D01*
X63500Y311150D01*
X63500Y298450D01*
X57150Y292100D01*
X63500Y285750D01*
X63500Y273050D01*
X57150Y266700D01*
X57150Y292100D02*
X19050Y292100D01*
X19050Y266700D02*
X57150Y266700D01*
X12700Y273050D02*
X12700Y285750D01*
X12700Y298450D02*
X12700Y311150D01*
X19050Y266700D02*
X12700Y260350D01*
X12700Y247650D02*
X19050Y241300D01*
X57150Y266700D02*
X63500Y260350D01*
X63500Y247650D01*
X57150Y241300D01*
X19050Y241300D01*
X12700Y247650D02*
X12700Y260350D01*
M02*
